<?xml version="1.0" encoding="utf-8"?>
<!-- Generator: Adobe Illustrator 21.1.0, SVG Export Plug-In . SVG Version: 6.00 Build 0)  -->
<svg version="1.1" id="Layer_1" xmlns="http://www.w3.org/2000/svg" xmlns:xlink="http://www.w3.org/1999/xlink" x="0px" y="0px"
	 viewBox="0 0 68.7 68.7" style="enable-background:new 0 0 68.7 68.7;" xml:space="preserve">
<style type="text/css">
	.st0{fill:#A51635;}
</style>
<title>ahitlogo</title>
<path class="st0" d="M61.5,0H7.2C3.2,0,0,3.2,0,7.2c0,0,0,0,0,0v54.2c0,4,3.2,7.2,7.2,7.2c0,0,0,0,0,0h54.2c4,0,7.2-3.2,7.2-7.2V7.2
	C68.7,3.2,65.5,0,61.5,0z M46.2,56.5l-3.8-10.9H29.3v0c0,0,0.2-0.8,0.5-1.4s0.2-1.2-0.3-1.3s-0.4-0.6-0.1-0.8s1.1-0.5,3-1.4
	s0.7-1.6,0.1-2c-0.3-0.3-0.5-0.7-0.4-1.2h7.3l-5-14.2l-4.7,13.3l0,0c0,0-0.6,1.4,0.1,2s1.9,1.1-0.1,2s-2.7,1.2-3,1.4
	s-0.5,0.7,0.1,0.8s0.5,0.7,0.3,1.3l-0.4,0.9l0,0l-4,11.4h-8.6l4-11.3l0,0l0.4-1c0.2-0.6,0.2-1.2-0.3-1.3S18,42.2,18.3,42
	s1.1-0.5,3-1.4s0.7-1.6,0.1-2s-0.1-2-0.1-2l0.1-0.2l8.9-25.4h8.6l9,25.7c0,0.1,0,0.1,0.1,0.2l0,0c0.3,0.7,0.8,1.3,1.4,1.7
	c1.2,0.8,3.7,1.2,1.8,2.1c-0.8,0.3-1.6,0.7-2.3,1.2c-0.3,0.2-0.3,0.7,0.3,1s1.1,0.4,1.3,1.1s0.3,1,0.3,1v0.1l4,11.4L46.2,56.5z"/>
</svg>
