<svg id="Layer_1" data-name="Layer 1" xmlns="http://www.w3.org/2000/svg" xmlns:xlink="http://www.w3.org/1999/xlink" viewBox="0 0 68.71 68.71"><defs><style>.cls-1{fill:url(#linear-gradient);}</style><linearGradient id="linear-gradient" x1="34.36" y1="0.17" x2="34.36" y2="68.88" gradientUnits="userSpaceOnUse"><stop offset="0" stop-color="#c6c6c6"/><stop offset="1" stop-color="#575756"/></linearGradient></defs><title>ahdlogo</title><path class="cls-1" d="M61.48.17H7.23A7.23,7.23,0,0,0,0,7.4V61.65a7.23,7.23,0,0,0,7.23,7.23H61.48a7.23,7.23,0,0,0,7.23-7.23V7.4A7.23,7.23,0,0,0,61.48.17ZM46.22,56.68,42.39,45.79H29.31v-.05s.24-.76.49-1.38.24-1.18-.28-1.28-.38-.56-.07-.76,1.08-.49,3-1.42.69-1.56.07-2a1.2,1.2,0,0,1-.36-1.16h7.35l-5-14.18L29.84,36.84v0s-.62,1.39.14,2,1.87,1.11-.07,2-2.7,1.21-3,1.42-.45.66.07.76.52.66.28,1.28l-.37.94,0,0-4,11.36H14.26l4-11.34v0l.38-1c.24-.62.24-1.18-.28-1.28s-.38-.56-.07-.76,1.07-.49,3-1.42.69-1.56.07-2-.15-2-.15-2l.06-.15,8.95-25.4h8.6l9,25.65a1.16,1.16,0,0,0,.07.19v0a3.88,3.88,0,0,0,1.42,1.68c1.16.81,3.71,1.18,1.77,2.12a16.51,16.51,0,0,0-2.32,1.21c-.31.21-.31.69.32,1s1.13.44,1.34,1.07.31,1,.31,1l0,.08,4,11.42Z" transform="translate(0 -0.17)"/></svg>