<svg width="286" height="467" viewBox="0 0 286 467" fill="none" xmlns="http://www.w3.org/2000/svg">
<path d="M244.185 3.62231L143.266 49.4578L25.8628 102.798C10.5843 109.768 0.800781 124.912 0.800781 141.799V233.738V425.121L79.8737 389.203L143.4 418.018L244.318 463.853C263.886 472.699 285.999 458.492 285.999 437.049V233.738V30.4267C285.865 8.98318 263.618 -5.35715 244.185 3.62231Z" fill="#FFE600"/>
<path d="M40.3356 133.222C45.0263 133.222 49.1811 134.964 52.5317 138.315C55.8822 141.665 57.6242 145.82 57.6242 150.51C57.6242 155.201 55.8822 159.356 52.5317 162.706C49.1811 166.057 45.0263 167.799 40.3356 167.799C35.6448 167.799 31.49 166.057 28.1394 162.706C24.7889 159.356 23.0469 155.201 23.0469 150.51C23.0469 145.82 24.7889 141.665 28.1394 138.315C31.49 134.964 35.6448 133.222 40.3356 133.222ZM56.1502 284.398H24.7889V182.944H56.1502V284.398Z" fill="#202121"/>
<path d="M148.89 204.254H112.57V247.007C112.57 251.965 113.91 255.852 116.591 258.666C119.271 261.615 123.024 262.955 127.982 262.955C131.333 262.955 134.55 262.553 137.766 261.615C140.983 260.811 144.735 259.203 148.89 257.058V279.708C143.395 281.986 138.436 283.594 134.013 284.533C129.591 285.471 124.9 285.873 119.941 285.873C114.714 285.873 109.89 285.203 105.199 283.863C100.508 282.522 96.3534 280.512 92.8688 277.563C89.3843 274.749 86.5698 270.862 84.4254 266.038C82.2811 261.213 81.3432 255.316 81.3432 248.481V203.986H67.1367V197.955L108.818 151.315H112.704V182.676H149.024V204.254H148.89Z" fill="#202121"/>
<path d="M154.523 182.944H188.029L209.204 237.759L230.648 182.944H263.885L218.05 284.398H200.493L154.523 182.944Z" fill="#202121"/>
<path d="M79.7383 389.204L244.183 463.854C263.75 472.699 285.864 458.493 285.864 437.049V295.522L79.7383 389.204Z" fill="url(#paint0_linear_714_3)"/>
<defs>
<linearGradient id="paint0_linear_714_3" x1="79.7168" y1="381.032" x2="285.815" y2="381.032" gradientUnits="userSpaceOnUse">
<stop offset="0.00102588" stop-color="#EFCD00"/>
<stop offset="0.1998" stop-color="#F6D600"/>
<stop offset="0.6066" stop-color="#FFE200"/>
<stop offset="1" stop-color="#FFE600"/>
</linearGradient>
</defs>
</svg>
