<svg id="svg" version="1.1" xmlns="http://www.w3.org/2000/svg" xmlns:xlink="http://www.w3.org/1999/xlink" width="400" height="400" viewBox="0, 0, 400,400"><g id="svgg"><path id="path0" d="M115.938 153.139 C 114.142 153.233,112.700 153.417,112.188 153.616 C 111.729 153.794,110.998 153.944,110.563 153.949 C 110.127 153.954,109.515 154.091,109.201 154.253 C 108.888 154.415,108.260 154.617,107.805 154.701 C 107.351 154.785,106.792 154.971,106.563 155.114 C 106.333 155.257,105.911 155.438,105.625 155.517 C 103.970 155.974,100.157 158.117,98.229 159.672 C 95.925 161.531,91.875 165.931,91.875 166.575 C 91.875 166.665,91.746 166.886,91.588 167.067 C 91.026 167.710,89.258 171.420,88.451 173.646 C 87.466 176.366,87.847 177.036,90.938 178.021 C 92.765 178.604,93.618 178.921,94.896 179.492 C 95.240 179.646,95.915 179.873,96.397 179.996 C 96.880 180.119,97.330 180.311,97.399 180.422 C 97.468 180.534,97.778 180.625,98.088 180.625 C 98.398 180.625,99.002 180.813,99.429 181.042 C 100.492 181.611,102.055 181.600,102.796 181.017 C 103.259 180.653,104.583 178.307,104.583 177.851 C 104.583 177.704,106.236 175.231,106.577 174.867 C 106.699 174.736,107.027 174.358,107.306 174.027 C 108.544 172.556,111.971 170.417,113.090 170.417 C 113.310 170.417,113.900 170.257,114.401 170.061 C 115.774 169.525,124.169 169.518,125.146 170.052 C 125.513 170.253,125.992 170.417,126.210 170.417 C 127.272 170.417,131.079 172.934,131.791 174.107 C 131.984 174.426,132.299 174.922,132.489 175.208 C 134.286 177.910,134.232 183.952,132.383 187.292 C 131.931 188.107,129.274 190.833,128.931 190.833 C 128.809 190.833,128.456 191.015,128.144 191.236 C 127.833 191.458,127.303 191.705,126.966 191.786 C 126.630 191.866,126.252 192.012,126.128 192.109 C 125.445 192.643,122.371 192.983,117.143 193.103 C 112.280 193.215,111.640 193.270,111.309 193.601 C 110.746 194.165,110.737 207.595,111.300 208.007 C 111.556 208.194,113.084 208.307,116.508 208.393 C 130.312 208.738,135.699 213.487,134.578 224.324 C 134.398 226.063,134.253 226.603,133.555 228.125 C 132.273 230.926,128.801 233.599,125.260 234.514 C 122.321 235.273,116.277 235.359,114.322 234.669 C 113.864 234.507,113.308 234.375,113.087 234.375 C 112.866 234.375,112.245 234.184,111.707 233.951 C 107.758 232.241,105.016 229.639,103.261 225.938 C 102.936 225.250,102.537 224.439,102.376 224.135 C 102.215 223.830,102.083 223.475,102.083 223.345 C 102.083 221.796,99.321 221.027,97.188 221.983 C 96.094 222.472,93.828 223.333,93.634 223.333 C 93.403 223.333,91.338 224.121,90.625 224.481 C 90.339 224.625,89.787 224.811,89.399 224.895 C 86.071 225.607,85.481 227.147,86.964 231.250 C 89.289 237.683,94.171 243.719,99.427 246.661 C 100.086 247.030,100.677 247.416,100.741 247.520 C 100.806 247.624,100.988 247.708,101.147 247.708 C 101.306 247.708,102.121 248.025,102.958 248.412 C 110.307 251.812,121.616 252.726,130.104 250.606 C 130.563 250.491,131.313 250.305,131.771 250.191 C 134.515 249.512,140.253 246.737,142.604 244.953 C 146.455 242.031,149.301 238.771,150.980 235.359 C 152.341 232.595,152.708 231.747,152.708 231.373 C 152.708 231.179,152.836 230.768,152.993 230.458 C 153.267 229.917,153.615 228.055,153.974 225.208 C 155.227 215.284,150.890 206.341,142.917 202.404 C 142.286 202.093,141.536 201.719,141.250 201.572 C 140.964 201.426,140.465 201.244,140.141 201.166 C 139.343 200.976,139.513 200.661,140.739 200.057 C 141.307 199.778,141.911 199.462,142.083 199.356 C 142.255 199.250,142.630 199.051,142.917 198.913 C 146.767 197.057,150.542 192.062,152.173 186.667 C 153.064 183.716,153.068 175.742,152.180 172.708 C 150.971 168.582,150.181 166.782,148.560 164.463 C 147.059 162.316,142.478 157.917,141.742 157.917 C 141.637 157.917,141.319 157.753,141.036 157.552 C 140.753 157.352,140.240 157.081,139.896 156.951 C 138.381 156.377,135.829 155.257,135.583 155.057 C 135.434 154.937,134.891 154.770,134.375 154.686 C 133.859 154.603,133.184 154.405,132.875 154.246 C 132.566 154.088,131.909 153.954,131.417 153.949 C 130.924 153.944,130.146 153.797,129.688 153.623 C 129.127 153.410,127.523 153.246,124.792 153.123 C 120.307 152.920,120.112 152.920,115.938 153.139 M195.521 153.325 C 195.063 153.414,193.844 153.639,192.813 153.824 C 189.459 154.425,185.135 155.914,182.708 157.302 C 180.666 158.471,179.860 159.002,178.438 160.116 C 174.332 163.331,171.683 166.552,169.540 170.938 C 169.316 171.396,169.057 171.918,168.963 172.098 C 167.454 175.002,166.279 180.007,166.006 184.688 C 165.750 189.066,165.927 222.994,166.213 224.479 C 166.785 227.450,166.940 228.138,167.342 229.479 C 167.908 231.370,168.742 233.592,168.980 233.844 C 169.082 233.953,169.167 234.168,169.167 234.322 C 169.167 235.584,173.428 241.380,175.960 243.562 C 178.559 245.802,181.501 247.588,184.688 248.859 C 187.193 249.859,189.426 250.543,190.938 250.774 C 191.281 250.827,192.629 251.049,193.933 251.268 C 198.734 252.075,209.621 251.578,211.828 250.450 C 212.026 250.350,212.516 250.205,212.917 250.130 C 215.234 249.694,220.890 246.872,223.365 244.916 C 223.669 244.676,224.212 244.254,224.573 243.979 C 226.019 242.875,228.333 240.316,229.896 238.091 C 230.557 237.150,232.292 234.195,232.292 234.009 C 232.292 233.949,232.468 233.515,232.683 233.044 C 233.364 231.552,233.958 229.902,233.967 229.475 C 233.973 229.248,234.115 228.688,234.283 228.229 C 235.339 225.360,235.458 210.750,234.439 209.102 C 234.358 208.971,234.176 208.299,234.034 207.609 C 233.748 206.220,233.249 204.602,232.812 203.646 C 230.762 199.156,229.486 197.187,226.911 194.538 C 225.941 193.539,224.762 192.462,224.292 192.145 C 223.822 191.828,223.109 191.317,222.708 191.010 C 221.738 190.267,219.199 188.974,217.396 188.304 C 214.922 187.385,214.510 187.254,213.540 187.082 C 213.024 186.991,212.040 186.745,211.353 186.536 C 209.515 185.976,199.455 185.964,197.652 186.519 C 196.990 186.723,196.053 186.974,195.568 187.077 C 194.592 187.285,192.570 187.967,191.957 188.295 C 191.740 188.412,191.047 188.760,190.417 189.069 C 189.048 189.740,187.021 191.090,186.150 191.912 C 184.936 193.056,184.892 192.906,184.928 187.704 C 184.945 185.128,185.059 182.646,185.180 182.188 C 185.732 180.092,186.068 179.013,186.356 178.406 C 186.527 178.045,186.667 177.683,186.667 177.601 C 186.667 176.462,190.524 172.498,192.654 171.448 C 200.907 167.380,211.441 169.890,214.883 176.746 C 215.771 178.516,216.680 179.583,217.298 179.583 C 217.820 179.583,219.868 179.043,220.375 178.772 C 220.597 178.653,221.143 178.465,221.588 178.353 C 222.032 178.242,223.052 177.908,223.854 177.610 C 224.656 177.312,226.250 176.754,227.396 176.370 C 232.373 174.700,232.945 174.039,231.754 171.328 C 228.548 164.025,224.505 159.596,218.203 156.482 C 217.272 156.022,216.241 155.582,215.912 155.503 C 215.582 155.424,215.209 155.278,215.083 155.179 C 214.771 154.936,211.569 154.077,209.271 153.620 C 207.235 153.216,197.188 153.000,195.521 153.325 M274.896 153.336 C 274.323 153.431,272.954 153.651,271.855 153.823 C 269.835 154.140,268.003 154.587,266.667 155.090 C 266.266 155.241,265.375 155.571,264.688 155.823 C 261.644 156.941,258.421 158.921,256.012 161.154 C 254.971 162.120,252.917 164.442,252.917 164.654 C 252.917 164.732,252.584 165.269,252.178 165.847 C 251.772 166.425,251.350 167.103,251.241 167.355 C 251.132 167.607,250.963 167.953,250.865 168.125 C 250.048 169.558,248.804 173.105,248.343 175.313 C 247.340 180.124,247.396 178.530,247.396 202.396 C 247.396 220.002,247.453 224.928,247.668 225.833 C 247.817 226.464,248.072 227.682,248.233 228.542 C 249.324 234.339,251.858 239.248,255.724 243.056 C 259.185 246.465,259.387 246.507,265.000 244.999 C 266.326 244.642,270.646 243.568,272.917 243.030 C 274.445 242.668,275.900 242.300,277.292 241.925 C 277.922 241.754,278.953 241.495,279.583 241.348 C 280.214 241.201,281.410 240.887,282.241 240.651 C 283.073 240.415,284.432 240.028,285.262 239.792 C 286.092 239.555,287.146 239.270,287.604 239.158 C 288.356 238.974,289.521 238.644,292.292 237.828 C 292.807 237.676,293.979 237.342,294.896 237.085 C 295.813 236.829,296.891 236.501,297.292 236.358 C 297.693 236.214,298.865 235.841,299.896 235.528 C 300.927 235.216,302.005 234.875,302.292 234.771 C 302.578 234.667,303.281 234.448,303.854 234.286 C 304.427 234.123,305.552 233.788,306.354 233.542 C 307.156 233.295,308.234 232.965,308.750 232.809 C 309.266 232.652,310.344 232.280,311.146 231.982 C 311.948 231.684,313.073 231.295,313.646 231.117 C 316.628 230.190,316.771 228.859,316.771 202.083 C 316.771 179.828,316.756 179.510,315.520 174.583 C 313.429 166.249,308.536 160.027,301.503 156.763 C 300.619 156.352,299.735 155.929,299.538 155.823 C 299.342 155.717,298.826 155.541,298.392 155.431 C 297.959 155.322,297.182 155.095,296.667 154.928 C 292.446 153.562,289.944 153.258,282.500 153.207 C 278.891 153.182,275.469 153.240,274.896 153.336 M288.021 170.196 C 293.195 171.519,296.210 174.673,297.095 179.688 C 297.929 184.414,297.917 184.087,297.917 202.357 C 297.917 226.091,297.616 228.013,293.259 232.092 C 289.558 235.557,279.237 236.259,273.642 233.427 C 270.812 231.994,267.839 228.260,267.183 225.313 C 267.106 224.969,266.913 224.313,266.753 223.854 C 265.674 220.759,265.447 187.503,266.468 182.086 C 266.759 180.539,267.322 178.673,267.629 178.235 C 267.787 178.009,267.919 177.681,267.921 177.506 C 267.943 176.017,271.643 172.126,274.039 171.071 C 277.512 169.543,283.899 169.143,288.021 170.196 M205.136 201.563 C 205.548 201.734,206.025 201.875,206.197 201.875 C 207.390 201.875,210.594 203.918,212.292 205.762 C 218.767 212.794,217.831 227.215,210.565 232.347 C 203.482 237.350,191.720 235.525,187.382 228.750 C 184.081 223.597,183.843 215.014,186.832 208.958 C 188.325 205.932,192.489 202.495,195.298 201.968 C 195.698 201.893,196.380 201.705,196.814 201.550 C 197.980 201.134,204.133 201.143,205.136 201.563 M312.182 234.661 C 311.956 234.818,311.475 235.011,311.114 235.090 C 310.753 235.168,310.100 235.415,309.664 235.637 C 309.227 235.860,308.721 236.042,308.539 236.042 C 308.357 236.042,308.119 236.129,308.010 236.236 C 307.902 236.343,306.969 236.716,305.938 237.065 C 304.906 237.414,303.406 237.943,302.604 238.240 C 301.802 238.538,300.724 238.908,300.208 239.063 C 299.693 239.217,298.615 239.591,297.813 239.894 C 297.010 240.196,295.979 240.545,295.521 240.669 C 295.063 240.793,294.590 240.969,294.471 241.061 C 294.352 241.153,293.883 241.322,293.429 241.436 C 292.583 241.648,291.085 242.124,289.792 242.590 C 289.027 242.866,287.412 243.371,284.792 244.154 C 283.932 244.411,282.948 244.717,282.604 244.834 C 282.260 244.951,281.557 245.171,281.042 245.322 C 280.526 245.474,279.823 245.693,279.479 245.810 C 279.135 245.928,278.151 246.223,277.292 246.468 C 276.432 246.712,275.073 247.099,274.271 247.327 C 270.609 248.370,270.066 248.520,269.479 248.647 C 268.798 248.795,267.421 249.573,267.572 249.725 C 268.430 250.582,278.527 251.773,283.438 251.596 C 286.904 251.471,291.573 250.966,293.333 250.526 C 293.964 250.368,294.901 250.146,295.417 250.031 C 296.479 249.795,298.135 249.259,299.063 248.851 C 299.406 248.700,300.290 248.322,301.027 248.010 C 305.381 246.168,310.063 242.075,312.131 238.304 C 313.986 234.921,314.131 234.375,313.171 234.375 C 312.853 234.375,312.408 234.504,312.182 234.661 " stroke="none" fill="#f7f6f6" fill-rule="evenodd"></path><path id="path1" d="M0.000 200.000 L 0.000 400.000 200.000 400.000 L 400.000 400.000 400.000 200.000 L 400.000 0.000 200.000 0.000 L 0.000 0.000 0.000 200.000 M202.656 136.185 C 202.456 136.238,202.128 136.238,201.927 136.185 C 201.727 136.133,201.891 136.090,202.292 136.090 C 202.693 136.090,202.857 136.133,202.656 136.185 M200.208 136.853 C 200.208 137.105,199.675 137.292,198.954 137.292 C 198.357 137.292,198.020 137.050,198.270 136.800 C 198.475 136.595,200.208 136.642,200.208 136.853 M197.500 137.684 C 197.500 137.926,196.751 138.119,195.794 138.122 C 195.048 138.125,194.664 137.906,194.936 137.633 C 195.141 137.428,197.500 137.475,197.500 137.684 M194.271 138.334 C 194.446 138.617,193.484 138.958,192.512 138.958 C 192.072 138.958,191.606 139.093,191.467 139.261 C 191.329 139.427,190.778 139.626,190.243 139.704 C 189.708 139.781,189.170 139.924,189.046 140.022 C 188.923 140.120,188.220 140.333,187.484 140.497 C 186.748 140.660,185.865 140.890,185.521 141.008 C 184.654 141.305,179.808 142.778,177.917 143.319 C 177.057 143.564,176.073 143.864,175.729 143.984 C 175.385 144.105,174.770 144.285,174.361 144.386 C 173.953 144.486,173.343 144.712,173.007 144.887 C 172.671 145.062,172.161 145.207,171.875 145.208 C 171.589 145.210,171.079 145.354,170.743 145.530 C 170.407 145.705,169.797 145.933,169.389 146.036 C 168.980 146.140,167.990 146.465,167.188 146.761 C 166.385 147.056,165.260 147.430,164.688 147.593 C 163.299 147.987,161.853 148.498,161.413 148.749 C 161.217 148.861,160.701 149.042,160.267 149.151 C 159.834 149.260,158.870 149.580,158.125 149.863 C 156.854 150.345,156.408 150.507,154.583 151.149 C 154.182 151.290,153.315 151.605,152.656 151.849 C 151.997 152.092,150.966 152.474,150.365 152.696 C 149.763 152.919,148.425 153.434,147.391 153.842 C 146.357 154.250,145.426 154.583,145.322 154.583 C 145.217 154.583,144.750 154.763,144.285 154.982 C 143.550 155.328,142.767 155.652,140.681 156.471 L 140.217 156.654 140.705 157.181 C 140.974 157.471,141.288 157.708,141.404 157.708 C 141.734 157.708,145.208 160.429,146.060 161.354 C 148.290 163.778,151.020 167.970,151.049 169.017 C 151.053 169.157,151.237 169.646,151.458 170.104 C 151.680 170.563,151.864 171.137,151.868 171.380 C 151.872 171.623,152.015 172.219,152.185 172.703 C 152.998 175.004,153.120 183.062,152.384 185.729 C 152.194 186.417,151.954 187.334,151.850 187.767 C 151.746 188.201,151.577 188.717,151.474 188.913 C 151.371 189.110,151.021 189.833,150.697 190.521 C 149.000 194.112,145.475 197.735,142.083 199.372 C 141.568 199.621,141.005 199.911,140.833 200.017 C 140.661 200.123,140.310 200.301,140.052 200.412 C 139.418 200.686,139.462 201.005,140.156 201.170 C 140.778 201.318,141.170 201.490,142.917 202.384 C 151.938 206.996,155.657 216.060,153.547 228.296 C 152.042 237.024,144.673 245.372,135.313 248.953 C 135.083 249.041,134.261 249.359,133.485 249.660 C 132.710 249.962,131.925 250.208,131.743 250.208 C 131.560 250.208,130.976 250.348,130.445 250.519 C 127.271 251.538,117.448 252.106,113.958 251.471 C 113.443 251.378,112.318 251.196,111.458 251.067 C 108.800 250.668,105.143 249.545,102.642 248.360 C 101.933 248.024,101.214 247.694,101.042 247.626 C 100.870 247.558,100.542 247.386,100.313 247.243 C 93.403 242.933,89.153 237.765,86.805 230.814 C 85.477 226.883,85.851 225.982,89.271 224.877 C 89.729 224.729,90.760 224.364,91.563 224.066 C 92.365 223.768,93.396 223.397,93.854 223.240 C 94.313 223.083,95.203 222.750,95.833 222.500 C 99.145 221.186,100.526 221.140,101.503 222.310 C 101.822 222.692,102.083 223.104,102.083 223.224 C 102.083 223.345,102.271 223.794,102.500 224.221 C 102.729 224.649,102.917 225.097,102.917 225.217 C 102.917 226.588,107.300 231.750,109.379 232.828 C 118.431 237.521,130.093 235.108,133.668 227.803 L 134.479 226.146 134.479 222.292 C 134.479 216.322,132.938 213.186,128.832 210.800 C 125.865 209.075,124.209 208.759,117.221 208.580 C 110.029 208.397,110.833 209.372,110.833 200.833 C 110.833 192.305,110.065 193.268,117.012 193.097 C 124.683 192.909,127.312 192.254,130.211 189.809 C 132.747 187.671,133.644 185.407,133.645 181.146 C 133.647 174.382,130.377 170.808,123.229 169.757 C 121.208 169.460,115.521 169.682,114.529 170.097 C 114.108 170.273,113.503 170.417,113.184 170.417 C 112.865 170.418,112.323 170.590,111.979 170.799 C 111.635 171.008,111.120 171.242,110.833 171.318 C 109.400 171.698,106.084 175.136,104.919 177.450 C 104.588 178.108,104.236 178.786,104.137 178.958 C 104.038 179.130,103.858 179.505,103.736 179.792 C 103.087 181.321,100.934 182.047,99.671 181.163 C 99.439 181.001,98.879 180.803,98.427 180.723 C 97.974 180.643,97.399 180.450,97.148 180.292 C 96.196 179.696,94.458 179.679,93.594 180.258 C 93.164 180.545,91.875 181.401,90.729 182.158 C 88.759 183.460,85.977 185.390,85.521 185.770 C 85.406 185.866,84.328 186.687,83.125 187.596 C 77.385 191.932,71.471 197.381,68.300 201.255 C 67.688 202.003,67.047 202.780,66.875 202.981 C 59.506 211.622,56.465 223.671,59.969 230.350 C 60.078 230.558,60.461 231.339,60.819 232.083 C 63.371 237.384,69.107 242.417,77.083 246.354 C 78.630 247.117,80.177 247.868,80.521 248.023 C 82.063 248.716,83.196 249.167,83.412 249.173 C 83.541 249.177,84.115 249.410,84.688 249.692 C 85.260 249.974,85.843 250.205,85.983 250.206 C 86.122 250.207,86.544 250.337,86.920 250.493 C 87.557 250.759,88.408 251.026,91.875 252.052 C 93.993 252.678,97.594 253.585,99.848 254.059 C 100.624 254.222,101.333 254.402,101.423 254.458 C 101.514 254.514,102.426 254.706,103.450 254.884 C 104.475 255.063,105.875 255.309,106.563 255.431 C 111.272 256.264,116.132 256.955,119.792 257.310 C 121.109 257.438,122.246 257.578,122.318 257.622 C 122.390 257.666,124.500 257.845,127.006 258.020 C 129.512 258.195,132.406 258.445,133.438 258.575 C 135.998 258.897,169.213 258.896,172.396 258.573 C 173.656 258.445,177.029 258.200,179.890 258.028 C 182.751 257.856,185.798 257.626,186.661 257.515 C 187.523 257.405,189.120 257.261,190.208 257.194 C 191.297 257.127,193.453 256.935,195.000 256.767 C 196.547 256.599,198.656 256.373,199.688 256.264 C 203.632 255.847,205.777 255.600,207.083 255.412 C 207.828 255.305,209.703 255.072,211.250 254.894 C 212.796 254.717,214.390 254.489,214.791 254.387 C 215.193 254.286,216.177 254.141,216.979 254.065 C 217.781 253.989,219.047 253.800,219.792 253.645 C 220.536 253.490,221.661 253.309,222.292 253.242 C 222.922 253.176,224.234 252.986,225.208 252.819 C 226.182 252.652,228.151 252.322,229.583 252.087 C 231.016 251.851,232.703 251.559,233.333 251.439 C 233.964 251.319,235.313 251.089,236.332 250.929 C 237.351 250.769,238.476 250.547,238.832 250.437 C 239.188 250.327,240.089 250.172,240.833 250.093 C 241.578 250.013,242.422 249.857,242.708 249.746 C 242.995 249.634,243.932 249.420,244.792 249.269 C 247.443 248.805,251.198 248.036,254.479 247.286 C 255.396 247.076,256.544 246.843,257.031 246.767 C 258.308 246.569,259.009 245.949,258.438 245.522 C 255.708 243.482,252.233 239.465,251.227 237.188 C 251.125 236.958,250.954 236.630,250.847 236.458 C 250.129 235.313,248.836 231.528,248.321 229.063 C 248.201 228.490,247.967 227.365,247.801 226.563 C 246.788 221.664,246.791 183.029,247.806 177.917 C 248.567 174.081,249.065 172.118,249.475 171.331 C 249.648 171.000,249.790 170.607,249.790 170.458 C 249.792 170.127,251.387 166.894,251.763 166.458 C 251.912 166.286,252.176 165.865,252.350 165.521 C 253.740 162.776,257.937 159.059,261.875 157.086 C 266.292 154.872,267.860 154.419,274.896 153.321 C 276.533 153.065,287.453 153.070,289.063 153.327 C 293.171 153.982,294.217 154.178,295.625 154.557 C 303.798 156.755,309.761 161.333,313.027 167.917 C 314.427 170.738,314.887 171.923,315.317 173.817 C 315.468 174.484,315.653 175.188,315.728 175.380 C 316.639 177.718,316.753 180.446,316.821 201.354 L 316.886 221.563 316.358 225.208 C 316.067 227.214,315.773 229.159,315.703 229.531 C 315.573 230.232,316.254 230.535,316.781 230.012 C 316.890 229.904,317.354 229.721,317.813 229.606 C 318.847 229.345,321.037 228.596,321.465 228.357 C 321.641 228.258,322.096 228.110,322.476 228.026 C 323.100 227.889,323.811 227.617,325.729 226.782 C 326.073 226.632,326.659 226.404,327.031 226.276 C 327.404 226.147,328.013 225.936,328.385 225.808 C 328.758 225.679,329.344 225.457,329.688 225.313 C 330.031 225.170,331.016 224.794,331.875 224.479 C 332.734 224.164,333.719 223.787,334.063 223.641 C 334.406 223.495,335.156 223.187,335.729 222.956 C 338.751 221.735,341.002 220.788,341.527 220.515 C 341.852 220.346,342.216 220.208,342.338 220.208 C 342.459 220.208,342.944 220.034,343.415 219.820 C 345.761 218.755,346.283 218.542,346.543 218.542 C 346.697 218.542,346.941 218.400,347.085 218.227 C 347.228 218.054,347.703 217.856,348.139 217.786 C 348.576 217.716,348.982 217.530,349.043 217.371 C 349.105 217.210,349.444 217.083,349.811 217.083 C 350.371 217.083,350.430 217.129,350.208 217.396 C 350.066 217.568,349.749 217.708,349.504 217.708 C 349.259 217.708,348.941 217.896,348.798 218.125 C 348.655 218.354,348.413 218.542,348.259 218.542 C 348.106 218.542,347.764 218.729,347.500 218.958 C 347.236 219.188,346.858 219.375,346.660 219.375 C 346.463 219.375,346.189 219.510,346.053 219.674 C 345.916 219.839,345.531 220.033,345.196 220.107 C 344.862 220.180,344.544 220.311,344.491 220.398 C 344.366 220.599,337.504 223.967,334.271 225.414 C 333.364 225.820,331.667 226.589,329.948 227.375 C 329.346 227.649,327.823 228.312,326.563 228.848 C 325.302 229.383,323.990 229.943,323.646 230.093 C 323.302 230.243,322.365 230.622,321.563 230.936 C 320.760 231.249,320.010 231.571,319.896 231.651 C 319.781 231.731,318.984 232.059,318.125 232.379 C 317.266 232.700,316.314 233.092,316.010 233.252 C 315.705 233.411,315.312 233.542,315.135 233.542 C 314.795 233.542,313.750 234.771,313.750 235.171 C 313.750 235.590,311.566 239.484,311.041 240.000 C 310.983 240.057,310.659 240.479,310.321 240.938 C 307.834 244.315,301.849 248.319,297.711 249.373 C 297.309 249.476,296.557 249.695,296.042 249.860 C 294.435 250.376,292.267 250.818,290.208 251.051 C 289.120 251.174,287.573 251.359,286.771 251.462 C 284.847 251.708,278.821 251.705,276.979 251.456 C 276.177 251.348,274.677 251.165,273.646 251.048 C 271.780 250.838,269.837 250.440,267.769 249.844 C 267.172 249.672,266.469 249.587,266.206 249.654 C 265.944 249.722,265.161 249.909,264.466 250.069 C 263.772 250.230,262.881 250.461,262.487 250.584 C 261.359 250.934,258.721 251.602,255.729 252.295 C 254.471 252.587,251.911 253.211,250.625 253.539 C 250.109 253.671,249.125 253.899,248.438 254.047 C 247.750 254.195,246.813 254.417,246.354 254.542 C 245.584 254.750,244.243 255.049,239.583 256.049 C 238.609 256.259,237.344 256.536,236.771 256.665 C 236.198 256.795,234.979 257.030,234.063 257.189 C 233.146 257.347,232.068 257.569,231.667 257.681 C 231.266 257.793,230.422 257.950,229.792 258.029 C 229.161 258.108,228.495 258.252,228.311 258.349 C 228.126 258.446,227.095 258.670,226.019 258.847 C 224.943 259.025,223.125 259.349,221.979 259.568 C 220.833 259.787,219.240 260.071,218.438 260.199 C 217.635 260.327,216.276 260.567,215.417 260.731 C 214.557 260.895,213.198 261.092,212.396 261.169 C 211.594 261.247,210.703 261.397,210.417 261.505 C 210.130 261.612,209.099 261.782,208.125 261.883 C 207.151 261.984,205.557 262.205,204.583 262.373 C 203.609 262.541,202.109 262.778,201.250 262.900 C 200.391 263.021,199.125 263.209,198.438 263.317 C 197.306 263.496,195.679 263.696,187.292 264.689 C 185.859 264.858,183.938 265.050,183.021 265.114 C 182.104 265.179,180.698 265.322,179.896 265.434 C 178.126 265.679,168.000 266.452,160.938 266.881 C 158.990 267.000,156.365 267.180,155.104 267.281 C 152.061 267.525,127.674 267.520,125.417 267.274 C 124.443 267.168,122.240 266.989,120.521 266.876 C 110.909 266.244,103.034 265.376,95.938 264.166 C 95.250 264.049,94.078 263.854,93.333 263.733 C 92.589 263.612,91.557 263.420,91.042 263.307 C 89.297 262.924,88.235 262.692,86.250 262.262 C 85.161 262.026,83.802 261.707,83.229 261.554 C 82.656 261.400,81.625 261.124,80.938 260.941 C 80.250 260.757,79.195 260.470,78.594 260.303 C 77.992 260.137,77.008 259.865,76.406 259.700 C 75.051 259.328,73.429 258.782,72.604 258.420 C 72.260 258.268,71.585 258.044,71.103 257.921 C 70.620 257.798,70.170 257.606,70.101 257.494 C 70.032 257.383,69.815 257.292,69.620 257.292 C 69.425 257.292,68.915 257.104,68.487 256.875 C 68.060 256.646,67.603 256.458,67.471 256.458 C 67.340 256.458,66.848 256.278,66.377 256.058 C 62.881 254.424,61.936 253.949,60.000 252.851 C 57.877 251.647,55.003 249.841,54.792 249.578 C 54.734 249.507,53.920 248.866,52.982 248.155 C 50.441 246.228,46.042 241.334,46.042 240.436 C 46.042 240.339,45.910 240.150,45.750 240.017 C 45.484 239.797,44.738 238.372,44.050 236.771 C 43.414 235.292,42.932 233.283,42.700 231.146 C 42.563 229.885,42.345 228.784,42.215 228.698 C 42.042 228.583,42.041 228.500,42.212 228.385 C 42.340 228.299,42.555 227.245,42.691 226.042 C 42.940 223.828,43.530 221.211,44.124 219.688 C 44.798 217.959,45.224 216.960,45.547 216.354 C 45.730 216.010,46.277 214.979,46.763 214.063 C 50.752 206.533,62.581 194.427,71.844 188.395 C 72.491 187.973,73.583 187.194,74.271 186.663 C 74.958 186.132,76.271 185.241,77.188 184.684 C 78.104 184.126,79.182 183.421,79.583 183.118 C 80.339 182.545,83.450 180.590,84.635 179.943 C 85.008 179.739,85.594 179.389,85.938 179.164 C 86.281 178.939,86.797 178.642,87.083 178.504 C 88.372 177.885,88.817 177.154,88.211 176.652 C 87.499 176.060,88.190 173.680,90.385 169.167 C 91.056 167.789,92.588 165.288,92.939 165.000 C 93.008 164.943,93.535 164.333,94.108 163.646 C 96.958 160.230,103.826 155.417,105.851 155.417 C 106.019 155.417,106.347 155.284,106.579 155.121 C 106.811 154.959,107.371 154.759,107.823 154.677 C 108.276 154.595,108.899 154.400,109.208 154.243 C 109.518 154.086,110.034 153.958,110.355 153.958 C 110.676 153.958,111.595 153.762,112.396 153.523 C 114.150 153.000,126.737 152.851,128.542 153.332 C 129.057 153.469,130.042 153.672,130.729 153.783 C 131.417 153.894,132.260 154.081,132.604 154.200 C 132.948 154.318,133.651 154.500,134.167 154.603 C 134.682 154.707,135.409 154.953,135.781 155.151 C 136.419 155.490,136.498 155.491,137.135 155.159 C 137.508 154.965,138.094 154.743,138.438 154.666 C 138.781 154.590,139.297 154.410,139.583 154.268 C 140.441 153.842,142.384 153.125,142.681 153.125 C 142.833 153.125,143.253 152.990,143.614 152.824 C 144.338 152.492,148.225 151.137,149.375 150.815 C 149.776 150.702,150.339 150.482,150.625 150.324 C 150.911 150.167,151.521 149.971,151.979 149.888 C 152.438 149.805,152.919 149.653,153.049 149.551 C 153.179 149.448,153.765 149.226,154.351 149.057 C 155.528 148.718,156.854 148.312,158.438 147.807 C 162.492 146.514,166.804 145.175,168.125 144.800 C 168.984 144.556,170.109 144.229,170.625 144.074 C 172.263 143.580,174.424 142.976,176.250 142.502 C 177.224 142.249,178.583 141.868,179.271 141.657 C 180.410 141.307,182.080 140.854,184.583 140.215 C 185.099 140.084,185.990 139.884,186.563 139.771 C 187.135 139.658,187.958 139.429,188.390 139.262 C 188.822 139.095,189.431 138.954,189.744 138.950 C 190.057 138.945,190.781 138.766,191.354 138.551 C 192.498 138.123,194.068 138.006,194.271 138.334 M207.604 153.346 C 213.320 154.345,214.945 154.842,218.806 156.775 C 223.965 159.358,228.110 163.708,230.873 169.444 C 231.435 170.609,231.983 171.725,232.093 171.924 C 232.974 173.527,231.438 175.304,228.542 176.034 C 228.141 176.135,226.594 176.649,225.104 177.176 C 216.340 180.274,216.716 180.283,214.956 176.946 C 212.202 171.726,208.444 169.733,201.354 169.735 C 196.950 169.735,195.626 170.024,192.139 171.741 C 190.305 172.644,187.545 175.601,186.763 177.500 C 185.127 181.471,184.813 183.342,184.799 189.196 C 184.790 192.955,185.004 193.188,186.765 191.337 C 187.987 190.053,192.956 187.652,195.625 187.055 C 196.141 186.940,197.031 186.688,197.604 186.496 C 199.179 185.967,209.775 185.990,211.494 186.526 C 212.143 186.729,213.128 186.977,213.681 187.078 C 216.017 187.504,220.843 189.587,222.582 190.919 C 223.027 191.260,223.747 191.779,224.180 192.072 C 226.670 193.753,229.862 197.608,231.549 200.971 C 233.041 203.945,233.062 203.994,233.233 204.791 C 233.319 205.191,233.507 205.801,233.652 206.145 C 235.316 210.097,235.868 225.670,234.427 228.000 C 234.359 228.112,234.183 228.678,234.037 229.258 C 232.548 235.172,228.519 241.103,223.438 244.861 C 220.940 246.708,219.630 247.472,216.563 248.868 C 208.254 252.651,192.874 252.640,184.656 248.845 C 184.295 248.678,183.938 248.542,183.862 248.542 C 183.316 248.542,179.598 246.431,177.797 245.099 C 175.302 243.254,171.839 239.495,170.708 237.404 C 170.581 237.170,170.224 236.510,169.914 235.938 C 169.043 234.329,167.908 231.674,167.597 230.521 C 166.473 226.348,166.226 225.011,166.036 222.083 C 165.808 218.562,165.794 187.273,166.019 183.750 C 166.293 179.464,167.647 174.497,169.510 170.938 C 171.060 167.978,171.385 167.458,172.898 165.521 C 174.116 163.962,176.339 161.686,177.478 160.833 C 177.861 160.547,178.467 160.068,178.826 159.770 C 179.556 159.164,181.082 158.161,181.875 157.767 C 182.161 157.624,182.536 157.416,182.708 157.303 C 183.357 156.879,186.706 155.416,187.044 155.410 C 187.237 155.406,187.569 155.273,187.780 155.113 C 187.991 154.953,188.553 154.757,189.030 154.678 C 189.506 154.599,190.063 154.447,190.268 154.339 C 190.473 154.232,191.504 153.996,192.560 153.816 C 193.615 153.635,194.854 153.417,195.313 153.332 C 196.609 153.091,206.207 153.102,207.604 153.346 M278.854 169.775 C 273.990 170.391,269.870 173.140,268.211 176.875 C 268.135 177.047,267.850 177.674,267.578 178.268 C 267.306 178.863,267.083 179.484,267.083 179.648 C 267.083 179.813,266.942 180.347,266.770 180.836 C 265.630 184.066,265.400 214.820,266.461 222.083 C 266.997 225.752,268.354 228.711,270.521 230.931 C 272.581 233.042,273.516 233.581,277.083 234.713 C 278.954 235.306,285.326 235.238,287.813 234.598 C 292.547 233.379,295.063 231.125,296.666 226.667 C 296.909 225.990,297.204 224.396,297.706 221.042 C 297.977 219.230,297.975 185.546,297.704 183.750 C 297.591 183.005,297.400 181.693,297.279 180.833 C 296.617 176.123,294.099 172.433,290.625 171.082 C 287.555 169.887,282.446 169.320,278.854 169.775 M196.083 201.776 C 188.124 204.031,184.372 210.244,184.900 220.293 C 185.237 226.695,188.776 232.300,193.333 233.647 C 193.620 233.732,193.948 233.873,194.063 233.961 C 196.175 235.581,204.379 235.421,208.333 233.684 C 217.958 229.455,219.606 212.178,211.108 204.603 C 207.649 201.520,201.242 200.315,196.083 201.776 M351.554 216.681 C 351.399 216.931,350.833 216.934,350.833 216.684 C 350.833 216.458,351.285 216.267,351.514 216.397 C 351.602 216.446,351.620 216.574,351.554 216.681 " stroke="none" fill="#040404" fill-rule="evenodd"></path><path id="path2" d="M201.927 136.185 C 202.128 136.238,202.456 136.238,202.656 136.185 C 202.857 136.133,202.693 136.090,202.292 136.090 C 201.891 136.090,201.727 136.133,201.927 136.185 M198.270 136.800 C 198.020 137.050,198.357 137.292,198.954 137.292 C 199.675 137.292,200.208 137.105,200.208 136.853 C 200.208 136.642,198.475 136.595,198.270 136.800 M194.936 137.633 C 194.664 137.906,195.048 138.125,195.794 138.122 C 196.751 138.119,197.500 137.926,197.500 137.684 C 197.500 137.475,195.141 137.428,194.936 137.633 M191.354 138.551 C 190.781 138.766,190.057 138.945,189.744 138.950 C 189.431 138.954,188.822 139.095,188.390 139.262 C 187.958 139.429,187.135 139.658,186.563 139.771 C 185.990 139.884,185.099 140.084,184.583 140.215 C 182.080 140.854,180.410 141.307,179.271 141.657 C 178.583 141.868,177.224 142.249,176.250 142.502 C 174.424 142.976,172.263 143.580,170.625 144.074 C 170.109 144.229,168.984 144.556,168.125 144.800 C 166.804 145.175,162.492 146.514,158.438 147.807 C 156.854 148.312,155.528 148.718,154.351 149.057 C 153.765 149.226,153.179 149.448,153.049 149.551 C 152.919 149.653,152.438 149.805,151.979 149.888 C 151.521 149.971,150.911 150.167,150.625 150.324 C 150.339 150.482,149.776 150.702,149.375 150.815 C 148.225 151.137,144.338 152.492,143.614 152.824 C 143.253 152.990,142.833 153.125,142.681 153.125 C 142.384 153.125,140.441 153.842,139.583 154.268 C 139.297 154.410,138.781 154.590,138.438 154.666 C 138.094 154.743,137.514 154.962,137.149 155.152 L 136.485 155.497 138.086 156.205 C 140.108 157.099,141.124 157.419,140.545 156.981 C 140.166 156.694,140.170 156.676,140.649 156.486 C 140.922 156.378,141.661 156.085,142.292 155.835 C 142.922 155.586,143.819 155.202,144.285 154.982 C 144.750 154.763,145.217 154.583,145.322 154.583 C 145.426 154.583,146.357 154.250,147.391 153.842 C 148.425 153.434,149.763 152.919,150.365 152.696 C 150.966 152.474,151.997 152.092,152.656 151.849 C 153.315 151.605,154.182 151.290,154.583 151.149 C 156.408 150.507,156.854 150.345,158.125 149.863 C 158.870 149.580,159.834 149.260,160.267 149.151 C 160.701 149.042,161.217 148.861,161.413 148.749 C 161.853 148.498,163.299 147.987,164.688 147.593 C 165.260 147.430,166.385 147.056,167.188 146.761 C 167.990 146.465,168.980 146.140,169.389 146.036 C 169.797 145.933,170.407 145.705,170.743 145.530 C 171.079 145.354,171.589 145.210,171.875 145.208 C 172.161 145.207,172.671 145.062,173.007 144.887 C 173.343 144.712,173.953 144.486,174.361 144.386 C 174.770 144.285,175.385 144.105,175.729 143.984 C 176.073 143.864,177.057 143.564,177.917 143.319 C 179.808 142.778,184.654 141.305,185.521 141.008 C 185.865 140.890,186.748 140.660,187.484 140.497 C 188.220 140.333,188.923 140.120,189.046 140.022 C 189.170 139.924,189.708 139.781,190.243 139.704 C 190.778 139.626,191.329 139.427,191.467 139.261 C 191.606 139.093,192.072 138.958,192.512 138.958 C 193.484 138.958,194.446 138.617,194.271 138.334 C 194.068 138.006,192.498 138.123,191.354 138.551 M88.267 177.635 C 88.062 177.906,87.595 178.268,87.228 178.439 C 86.862 178.610,86.281 178.935,85.938 179.161 C 85.594 179.388,85.008 179.739,84.635 179.943 C 83.450 180.590,80.339 182.545,79.583 183.118 C 79.182 183.421,78.104 184.126,77.188 184.684 C 76.271 185.241,74.958 186.132,74.271 186.663 C 73.583 187.194,72.491 187.973,71.844 188.395 C 62.581 194.427,50.752 206.533,46.763 214.063 C 46.277 214.979,45.730 216.010,45.547 216.354 C 45.224 216.960,44.798 217.959,44.124 219.688 C 43.530 221.211,42.940 223.828,42.691 226.042 C 42.555 227.245,42.340 228.299,42.212 228.385 C 42.041 228.500,42.042 228.583,42.215 228.698 C 42.345 228.784,42.563 229.885,42.700 231.146 C 42.932 233.283,43.414 235.292,44.050 236.771 C 44.738 238.372,45.484 239.797,45.750 240.017 C 45.910 240.150,46.042 240.339,46.042 240.436 C 46.042 241.334,50.441 246.228,52.982 248.155 C 53.920 248.866,54.734 249.507,54.792 249.578 C 55.003 249.841,57.877 251.647,60.000 252.851 C 61.936 253.949,62.881 254.424,66.377 256.058 C 66.848 256.278,67.340 256.458,67.471 256.458 C 67.603 256.458,68.060 256.646,68.487 256.875 C 68.915 257.104,69.425 257.292,69.620 257.292 C 69.815 257.292,70.032 257.383,70.101 257.494 C 70.170 257.606,70.620 257.798,71.103 257.921 C 71.585 258.044,72.260 258.268,72.604 258.420 C 73.429 258.782,75.051 259.328,76.406 259.700 C 77.008 259.865,77.992 260.137,78.594 260.303 C 79.195 260.470,80.250 260.757,80.938 260.941 C 81.625 261.124,82.656 261.400,83.229 261.554 C 83.802 261.707,85.161 262.026,86.250 262.262 C 87.339 262.498,88.698 262.794,89.271 262.920 C 89.844 263.046,90.688 263.231,91.146 263.331 C 91.604 263.431,92.589 263.612,93.333 263.733 C 94.078 263.854,95.250 264.049,95.938 264.166 C 103.034 265.376,110.909 266.244,120.521 266.876 C 122.240 266.989,124.443 267.168,125.417 267.274 C 127.674 267.520,152.061 267.525,155.104 267.281 C 156.365 267.180,158.990 267.000,160.938 266.881 C 168.000 266.452,178.126 265.679,179.896 265.434 C 180.698 265.322,182.104 265.179,183.021 265.114 C 183.938 265.050,185.859 264.858,187.292 264.689 C 195.679 263.696,197.306 263.496,198.438 263.317 C 199.125 263.209,200.391 263.021,201.250 262.900 C 202.109 262.778,203.609 262.541,204.583 262.373 C 205.557 262.205,207.151 261.984,208.125 261.883 C 209.099 261.782,210.130 261.612,210.417 261.505 C 210.703 261.397,211.594 261.247,212.396 261.169 C 213.198 261.092,214.557 260.895,215.417 260.731 C 216.276 260.567,217.635 260.327,218.438 260.199 C 219.240 260.071,220.833 259.787,221.979 259.568 C 223.125 259.349,224.943 259.025,226.019 258.847 C 227.095 258.670,228.126 258.446,228.311 258.349 C 228.495 258.252,229.161 258.108,229.792 258.029 C 230.422 257.950,231.266 257.793,231.667 257.681 C 232.068 257.569,233.146 257.347,234.063 257.189 C 234.979 257.030,236.198 256.795,236.771 256.665 C 237.344 256.536,238.609 256.259,239.583 256.049 C 244.243 255.049,245.584 254.750,246.354 254.542 C 246.813 254.417,247.750 254.195,248.438 254.047 C 249.125 253.899,250.109 253.671,250.625 253.539 C 251.911 253.211,254.471 252.587,255.729 252.295 C 258.721 251.602,261.359 250.934,262.487 250.584 C 263.892 250.148,265.743 249.746,266.598 249.693 C 267.076 249.663,267.779 249.446,268.160 249.210 C 268.542 248.975,269.135 248.722,269.479 248.647 C 270.066 248.520,270.609 248.370,274.271 247.327 C 275.073 247.099,276.432 246.712,277.292 246.468 C 278.151 246.223,279.135 245.928,279.479 245.810 C 279.823 245.693,280.526 245.474,281.042 245.322 C 281.557 245.171,282.260 244.951,282.604 244.834 C 282.948 244.717,283.932 244.411,284.792 244.154 C 287.412 243.371,289.027 242.866,289.792 242.590 C 291.085 242.124,292.583 241.648,293.429 241.436 C 293.883 241.322,294.352 241.153,294.471 241.061 C 294.590 240.969,295.063 240.793,295.521 240.669 C 295.979 240.545,297.010 240.196,297.813 239.894 C 298.615 239.591,299.693 239.217,300.208 239.063 C 300.724 238.908,301.802 238.538,302.604 238.240 C 303.406 237.943,304.906 237.414,305.938 237.065 C 306.969 236.716,307.902 236.343,308.010 236.236 C 308.119 236.129,308.357 236.042,308.539 236.042 C 308.721 236.042,309.227 235.860,309.664 235.637 C 310.100 235.415,310.753 235.168,311.114 235.090 C 311.475 235.011,311.956 234.818,312.182 234.661 C 312.696 234.303,313.749 234.286,313.752 234.635 C 313.754 234.779,313.995 234.591,314.288 234.219 C 314.582 233.846,314.965 233.542,315.139 233.542 C 315.314 233.542,315.705 233.411,316.010 233.252 C 316.314 233.092,317.266 232.700,318.125 232.379 C 318.984 232.059,319.781 231.731,319.896 231.651 C 320.010 231.571,320.760 231.249,321.563 230.936 C 322.365 230.622,323.302 230.243,323.646 230.093 C 323.990 229.943,325.302 229.383,326.563 228.848 C 327.823 228.312,329.370 227.638,330.000 227.350 C 331.476 226.675,333.216 225.886,334.271 225.414 C 337.504 223.967,344.366 220.599,344.491 220.398 C 344.544 220.311,344.862 220.180,345.196 220.107 C 345.531 220.033,345.916 219.839,346.053 219.674 C 346.189 219.510,346.463 219.375,346.660 219.375 C 346.858 219.375,347.236 219.188,347.500 218.958 C 347.764 218.729,348.106 218.542,348.259 218.542 C 348.413 218.542,348.655 218.354,348.798 218.125 C 348.941 217.896,349.259 217.708,349.504 217.708 C 349.749 217.708,350.066 217.568,350.208 217.396 C 350.430 217.129,350.371 217.083,349.811 217.083 C 349.444 217.083,349.105 217.210,349.043 217.371 C 348.982 217.530,348.576 217.716,348.139 217.786 C 347.703 217.856,347.228 218.054,347.085 218.227 C 346.941 218.400,346.697 218.542,346.543 218.542 C 346.283 218.542,345.761 218.755,343.415 219.820 C 342.944 220.034,342.459 220.208,342.338 220.208 C 342.216 220.208,341.852 220.346,341.527 220.515 C 341.002 220.788,338.751 221.735,335.729 222.956 C 335.156 223.187,334.406 223.495,334.063 223.641 C 333.719 223.787,332.734 224.164,331.875 224.479 C 331.016 224.794,330.031 225.170,329.688 225.313 C 329.344 225.457,328.758 225.679,328.385 225.808 C 328.013 225.936,327.404 226.147,327.031 226.276 C 326.659 226.404,326.073 226.632,325.729 226.782 C 323.811 227.617,323.100 227.889,322.476 228.026 C 322.096 228.110,321.641 228.258,321.465 228.357 C 321.037 228.596,318.847 229.345,317.813 229.606 C 317.354 229.721,316.890 229.904,316.781 230.012 C 316.433 230.357,315.626 230.241,315.612 229.844 C 315.601 229.539,315.570 229.549,315.427 229.903 C 315.182 230.506,314.830 230.746,313.646 231.116 C 313.073 231.294,311.948 231.684,311.146 231.982 C 310.344 232.280,309.266 232.652,308.750 232.809 C 308.234 232.965,307.156 233.295,306.354 233.542 C 305.552 233.788,304.427 234.123,303.854 234.286 C 303.281 234.448,302.578 234.667,302.292 234.771 C 302.005 234.875,300.927 235.216,299.896 235.528 C 298.865 235.841,297.693 236.214,297.292 236.358 C 296.891 236.501,295.813 236.829,294.896 237.085 C 293.979 237.342,292.807 237.676,292.292 237.828 C 289.521 238.644,288.356 238.974,287.604 239.158 C 287.146 239.270,286.092 239.555,285.262 239.792 C 284.432 240.028,283.073 240.415,282.241 240.651 C 281.410 240.887,280.214 241.201,279.583 241.348 C 278.953 241.495,277.922 241.754,277.292 241.925 C 275.900 242.300,274.445 242.668,272.917 243.030 C 270.646 243.568,266.326 244.642,265.000 244.999 C 261.826 245.852,259.458 246.208,259.131 245.881 C 258.997 245.747,258.764 245.838,258.455 246.147 C 258.185 246.417,257.591 246.680,257.065 246.762 C 256.559 246.840,255.396 247.076,254.479 247.286 C 251.198 248.036,247.443 248.805,244.792 249.269 C 243.932 249.420,242.995 249.634,242.708 249.746 C 242.422 249.857,241.578 250.013,240.833 250.093 C 240.089 250.172,239.188 250.327,238.832 250.437 C 238.476 250.547,237.351 250.769,236.332 250.929 C 235.313 251.089,233.964 251.319,233.333 251.439 C 232.703 251.559,231.016 251.851,229.583 252.087 C 228.151 252.322,226.182 252.652,225.208 252.819 C 224.234 252.986,222.922 253.176,222.292 253.242 C 221.661 253.309,220.536 253.490,219.792 253.645 C 219.047 253.800,217.781 253.989,216.979 254.065 C 216.177 254.141,215.193 254.286,214.791 254.387 C 214.390 254.489,212.796 254.717,211.250 254.894 C 209.703 255.072,207.828 255.305,207.083 255.412 C 205.777 255.600,203.632 255.847,199.688 256.264 C 198.656 256.373,196.547 256.599,195.000 256.767 C 193.453 256.935,191.297 257.127,190.208 257.194 C 189.120 257.261,187.523 257.405,186.661 257.515 C 185.798 257.626,182.751 257.856,179.890 258.028 C 177.029 258.200,173.656 258.445,172.396 258.573 C 169.213 258.896,135.998 258.897,133.438 258.575 C 132.406 258.445,129.512 258.195,127.006 258.020 C 124.500 257.845,122.390 257.666,122.318 257.622 C 122.246 257.578,121.109 257.438,119.792 257.310 C 116.132 256.955,111.272 256.264,106.563 255.431 C 105.875 255.309,104.475 255.063,103.450 254.884 C 102.426 254.706,101.514 254.514,101.423 254.458 C 101.333 254.402,100.624 254.222,99.848 254.059 C 97.594 253.585,93.993 252.678,91.875 252.052 C 88.408 251.026,87.557 250.759,86.920 250.493 C 86.544 250.337,86.122 250.207,85.983 250.206 C 85.843 250.205,85.260 249.974,84.688 249.692 C 84.115 249.410,83.541 249.177,83.412 249.173 C 83.283 249.170,82.721 248.973,82.162 248.735 C 74.029 245.282,68.352 241.597,64.274 237.124 C 63.026 235.754,61.550 233.602,60.819 232.083 C 60.461 231.339,60.078 230.558,59.969 230.350 C 56.569 223.869,59.386 212.070,66.354 203.601 C 66.469 203.462,66.703 203.183,66.875 202.981 C 67.047 202.780,67.688 202.003,68.300 201.255 C 71.471 197.381,77.385 191.932,83.125 187.596 C 84.328 186.687,85.406 185.866,85.521 185.770 C 85.977 185.390,88.759 183.460,90.729 182.158 C 91.875 181.401,93.146 180.558,93.553 180.286 C 93.960 180.014,94.518 179.792,94.792 179.792 C 95.875 179.792,95.032 179.404,91.146 178.112 C 90.115 177.769,89.129 177.410,88.955 177.315 C 88.735 177.193,88.527 177.290,88.267 177.635 M247.183 202.083 C 247.183 211.078,247.208 214.758,247.240 210.260 C 247.271 205.763,247.271 198.404,247.240 193.906 C 247.208 189.409,247.183 193.089,247.183 202.083 M114.021 208.489 C 115.029 208.527,116.623 208.527,117.562 208.488 C 118.502 208.450,117.677 208.418,115.729 208.419 C 113.781 208.419,113.012 208.450,114.021 208.489 M351.094 216.400 C 350.736 216.528,350.765 216.875,351.134 216.875 C 351.479 216.875,351.752 216.531,351.514 216.397 C 351.426 216.347,351.237 216.348,351.094 216.400 M235.284 219.271 C 235.285 220.417,235.320 220.859,235.362 220.253 C 235.404 219.648,235.404 218.711,235.361 218.170 C 235.318 217.630,235.284 218.125,235.284 219.271 M134.636 222.396 C 134.638 222.854,134.681 223.017,134.731 222.758 C 134.781 222.499,134.779 222.124,134.726 221.925 C 134.674 221.725,134.634 221.938,134.636 222.396 " stroke="none" fill="#f10505" fill-rule="evenodd"></path></g></svg>