<svg id="svg" version="1.1" xmlns="http://www.w3.org/2000/svg" xmlns:xlink="http://www.w3.org/1999/xlink" width="400" height="400" viewBox="0, 0, 400,400"><g id="svgg"><path id="path0" d="M175.375 60.989 C 175.183 61.533,173.858 65.307,172.431 69.375 C 171.003 73.443,169.175 78.646,168.368 80.938 C 167.562 83.229,165.675 88.620,164.176 92.917 C 162.677 97.214,160.659 102.979,159.693 105.729 C 158.726 108.479,156.374 115.182,154.466 120.625 C 152.558 126.068,149.827 133.849,148.397 137.917 C 146.967 141.984,145.298 146.766,144.687 148.542 C 144.076 150.318,143.044 153.271,142.394 155.104 C 141.745 156.938,140.433 160.688,139.479 163.438 C 138.526 166.188,135.998 173.406,133.863 179.479 C 131.728 185.552,129.175 192.818,128.190 195.625 C 126.651 200.013,123.352 209.320,121.767 213.750 C 120.586 217.051,120.308 221.981,121.190 223.976 C 121.530 224.744,121.969 225.171,123.629 226.347 C 127.835 229.329,128.787 231.365,127.079 233.723 C 125.809 235.476,123.049 236.986,111.979 241.982 C 103.463 245.826,102.867 246.171,102.074 247.726 C 101.247 249.348,101.671 250.317,103.413 250.783 C 106.338 251.565,106.402 254.592,103.646 261.771 C 102.000 266.058,100.747 269.508,98.538 275.833 C 97.331 279.289,93.788 289.292,88.021 305.521 C 82.386 321.378,78.750 331.787,78.750 332.060 C 78.750 332.525,129.941 332.374,130.190 331.909 C 130.303 331.698,131.347 328.815,132.511 325.502 C 133.675 322.190,135.469 317.089,136.499 314.167 C 137.528 311.245,139.105 306.745,140.003 304.167 C 141.986 298.472,146.119 286.690,149.685 276.563 C 151.137 272.438,152.732 267.891,153.228 266.458 C 153.725 265.026,154.666 262.682,155.318 261.250 C 158.487 254.296,158.245 251.669,154.333 250.544 C 152.385 249.984,151.913 248.581,153.115 246.922 C 153.956 245.761,155.136 245.140,164.537 240.916 C 181.082 233.482,181.740 232.551,174.480 226.866 C 171.345 224.411,170.737 223.327,170.753 220.218 C 170.769 217.307,170.728 217.449,175.100 205.104 C 176.439 201.323,178.689 194.948,180.101 190.938 C 182.851 183.126,186.828 171.878,192.400 156.146 C 194.308 150.760,196.760 143.823,197.849 140.729 C 200.337 133.660,200.240 133.920,200.345 134.025 C 200.393 134.074,201.499 137.149,202.801 140.859 C 204.103 144.569,206.875 152.432,208.959 158.333 C 211.044 164.234,213.639 171.594,214.726 174.688 C 215.813 177.781,217.592 182.844,218.679 185.938 C 219.766 189.031,222.805 197.664,225.432 205.122 C 228.059 212.580,230.208 218.744,230.208 218.820 C 230.208 218.896,220.377 218.958,208.361 218.958 L 186.513 218.958 186.384 219.740 C 186.055 221.726,187.427 224.885,189.191 226.204 C 192.470 228.657,193.226 229.311,193.768 230.167 C 195.254 232.510,194.127 234.788,190.402 236.971 C 189.129 237.717,188.074 238.218,180.313 241.761 C 178.135 242.755,175.118 244.134,173.607 244.826 C 172.096 245.517,170.481 246.407,170.018 246.804 C 168.437 248.157,168.453 250.239,170.050 250.919 C 170.423 251.078,171.139 251.377,171.640 251.585 C 174.099 252.601,174.366 255.408,172.417 259.745 C 171.522 261.737,170.211 265.433,169.907 266.823 L 169.759 267.500 209.046 267.500 C 230.654 267.500,248.333 267.528,248.333 267.562 C 248.333 267.597,249.511 270.995,250.951 275.115 C 252.391 279.234,254.447 285.135,255.519 288.229 C 257.701 294.522,261.664 305.911,267.192 321.771 C 269.228 327.615,270.986 332.513,271.098 332.656 C 271.353 332.983,322.189 333.044,322.390 332.717 C 322.458 332.608,321.190 328.741,319.572 324.124 C 317.954 319.507,315.615 312.823,314.374 309.271 C 312.285 303.288,309.860 296.380,304.865 282.188 C 301.434 272.438,298.608 264.123,298.139 262.396 C 296.169 255.137,295.746 254.511,291.366 252.390 C 286.569 250.067,285.325 248.553,286.382 246.325 C 287.034 244.952,293.827 240.994,299.400 238.740 C 307.079 235.634,307.073 233.418,299.375 229.977 C 288.878 225.284,285.690 222.773,282.540 216.720 C 282.053 215.783,281.563 214.961,281.452 214.892 C 281.341 214.823,281.250 214.624,281.250 214.448 C 281.250 214.140,279.135 207.938,275.931 198.854 C 275.083 196.448,273.159 190.964,271.657 186.667 C 270.154 182.370,267.657 175.245,266.106 170.833 C 262.472 160.494,258.138 148.107,255.938 141.771 C 254.984 139.021,252.687 132.458,250.834 127.188 C 248.981 121.917,246.170 113.901,244.586 109.375 C 238.183 91.074,234.194 79.684,230.433 68.958 L 227.328 60.104 201.526 60.051 L 175.723 59.998 175.375 60.989 " stroke="none" fill="#fbfbfb" fill-rule="evenodd"></path><path id="path1" d="M0.000 200.000 L 0.000 400.000 200.000 400.000 L 400.000 400.000 400.000 200.000 L 400.000 0.000 200.000 0.000 L 0.000 0.000 0.000 200.000 M230.433 68.958 C 234.194 79.684,238.183 91.074,244.586 109.375 C 246.170 113.901,248.981 121.917,250.834 127.188 C 252.687 132.458,254.984 139.021,255.938 141.771 C 258.138 148.107,262.472 160.494,266.106 170.833 C 267.657 175.245,270.154 182.370,271.657 186.667 C 273.159 190.964,275.083 196.448,275.931 198.854 C 279.135 207.938,281.250 214.140,281.250 214.448 C 281.250 214.624,281.341 214.823,281.452 214.892 C 281.563 214.961,282.053 215.783,282.540 216.720 C 285.690 222.773,288.878 225.284,299.375 229.977 C 307.073 233.418,307.079 235.634,299.400 238.740 C 293.827 240.994,287.034 244.952,286.382 246.325 C 285.325 248.553,286.569 250.067,291.366 252.390 C 295.746 254.511,296.169 255.137,298.139 262.396 C 298.608 264.123,301.434 272.438,304.865 282.188 C 309.860 296.380,312.285 303.288,314.374 309.271 C 315.615 312.823,317.954 319.507,319.572 324.124 C 321.190 328.741,322.458 332.608,322.390 332.717 C 322.189 333.044,271.353 332.983,271.098 332.656 C 270.986 332.513,269.228 327.615,267.192 321.771 C 261.664 305.911,257.701 294.522,255.519 288.229 C 254.447 285.135,252.391 279.234,250.951 275.115 C 249.511 270.995,248.333 267.597,248.333 267.562 C 248.333 267.528,230.654 267.500,209.046 267.500 L 169.759 267.500 169.907 266.823 C 170.211 265.433,171.522 261.737,172.417 259.745 C 174.366 255.408,174.099 252.601,171.640 251.585 C 171.139 251.377,170.423 251.078,170.050 250.919 C 168.453 250.239,168.437 248.157,170.018 246.804 C 170.481 246.407,172.096 245.517,173.607 244.826 C 175.118 244.134,178.135 242.755,180.313 241.761 C 188.074 238.218,189.129 237.717,190.402 236.971 C 194.127 234.788,195.254 232.510,193.768 230.167 C 193.226 229.311,192.470 228.657,189.191 226.204 C 187.427 224.885,186.055 221.726,186.384 219.740 L 186.513 218.958 208.361 218.958 C 220.377 218.958,230.208 218.896,230.208 218.820 C 230.208 218.744,228.059 212.580,225.432 205.122 C 222.805 197.664,219.766 189.031,218.679 185.938 C 217.592 182.844,215.813 177.781,214.726 174.688 C 213.639 171.594,211.044 164.234,208.959 158.333 C 206.875 152.432,204.103 144.569,202.801 140.859 C 201.499 137.149,200.393 134.074,200.345 134.025 C 200.240 133.920,200.337 133.660,197.849 140.729 C 196.760 143.823,194.308 150.760,192.400 156.146 C 186.828 171.878,182.851 183.126,180.101 190.938 C 178.689 194.948,176.439 201.323,175.100 205.104 C 170.728 217.449,170.769 217.307,170.753 220.218 C 170.737 223.327,171.345 224.411,174.480 226.866 C 181.740 232.551,181.082 233.482,164.537 240.916 C 155.136 245.140,153.956 245.761,153.115 246.922 C 151.913 248.581,152.385 249.984,154.333 250.544 C 158.245 251.669,158.487 254.296,155.318 261.250 C 154.666 262.682,153.725 265.026,153.228 266.458 C 152.732 267.891,151.137 272.438,149.685 276.563 C 146.119 286.690,141.986 298.472,140.003 304.167 C 139.105 306.745,137.528 311.245,136.499 314.167 C 135.469 317.089,133.675 322.190,132.511 325.502 C 131.347 328.815,130.303 331.698,130.190 331.909 C 129.941 332.374,78.750 332.525,78.750 332.060 C 78.750 331.787,82.386 321.378,88.021 305.521 C 93.788 289.292,97.331 279.289,98.538 275.833 C 100.747 269.508,102.000 266.058,103.646 261.771 C 106.402 254.592,106.338 251.565,103.413 250.783 C 101.671 250.317,101.247 249.348,102.074 247.726 C 102.867 246.171,103.463 245.826,111.979 241.982 C 123.049 236.986,125.809 235.476,127.079 233.723 C 128.787 231.365,127.835 229.329,123.629 226.347 C 121.969 225.171,121.530 224.744,121.190 223.976 C 120.308 221.981,120.586 217.051,121.767 213.750 C 123.352 209.320,126.651 200.013,128.190 195.625 C 129.175 192.818,131.728 185.552,133.863 179.479 C 135.998 173.406,138.526 166.188,139.479 163.438 C 140.433 160.688,141.745 156.938,142.394 155.104 C 143.044 153.271,144.076 150.318,144.687 148.542 C 145.298 146.766,146.967 141.984,148.397 137.917 C 149.827 133.849,152.558 126.068,154.466 120.625 C 156.374 115.182,158.726 108.479,159.693 105.729 C 160.659 102.979,162.677 97.214,164.176 92.917 C 165.675 88.620,167.562 83.229,168.368 80.938 C 169.175 78.646,171.003 73.443,172.431 69.375 C 173.858 65.307,175.183 61.533,175.375 60.989 L 175.723 59.998 201.526 60.051 L 227.328 60.104 230.433 68.958 " stroke="none" fill="#a40c34" fill-rule="evenodd"></path></g></svg>