<svg id="svg" version="1.1" xmlns="http://www.w3.org/2000/svg" xmlns:xlink="http://www.w3.org/1999/xlink" width="400" height="404.8411497730711" viewBox="0, 0, 400,404.8411497730711"><g id="svgg"><path id="path0" d="M204.412 0.474 C 202.109 0.674,200.129 0.984,200.012 1.164 C 199.896 1.344,198.765 1.619,197.500 1.775 C 196.235 1.930,195.200 2.204,195.200 2.383 C 195.200 2.563,194.390 2.831,193.400 2.979 C 192.410 3.128,191.600 3.418,191.600 3.625 C 191.600 3.831,191.195 4.006,190.700 4.014 C 190.205 4.021,189.080 4.375,188.200 4.800 C 187.320 5.225,186.375 5.579,186.100 5.586 C 185.825 5.594,185.600 5.780,185.600 6.000 C 185.600 6.220,185.285 6.406,184.900 6.414 C 184.515 6.421,183.480 6.775,182.600 7.200 C 181.720 7.625,180.790 7.979,180.533 7.986 C 180.277 7.994,180.007 8.135,179.933 8.300 C 179.860 8.465,178.585 9.224,177.100 9.987 C 175.615 10.750,174.400 11.496,174.400 11.644 C 174.400 11.792,173.928 12.032,173.352 12.176 C 172.775 12.321,172.061 12.656,171.766 12.920 C 170.504 14.046,170.088 14.318,169.188 14.604 C 168.665 14.770,167.991 15.152,167.690 15.453 C 167.389 15.754,166.905 16.000,166.614 16.000 C 166.323 16.000,165.982 16.270,165.855 16.600 C 165.729 16.930,165.349 17.200,165.013 17.200 C 164.676 17.200,164.400 17.377,164.400 17.592 C 164.400 17.808,163.963 18.094,163.429 18.228 C 162.895 18.363,162.361 18.726,162.241 19.036 C 162.122 19.346,161.749 19.600,161.413 19.600 C 161.076 19.600,160.800 19.777,160.800 19.992 C 160.800 20.208,160.363 20.494,159.829 20.628 C 159.295 20.763,158.761 21.126,158.641 21.436 C 158.522 21.746,158.149 22.000,157.813 22.000 C 157.476 22.000,157.200 22.144,157.200 22.320 C 157.200 22.495,156.485 23.080,155.611 23.620 C 154.737 24.159,154.017 24.735,154.011 24.900 C 154.005 25.065,153.758 25.200,153.462 25.200 C 153.166 25.200,152.598 25.560,152.200 26.000 C 151.802 26.440,151.300 26.800,151.084 26.800 C 150.868 26.800,150.275 27.250,149.765 27.800 C 149.255 28.350,148.676 28.800,148.478 28.800 C 148.279 28.800,147.663 29.205,147.107 29.700 C 146.552 30.195,145.511 31.050,144.795 31.600 C 143.134 32.874,139.718 35.732,138.326 37.012 C 137.735 37.556,137.123 38.000,136.966 38.000 C 136.809 38.000,136.069 38.630,135.321 39.400 C 134.573 40.170,133.790 40.800,133.580 40.800 C 133.371 40.800,132.500 41.520,131.646 42.400 C 130.792 43.280,129.933 44.000,129.736 44.000 C 129.539 44.000,129.104 44.315,128.770 44.700 C 128.436 45.085,127.477 45.940,126.638 46.600 C 125.799 47.260,124.040 48.835,122.729 50.100 C 121.418 51.365,120.217 52.400,120.060 52.400 C 119.764 52.400,116.196 55.705,110.538 61.220 C 108.743 62.969,107.155 64.400,107.007 64.400 C 106.859 64.400,106.224 64.895,105.594 65.500 C 104.965 66.105,102.455 68.490,100.017 70.800 C 93.119 77.335,66.710 103.722,65.663 105.125 C 65.147 105.815,63.302 107.813,61.563 109.565 C 59.823 111.316,58.400 112.849,58.400 112.972 C 58.400 113.095,57.320 114.249,56.000 115.537 C 54.680 116.824,53.600 118.010,53.600 118.171 C 53.600 118.331,52.790 119.273,51.800 120.263 C 50.810 121.253,50.000 122.184,50.000 122.332 C 50.000 122.481,49.235 123.445,48.300 124.477 C 46.090 126.913,44.243 129.199,44.035 129.752 C 43.944 129.994,43.359 130.703,42.735 131.327 C 42.111 131.951,41.592 132.673,41.583 132.931 C 41.574 133.189,41.034 133.842,40.383 134.381 C 39.732 134.921,39.200 135.530,39.200 135.735 C 39.200 135.940,38.771 136.506,38.247 136.992 C 37.723 137.478,37.176 138.247,37.032 138.701 C 36.887 139.155,36.506 139.627,36.185 139.750 C 35.863 139.874,35.600 140.236,35.600 140.554 C 35.600 140.873,35.465 141.193,35.300 141.267 C 34.918 141.436,32.400 144.673,32.400 144.993 C 32.400 145.126,32.217 145.451,31.993 145.717 C 30.366 147.645,30.000 148.187,30.000 148.661 C 30.000 148.958,29.820 149.200,29.600 149.200 C 29.380 149.200,29.200 149.387,29.200 149.616 C 29.200 150.010,27.683 152.370,27.154 152.800 C 27.019 152.910,26.770 153.442,26.601 153.981 C 26.432 154.521,26.048 155.209,25.747 155.510 C 25.446 155.811,25.200 156.314,25.200 156.629 C 25.200 156.943,25.034 157.200,24.832 157.200 C 24.629 157.200,24.345 157.740,24.200 158.400 C 24.055 159.060,23.785 159.600,23.600 159.600 C 23.415 159.600,23.145 160.140,23.000 160.800 C 22.855 161.460,22.585 162.000,22.400 162.000 C 22.215 162.000,21.945 162.540,21.800 163.200 C 21.655 163.860,21.385 164.400,21.200 164.400 C 21.015 164.400,20.745 164.940,20.600 165.600 C 20.455 166.260,20.191 166.800,20.013 166.800 C 19.835 166.800,19.571 167.430,19.426 168.200 C 19.282 168.970,18.992 169.600,18.782 169.600 C 18.572 169.600,18.399 170.005,18.398 170.500 C 18.396 170.995,18.144 171.880,17.838 172.467 C 17.532 173.054,17.157 174.268,17.006 175.165 C 16.854 176.062,16.584 176.886,16.405 176.997 C 16.225 177.108,15.949 178.324,15.791 179.699 C 15.633 181.075,15.307 182.324,15.066 182.477 C 14.465 182.856,14.458 198.337,15.059 198.723 C 15.295 198.876,15.614 199.851,15.768 200.891 C 15.921 201.931,16.195 202.874,16.378 202.986 C 16.560 203.099,16.828 203.823,16.973 204.596 C 17.140 205.485,17.464 206.000,17.857 206.000 C 18.549 206.000,18.262 201.133,17.554 200.867 C 17.096 200.694,17.090 188.516,17.547 188.232 C 17.739 188.114,18.019 186.754,18.172 185.209 C 18.324 183.664,18.597 182.400,18.779 182.400 C 18.961 182.400,19.231 181.590,19.379 180.600 C 19.528 179.610,19.795 178.800,19.973 178.800 C 20.152 178.800,20.413 178.080,20.554 177.200 C 20.694 176.320,20.967 175.600,21.160 175.600 C 21.353 175.600,21.629 174.970,21.774 174.200 C 21.918 173.430,22.194 172.800,22.386 172.800 C 22.579 172.800,22.855 172.260,23.000 171.600 C 23.145 170.940,23.410 170.400,23.588 170.400 C 23.767 170.400,24.037 169.907,24.188 169.304 C 24.340 168.701,24.584 168.116,24.732 168.004 C 24.879 167.892,25.450 166.900,26.000 165.800 C 26.550 164.700,27.225 163.656,27.500 163.480 C 27.775 163.304,28.000 162.899,28.000 162.580 C 28.000 162.261,28.160 162.000,28.357 162.000 C 28.553 162.000,28.826 161.550,28.964 161.000 C 29.102 160.450,29.392 160.000,29.608 160.000 C 29.823 160.000,30.000 159.770,30.000 159.489 C 30.000 159.208,30.360 158.670,30.800 158.293 C 31.240 157.916,31.600 157.355,31.600 157.047 C 31.600 156.738,31.870 156.382,32.200 156.255 C 32.530 156.129,32.800 155.755,32.800 155.426 C 32.800 155.096,33.385 154.212,34.100 153.461 C 36.386 151.058,37.200 150.095,37.200 149.789 C 37.200 149.626,37.605 149.111,38.101 148.646 C 38.597 148.181,39.408 147.260,39.904 146.600 C 42.420 143.254,54.829 130.315,61.488 124.093 C 63.200 122.494,66.030 119.839,67.777 118.193 C 69.525 116.547,71.080 115.200,71.233 115.200 C 71.387 115.200,72.505 114.255,73.719 113.100 C 74.933 111.945,76.863 110.190,78.008 109.200 C 79.153 108.210,80.507 107.040,81.016 106.600 C 81.526 106.160,82.525 105.350,83.236 104.800 C 83.948 104.250,85.137 103.215,85.878 102.500 C 86.620 101.785,87.392 101.200,87.594 101.200 C 87.796 101.200,88.573 100.570,89.321 99.800 C 90.069 99.030,90.805 98.400,90.956 98.400 C 91.107 98.400,91.980 97.680,92.896 96.800 C 93.812 95.920,94.691 95.200,94.850 95.200 C 95.009 95.200,95.678 94.660,96.338 94.000 C 96.998 93.340,97.696 92.800,97.888 92.800 C 98.080 92.800,98.679 92.268,99.219 91.617 C 99.758 90.966,100.399 90.426,100.642 90.417 C 100.884 90.408,101.537 89.995,102.093 89.500 C 103.454 88.286,105.181 86.928,106.428 86.091 C 107.472 85.390,108.155 84.841,109.776 83.400 C 110.271 82.960,111.289 82.163,112.038 81.630 C 112.787 81.096,113.544 80.421,113.720 80.130 C 113.896 79.838,114.235 79.600,114.474 79.600 C 114.713 79.600,115.306 79.171,115.792 78.647 C 116.278 78.123,117.047 77.576,117.501 77.432 C 117.955 77.287,118.427 76.906,118.550 76.585 C 118.674 76.263,118.985 76.000,119.242 76.000 C 119.498 76.000,120.125 75.550,120.635 75.000 C 121.145 74.450,121.737 74.000,121.950 74.000 C 122.164 74.000,122.878 73.460,123.538 72.800 C 124.198 72.140,124.938 71.600,125.182 71.600 C 125.426 71.600,125.722 71.346,125.841 71.036 C 125.961 70.726,126.495 70.363,127.029 70.228 C 127.563 70.094,128.000 69.838,128.000 69.659 C 128.000 69.480,129.035 68.630,130.300 67.772 C 131.565 66.913,132.690 66.117,132.800 66.002 C 132.910 65.887,133.674 65.344,134.497 64.796 C 135.321 64.248,135.996 63.665,135.997 63.500 C 135.999 63.335,136.261 63.200,136.580 63.200 C 136.899 63.200,137.304 62.975,137.480 62.700 C 137.656 62.425,138.700 61.580,139.800 60.821 C 140.900 60.063,141.944 59.208,142.120 58.921 C 142.296 58.635,142.701 58.400,143.020 58.400 C 143.339 58.400,143.600 58.223,143.600 58.008 C 143.600 57.792,144.037 57.506,144.571 57.372 C 145.105 57.237,145.639 56.874,145.759 56.564 C 145.878 56.254,146.185 56.000,146.442 56.000 C 146.698 56.000,147.306 55.571,147.792 55.047 C 148.278 54.523,149.063 53.970,149.538 53.820 C 150.012 53.669,150.400 53.378,150.400 53.173 C 150.400 52.968,150.676 52.800,151.013 52.800 C 151.349 52.800,151.722 52.546,151.841 52.236 C 151.961 51.926,152.495 51.563,153.029 51.428 C 153.563 51.294,154.000 51.008,154.000 50.792 C 154.000 50.577,154.242 50.400,154.539 50.400 C 155.013 50.400,155.555 50.034,157.483 48.407 C 157.749 48.183,158.126 48.000,158.322 48.000 C 158.633 48.000,159.083 47.677,161.031 46.056 C 161.268 45.859,161.853 45.574,162.331 45.422 C 162.809 45.270,163.200 44.978,163.200 44.773 C 163.200 44.568,163.476 44.400,163.813 44.400 C 164.149 44.400,164.522 44.146,164.641 43.836 C 164.761 43.526,165.295 43.163,165.829 43.028 C 166.363 42.894,166.800 42.608,166.800 42.392 C 166.800 42.177,167.076 42.000,167.413 42.000 C 167.749 42.000,168.124 41.741,168.246 41.424 C 168.367 41.108,168.992 40.734,169.633 40.593 C 170.275 40.452,170.800 40.174,170.800 39.976 C 170.800 39.778,171.250 39.502,171.800 39.364 C 172.350 39.226,172.800 38.953,172.800 38.757 C 172.800 38.560,173.061 38.400,173.380 38.400 C 173.699 38.400,174.104 38.175,174.280 37.900 C 174.456 37.625,175.275 37.057,176.100 36.637 C 176.925 36.217,177.600 35.737,177.600 35.569 C 177.600 35.401,178.140 35.145,178.800 35.000 C 179.460 34.855,180.000 34.574,180.000 34.376 C 180.000 34.178,180.450 33.902,181.000 33.764 C 181.550 33.626,182.000 33.372,182.000 33.200 C 182.000 33.028,182.472 32.768,183.048 32.624 C 183.625 32.479,184.339 32.144,184.634 31.880 C 185.986 30.673,186.398 30.416,187.366 30.173 C 187.935 30.030,188.400 29.767,188.400 29.588 C 188.400 29.410,188.940 29.145,189.600 29.000 C 190.260 28.855,190.800 28.585,190.800 28.400 C 190.800 28.215,191.340 27.945,192.000 27.800 C 192.660 27.655,193.200 27.385,193.200 27.200 C 193.200 27.015,193.740 26.745,194.400 26.600 C 195.060 26.455,195.600 26.185,195.600 26.000 C 195.600 25.815,196.140 25.545,196.800 25.400 C 197.460 25.255,198.000 24.979,198.000 24.786 C 198.000 24.594,198.630 24.318,199.400 24.174 C 200.170 24.029,200.800 23.771,200.800 23.600 C 200.800 23.429,201.430 23.171,202.200 23.026 C 202.970 22.882,203.600 22.606,203.600 22.414 C 203.600 22.221,204.152 21.942,204.827 21.794 C 205.502 21.646,206.537 21.273,207.127 20.965 C 207.717 20.657,208.515 20.404,208.900 20.402 C 209.285 20.401,209.600 20.243,209.600 20.051 C 209.600 19.859,210.320 19.587,211.200 19.446 C 212.080 19.306,212.800 19.019,212.800 18.809 C 212.800 18.599,213.700 18.308,214.800 18.162 C 215.900 18.016,216.800 17.757,216.800 17.586 C 216.800 17.415,217.700 17.151,218.800 17.000 C 219.899 16.849,220.889 16.580,220.999 16.402 C 221.109 16.224,222.324 15.951,223.699 15.795 C 225.075 15.639,226.426 15.328,226.702 15.104 C 226.979 14.881,230.444 14.605,234.402 14.492 C 239.830 14.336,241.600 14.161,241.600 13.779 C 241.600 12.882,235.921 7.600,234.957 7.600 C 234.698 7.600,234.382 7.330,234.255 7.000 C 234.129 6.670,233.749 6.400,233.413 6.400 C 233.076 6.400,232.800 6.240,232.800 6.043 C 232.800 5.847,232.350 5.574,231.800 5.436 C 231.250 5.298,230.800 5.022,230.800 4.824 C 230.800 4.626,230.260 4.345,229.600 4.200 C 228.940 4.055,228.400 3.779,228.400 3.586 C 228.400 3.394,227.768 3.118,226.996 2.973 C 226.223 2.828,225.502 2.565,225.393 2.389 C 225.285 2.214,224.432 1.942,223.498 1.786 C 222.564 1.630,221.702 1.348,221.582 1.160 C 221.014 0.269,211.267 -0.120,204.412 0.474 M238.232 28.348 C 238.114 28.539,236.574 28.821,234.809 28.975 C 233.044 29.129,231.600 29.397,231.600 29.571 C 231.600 29.744,230.493 30.002,229.141 30.143 C 227.788 30.284,226.475 30.572,226.221 30.782 C 225.968 30.993,225.004 31.286,224.080 31.434 C 223.156 31.581,222.400 31.859,222.400 32.051 C 222.400 32.243,221.905 32.401,221.300 32.402 C 220.695 32.404,219.717 32.657,219.127 32.965 C 218.537 33.273,217.504 33.645,216.832 33.793 C 216.159 33.941,215.506 34.228,215.381 34.431 C 215.255 34.634,214.713 34.800,214.176 34.800 C 213.639 34.800,213.200 34.972,213.200 35.182 C 213.200 35.392,212.570 35.682,211.800 35.826 C 211.030 35.971,210.400 36.235,210.400 36.413 C 210.400 36.591,209.860 36.855,209.200 37.000 C 208.540 37.145,208.000 37.406,208.000 37.581 C 208.000 37.755,207.280 38.013,206.400 38.154 C 205.520 38.294,204.800 38.573,204.800 38.773 C 204.800 38.973,204.260 39.255,203.600 39.400 C 202.940 39.545,202.400 39.809,202.400 39.987 C 202.400 40.165,201.770 40.429,201.000 40.574 C 200.230 40.718,199.600 41.008,199.600 41.218 C 199.600 41.428,199.375 41.606,199.100 41.614 C 198.825 41.621,197.880 41.975,197.000 42.400 C 196.120 42.825,195.190 43.179,194.933 43.186 C 194.677 43.194,194.407 43.335,194.333 43.500 C 194.260 43.665,193.390 44.219,192.400 44.730 C 189.722 46.114,188.224 46.970,188.000 47.246 C 187.890 47.381,187.350 47.631,186.800 47.800 C 186.250 47.969,185.710 48.219,185.600 48.354 C 185.490 48.489,184.500 49.050,183.400 49.600 C 182.300 50.150,181.310 50.694,181.200 50.808 C 181.090 50.923,180.550 51.236,180.000 51.505 C 178.772 52.106,177.468 52.916,177.200 53.246 C 177.090 53.381,176.595 53.619,176.100 53.773 C 175.605 53.928,175.200 54.207,175.200 54.395 C 175.200 54.583,174.660 54.855,174.000 55.000 C 173.340 55.145,172.800 55.397,172.800 55.561 C 172.800 55.724,171.990 56.263,171.000 56.757 C 170.010 57.252,169.198 57.778,169.195 57.928 C 169.193 58.078,168.473 58.544,167.595 58.964 C 166.718 59.385,166.000 59.880,166.000 60.064 C 166.000 60.249,165.724 60.400,165.387 60.400 C 165.051 60.400,164.676 60.659,164.554 60.976 C 164.433 61.292,163.808 61.666,163.167 61.807 C 162.525 61.948,162.000 62.226,162.000 62.424 C 162.000 62.622,161.563 62.894,161.029 63.028 C 160.495 63.163,159.961 63.526,159.841 63.836 C 159.722 64.146,159.349 64.400,159.013 64.400 C 158.676 64.400,158.400 64.577,158.400 64.792 C 158.400 65.008,157.950 65.298,157.400 65.436 C 156.850 65.574,156.400 65.847,156.400 66.043 C 156.400 66.240,156.124 66.400,155.787 66.400 C 155.451 66.400,155.078 66.654,154.959 66.964 C 154.839 67.274,154.305 67.637,153.771 67.772 C 153.237 67.906,152.800 68.192,152.800 68.408 C 152.800 68.623,152.613 68.800,152.384 68.800 C 151.990 68.800,149.630 70.317,149.200 70.846 C 149.090 70.981,148.595 71.219,148.100 71.373 C 147.605 71.528,147.200 71.822,147.200 72.027 C 147.200 72.232,146.924 72.400,146.587 72.400 C 146.251 72.400,145.878 72.654,145.759 72.964 C 145.639 73.274,145.105 73.637,144.571 73.772 C 144.037 73.906,143.600 74.192,143.600 74.408 C 143.600 74.623,143.370 74.800,143.089 74.800 C 142.808 74.800,142.270 75.160,141.893 75.600 C 141.516 76.040,140.955 76.400,140.647 76.400 C 140.338 76.400,139.982 76.670,139.855 77.000 C 139.729 77.330,139.427 77.600,139.184 77.600 C 138.941 77.600,138.504 77.825,138.212 78.100 C 137.696 78.585,132.574 82.192,131.254 83.000 C 130.894 83.220,130.456 83.625,130.280 83.900 C 130.104 84.175,129.776 84.400,129.552 84.400 C 129.327 84.400,128.892 84.625,128.585 84.900 C 127.256 86.092,126.808 86.400,126.404 86.400 C 126.168 86.400,125.871 86.670,125.745 87.000 C 125.618 87.330,125.291 87.600,125.018 87.600 C 124.746 87.600,124.143 87.915,123.680 88.300 C 121.878 89.798,121.024 90.400,120.700 90.400 C 120.514 90.400,119.945 90.850,119.435 91.400 C 118.925 91.950,118.298 92.400,118.042 92.400 C 117.785 92.400,117.471 92.670,117.345 93.000 C 117.218 93.330,116.862 93.600,116.553 93.600 C 116.245 93.600,115.684 93.960,115.307 94.400 C 114.930 94.840,114.458 95.200,114.257 95.200 C 114.056 95.200,113.494 95.629,113.008 96.153 C 112.522 96.677,111.737 97.230,111.262 97.380 C 110.788 97.531,110.400 97.822,110.400 98.027 C 110.400 98.232,110.139 98.400,109.820 98.400 C 109.501 98.400,109.096 98.627,108.920 98.904 C 108.744 99.181,107.926 99.856,107.103 100.404 C 106.279 100.952,105.604 101.535,105.603 101.700 C 105.601 101.865,105.422 102.000,105.203 102.000 C 104.724 102.000,101.055 104.746,100.867 105.246 C 100.793 105.441,100.491 105.600,100.196 105.600 C 99.900 105.600,99.304 106.050,98.871 106.600 C 98.439 107.150,97.900 107.600,97.673 107.600 C 97.447 107.600,96.753 108.105,96.131 108.723 C 95.509 109.341,94.685 109.965,94.300 110.111 C 93.915 110.256,93.600 110.548,93.600 110.760 C 93.600 110.973,93.203 111.272,92.717 111.426 C 92.232 111.580,91.382 112.223,90.828 112.853 C 90.275 113.484,89.658 114.000,89.457 114.000 C 89.256 114.000,88.675 114.450,88.165 115.000 C 87.655 115.550,87.063 116.000,86.850 116.000 C 86.636 116.000,85.922 116.540,85.262 117.200 C 84.602 117.860,83.913 118.406,83.731 118.413 C 83.549 118.420,82.779 119.050,82.019 119.813 C 81.260 120.576,80.470 121.200,80.265 121.200 C 80.060 121.200,79.511 121.605,79.046 122.101 C 78.581 122.597,77.660 123.410,77.000 123.908 C 75.240 125.236,72.560 127.563,70.560 129.500 C 69.595 130.435,68.686 131.200,68.541 131.200 C 68.396 131.200,67.224 132.280,65.937 133.600 C 64.649 134.920,63.419 136.000,63.204 136.000 C 62.664 136.000,44.000 154.641,44.000 155.180 C 44.000 155.418,43.190 156.390,42.200 157.338 C 41.210 158.287,40.400 159.198,40.400 159.362 C 40.400 159.527,39.860 160.202,39.200 160.862 C 38.540 161.522,37.992 162.273,37.983 162.531 C 37.974 162.789,37.434 163.442,36.783 163.981 C 36.132 164.521,35.600 165.181,35.600 165.448 C 35.600 165.715,35.465 165.993,35.300 166.067 C 34.799 166.289,32.400 169.524,32.400 169.977 C 32.400 170.209,32.261 170.400,32.092 170.400 C 31.922 170.400,31.341 171.210,30.800 172.200 C 30.259 173.190,29.692 174.000,29.540 174.000 C 29.388 174.000,29.145 174.540,29.000 175.200 C 28.855 175.860,28.590 176.400,28.412 176.400 C 28.233 176.400,27.974 176.850,27.836 177.400 C 27.698 177.950,27.422 178.400,27.224 178.400 C 27.026 178.400,26.745 178.940,26.600 179.600 C 26.455 180.260,26.191 180.800,26.013 180.800 C 25.835 180.800,25.571 181.430,25.426 182.200 C 25.282 182.970,24.994 183.600,24.787 183.600 C 24.579 183.600,24.294 184.320,24.154 185.200 C 24.013 186.080,23.752 186.800,23.573 186.800 C 23.395 186.800,23.128 187.610,22.979 188.600 C 22.831 189.590,22.564 190.400,22.386 190.400 C 22.209 190.400,21.938 191.573,21.785 193.006 C 21.631 194.439,21.347 195.709,21.153 195.829 C 20.367 196.315,20.754 210.117,21.584 211.197 C 22.626 212.553,22.715 212.154,22.901 205.268 C 22.992 201.912,23.229 199.425,23.473 199.268 C 23.702 199.121,24.015 198.145,24.169 197.100 C 24.323 196.055,24.598 195.200,24.779 195.200 C 24.961 195.200,25.231 194.390,25.379 193.400 C 25.528 192.410,25.804 191.600,25.993 191.600 C 26.182 191.600,26.455 191.060,26.600 190.400 C 26.745 189.740,27.015 189.200,27.200 189.200 C 27.385 189.200,27.655 188.660,27.800 188.000 C 27.945 187.340,28.229 186.800,28.432 186.800 C 28.634 186.800,28.800 186.543,28.800 186.229 C 28.800 185.914,29.027 185.419,29.305 185.129 C 29.582 184.838,30.031 184.150,30.302 183.600 C 30.996 182.191,31.660 181.201,32.700 180.025 C 33.195 179.466,33.600 178.807,33.600 178.560 C 33.600 178.314,34.050 177.774,34.600 177.361 C 35.150 176.948,35.603 176.428,35.607 176.205 C 35.611 175.982,36.080 175.357,36.651 174.816 C 37.221 174.274,38.163 173.207,38.744 172.444 C 40.016 170.773,48.339 162.400,48.728 162.400 C 48.879 162.400,50.014 161.455,51.249 160.300 C 52.484 159.145,54.177 157.660,55.011 157.000 C 55.845 156.340,56.932 155.440,57.428 155.000 C 57.924 154.560,58.722 153.930,59.202 153.600 C 59.682 153.270,60.401 152.730,60.800 152.400 C 61.199 152.070,61.924 151.530,62.412 151.200 C 62.899 150.870,63.501 150.410,63.749 150.178 C 63.997 149.945,64.515 149.636,64.900 149.490 C 65.285 149.344,65.600 149.052,65.600 148.840 C 65.600 148.627,65.957 148.340,66.394 148.202 C 67.135 147.967,68.286 147.118,70.003 145.539 C 70.398 145.176,71.099 144.759,71.561 144.613 C 72.022 144.466,72.400 144.178,72.400 143.973 C 72.400 143.768,72.676 143.600,73.013 143.600 C 73.349 143.600,73.722 143.346,73.841 143.036 C 73.961 142.726,74.495 142.363,75.029 142.228 C 75.563 142.094,76.000 141.808,76.000 141.592 C 76.000 141.377,76.276 141.200,76.613 141.200 C 76.949 141.200,77.322 140.946,77.441 140.636 C 77.561 140.326,78.095 139.963,78.629 139.828 C 79.163 139.694,79.600 139.408,79.600 139.192 C 79.600 138.977,79.876 138.800,80.213 138.800 C 80.549 138.800,80.929 138.530,81.055 138.200 C 81.182 137.870,81.632 137.600,82.055 137.600 C 82.479 137.600,82.929 137.330,83.055 137.000 C 83.182 136.670,83.495 136.400,83.752 136.400 C 84.008 136.400,85.175 135.770,86.344 135.000 C 87.513 134.230,88.634 133.600,88.835 133.600 C 89.036 133.600,89.200 133.441,89.200 133.247 C 89.200 133.052,89.515 132.779,89.900 132.640 C 90.938 132.265,92.328 131.407,93.380 130.492 C 93.893 130.046,94.728 129.550,95.237 129.388 C 95.746 129.227,96.409 128.848,96.710 128.547 C 97.011 128.246,97.514 128.000,97.829 128.000 C 98.143 128.000,98.400 127.820,98.400 127.600 C 98.400 127.380,98.676 127.200,99.013 127.200 C 99.349 127.200,99.724 126.941,99.846 126.624 C 99.967 126.308,100.592 125.934,101.233 125.793 C 101.875 125.652,102.400 125.374,102.400 125.176 C 102.400 124.978,102.850 124.702,103.400 124.564 C 103.950 124.426,104.400 124.167,104.400 123.988 C 104.400 123.810,104.940 123.545,105.600 123.400 C 106.260 123.255,106.800 122.974,106.800 122.776 C 106.800 122.578,107.250 122.302,107.800 122.164 C 108.350 122.026,108.800 121.767,108.800 121.588 C 108.800 121.410,109.340 121.145,110.000 121.000 C 110.660 120.855,111.200 120.571,111.200 120.368 C 111.200 120.166,111.476 120.000,111.813 120.000 C 112.149 120.000,112.524 119.741,112.646 119.424 C 112.767 119.108,113.392 118.734,114.033 118.593 C 114.675 118.452,115.200 118.185,115.200 118.000 C 115.200 117.815,115.740 117.545,116.400 117.400 C 117.060 117.255,117.600 116.974,117.600 116.776 C 117.600 116.578,118.050 116.302,118.600 116.164 C 119.150 116.026,119.600 115.772,119.600 115.600 C 119.600 115.428,120.093 115.163,120.696 115.012 C 121.299 114.860,121.884 114.616,121.996 114.468 C 122.108 114.320,123.055 113.782,124.100 113.272 C 125.145 112.761,126.000 112.191,126.000 112.004 C 126.000 111.817,126.540 111.545,127.200 111.400 C 127.860 111.255,128.400 110.971,128.400 110.768 C 128.400 110.566,128.672 110.400,129.004 110.400 C 129.923 110.400,138.206 105.955,138.804 105.141 C 138.916 104.988,139.501 104.740,140.104 104.588 C 140.707 104.437,141.200 104.167,141.200 103.988 C 141.200 103.810,141.740 103.545,142.400 103.400 C 143.060 103.255,143.600 102.985,143.600 102.800 C 143.600 102.615,144.140 102.345,144.800 102.200 C 145.460 102.055,146.000 101.785,146.000 101.600 C 146.000 101.415,146.540 101.145,147.200 101.000 C 147.860 100.855,148.400 100.585,148.400 100.400 C 148.400 100.215,148.940 99.945,149.600 99.800 C 150.260 99.655,150.800 99.371,150.800 99.168 C 150.800 98.966,151.025 98.794,151.300 98.786 C 151.575 98.779,152.520 98.425,153.400 98.000 C 154.280 97.575,155.225 97.221,155.500 97.214 C 155.775 97.206,156.000 97.034,156.000 96.832 C 156.000 96.629,156.540 96.345,157.200 96.200 C 157.860 96.055,158.400 95.785,158.400 95.600 C 158.400 95.415,158.940 95.145,159.600 95.000 C 160.260 94.855,160.800 94.585,160.800 94.400 C 160.800 94.215,161.340 93.945,162.000 93.800 C 162.660 93.655,163.200 93.371,163.200 93.168 C 163.200 92.966,163.425 92.794,163.700 92.786 C 163.975 92.779,164.920 92.425,165.800 92.000 C 166.680 91.575,167.625 91.221,167.900 91.214 C 168.175 91.206,168.400 91.034,168.400 90.832 C 168.400 90.629,168.940 90.345,169.600 90.200 C 170.260 90.055,170.800 89.785,170.800 89.600 C 170.800 89.415,171.340 89.145,172.000 89.000 C 172.660 88.855,173.200 88.585,173.200 88.400 C 173.200 88.215,173.740 87.945,174.400 87.800 C 175.060 87.655,175.600 87.371,175.600 87.168 C 175.600 86.966,175.961 86.800,176.401 86.800 C 176.842 86.800,177.875 86.440,178.696 86.000 C 179.516 85.560,180.416 85.200,180.694 85.200 C 180.972 85.200,181.200 85.057,181.200 84.883 C 181.200 84.708,182.190 84.229,183.400 83.818 C 184.610 83.407,185.600 82.934,185.600 82.767 C 185.600 82.600,186.140 82.345,186.800 82.200 C 187.460 82.055,188.000 81.791,188.000 81.613 C 188.000 81.435,188.630 81.171,189.400 81.026 C 190.170 80.882,190.800 80.606,190.800 80.414 C 190.800 80.221,191.340 79.945,192.000 79.800 C 192.660 79.655,193.200 79.394,193.200 79.219 C 193.200 79.045,193.920 78.787,194.800 78.646 C 195.680 78.506,196.400 78.233,196.400 78.040 C 196.400 77.847,197.030 77.571,197.800 77.426 C 198.570 77.282,199.200 77.008,199.200 76.817 C 199.200 76.626,199.920 76.349,200.800 76.200 C 201.680 76.051,202.400 75.780,202.400 75.597 C 202.400 75.413,202.952 75.142,203.627 74.994 C 204.302 74.846,205.337 74.473,205.927 74.165 C 206.517 73.857,207.315 73.604,207.700 73.602 C 208.085 73.601,208.400 73.422,208.400 73.205 C 208.400 72.987,209.120 72.694,210.000 72.554 C 210.880 72.413,211.600 72.161,211.600 71.993 C 211.600 71.826,212.230 71.571,213.000 71.426 C 213.770 71.282,214.400 71.012,214.400 70.827 C 214.400 70.642,215.210 70.369,216.200 70.221 C 217.190 70.072,218.000 69.782,218.000 69.575 C 218.000 69.369,218.405 69.194,218.900 69.186 C 219.395 69.179,220.520 68.825,221.400 68.400 C 222.280 67.975,223.405 67.621,223.900 67.614 C 224.395 67.606,224.800 67.437,224.800 67.238 C 224.800 67.038,225.700 66.751,226.800 66.600 C 227.899 66.449,228.894 66.172,229.009 65.986 C 229.124 65.799,230.024 65.525,231.009 65.378 C 231.994 65.230,232.800 64.966,232.800 64.792 C 232.800 64.618,233.700 64.351,234.800 64.200 C 235.900 64.049,236.800 63.783,236.800 63.609 C 236.800 63.435,237.787 63.169,238.994 63.018 C 240.200 62.867,241.280 62.594,241.393 62.411 C 241.506 62.228,242.679 61.953,243.999 61.800 C 245.320 61.647,246.400 61.391,246.400 61.233 C 246.400 60.976,249.416 60.441,254.800 59.742 C 255.790 59.613,256.728 59.304,256.885 59.054 C 257.284 58.420,281.107 58.411,281.514 59.045 C 281.671 59.289,282.340 59.589,283.000 59.710 C 285.053 60.088,287.745 60.857,289.060 61.440 C 290.897 62.256,292.000 62.165,292.000 61.200 C 292.000 60.760,291.820 60.400,291.600 60.400 C 291.380 60.400,291.200 60.208,291.200 59.974 C 291.200 59.208,288.620 54.141,287.954 53.600 C 287.819 53.490,287.581 52.995,287.427 52.500 C 287.272 52.005,286.978 51.600,286.773 51.600 C 286.568 51.600,286.400 51.324,286.400 50.987 C 286.400 50.651,286.146 50.278,285.836 50.159 C 285.526 50.039,285.163 49.505,285.028 48.971 C 284.894 48.437,284.608 48.000,284.392 48.000 C 284.177 48.000,284.000 47.739,284.000 47.420 C 284.000 47.101,283.771 46.696,283.490 46.520 C 283.210 46.344,282.686 45.735,282.325 45.167 C 281.475 43.828,275.772 38.125,274.433 37.275 C 273.865 36.914,273.256 36.390,273.080 36.110 C 272.904 35.829,272.499 35.600,272.180 35.600 C 271.861 35.600,271.600 35.448,271.600 35.263 C 271.600 35.078,270.925 34.583,270.100 34.163 C 269.275 33.743,268.510 33.288,268.400 33.151 C 268.117 32.799,264.529 31.200,264.022 31.200 C 263.790 31.200,263.600 31.043,263.600 30.851 C 263.600 30.659,262.844 30.381,261.920 30.234 C 260.996 30.086,260.032 29.793,259.779 29.582 C 259.525 29.372,258.206 29.084,256.847 28.942 C 255.487 28.800,254.280 28.530,254.164 28.342 C 253.886 27.892,238.511 27.897,238.232 28.348 M310.000 61.940 C 310.000 62.500,311.318 63.200,312.374 63.200 C 312.828 63.200,313.200 63.380,313.200 63.600 C 313.200 63.820,313.515 64.006,313.900 64.014 C 314.285 64.021,315.320 64.375,316.200 64.800 C 317.080 65.225,318.025 65.579,318.300 65.586 C 318.575 65.594,318.800 65.766,318.800 65.968 C 318.800 66.171,319.325 66.452,319.967 66.593 C 320.608 66.734,321.233 67.108,321.354 67.424 C 321.476 67.741,321.851 68.000,322.187 68.000 C 322.524 68.000,322.800 68.168,322.800 68.373 C 322.800 68.578,323.197 68.872,323.683 69.026 C 324.168 69.180,325.018 69.823,325.572 70.453 C 326.125 71.084,326.732 71.600,326.921 71.600 C 327.337 71.600,332.000 76.216,332.000 76.628 C 332.000 76.788,332.630 77.531,333.400 78.279 C 334.170 79.027,334.800 79.900,334.800 80.219 C 334.800 80.539,334.956 80.800,335.147 80.800 C 335.445 80.800,337.405 83.410,338.000 84.600 C 338.458 85.516,340.543 88.616,340.828 88.804 C 340.998 88.916,341.260 89.501,341.412 90.104 C 341.563 90.707,341.833 91.200,342.012 91.200 C 342.190 91.200,342.455 91.740,342.600 92.400 C 342.745 93.060,343.015 93.600,343.200 93.600 C 343.385 93.600,343.655 94.140,343.800 94.800 C 343.945 95.460,344.215 96.000,344.400 96.000 C 344.585 96.000,344.855 96.540,345.000 97.200 C 345.145 97.860,345.421 98.400,345.614 98.400 C 345.806 98.400,346.082 99.030,346.226 99.800 C 346.371 100.570,346.635 101.200,346.813 101.200 C 346.991 101.200,347.255 101.740,347.400 102.400 C 347.545 103.060,347.809 103.600,347.986 103.600 C 348.164 103.600,348.431 104.410,348.579 105.400 C 348.728 106.390,349.002 107.200,349.189 107.200 C 349.377 107.200,349.651 107.920,349.800 108.800 C 349.949 109.680,350.234 110.400,350.435 110.400 C 350.636 110.400,350.801 110.805,350.802 111.300 C 350.804 111.795,351.076 112.719,351.406 113.353 C 351.737 113.987,352.119 115.202,352.255 116.053 C 352.391 116.904,352.639 117.600,352.806 117.600 C 352.973 117.600,353.231 118.410,353.379 119.400 C 353.528 120.390,353.805 121.200,353.996 121.200 C 354.186 121.200,354.466 122.190,354.617 123.400 C 354.768 124.610,355.045 125.600,355.232 125.600 C 355.419 125.600,355.692 126.500,355.838 127.600 C 355.984 128.700,356.239 129.600,356.405 129.600 C 356.572 129.600,356.831 130.587,356.982 131.794 C 357.133 133.000,357.402 134.078,357.581 134.188 C 357.760 134.299,358.030 135.379,358.181 136.588 C 358.332 137.798,358.600 138.876,358.775 138.985 C 358.951 139.093,359.217 140.261,359.366 141.579 C 359.515 142.897,359.787 144.069,359.971 144.182 C 360.155 144.296,360.431 145.561,360.585 146.994 C 360.738 148.427,361.004 149.600,361.177 149.600 C 361.349 149.600,361.613 150.800,361.763 152.267 C 361.913 153.734,362.163 155.129,362.318 155.367 C 362.569 155.753,363.205 159.032,363.855 163.300 C 363.981 164.125,364.224 164.800,364.395 164.800 C 364.566 164.800,364.833 166.330,364.989 168.200 C 365.144 170.070,365.417 171.600,365.593 171.600 C 365.770 171.600,366.043 173.220,366.200 175.200 C 366.357 177.180,366.629 178.800,366.805 178.800 C 366.981 178.800,367.254 180.513,367.411 182.606 C 367.568 184.699,367.838 186.500,368.011 186.607 C 368.184 186.714,368.454 188.511,368.610 190.601 C 368.767 192.690,369.032 194.400,369.200 194.400 C 369.367 194.400,369.633 196.290,369.791 198.600 C 369.948 200.910,370.222 202.800,370.399 202.800 C 370.576 202.800,370.850 204.870,371.008 207.400 C 371.167 209.930,371.437 212.000,371.608 212.000 C 371.780 212.000,372.050 214.070,372.208 216.600 C 372.367 219.130,372.634 221.200,372.803 221.200 C 372.972 221.200,373.241 223.542,373.400 226.404 C 373.559 229.266,373.829 231.694,374.000 231.800 C 374.170 231.905,374.440 234.515,374.600 237.600 C 374.760 240.685,375.031 243.295,375.202 243.402 C 375.374 243.508,375.644 246.611,375.803 250.297 C 375.962 253.984,376.247 257.194,376.438 257.431 C 376.628 257.668,376.906 263.481,377.056 270.347 C 377.206 277.214,377.480 282.926,377.665 283.040 C 378.103 283.311,378.102 291.890,377.664 292.160 C 377.480 292.274,377.215 296.805,377.076 302.229 C 376.937 307.653,376.658 312.295,376.456 312.545 C 376.254 312.795,375.959 314.845,375.801 317.100 C 375.643 319.355,375.379 321.200,375.214 321.200 C 375.050 321.200,374.794 322.497,374.647 324.083 C 374.500 325.668,374.222 327.063,374.030 327.183 C 373.838 327.302,373.552 328.435,373.395 329.700 C 373.237 330.965,372.972 332.000,372.805 332.000 C 372.639 332.000,372.384 332.900,372.238 334.000 C 372.092 335.100,371.822 336.000,371.637 336.000 C 371.453 336.000,371.187 336.720,371.046 337.600 C 370.906 338.480,370.613 339.200,370.395 339.200 C 370.178 339.200,369.994 339.515,369.986 339.900 C 369.979 340.285,369.625 341.320,369.200 342.200 C 368.775 343.080,368.421 344.025,368.414 344.300 C 368.406 344.575,368.234 344.800,368.032 344.800 C 367.829 344.800,367.545 345.340,367.400 346.000 C 367.255 346.660,366.985 347.200,366.800 347.200 C 366.615 347.200,366.348 347.725,366.207 348.367 C 366.066 349.008,365.692 349.633,365.376 349.754 C 364.451 350.109,364.640 352.000,365.600 352.000 C 366.040 352.000,366.400 351.820,366.400 351.600 C 366.400 351.380,366.770 351.200,367.222 351.200 C 367.674 351.200,368.889 350.830,369.922 350.378 C 370.955 349.926,372.250 349.367,372.800 349.136 C 374.897 348.254,377.200 347.006,377.200 346.752 C 377.200 346.606,377.650 346.374,378.200 346.236 C 378.750 346.098,379.200 345.808,379.200 345.592 C 379.200 345.377,379.451 345.200,379.757 345.200 C 380.064 345.200,380.418 344.930,380.545 344.600 C 380.671 344.270,380.975 344.000,381.220 344.000 C 381.766 344.000,388.800 337.018,388.800 336.475 C 388.800 336.261,389.070 335.982,389.400 335.855 C 389.730 335.729,390.000 335.349,390.000 335.013 C 390.000 334.676,390.177 334.400,390.392 334.400 C 390.608 334.400,390.898 333.950,391.036 333.400 C 391.174 332.850,391.406 332.400,391.552 332.400 C 391.993 332.400,394.800 326.558,394.800 325.640 C 394.800 325.398,394.969 325.200,395.175 325.200 C 395.382 325.200,395.672 324.390,395.821 323.400 C 395.969 322.410,396.237 321.600,396.417 321.600 C 396.596 321.600,396.866 320.610,397.017 319.400 C 397.168 318.190,397.436 317.200,397.612 317.200 C 397.788 317.200,398.061 315.805,398.218 314.100 C 398.376 312.395,398.655 310.903,398.839 310.784 C 400.006 310.033,399.976 271.239,398.808 269.800 C 398.629 269.580,398.353 267.285,398.193 264.700 C 398.034 262.115,397.769 260.000,397.604 260.000 C 397.438 260.000,397.176 258.202,397.020 256.004 C 396.864 253.806,396.592 251.919,396.416 251.810 C 396.240 251.701,395.968 250.080,395.812 248.207 C 395.656 246.335,395.383 244.713,395.206 244.604 C 395.029 244.494,394.756 242.962,394.600 241.200 C 394.444 239.438,394.177 237.909,394.006 237.804 C 393.835 237.698,393.568 236.259,393.413 234.606 C 393.258 232.953,392.990 231.600,392.818 231.600 C 392.645 231.600,392.380 230.344,392.228 228.809 C 392.077 227.274,391.808 225.928,391.629 225.818 C 391.451 225.708,391.180 224.513,391.028 223.163 C 390.875 221.814,390.590 220.415,390.395 220.055 C 390.199 219.695,389.928 218.368,389.792 217.106 C 389.655 215.845,389.377 214.709,389.172 214.583 C 388.967 214.456,388.800 213.733,388.800 212.976 C 388.800 212.219,388.638 211.600,388.439 211.600 C 388.241 211.600,387.953 210.520,387.800 209.200 C 387.647 207.880,387.382 206.800,387.212 206.800 C 387.042 206.800,386.779 205.540,386.627 204.000 C 386.476 202.460,386.200 201.200,386.015 201.200 C 385.830 201.200,385.553 200.120,385.400 198.800 C 385.247 197.480,384.977 196.400,384.800 196.400 C 384.623 196.400,384.353 195.320,384.200 194.000 C 384.047 192.680,383.777 191.600,383.600 191.600 C 383.423 191.600,383.153 190.520,383.000 189.200 C 382.847 187.880,382.577 186.800,382.400 186.800 C 382.223 186.800,381.953 185.720,381.800 184.400 C 381.647 183.080,381.377 182.000,381.200 182.000 C 381.023 182.000,380.753 180.920,380.600 179.600 C 380.447 178.280,380.172 177.200,379.990 177.200 C 379.807 177.200,379.534 176.210,379.383 175.000 C 379.232 173.790,378.966 172.800,378.793 172.800 C 378.620 172.800,378.353 171.720,378.200 170.400 C 378.047 169.080,377.772 168.000,377.590 168.000 C 377.407 168.000,377.134 167.010,376.983 165.800 C 376.832 164.590,376.555 163.600,376.368 163.600 C 376.181 163.600,375.908 162.700,375.762 161.600 C 375.616 160.500,375.357 159.600,375.186 159.600 C 375.015 159.600,374.751 158.700,374.600 157.600 C 374.449 156.501,374.172 155.506,373.986 155.391 C 373.799 155.276,373.525 154.376,373.378 153.391 C 373.230 152.406,372.973 151.600,372.806 151.600 C 372.639 151.600,372.385 150.707,372.240 149.616 C 372.095 148.525,371.812 147.531,371.612 147.407 C 371.411 147.283,371.125 146.376,370.978 145.391 C 370.830 144.406,370.561 143.600,370.379 143.600 C 370.198 143.600,369.928 142.790,369.779 141.800 C 369.631 140.810,369.361 140.000,369.179 140.000 C 368.998 140.000,368.728 139.190,368.579 138.200 C 368.431 137.210,368.165 136.400,367.990 136.400 C 367.814 136.400,367.549 135.681,367.400 134.802 C 367.252 133.923,366.982 133.112,366.800 133.000 C 366.618 132.888,366.348 132.078,366.200 131.200 C 366.052 130.322,365.766 129.503,365.565 129.378 C 365.364 129.254,365.200 128.803,365.200 128.376 C 365.200 127.949,365.036 127.600,364.835 127.600 C 364.634 127.600,364.349 126.880,364.200 126.000 C 364.051 125.120,363.789 124.400,363.616 124.400 C 363.443 124.400,363.187 123.680,363.046 122.800 C 362.906 121.920,362.633 121.200,362.440 121.200 C 362.247 121.200,361.971 120.570,361.826 119.800 C 361.682 119.030,361.415 118.400,361.233 118.400 C 361.051 118.400,360.787 117.680,360.646 116.800 C 360.506 115.920,360.233 115.200,360.040 115.200 C 359.847 115.200,359.571 114.570,359.426 113.800 C 359.282 113.030,359.006 112.400,358.814 112.400 C 358.621 112.400,358.342 111.848,358.194 111.173 C 358.046 110.498,357.673 109.463,357.365 108.873 C 357.057 108.283,356.804 107.575,356.802 107.300 C 356.801 107.025,356.634 106.800,356.432 106.800 C 356.229 106.800,355.945 106.260,355.800 105.600 C 355.655 104.940,355.385 104.400,355.200 104.400 C 355.015 104.400,354.745 103.860,354.600 103.200 C 354.455 102.540,354.185 102.000,354.000 102.000 C 353.815 102.000,353.545 101.460,353.400 100.800 C 353.255 100.140,352.985 99.600,352.800 99.600 C 352.615 99.600,352.345 99.060,352.200 98.400 C 352.055 97.740,351.785 97.200,351.600 97.200 C 351.415 97.200,351.145 96.660,351.000 96.000 C 350.855 95.340,350.574 94.800,350.376 94.800 C 350.178 94.800,349.902 94.350,349.764 93.800 C 349.626 93.250,349.353 92.800,349.157 92.800 C 348.960 92.800,348.800 92.524,348.800 92.187 C 348.800 91.851,348.541 91.476,348.224 91.354 C 347.908 91.233,347.534 90.608,347.393 89.967 C 347.252 89.325,346.974 88.800,346.776 88.800 C 346.578 88.800,346.306 88.363,346.172 87.829 C 346.037 87.295,345.674 86.761,345.364 86.641 C 345.054 86.522,344.800 86.149,344.800 85.813 C 344.800 85.476,344.659 85.200,344.486 85.200 C 344.314 85.200,343.851 84.655,343.457 83.989 C 343.064 83.323,342.305 82.341,341.771 81.807 C 341.237 81.273,340.800 80.711,340.800 80.559 C 340.800 80.406,340.170 79.669,339.400 78.921 C 338.630 78.173,338.000 77.422,338.000 77.251 C 338.000 76.797,333.634 72.400,333.183 72.400 C 332.972 72.400,332.100 71.680,331.246 70.800 C 330.392 69.920,329.487 69.200,329.234 69.200 C 328.982 69.200,328.678 68.946,328.559 68.636 C 328.439 68.326,327.905 67.963,327.371 67.828 C 326.837 67.694,326.400 67.422,326.400 67.224 C 326.400 67.026,325.860 66.745,325.200 66.600 C 324.540 66.455,324.000 66.185,324.000 66.000 C 324.000 65.815,323.460 65.545,322.800 65.400 C 322.140 65.255,321.600 64.979,321.600 64.786 C 321.600 64.594,320.970 64.318,320.200 64.174 C 319.430 64.029,318.800 63.762,318.800 63.580 C 318.800 63.398,317.945 63.123,316.900 62.969 C 315.855 62.815,314.910 62.552,314.800 62.385 C 314.458 61.866,310.000 61.452,310.000 61.940 M302.800 62.429 C 302.800 63.099,303.802 63.935,304.952 64.224 C 305.528 64.368,306.000 64.647,306.000 64.843 C 306.000 65.040,306.276 65.200,306.613 65.200 C 306.949 65.200,307.326 65.463,307.450 65.785 C 307.573 66.106,308.045 66.487,308.499 66.632 C 308.953 66.776,309.722 67.323,310.208 67.847 C 310.694 68.371,311.234 68.800,311.407 68.800 C 311.580 68.800,312.730 69.861,313.961 71.158 C 317.671 75.066,318.630 76.180,318.909 76.907 C 319.055 77.288,319.341 77.600,319.544 77.600 C 319.747 77.600,320.026 78.050,320.164 78.600 C 320.302 79.150,320.592 79.600,320.808 79.600 C 321.023 79.600,321.200 79.876,321.200 80.213 C 321.200 80.549,321.470 80.929,321.800 81.055 C 322.130 81.182,322.400 81.472,322.400 81.701 C 322.400 81.929,323.030 83.426,323.800 85.027 C 324.570 86.628,325.200 88.132,325.200 88.369 C 325.200 88.606,325.360 88.800,325.555 88.800 C 325.751 88.800,326.029 89.430,326.174 90.200 C 326.318 90.970,326.592 91.600,326.783 91.600 C 326.974 91.600,327.251 92.320,327.400 93.200 C 327.549 94.080,327.823 94.800,328.011 94.800 C 328.198 94.800,328.472 95.610,328.621 96.600 C 328.769 97.590,329.027 98.400,329.194 98.400 C 329.361 98.400,329.616 99.300,329.762 100.400 C 329.908 101.500,330.184 102.400,330.375 102.400 C 330.565 102.400,330.847 103.480,331.000 104.800 C 331.153 106.120,331.423 107.200,331.599 107.200 C 331.775 107.200,332.045 108.460,332.200 110.000 C 332.355 111.540,332.624 112.800,332.799 112.800 C 332.974 112.800,333.244 114.241,333.400 116.002 C 333.556 117.763,333.825 119.292,333.998 119.399 C 334.172 119.506,334.444 121.440,334.604 123.697 C 334.764 125.954,335.037 127.890,335.210 128.000 C 335.383 128.111,335.644 130.721,335.790 133.800 C 335.935 136.880,336.223 139.760,336.429 140.200 C 337.837 143.206,337.851 215.750,336.444 220.200 C 336.236 220.860,335.940 225.677,335.788 230.904 C 335.635 236.131,335.372 240.493,335.204 240.597 C 335.036 240.701,334.766 244.300,334.605 248.593 C 334.444 252.887,334.174 256.400,334.005 256.400 C 333.835 256.400,333.566 259.191,333.406 262.602 C 333.246 266.014,332.976 268.891,332.806 268.996 C 332.636 269.101,332.367 271.441,332.208 274.195 C 332.049 276.949,331.775 279.292,331.599 279.401 C 331.423 279.509,331.149 281.672,330.991 284.205 C 330.833 286.739,330.562 288.900,330.389 289.007 C 330.216 289.114,329.946 290.911,329.790 293.001 C 329.633 295.090,329.368 296.800,329.200 296.800 C 329.032 296.800,328.767 298.330,328.611 300.200 C 328.456 302.070,328.188 303.600,328.016 303.600 C 327.844 303.600,327.578 305.040,327.424 306.800 C 327.271 308.560,326.996 310.000,326.813 310.000 C 326.631 310.000,326.355 311.260,326.200 312.800 C 326.045 314.340,325.775 315.600,325.599 315.600 C 325.423 315.600,325.153 316.680,325.000 318.000 C 324.847 319.320,324.577 320.400,324.400 320.400 C 324.223 320.400,323.953 321.480,323.800 322.800 C 323.647 324.120,323.372 325.200,323.190 325.200 C 323.007 325.200,322.734 326.190,322.583 327.400 C 322.432 328.610,322.160 329.600,321.978 329.600 C 321.797 329.600,321.528 330.410,321.379 331.400 C 321.231 332.390,320.961 333.200,320.779 333.200 C 320.598 333.200,320.328 334.010,320.179 335.000 C 320.031 335.990,319.765 336.800,319.590 336.800 C 319.414 336.800,319.149 337.520,319.000 338.400 C 318.851 339.280,318.586 340.000,318.409 340.000 C 318.233 340.000,317.971 340.630,317.826 341.400 C 317.682 342.170,317.392 342.800,317.182 342.800 C 316.972 342.800,316.800 343.250,316.800 343.800 C 316.800 344.350,316.634 344.800,316.432 344.800 C 316.229 344.800,315.945 345.340,315.800 346.000 C 315.655 346.660,315.385 347.200,315.200 347.200 C 315.015 347.200,314.745 347.740,314.600 348.400 C 314.455 349.060,314.185 349.600,314.000 349.600 C 313.815 349.600,313.545 350.140,313.400 350.800 C 313.255 351.460,312.990 352.000,312.812 352.000 C 312.633 352.000,312.368 352.472,312.224 353.048 C 312.079 353.625,311.744 354.339,311.480 354.634 C 310.364 355.884,310.083 356.307,309.822 357.131 C 309.670 357.609,309.378 358.000,309.173 358.000 C 308.968 358.000,308.800 358.276,308.800 358.613 C 308.800 358.949,308.537 359.326,308.215 359.450 C 307.894 359.573,307.519 360.025,307.383 360.454 C 307.122 361.276,306.751 361.721,302.596 366.197 C 301.168 367.735,300.000 369.110,300.000 369.253 C 300.000 369.396,299.550 369.626,299.000 369.764 C 298.264 369.949,298.000 370.282,298.000 371.024 L 298.000 372.033 305.500 371.863 C 313.007 371.693,320.236 371.020,320.996 370.420 C 321.218 370.244,322.255 369.977,323.300 369.826 C 324.345 369.675,325.200 369.382,325.200 369.175 C 325.200 368.969,325.650 368.800,326.200 368.800 C 326.750 368.800,327.200 368.640,327.200 368.445 C 327.200 368.249,327.830 367.971,328.600 367.826 C 329.370 367.682,330.000 367.406,330.000 367.214 C 330.000 367.021,330.540 366.745,331.200 366.600 C 331.860 366.455,332.400 366.190,332.400 366.012 C 332.400 365.833,332.850 365.574,333.400 365.436 C 333.950 365.298,334.400 365.008,334.400 364.792 C 334.400 364.577,334.676 364.400,335.013 364.400 C 335.349 364.400,335.722 364.146,335.841 363.836 C 335.961 363.526,336.495 363.163,337.029 363.028 C 337.563 362.894,338.000 362.608,338.000 362.392 C 338.000 362.177,338.207 362.000,338.460 362.000 C 338.712 362.000,339.508 361.415,340.229 360.700 C 340.949 359.985,341.957 359.038,342.469 358.596 C 343.505 357.702,345.380 355.547,346.600 353.849 C 347.040 353.236,347.715 352.362,348.100 351.906 C 348.485 351.451,348.800 350.835,348.800 350.539 C 348.800 350.242,348.937 350.000,349.105 350.000 C 349.440 350.000,349.669 349.613,351.300 346.291 C 351.905 345.059,352.400 343.860,352.400 343.626 C 352.400 343.392,352.560 343.200,352.755 343.200 C 352.951 343.200,353.229 342.570,353.374 341.800 C 353.518 341.030,353.785 340.400,353.967 340.400 C 354.149 340.400,354.413 339.680,354.554 338.800 C 354.694 337.920,354.976 337.200,355.180 337.200 C 355.384 337.200,355.672 336.390,355.821 335.400 C 355.969 334.410,356.233 333.600,356.406 333.600 C 356.580 333.600,356.847 332.520,357.000 331.200 C 357.153 329.880,357.423 328.800,357.600 328.800 C 357.777 328.800,358.047 327.720,358.200 326.400 C 358.353 325.080,358.625 324.000,358.803 324.000 C 358.982 324.000,359.256 322.470,359.411 320.600 C 359.567 318.730,359.836 317.200,360.009 317.200 C 360.182 317.200,360.451 315.265,360.608 312.900 C 360.765 310.535,361.050 308.405,361.241 308.166 C 361.432 307.928,361.709 303.833,361.858 299.066 C 362.006 294.300,362.278 290.400,362.463 290.400 C 362.649 290.400,362.800 284.640,362.800 277.600 C 362.800 270.560,362.648 264.800,362.462 264.800 C 362.277 264.800,361.998 259.473,361.843 252.963 C 361.688 246.453,361.397 240.828,361.197 240.463 C 360.997 240.098,360.716 236.425,360.573 232.300 C 360.430 228.175,360.175 224.800,360.005 224.800 C 359.836 224.800,359.566 221.830,359.406 218.200 C 359.246 214.570,358.976 211.600,358.806 211.600 C 358.636 211.600,358.366 208.990,358.207 205.800 C 358.047 202.610,357.781 200.000,357.615 200.000 C 357.449 200.000,357.183 197.617,357.025 194.704 C 356.867 191.791,356.591 189.316,356.413 189.204 C 356.234 189.092,355.957 186.885,355.796 184.300 C 355.635 181.715,355.367 179.600,355.200 179.600 C 355.033 179.600,354.767 177.530,354.608 175.000 C 354.450 172.470,354.182 170.400,354.012 170.400 C 353.842 170.400,353.575 168.600,353.419 166.400 C 353.263 164.200,352.992 162.400,352.816 162.400 C 352.639 162.400,352.367 160.690,352.210 158.600 C 352.054 156.510,351.778 154.800,351.599 154.800 C 351.419 154.800,351.144 153.270,350.989 151.400 C 350.833 149.530,350.568 148.000,350.400 148.000 C 350.232 148.000,349.967 146.650,349.813 145.000 C 349.658 143.350,349.388 142.000,349.213 142.000 C 349.037 142.000,348.767 140.650,348.613 139.000 C 348.458 137.350,348.185 136.000,348.006 136.000 C 347.828 136.000,347.555 134.740,347.400 133.200 C 347.245 131.660,346.975 130.400,346.799 130.400 C 346.623 130.400,346.353 129.320,346.200 128.000 C 346.047 126.680,345.780 125.600,345.607 125.600 C 345.434 125.600,345.169 124.613,345.018 123.406 C 344.867 122.200,344.577 121.109,344.372 120.983 C 344.167 120.856,344.000 120.434,344.000 120.044 C 344.000 119.197,342.511 114.092,341.977 113.105 C 341.769 112.723,341.600 112.138,341.600 111.805 C 341.600 111.472,341.444 111.200,341.253 111.200 C 341.062 111.200,340.805 110.454,340.683 109.542 C 340.561 108.631,340.289 107.776,340.079 107.642 C 339.870 107.509,339.570 106.636,339.414 105.702 C 339.258 104.768,338.986 103.915,338.811 103.807 C 338.635 103.698,338.372 102.977,338.227 102.204 C 338.082 101.432,337.808 100.800,337.617 100.800 C 337.426 100.800,337.149 100.080,337.000 99.200 C 336.851 98.320,336.580 97.600,336.397 97.600 C 336.213 97.600,335.945 97.060,335.800 96.400 C 335.655 95.740,335.391 95.200,335.213 95.200 C 335.035 95.200,334.771 94.570,334.626 93.800 C 334.482 93.030,334.206 92.400,334.014 92.400 C 333.821 92.400,333.545 91.860,333.400 91.200 C 333.255 90.540,332.990 90.000,332.812 90.000 C 332.633 90.000,332.374 89.550,332.236 89.000 C 332.098 88.450,331.822 88.000,331.624 88.000 C 331.426 88.000,331.145 87.460,331.000 86.800 C 330.855 86.140,330.571 85.600,330.368 85.600 C 330.166 85.600,330.000 85.324,330.000 84.987 C 330.000 84.651,329.746 84.278,329.436 84.159 C 329.126 84.039,328.763 83.505,328.628 82.971 C 328.494 82.437,328.208 82.000,327.992 82.000 C 327.777 82.000,327.600 81.767,327.600 81.481 C 327.600 80.905,326.758 79.715,325.100 77.946 C 324.495 77.300,324.000 76.640,324.000 76.479 C 324.000 75.880,317.129 69.200,316.512 69.200 C 316.328 69.200,315.870 68.840,315.493 68.400 C 315.116 67.960,314.555 67.600,314.247 67.600 C 313.938 67.600,313.582 67.330,313.455 67.000 C 313.329 66.670,312.949 66.400,312.613 66.400 C 312.276 66.400,312.000 66.223,312.000 66.008 C 312.000 65.792,311.550 65.502,311.000 65.364 C 310.450 65.226,310.000 64.967,310.000 64.788 C 310.000 64.610,309.460 64.345,308.800 64.200 C 308.140 64.055,307.600 63.771,307.600 63.568 C 307.600 63.366,307.285 63.199,306.900 63.198 C 306.515 63.196,305.684 62.926,305.054 62.598 C 303.708 61.895,302.800 61.827,302.800 62.429 M192.300 161.094 C 191.255 161.176,190.400 161.395,190.400 161.579 C 190.400 161.764,188.780 162.043,186.800 162.200 C 184.820 162.357,183.200 162.620,183.200 162.785 C 183.200 162.950,181.937 163.203,180.393 163.346 C 178.133 163.556,177.350 163.816,176.382 164.679 L 175.178 165.752 175.289 205.656 C 175.376 236.926,175.508 245.668,175.900 246.060 C 176.175 246.335,176.400 247.064,176.400 247.680 C 176.400 248.296,176.564 248.800,176.765 248.800 C 176.966 248.800,177.251 249.520,177.400 250.400 C 177.549 251.280,177.822 252.000,178.008 252.000 C 178.194 252.000,178.464 252.372,178.608 252.826 C 178.944 253.883,183.110 258.000,183.844 258.000 C 184.150 258.000,184.400 258.166,184.400 258.368 C 184.400 258.571,184.940 258.855,185.600 259.000 C 186.260 259.145,186.800 259.418,186.800 259.607 C 186.800 259.796,187.655 260.075,188.700 260.226 C 189.745 260.377,190.853 260.703,191.162 260.950 C 191.913 261.552,213.950 261.522,214.334 260.920 C 214.480 260.691,215.689 260.426,217.020 260.332 C 221.055 260.046,221.200 259.750,221.200 251.783 C 221.200 242.654,221.383 242.800,210.007 242.800 C 202.141 242.800,200.463 242.528,200.115 241.195 C 200.000 240.758,199.748 240.400,199.553 240.400 C 199.353 240.400,199.200 230.864,199.200 218.400 L 199.200 196.400 209.400 196.400 C 222.522 196.400,221.400 197.244,221.400 187.371 C 221.400 177.725,222.611 178.633,209.529 178.475 L 199.200 178.351 199.200 170.532 C 199.200 160.286,199.383 160.536,192.300 161.094 M113.400 178.220 C 111.860 178.512,109.925 178.762,109.100 178.775 C 108.275 178.789,107.600 178.959,107.600 179.153 C 107.600 179.347,106.250 179.633,104.600 179.787 C 102.950 179.942,101.600 180.233,101.600 180.434 C 101.600 180.635,101.280 180.800,100.889 180.800 C 99.075 180.800,98.800 181.957,98.800 189.605 C 98.800 194.135,98.948 196.800,99.200 196.800 C 99.420 196.800,99.600 197.060,99.600 197.377 C 99.600 197.871,101.926 197.943,115.865 197.877 C 128.576 197.817,132.167 197.909,132.298 198.300 C 132.391 198.575,132.677 198.803,132.933 198.807 C 133.681 198.818,135.200 200.638,135.200 201.523 C 135.200 201.969,135.396 202.399,135.636 202.479 C 135.910 202.570,136.096 204.255,136.136 207.012 L 136.200 211.400 125.264 211.635 C 118.230 211.786,114.234 212.021,114.064 212.294 C 113.919 212.528,112.765 212.848,111.500 213.005 C 110.235 213.163,109.200 213.431,109.200 213.602 C 109.200 213.772,108.570 214.029,107.800 214.174 C 107.030 214.318,106.400 214.608,106.400 214.818 C 106.400 215.028,106.136 215.200,105.812 215.200 C 104.994 215.200,102.000 216.802,102.000 217.240 C 102.000 217.438,101.775 217.601,101.500 217.602 C 100.927 217.604,98.888 219.466,98.000 220.798 C 97.670 221.293,97.184 221.924,96.920 222.201 C 96.656 222.477,96.321 223.175,96.176 223.752 C 96.032 224.328,95.770 224.800,95.594 224.800 C 95.419 224.800,95.146 225.745,94.989 226.900 C 94.832 228.055,94.501 229.128,94.254 229.284 C 93.653 229.664,93.678 243.551,94.281 243.933 C 94.513 244.080,94.832 245.145,94.989 246.300 C 95.146 247.455,95.424 248.400,95.606 248.400 C 95.788 248.400,96.055 248.940,96.200 249.600 C 96.345 250.260,96.629 250.800,96.832 250.800 C 97.034 250.800,97.200 251.042,97.200 251.338 C 97.200 251.634,97.560 252.202,98.000 252.600 C 98.440 252.998,98.800 253.490,98.800 253.693 C 98.800 254.172,101.028 256.400,101.507 256.400 C 101.710 256.400,102.202 256.760,102.600 257.200 C 102.998 257.640,103.566 258.000,103.862 258.000 C 104.158 258.000,104.400 258.166,104.400 258.368 C 104.400 258.571,104.940 258.855,105.600 259.000 C 106.260 259.145,106.800 259.412,106.800 259.594 C 106.800 259.776,107.745 260.054,108.900 260.211 C 110.055 260.368,111.128 260.700,111.285 260.948 C 111.695 261.596,125.680 261.563,126.465 260.912 C 126.781 260.650,127.796 260.314,128.720 260.166 C 129.644 260.019,130.400 259.741,130.400 259.549 C 130.400 259.357,130.680 259.200,131.022 259.200 C 131.853 259.200,135.200 257.660,135.200 257.278 C 135.200 257.111,135.740 256.772,136.400 256.522 C 137.562 256.084,137.600 256.106,137.600 257.235 C 137.600 260.014,138.302 260.200,148.809 260.200 C 157.841 260.200,158.255 260.166,159.128 259.353 L 160.038 258.505 159.919 228.314 C 159.834 206.800,159.671 197.961,159.352 197.561 C 159.106 197.253,158.784 196.333,158.637 195.517 C 158.490 194.701,158.108 193.531,157.788 192.917 C 157.467 192.303,157.204 191.575,157.202 191.300 C 157.201 191.025,157.020 190.800,156.800 190.800 C 156.580 190.800,156.400 190.524,156.400 190.187 C 156.400 189.851,156.130 189.471,155.800 189.345 C 155.470 189.218,155.200 188.875,155.200 188.582 C 155.200 188.290,154.655 187.544,153.989 186.925 C 153.323 186.306,152.179 185.215,151.448 184.500 C 150.717 183.785,149.912 183.200,149.660 183.200 C 149.407 183.200,149.200 183.023,149.200 182.808 C 149.200 182.592,148.750 182.302,148.200 182.164 C 147.650 182.026,147.200 181.767,147.200 181.588 C 147.200 181.410,146.660 181.145,146.000 181.000 C 145.340 180.855,144.800 180.587,144.800 180.403 C 144.800 180.220,144.035 179.942,143.100 179.786 C 142.165 179.630,141.310 179.384,141.200 179.239 C 140.046 177.724,119.916 176.986,113.400 178.220 M226.700 178.666 C 225.528 178.988,225.244 186.000,226.403 186.000 C 226.590 186.000,226.866 186.990,227.017 188.200 C 227.168 189.410,227.428 190.400,227.595 190.400 C 227.761 190.400,228.016 191.300,228.162 192.400 C 228.308 193.500,228.581 194.400,228.768 194.400 C 228.955 194.400,229.232 195.390,229.383 196.600 C 229.534 197.810,229.807 198.800,229.990 198.800 C 230.172 198.800,230.447 199.880,230.600 201.200 C 230.753 202.520,231.024 203.600,231.202 203.600 C 231.379 203.600,231.649 204.500,231.800 205.600 C 231.951 206.699,232.233 207.697,232.426 207.816 C 232.619 207.935,232.895 208.925,233.040 210.016 C 233.185 211.107,233.439 212.000,233.605 212.000 C 233.772 212.000,234.032 212.990,234.183 214.200 C 234.334 215.410,234.604 216.400,234.783 216.400 C 234.962 216.400,235.231 217.387,235.382 218.594 C 235.533 219.800,235.818 220.888,236.016 221.010 C 236.215 221.133,236.495 222.125,236.640 223.216 C 236.785 224.307,237.047 225.200,237.223 225.200 C 237.399 225.200,237.666 226.190,237.817 227.400 C 237.968 228.610,238.231 229.600,238.400 229.600 C 238.569 229.600,238.832 230.590,238.983 231.800 C 239.134 233.010,239.401 234.000,239.577 234.000 C 239.753 234.000,240.015 234.893,240.160 235.984 C 240.305 237.075,240.585 238.067,240.784 238.190 C 240.982 238.312,241.267 239.400,241.418 240.606 C 241.569 241.813,241.838 242.800,242.017 242.800 C 242.196 242.800,242.466 243.790,242.617 245.000 C 242.768 246.210,243.051 247.200,243.246 247.200 C 243.441 247.200,243.600 247.501,243.600 247.868 C 243.600 248.796,246.022 253.729,246.670 254.120 C 246.961 254.296,247.200 254.625,247.200 254.851 C 247.200 255.392,249.210 257.375,250.100 257.711 C 250.485 257.856,250.800 258.146,250.800 258.356 C 250.800 258.565,251.340 258.855,252.000 259.000 C 252.660 259.145,253.200 259.421,253.200 259.614 C 253.200 259.806,253.875 260.088,254.700 260.240 C 255.525 260.391,256.328 260.713,256.484 260.956 C 256.883 261.574,270.474 261.564,271.238 260.945 C 271.547 260.695,272.565 260.364,273.500 260.210 C 274.435 260.056,275.200 259.785,275.200 259.608 C 275.200 259.431,275.612 259.183,276.115 259.057 C 277.243 258.774,281.600 254.585,281.600 253.783 C 281.600 253.462,281.762 253.200,281.960 253.200 C 282.453 253.200,284.000 250.158,284.000 249.188 C 284.000 248.754,284.160 248.400,284.355 248.400 C 284.550 248.400,284.831 247.590,284.979 246.600 C 285.128 245.610,285.397 244.800,285.578 244.800 C 285.760 244.800,286.031 243.813,286.182 242.606 C 286.333 241.400,286.611 240.317,286.800 240.200 C 286.989 240.083,287.267 239.000,287.418 237.794 C 287.569 236.587,287.845 235.600,288.032 235.600 C 288.219 235.600,288.492 234.700,288.638 233.600 C 288.784 232.500,289.039 231.600,289.205 231.600 C 289.372 231.600,289.632 230.610,289.783 229.400 C 289.934 228.190,290.204 227.200,290.383 227.200 C 290.562 227.200,290.832 226.210,290.983 225.000 C 291.134 223.790,291.401 222.800,291.577 222.800 C 291.753 222.800,292.015 221.907,292.160 220.816 C 292.305 219.725,292.585 218.733,292.784 218.610 C 292.982 218.488,293.267 217.400,293.418 216.194 C 293.569 214.987,293.851 214.000,294.046 214.000 C 294.241 214.000,294.400 213.561,294.400 213.024 C 294.400 212.487,294.563 211.946,294.763 211.823 C 294.962 211.700,295.249 210.700,295.400 209.600 C 295.551 208.500,295.833 207.503,296.026 207.384 C 296.219 207.265,296.496 206.270,296.641 205.175 C 296.787 204.079,297.057 203.089,297.241 202.975 C 297.426 202.860,297.695 201.875,297.840 200.784 C 297.985 199.693,298.247 198.800,298.423 198.800 C 298.599 198.800,298.866 197.810,299.017 196.600 C 299.168 195.390,299.428 194.400,299.595 194.400 C 299.761 194.400,300.015 193.507,300.160 192.416 C 300.305 191.325,300.577 190.338,300.765 190.221 C 300.954 190.105,301.235 189.153,301.391 188.105 C 301.547 187.057,301.847 185.991,302.058 185.734 C 302.619 185.052,302.918 179.908,302.438 179.200 C 302.097 178.699,300.362 178.580,291.915 178.477 C 280.241 178.335,279.308 178.432,278.960 179.818 C 278.824 180.358,278.564 180.800,278.381 180.800 C 278.198 180.800,277.925 181.655,277.774 182.700 C 277.623 183.745,277.362 184.780,277.194 185.000 C 277.026 185.220,276.761 186.525,276.605 187.901 C 276.449 189.276,276.169 190.495,275.984 190.610 C 275.798 190.725,275.523 192.074,275.372 193.609 C 275.220 195.144,274.951 196.400,274.773 196.400 C 274.594 196.400,274.324 197.660,274.173 199.200 C 274.021 200.740,273.754 202.000,273.580 202.000 C 273.406 202.000,273.138 203.170,272.985 204.600 C 272.832 206.030,272.562 207.200,272.385 207.200 C 272.208 207.200,271.935 208.415,271.779 209.900 C 271.622 211.385,271.371 212.690,271.221 212.800 C 270.917 213.024,270.055 216.897,269.731 219.500 C 269.615 220.435,269.368 221.200,269.184 221.200 C 268.999 221.200,268.724 222.460,268.573 224.000 C 268.421 225.540,268.154 226.800,267.980 226.800 C 267.806 226.800,267.538 227.970,267.385 229.400 C 267.232 230.830,266.959 232.000,266.778 232.000 C 266.597 232.000,266.324 233.260,266.173 234.800 C 266.021 236.340,265.761 237.600,265.595 237.600 C 265.429 237.600,265.199 237.960,265.084 238.400 C 264.527 240.529,262.421 239.035,262.405 236.500 C 262.402 236.005,262.238 235.600,262.041 235.600 C 261.843 235.600,261.555 234.339,261.400 232.798 C 261.245 231.258,260.971 229.906,260.791 229.794 C 260.610 229.683,260.338 228.423,260.185 226.996 C 260.032 225.568,259.766 224.400,259.594 224.400 C 259.422 224.400,259.155 223.140,259.000 221.600 C 258.845 220.060,258.568 218.800,258.384 218.800 C 258.199 218.800,257.924 217.540,257.773 216.000 C 257.621 214.460,257.361 213.200,257.195 213.200 C 257.029 213.200,256.768 212.030,256.615 210.600 C 256.462 209.170,256.194 208.000,256.020 208.000 C 255.846 208.000,255.579 206.740,255.427 205.200 C 255.276 203.660,255.003 202.400,254.822 202.400 C 254.641 202.400,254.368 201.232,254.215 199.804 C 254.062 198.377,253.793 197.119,253.616 197.010 C 253.439 196.901,253.169 195.641,253.016 194.210 C 252.863 192.779,252.593 191.519,252.416 191.410 C 252.239 191.301,251.969 190.041,251.816 188.610 C 251.663 187.179,251.392 185.919,251.215 185.809 C 251.038 185.700,250.766 184.589,250.610 183.340 C 250.454 182.091,250.077 180.820,249.772 180.515 C 249.467 180.210,249.047 179.654,248.837 179.280 C 248.466 178.615,228.867 178.072,226.700 178.666 M17.529 222.129 C 17.238 222.421,16.640 223.363,16.200 224.223 C 15.760 225.084,15.175 226.028,14.900 226.322 C 14.625 226.617,14.400 227.114,14.400 227.429 C 14.400 227.743,14.234 228.000,14.032 228.000 C 13.829 228.000,13.545 228.540,13.400 229.200 C 13.255 229.860,12.985 230.400,12.800 230.400 C 12.615 230.400,12.345 230.940,12.200 231.600 C 12.055 232.260,11.771 232.800,11.568 232.800 C 11.366 232.800,11.200 233.070,11.200 233.400 C 11.200 233.730,11.020 234.000,10.800 234.000 C 10.580 234.000,10.394 234.225,10.386 234.500 C 10.379 234.775,10.025 235.720,9.600 236.600 C 9.175 237.480,8.821 238.605,8.814 239.100 C 8.806 239.595,8.636 240.000,8.435 240.000 C 8.234 240.000,7.942 240.765,7.786 241.700 C 7.630 242.635,7.349 243.498,7.162 243.617 C 6.974 243.737,6.700 245.132,6.553 246.717 C 6.406 248.303,6.131 249.600,5.943 249.600 C 5.492 249.600,5.497 261.089,5.947 261.368 C 6.139 261.486,6.419 262.846,6.572 264.391 C 6.724 265.936,7.007 267.200,7.200 267.200 C 7.393 267.200,7.672 268.010,7.821 269.000 C 7.969 269.990,8.236 270.800,8.414 270.800 C 8.591 270.800,8.863 271.385,9.018 272.100 C 9.174 272.815,9.413 273.490,9.550 273.600 C 9.688 273.710,10.204 274.610,10.698 275.600 C 11.688 277.585,12.469 278.893,12.846 279.200 C 12.981 279.310,13.219 279.805,13.373 280.300 C 13.528 280.795,13.822 281.200,14.027 281.200 C 14.232 281.200,14.400 281.476,14.400 281.813 C 14.400 282.149,14.670 282.529,15.000 282.655 C 15.330 282.782,15.600 283.122,15.600 283.412 C 15.600 283.702,16.140 284.478,16.800 285.138 C 17.460 285.798,18.000 286.473,18.000 286.638 C 18.000 286.802,18.810 287.713,19.800 288.662 C 20.790 289.610,21.600 290.555,21.600 290.761 C 21.600 291.228,26.339 296.000,26.803 296.000 C 26.989 296.000,28.196 297.035,29.485 298.300 C 32.526 301.283,35.204 303.600,35.614 303.600 C 35.792 303.600,36.478 304.140,37.138 304.800 C 37.798 305.460,38.492 306.000,38.680 306.000 C 38.868 306.000,39.330 306.360,39.707 306.800 C 40.084 307.240,40.645 307.600,40.953 307.600 C 41.262 307.600,41.618 307.870,41.745 308.200 C 41.871 308.530,42.251 308.800,42.587 308.800 C 42.924 308.800,43.200 308.944,43.200 309.120 C 43.200 309.295,43.915 309.880,44.789 310.420 C 45.663 310.959,46.383 311.535,46.389 311.700 C 46.395 311.865,46.676 312.000,47.013 312.000 C 47.349 312.000,47.722 312.254,47.841 312.564 C 47.961 312.874,48.495 313.237,49.029 313.372 C 49.563 313.506,50.000 313.792,50.000 314.008 C 50.000 314.223,50.276 314.400,50.613 314.400 C 50.949 314.400,51.322 314.654,51.441 314.964 C 51.561 315.274,52.095 315.637,52.629 315.772 C 53.163 315.906,53.600 316.178,53.600 316.376 C 53.600 316.574,54.140 316.855,54.800 317.000 C 55.460 317.145,56.000 317.434,56.000 317.642 C 56.000 317.850,56.405 318.195,56.900 318.409 C 57.941 318.859,59.310 319.689,59.600 320.046 C 59.710 320.181,60.205 320.419,60.700 320.573 C 61.195 320.728,61.600 321.022,61.600 321.227 C 61.600 321.432,61.870 321.600,62.200 321.600 C 62.530 321.600,62.800 321.759,62.800 321.953 C 62.800 322.148,63.115 322.407,63.500 322.529 C 64.274 322.774,66.486 324.059,66.800 324.446 C 66.910 324.581,67.405 324.819,67.900 324.973 C 68.395 325.128,68.800 325.407,68.800 325.595 C 68.800 325.783,69.340 326.055,70.000 326.200 C 70.660 326.345,71.200 326.590,71.200 326.744 C 71.200 326.898,71.695 327.238,72.300 327.498 C 73.481 328.006,74.875 328.846,75.200 329.246 C 75.310 329.381,75.850 329.631,76.400 329.800 C 76.950 329.969,77.490 330.219,77.600 330.354 C 77.710 330.489,78.700 331.050,79.800 331.600 C 80.900 332.150,81.892 332.721,82.004 332.868 C 82.116 333.016,82.701 333.260,83.304 333.412 C 83.907 333.563,84.400 333.833,84.400 334.012 C 84.400 334.190,84.940 334.455,85.600 334.600 C 86.260 334.745,86.800 335.015,86.800 335.200 C 86.800 335.385,87.340 335.655,88.000 335.800 C 88.660 335.945,89.200 336.215,89.200 336.400 C 89.200 336.585,89.740 336.855,90.400 337.000 C 91.060 337.145,91.600 337.415,91.600 337.600 C 91.600 337.785,92.140 338.055,92.800 338.200 C 93.460 338.345,94.000 338.615,94.000 338.800 C 94.000 338.985,94.540 339.255,95.200 339.400 C 95.860 339.545,96.400 339.815,96.400 340.000 C 96.400 340.185,96.940 340.455,97.600 340.600 C 98.260 340.745,98.800 341.015,98.800 341.200 C 98.800 341.385,99.340 341.655,100.000 341.800 C 100.660 341.945,101.200 342.215,101.200 342.400 C 101.200 342.585,101.740 342.855,102.400 343.000 C 103.060 343.145,103.600 343.409,103.600 343.587 C 103.600 343.765,104.230 344.029,105.000 344.174 C 105.770 344.318,106.400 344.608,106.400 344.818 C 106.400 345.028,106.670 345.200,107.000 345.200 C 107.330 345.200,107.600 345.380,107.600 345.600 C 107.600 345.820,107.825 346.006,108.100 346.014 C 108.375 346.021,109.320 346.375,110.200 346.800 C 111.080 347.225,112.025 347.579,112.300 347.586 C 112.575 347.594,112.800 347.766,112.800 347.968 C 112.800 348.171,113.340 348.455,114.000 348.600 C 114.660 348.745,115.200 349.029,115.200 349.232 C 115.200 349.434,115.388 349.600,115.617 349.600 C 115.846 349.600,117.164 350.129,118.545 350.775 C 119.927 351.420,121.540 352.070,122.129 352.218 C 122.718 352.366,123.200 352.633,123.200 352.812 C 123.200 352.990,123.740 353.255,124.400 353.400 C 125.060 353.545,125.600 353.815,125.600 354.000 C 125.600 354.185,126.152 354.458,126.827 354.606 C 127.502 354.754,128.537 355.127,129.127 355.435 C 129.717 355.743,130.425 355.996,130.700 355.998 C 130.975 355.999,131.200 356.172,131.200 356.382 C 131.200 356.592,131.830 356.882,132.600 357.026 C 133.370 357.171,134.000 357.435,134.000 357.613 C 134.000 357.791,134.540 358.055,135.200 358.200 C 135.860 358.345,136.400 358.627,136.400 358.827 C 136.400 359.027,137.120 359.306,138.000 359.446 C 138.880 359.587,139.600 359.845,139.600 360.019 C 139.600 360.194,140.140 360.455,140.800 360.600 C 141.460 360.745,142.000 361.021,142.000 361.214 C 142.000 361.406,142.630 361.682,143.400 361.826 C 144.170 361.971,144.800 362.249,144.800 362.445 C 144.800 362.640,145.025 362.801,145.300 362.802 C 145.575 362.804,146.283 363.057,146.873 363.365 C 147.463 363.673,148.498 364.046,149.173 364.194 C 149.848 364.342,150.400 364.627,150.400 364.827 C 150.400 365.027,151.120 365.306,152.000 365.446 C 152.880 365.587,153.600 365.851,153.600 366.033 C 153.600 366.215,154.230 366.482,155.000 366.626 C 155.770 366.771,156.400 367.035,156.400 367.213 C 156.400 367.391,156.938 367.655,157.595 367.799 C 158.253 367.943,158.894 368.228,159.019 368.431 C 159.145 368.634,159.597 368.800,160.024 368.800 C 160.451 368.800,160.800 368.966,160.800 369.168 C 160.800 369.371,161.385 369.664,162.100 369.819 C 162.815 369.975,163.755 370.349,164.189 370.651 C 164.623 370.953,165.388 371.200,165.889 371.200 C 166.390 371.200,166.800 371.366,166.800 371.568 C 166.800 371.771,167.352 372.058,168.027 372.206 C 168.702 372.354,169.737 372.727,170.327 373.035 C 170.917 373.343,171.715 373.596,172.100 373.598 C 172.485 373.599,172.800 373.764,172.800 373.965 C 172.800 374.166,173.520 374.451,174.400 374.600 C 175.280 374.749,176.000 375.023,176.000 375.211 C 176.000 375.398,176.810 375.672,177.800 375.821 C 178.790 375.969,179.600 376.242,179.600 376.427 C 179.600 376.612,180.230 376.882,181.000 377.026 C 181.770 377.171,182.400 377.429,182.400 377.599 C 182.400 377.770,183.210 378.031,184.200 378.179 C 185.190 378.328,186.000 378.618,186.000 378.825 C 186.000 379.031,186.405 379.206,186.900 379.214 C 187.395 379.221,188.520 379.575,189.400 380.000 C 190.280 380.425,191.405 380.779,191.900 380.786 C 192.395 380.794,192.800 380.960,192.800 381.155 C 192.800 381.350,193.606 381.630,194.591 381.778 C 195.576 381.925,196.476 382.199,196.591 382.386 C 196.706 382.572,197.701 382.849,198.800 383.000 C 199.900 383.151,200.800 383.427,200.800 383.613 C 200.800 383.799,201.610 384.072,202.600 384.221 C 203.590 384.369,204.400 384.627,204.400 384.794 C 204.400 384.961,205.300 385.216,206.400 385.362 C 207.500 385.508,208.400 385.784,208.400 385.975 C 208.400 386.165,209.480 386.447,210.800 386.600 C 212.120 386.753,213.200 387.023,213.200 387.200 C 213.200 387.377,214.280 387.647,215.600 387.800 C 216.920 387.953,218.000 388.223,218.000 388.399 C 218.000 388.575,219.260 388.845,220.800 389.000 C 222.340 389.155,223.600 389.424,223.600 389.599 C 223.600 389.774,225.085 390.047,226.900 390.206 C 228.715 390.365,230.295 390.644,230.410 390.826 C 230.526 391.008,232.731 391.283,235.310 391.437 C 237.890 391.591,240.000 391.871,240.000 392.059 C 240.000 392.246,243.690 392.400,248.200 392.400 C 252.710 392.400,256.400 392.247,256.400 392.060 C 256.400 391.873,258.055 391.602,260.077 391.459 C 262.099 391.315,263.854 391.040,263.977 390.847 C 264.100 390.655,265.145 390.368,266.300 390.211 C 267.455 390.054,268.400 389.778,268.400 389.598 C 268.400 389.418,269.120 389.149,270.000 389.000 C 270.880 388.851,271.600 388.586,271.600 388.409 C 271.600 388.233,272.230 387.971,273.000 387.826 C 273.770 387.682,274.400 387.406,274.400 387.214 C 274.400 387.021,274.940 386.745,275.600 386.600 C 276.260 386.455,276.800 386.174,276.800 385.976 C 276.800 385.778,277.237 385.506,277.771 385.372 C 278.305 385.237,278.839 384.874,278.959 384.564 C 279.078 384.254,279.385 384.000,279.642 384.000 C 279.898 384.000,280.501 383.595,280.980 383.100 C 281.459 382.605,282.189 382.007,282.602 381.771 C 283.015 381.536,283.423 381.131,283.510 380.871 C 283.767 380.099,281.799 380.328,280.691 381.200 C 280.131 381.640,279.477 382.000,279.237 382.000 C 278.997 382.000,278.800 382.166,278.800 382.368 C 278.800 382.571,278.260 382.855,277.600 383.000 C 276.940 383.145,276.400 383.409,276.400 383.586 C 276.400 383.764,275.590 384.031,274.600 384.179 C 273.610 384.328,272.800 384.598,272.800 384.779 C 272.800 384.961,271.945 385.236,270.900 385.392 C 269.855 385.548,268.813 385.829,268.584 386.017 C 268.355 386.205,266.465 386.472,264.384 386.610 C 262.303 386.748,260.220 387.044,259.755 387.269 C 259.290 387.493,257.850 387.576,256.555 387.454 C 255.260 387.332,251.861 387.029,249.003 386.782 C 246.145 386.536,243.715 386.192,243.603 386.020 C 243.491 385.847,242.187 385.578,240.704 385.422 C 239.222 385.265,237.914 384.984,237.798 384.797 C 237.682 384.609,236.600 384.333,235.394 384.182 C 234.187 384.031,233.200 383.772,233.200 383.605 C 233.200 383.439,232.307 383.185,231.216 383.040 C 230.125 382.895,229.135 382.618,229.014 382.423 C 228.894 382.229,228.078 381.948,227.200 381.800 C 226.322 381.652,225.509 381.376,225.393 381.188 C 225.276 381.000,224.376 380.725,223.391 380.578 C 222.406 380.430,221.600 380.170,221.600 379.999 C 221.600 379.829,220.970 379.571,220.200 379.426 C 219.430 379.282,218.800 379.015,218.800 378.833 C 218.800 378.651,218.080 378.387,217.200 378.246 C 216.320 378.106,215.600 377.833,215.600 377.640 C 215.600 377.447,214.970 377.171,214.200 377.026 C 213.430 376.882,212.800 376.615,212.800 376.433 C 212.800 376.251,212.080 375.987,211.200 375.846 C 210.320 375.706,209.600 375.421,209.600 375.213 C 209.600 375.006,208.970 374.718,208.200 374.574 C 207.430 374.429,206.800 374.165,206.800 373.987 C 206.800 373.809,206.260 373.545,205.600 373.400 C 204.940 373.255,204.400 372.971,204.400 372.768 C 204.400 372.566,204.175 372.394,203.900 372.386 C 203.625 372.379,202.680 372.025,201.800 371.600 C 200.920 371.175,199.975 370.821,199.700 370.814 C 199.425 370.806,199.200 370.640,199.200 370.445 C 199.200 370.249,198.570 369.971,197.800 369.826 C 197.030 369.682,196.400 369.432,196.400 369.272 C 196.400 369.111,195.592 368.624,194.604 368.190 C 193.616 367.755,192.806 367.279,192.804 367.132 C 192.802 366.984,192.260 366.745,191.600 366.600 C 190.940 366.455,190.400 366.205,190.400 366.045 C 190.400 365.884,189.412 365.313,188.204 364.776 C 186.996 364.239,186.006 363.679,186.004 363.532 C 186.002 363.384,185.460 363.145,184.800 363.000 C 184.140 362.855,183.600 362.585,183.600 362.400 C 183.600 362.215,183.060 361.945,182.400 361.800 C 181.740 361.655,181.200 361.371,181.200 361.168 C 181.200 360.966,180.943 360.800,180.629 360.800 C 180.314 360.800,179.806 360.549,179.499 360.242 C 178.905 359.648,175.499 358.000,174.865 358.000 C 174.656 358.000,174.382 357.730,174.255 357.400 C 174.129 357.070,173.749 356.800,173.413 356.800 C 173.076 356.800,172.800 356.634,172.800 356.432 C 172.800 356.229,172.260 355.945,171.600 355.800 C 170.940 355.655,170.400 355.374,170.400 355.176 C 170.400 354.978,169.950 354.702,169.400 354.564 C 168.850 354.426,168.400 354.192,168.400 354.044 C 168.400 353.896,167.905 353.562,167.300 353.302 C 166.119 352.794,164.725 351.954,164.400 351.554 C 164.290 351.419,163.795 351.181,163.300 351.027 C 162.805 350.872,162.400 350.593,162.400 350.405 C 162.400 350.217,161.875 349.948,161.233 349.807 C 160.592 349.666,159.967 349.292,159.846 348.976 C 159.724 348.659,159.349 348.400,159.013 348.400 C 158.676 348.400,158.400 348.240,158.400 348.043 C 158.400 347.847,157.950 347.574,157.400 347.436 C 156.850 347.298,156.400 347.022,156.400 346.824 C 156.400 346.626,155.860 346.345,155.200 346.200 C 154.540 346.055,154.000 345.768,154.000 345.562 C 154.000 345.356,153.325 344.875,152.500 344.494 C 151.675 344.112,150.856 343.575,150.680 343.300 C 150.504 343.025,150.099 342.800,149.780 342.800 C 149.461 342.800,149.200 342.623,149.200 342.408 C 149.200 342.192,148.750 341.902,148.200 341.764 C 147.650 341.626,147.200 341.353,147.200 341.157 C 147.200 340.960,146.939 340.800,146.620 340.800 C 146.301 340.800,145.896 340.575,145.720 340.300 C 145.544 340.025,144.500 339.350,143.400 338.800 C 142.300 338.250,141.256 337.575,141.080 337.300 C 140.904 337.025,140.499 336.800,140.180 336.800 C 139.861 336.800,139.600 336.632,139.600 336.427 C 139.600 336.222,139.203 335.928,138.719 335.774 C 138.234 335.620,137.610 335.293,137.333 335.047 C 136.097 333.953,135.685 333.681,134.869 333.422 C 134.391 333.270,134.000 332.978,134.000 332.773 C 134.000 332.568,133.813 332.400,133.584 332.400 C 133.190 332.400,130.830 330.883,130.400 330.354 C 130.290 330.219,129.795 329.981,129.300 329.827 C 128.805 329.672,128.400 329.393,128.400 329.205 C 128.400 329.017,127.875 328.748,127.233 328.607 C 126.592 328.466,125.967 328.092,125.846 327.776 C 125.724 327.459,125.349 327.200,125.013 327.200 C 124.676 327.200,124.400 327.023,124.400 326.808 C 124.400 326.592,123.963 326.306,123.429 326.172 C 122.895 326.037,122.361 325.674,122.241 325.364 C 122.122 325.054,121.749 324.800,121.413 324.800 C 121.076 324.800,120.800 324.623,120.800 324.408 C 120.800 324.192,120.363 323.906,119.829 323.772 C 119.295 323.637,118.761 323.274,118.641 322.964 C 118.522 322.654,118.232 322.400,117.996 322.400 C 117.759 322.400,117.349 322.209,117.083 321.976 C 116.817 321.743,115.070 320.494,113.200 319.200 C 111.330 317.906,109.583 316.657,109.317 316.424 C 109.051 316.191,108.729 316.000,108.601 316.000 C 108.344 316.000,105.919 314.346,105.600 313.954 C 105.490 313.819,104.995 313.581,104.500 313.427 C 104.005 313.272,103.600 312.978,103.600 312.773 C 103.600 312.568,103.370 312.400,103.089 312.400 C 102.808 312.400,102.270 312.040,101.893 311.600 C 101.516 311.160,100.955 310.800,100.647 310.800 C 100.338 310.800,99.982 310.530,99.855 310.200 C 99.729 309.870,99.349 309.600,99.013 309.600 C 98.676 309.600,98.400 309.432,98.400 309.227 C 98.400 309.022,98.012 308.731,97.538 308.580 C 97.063 308.430,96.298 307.909,95.838 307.423 C 95.377 306.938,94.685 306.424,94.300 306.283 C 93.915 306.141,93.600 305.839,93.600 305.613 C 93.600 305.386,93.328 305.200,92.996 305.200 C 92.664 305.200,92.084 304.840,91.707 304.400 C 91.330 303.960,90.792 303.600,90.511 303.600 C 90.230 303.600,90.000 303.432,90.000 303.227 C 90.000 303.022,89.612 302.731,89.138 302.580 C 88.663 302.430,87.898 301.909,87.438 301.423 C 86.977 300.938,86.285 300.424,85.900 300.283 C 85.515 300.141,85.200 299.852,85.200 299.640 C 85.200 299.427,84.812 299.131,84.338 298.980 C 83.863 298.830,83.078 298.277,82.592 297.753 C 82.106 297.229,81.504 296.800,81.254 296.800 C 81.004 296.800,80.799 296.665,80.797 296.500 C 80.796 296.335,80.121 295.752,79.297 295.204 C 78.474 294.656,77.656 293.981,77.480 293.704 C 77.304 293.427,76.965 293.200,76.726 293.200 C 76.487 293.200,75.875 292.750,75.365 292.200 C 74.855 291.650,74.263 291.200,74.050 291.200 C 73.836 291.200,73.122 290.660,72.462 290.000 C 71.802 289.340,71.104 288.800,70.912 288.800 C 70.720 288.800,70.121 288.268,69.581 287.617 C 69.042 286.966,68.384 286.426,68.119 286.417 C 67.855 286.408,67.027 285.770,66.279 285.000 C 65.531 284.230,64.795 283.600,64.644 283.600 C 64.493 283.600,63.620 282.880,62.704 282.000 C 61.788 281.120,60.917 280.400,60.768 280.400 C 60.619 280.400,59.530 279.476,58.348 278.347 C 57.167 277.217,55.750 276.003,55.200 275.648 C 54.650 275.293,53.620 274.365,52.910 273.586 C 52.201 272.806,48.781 269.270,45.310 265.727 C 41.840 262.185,38.280 258.437,37.400 257.398 C 36.520 256.360,35.305 254.964,34.700 254.296 C 34.095 253.628,33.600 252.919,33.600 252.722 C 33.600 252.524,33.150 251.945,32.600 251.435 C 32.050 250.925,31.600 250.332,31.600 250.116 C 31.600 249.900,31.240 249.398,30.800 249.000 C 30.360 248.602,30.000 248.034,30.000 247.738 C 30.000 247.442,29.823 247.200,29.608 247.200 C 29.392 247.200,29.106 246.763,28.972 246.229 C 28.837 245.695,28.474 245.161,28.164 245.041 C 27.854 244.922,27.600 244.549,27.600 244.213 C 27.600 243.876,27.465 243.596,27.300 243.592 C 27.135 243.587,26.550 242.601,26.000 241.400 C 25.450 240.199,24.879 239.213,24.732 239.208 C 24.584 239.204,24.345 238.660,24.200 238.000 C 24.055 237.340,23.779 236.800,23.586 236.800 C 23.394 236.800,23.118 236.170,22.974 235.400 C 22.829 234.630,22.553 234.000,22.360 234.000 C 22.167 234.000,21.894 233.280,21.754 232.400 C 21.613 231.520,21.347 230.800,21.163 230.800 C 20.978 230.800,20.708 229.900,20.562 228.800 C 20.416 227.700,20.161 226.800,19.995 226.800 C 19.829 226.800,19.568 225.630,19.415 224.200 C 19.130 221.538,18.647 221.009,17.529 222.129 M136.309 233.284 L 136.200 240.567 134.600 241.163 C 133.720 241.491,132.908 241.889,132.795 242.049 C 132.683 242.208,131.468 242.466,130.095 242.621 C 128.723 242.776,127.600 243.060,127.600 243.252 C 127.600 243.738,123.303 243.690,123.000 243.200 C 122.864 242.980,122.268 242.798,121.676 242.795 C 119.851 242.785,118.838 242.351,118.559 241.457 C 118.412 240.986,118.091 240.471,117.846 240.314 C 117.012 239.779,117.280 232.050,118.200 230.129 C 118.992 228.475,121.379 226.800,122.944 226.800 C 123.305 226.800,123.600 226.620,123.600 226.400 C 123.600 226.150,126.003 226.000,130.009 226.000 L 136.418 226.000 136.309 233.284 M1.600 290.167 C 1.600 290.478,1.430 290.793,1.223 290.867 C 0.056 291.279,-0.006 310.716,1.155 312.160 C 1.350 312.402,1.636 313.365,1.790 314.300 C 1.944 315.235,2.211 316.000,2.384 316.000 C 2.557 316.000,2.813 316.720,2.954 317.600 C 3.094 318.480,3.373 319.200,3.573 319.200 C 3.773 319.200,4.055 319.740,4.200 320.400 C 4.345 321.060,4.608 321.600,4.785 321.600 C 4.962 321.600,5.222 321.915,5.363 322.300 C 5.862 323.661,6.849 325.200,7.222 325.200 C 7.430 325.200,7.600 325.387,7.600 325.616 C 7.600 326.213,9.184 328.388,10.700 329.873 C 11.415 330.573,12.000 331.268,12.000 331.417 C 12.000 331.772,16.232 336.000,16.588 336.000 C 16.739 336.000,17.673 336.810,18.663 337.800 C 19.653 338.790,20.638 339.600,20.851 339.600 C 21.064 339.600,21.655 340.050,22.165 340.600 C 22.675 341.150,23.256 341.600,23.457 341.600 C 23.658 341.600,24.130 341.960,24.507 342.400 C 24.884 342.840,25.445 343.200,25.753 343.200 C 26.062 343.200,26.418 343.470,26.545 343.800 C 26.671 344.130,27.051 344.400,27.387 344.400 C 27.724 344.400,28.000 344.547,28.000 344.726 C 28.000 344.906,28.741 345.491,29.646 346.026 C 30.552 346.562,31.767 347.317,32.346 347.705 C 32.926 348.092,33.715 348.518,34.100 348.651 C 34.485 348.784,34.800 349.038,34.800 349.215 C 34.800 349.392,35.340 349.655,36.000 349.800 C 36.660 349.945,37.200 350.226,37.200 350.424 C 37.200 350.622,37.650 350.898,38.200 351.036 C 38.750 351.174,39.200 351.433,39.200 351.612 C 39.200 351.790,39.740 352.055,40.400 352.200 C 41.060 352.345,41.600 352.615,41.600 352.800 C 41.600 352.985,42.140 353.255,42.800 353.400 C 43.460 353.545,44.000 353.815,44.000 354.000 C 44.000 354.185,44.540 354.455,45.200 354.600 C 45.860 354.745,46.400 355.015,46.400 355.200 C 46.400 355.385,46.940 355.655,47.600 355.800 C 48.260 355.945,48.800 356.215,48.800 356.400 C 48.800 356.585,49.340 356.855,50.000 357.000 C 50.660 357.145,51.200 357.415,51.200 357.600 C 51.200 357.785,51.740 358.055,52.400 358.200 C 53.060 358.345,53.600 358.629,53.600 358.832 C 53.600 359.034,53.915 359.206,54.300 359.214 C 54.685 359.221,55.720 359.575,56.600 360.000 C 57.480 360.425,58.425 360.779,58.700 360.786 C 58.975 360.794,59.200 360.960,59.200 361.155 C 59.200 361.351,59.830 361.629,60.600 361.774 C 61.370 361.918,62.000 362.185,62.000 362.367 C 62.000 362.549,62.720 362.813,63.600 362.954 C 64.480 363.094,65.200 363.367,65.200 363.560 C 65.200 363.753,65.830 364.029,66.600 364.174 C 67.370 364.318,68.000 364.585,68.000 364.767 C 68.000 364.949,68.720 365.213,69.600 365.354 C 70.480 365.494,71.200 365.767,71.200 365.960 C 71.200 366.153,71.830 366.429,72.600 366.574 C 73.370 366.718,74.000 366.988,74.000 367.173 C 74.000 367.358,74.810 367.631,75.800 367.779 C 76.790 367.928,77.600 368.218,77.600 368.425 C 77.600 368.631,77.849 368.800,78.154 368.800 C 78.459 368.800,79.224 369.069,79.854 369.398 C 80.484 369.726,81.405 369.996,81.900 369.998 C 82.395 369.999,82.800 370.169,82.800 370.375 C 82.800 370.582,83.610 370.872,84.600 371.021 C 85.590 371.169,86.400 371.442,86.400 371.627 C 86.400 371.812,87.032 372.082,87.804 372.227 C 88.577 372.372,89.298 372.635,89.407 372.811 C 89.515 372.986,90.322 373.252,91.200 373.400 C 92.078 373.548,92.888 373.818,93.000 374.000 C 93.112 374.182,93.922 374.452,94.800 374.600 C 95.678 374.748,96.488 375.018,96.600 375.200 C 96.712 375.382,97.522 375.652,98.400 375.800 C 99.278 375.948,100.088 376.218,100.200 376.400 C 100.312 376.582,101.168 376.856,102.102 377.010 C 103.036 377.164,103.980 377.430,104.200 377.600 C 104.420 377.770,105.365 378.036,106.300 378.190 C 107.235 378.344,108.000 378.614,108.000 378.790 C 108.000 378.965,108.810 379.231,109.800 379.379 C 110.790 379.528,111.600 379.805,111.600 379.996 C 111.600 380.186,112.590 380.466,113.800 380.617 C 115.010 380.768,116.000 381.040,116.000 381.222 C 116.000 381.403,116.810 381.672,117.800 381.821 C 118.790 381.969,119.600 382.227,119.600 382.394 C 119.600 382.561,120.493 382.815,121.584 382.960 C 122.675 383.105,123.665 383.381,123.784 383.574 C 123.903 383.767,124.901 384.049,126.000 384.200 C 127.100 384.351,128.000 384.625,128.000 384.809 C 128.000 384.992,128.990 385.266,130.200 385.417 C 131.410 385.568,132.400 385.845,132.400 386.032 C 132.400 386.219,133.300 386.492,134.400 386.638 C 135.500 386.784,136.400 387.039,136.400 387.205 C 136.400 387.372,137.390 387.632,138.600 387.783 C 139.810 387.934,140.800 388.201,140.800 388.377 C 140.800 388.553,141.693 388.815,142.784 388.960 C 143.875 389.105,144.867 389.385,144.990 389.584 C 145.112 389.782,146.200 390.067,147.406 390.218 C 148.613 390.369,149.600 390.630,149.600 390.799 C 149.600 390.969,150.770 391.232,152.200 391.385 C 153.630 391.538,154.800 391.808,154.800 391.985 C 154.800 392.162,155.205 392.411,155.700 392.539 C 158.967 393.384,162.078 394.129,163.800 394.479 C 164.900 394.702,166.086 395.029,166.436 395.206 C 166.785 395.382,168.090 395.654,169.336 395.809 C 170.581 395.965,171.600 396.241,171.600 396.422 C 171.600 396.603,172.860 396.876,174.400 397.027 C 175.940 397.179,177.200 397.446,177.200 397.620 C 177.200 397.794,178.370 398.062,179.800 398.215 C 181.230 398.368,182.400 398.631,182.400 398.800 C 182.400 398.968,183.750 399.233,185.400 399.387 C 187.050 399.542,188.400 399.817,188.400 399.998 C 188.400 400.180,189.930 400.456,191.800 400.611 C 193.670 400.767,195.200 401.040,195.200 401.217 C 195.200 401.395,196.820 401.667,198.800 401.822 C 200.780 401.976,202.400 402.237,202.400 402.400 C 202.400 402.563,204.245 402.827,206.500 402.986 C 208.755 403.145,210.780 403.419,211.000 403.596 C 212.727 404.987,250.282 404.999,251.200 403.609 C 251.310 403.443,252.615 403.178,254.100 403.021 C 255.585 402.865,256.800 402.591,256.800 402.414 C 256.800 402.236,257.610 401.969,258.600 401.821 C 259.590 401.672,260.400 401.405,260.400 401.227 C 260.400 401.048,261.120 400.787,262.000 400.646 C 262.880 400.506,263.600 400.233,263.600 400.040 C 263.600 399.847,264.217 399.573,264.971 399.432 C 265.725 399.290,266.400 399.045,266.471 398.887 C 266.542 398.729,267.497 398.150,268.593 397.600 C 269.689 397.050,270.809 396.420,271.082 396.200 C 271.355 395.980,272.310 395.260,273.205 394.600 C 275.940 392.583,280.400 387.973,280.400 387.164 C 280.400 386.076,279.541 386.219,278.389 387.500 C 277.845 388.105,276.726 389.050,275.903 389.600 C 275.079 390.150,274.404 390.735,274.403 390.900 C 274.401 391.065,274.124 391.200,273.787 391.200 C 273.451 391.200,273.071 391.470,272.945 391.800 C 272.818 392.130,272.464 392.400,272.157 392.400 C 271.851 392.400,271.600 392.577,271.600 392.792 C 271.600 393.008,271.150 393.298,270.600 393.436 C 270.050 393.574,269.600 393.833,269.600 394.012 C 269.600 394.190,269.060 394.455,268.400 394.600 C 267.740 394.745,267.200 395.006,267.200 395.181 C 267.200 395.355,266.480 395.613,265.600 395.754 C 264.720 395.894,264.000 396.176,264.000 396.380 C 264.000 396.584,263.188 396.873,262.195 397.022 C 261.202 397.171,260.300 397.439,260.189 397.618 C 260.078 397.797,258.955 398.071,257.694 398.226 C 256.432 398.381,255.272 398.709,255.114 398.954 C 254.707 399.590,227.545 399.581,226.761 398.944 C 226.453 398.694,224.535 398.360,222.500 398.202 C 220.465 398.044,218.800 397.775,218.800 397.605 C 218.800 397.434,217.450 397.167,215.800 397.013 C 214.150 396.858,212.800 396.590,212.800 396.418 C 212.800 396.245,211.540 395.979,210.000 395.827 C 208.460 395.676,207.200 395.403,207.200 395.222 C 207.200 395.041,206.030 394.768,204.600 394.615 C 203.170 394.462,202.000 394.184,202.000 393.997 C 202.000 393.810,201.010 393.534,199.800 393.383 C 198.590 393.232,197.600 392.949,197.600 392.754 C 197.600 392.559,197.071 392.400,196.424 392.400 C 195.777 392.400,195.139 392.225,195.007 392.012 C 194.875 391.798,193.875 391.505,192.784 391.360 C 191.693 391.215,190.800 390.951,190.800 390.773 C 190.800 390.595,189.945 390.325,188.900 390.174 C 187.855 390.023,186.820 389.758,186.600 389.585 C 186.380 389.413,185.523 389.145,184.696 388.990 C 183.868 388.836,183.099 388.560,182.986 388.378 C 182.874 388.195,181.973 387.925,180.986 387.777 C 179.998 387.629,179.098 387.359,178.986 387.177 C 178.873 386.995,177.976 386.725,176.991 386.578 C 176.006 386.430,175.200 386.170,175.200 386.000 C 175.200 385.830,174.390 385.569,173.400 385.421 C 172.410 385.272,171.600 384.998,171.600 384.811 C 171.600 384.623,170.880 384.349,170.000 384.200 C 169.120 384.051,168.400 383.777,168.400 383.589 C 168.400 383.402,167.590 383.128,166.600 382.979 C 165.610 382.831,164.800 382.561,164.800 382.379 C 164.800 382.198,163.990 381.928,163.000 381.779 C 162.010 381.631,161.200 381.364,161.200 381.186 C 161.200 381.009,160.615 380.738,159.900 380.586 C 159.185 380.433,158.420 380.169,158.200 380.000 C 157.980 379.831,157.203 379.565,156.473 379.408 C 155.743 379.252,154.663 378.873,154.073 378.565 C 153.483 378.257,152.685 378.004,152.300 378.002 C 151.915 378.001,151.600 377.843,151.600 377.651 C 151.600 377.459,150.880 377.187,150.000 377.046 C 149.120 376.906,148.400 376.624,148.400 376.420 C 148.400 376.216,147.590 375.928,146.600 375.779 C 145.610 375.631,144.800 375.358,144.800 375.173 C 144.800 374.988,144.170 374.718,143.400 374.574 C 142.630 374.429,142.000 374.153,142.000 373.960 C 142.000 373.767,141.280 373.494,140.400 373.354 C 139.520 373.213,138.800 372.949,138.800 372.767 C 138.800 372.585,138.170 372.318,137.400 372.174 C 136.630 372.029,136.000 371.753,136.000 371.560 C 136.000 371.367,135.280 371.094,134.400 370.954 C 133.520 370.813,132.800 370.549,132.800 370.367 C 132.800 370.185,132.170 369.918,131.400 369.774 C 130.630 369.629,130.000 369.351,130.000 369.155 C 130.000 368.960,129.758 368.800,129.461 368.800 C 128.976 368.800,127.217 368.085,125.587 367.225 C 125.250 367.047,124.395 366.775,123.687 366.619 C 122.979 366.464,122.400 366.191,122.400 366.013 C 122.400 365.835,121.770 365.571,121.000 365.426 C 120.230 365.282,119.600 364.994,119.600 364.787 C 119.600 364.579,118.880 364.294,118.000 364.154 C 117.120 364.013,116.400 363.749,116.400 363.567 C 116.400 363.385,115.770 363.118,115.000 362.974 C 114.230 362.829,113.600 362.551,113.600 362.355 C 113.600 362.160,113.375 361.999,113.100 361.998 C 112.825 361.996,112.117 361.743,111.527 361.435 C 110.937 361.127,109.902 360.754,109.227 360.606 C 108.552 360.458,108.000 360.173,108.000 359.973 C 108.000 359.773,107.280 359.494,106.400 359.354 C 105.520 359.213,104.800 358.955,104.800 358.781 C 104.800 358.606,104.260 358.345,103.600 358.200 C 102.940 358.055,102.400 357.779,102.400 357.586 C 102.400 357.394,101.770 357.118,101.000 356.974 C 100.230 356.829,99.600 356.565,99.600 356.387 C 99.600 356.209,99.060 355.945,98.400 355.800 C 97.740 355.655,97.200 355.387,97.200 355.203 C 97.200 355.020,96.480 354.749,95.600 354.600 C 94.720 354.451,94.000 354.180,94.000 353.997 C 94.000 353.813,93.460 353.545,92.800 353.400 C 92.140 353.255,91.600 352.979,91.600 352.786 C 91.600 352.594,90.970 352.318,90.200 352.174 C 89.430 352.029,88.800 351.765,88.800 351.587 C 88.800 351.409,88.260 351.145,87.600 351.000 C 86.940 350.855,86.400 350.571,86.400 350.368 C 86.400 350.166,86.175 349.994,85.900 349.986 C 85.625 349.979,84.680 349.625,83.800 349.200 C 82.920 348.775,81.975 348.421,81.700 348.414 C 81.425 348.406,81.200 348.228,81.200 348.018 C 81.200 347.808,80.570 347.518,79.800 347.374 C 79.030 347.229,78.400 346.971,78.400 346.799 C 78.400 346.627,77.907 346.363,77.304 346.212 C 76.701 346.060,76.116 345.810,76.004 345.654 C 75.892 345.499,74.540 344.749,73.000 343.986 C 71.460 343.224,70.108 342.479,69.996 342.332 C 69.884 342.184,69.299 341.940,68.696 341.788 C 68.093 341.637,67.600 341.367,67.600 341.188 C 67.600 341.010,67.060 340.745,66.400 340.600 C 65.740 340.455,65.196 340.216,65.192 340.068 C 65.187 339.921,64.201 339.350,63.000 338.800 C 61.799 338.250,60.813 337.679,60.808 337.532 C 60.804 337.384,60.260 337.145,59.600 337.000 C 58.940 336.855,58.400 336.585,58.400 336.400 C 58.400 336.215,57.860 335.945,57.200 335.800 C 56.540 335.655,56.000 335.374,56.000 335.176 C 56.000 334.978,55.550 334.702,55.000 334.564 C 54.450 334.426,54.000 334.172,54.000 334.000 C 54.000 333.828,53.528 333.568,52.952 333.424 C 52.375 333.279,51.661 332.944,51.366 332.680 C 50.104 331.554,49.688 331.282,48.788 330.996 C 48.265 330.830,47.591 330.448,47.290 330.147 C 46.989 329.846,46.486 329.600,46.171 329.600 C 45.857 329.600,45.600 329.420,45.600 329.200 C 45.600 328.980,45.324 328.800,44.987 328.800 C 44.651 328.800,44.278 328.546,44.159 328.236 C 44.039 327.926,43.505 327.563,42.971 327.428 C 42.437 327.294,42.000 327.022,42.000 326.824 C 42.000 326.626,41.475 326.348,40.833 326.207 C 40.192 326.066,39.567 325.692,39.446 325.376 C 39.324 325.059,38.949 324.800,38.613 324.800 C 38.276 324.800,38.000 324.623,38.000 324.408 C 38.000 324.192,37.563 323.906,37.029 323.772 C 36.495 323.637,35.961 323.274,35.841 322.964 C 35.722 322.654,35.341 322.400,34.993 322.400 C 34.646 322.400,33.945 321.950,33.435 321.400 C 32.925 320.850,32.323 320.400,32.097 320.400 C 31.871 320.400,31.582 320.130,31.455 319.800 C 31.329 319.470,30.949 319.200,30.613 319.200 C 30.276 319.200,29.999 319.065,29.997 318.900 C 29.996 318.735,29.321 318.152,28.497 317.604 C 27.674 317.056,26.856 316.381,26.680 316.104 C 26.504 315.827,26.182 315.600,25.965 315.600 C 25.747 315.600,24.820 314.880,23.904 314.000 C 22.988 313.120,22.114 312.400,21.961 312.400 C 21.598 312.400,10.000 300.926,10.000 300.567 C 10.000 300.416,9.550 299.875,9.000 299.365 C 8.450 298.855,8.000 298.262,8.000 298.048 C 8.000 297.833,7.775 297.414,7.500 297.118 C 6.561 296.104,5.200 294.033,5.200 293.616 C 5.200 293.387,5.020 293.200,4.800 293.200 C 4.580 293.200,4.400 292.943,4.400 292.629 C 4.400 292.314,4.165 291.819,3.878 291.529 C 3.590 291.238,3.236 290.685,3.090 290.300 C 2.774 289.464,1.600 289.359,1.600 290.167 " stroke="none" fill="#FFF" fill-rule="evenodd"></path></g></svg>