<svg id="svg" version="1.1" xmlns="http://www.w3.org/2000/svg" xmlns:xlink="http://www.w3.org/1999/xlink" width="400" height="400" viewBox="0, 0, 400,400"><g id="svgg"><path id="path0" d="M0.000 200.000 L 0.000 400.000 200.000 400.000 L 400.000 400.000 400.000 200.000 L 400.000 0.000 200.000 0.000 L 0.000 0.000 0.000 200.000 M212.813 53.093 C 217.098 53.810,220.619 55.227,224.583 57.832 C 226.765 59.266,229.503 61.708,229.298 62.039 C 229.227 62.155,227.972 62.306,226.511 62.375 C 221.666 62.603,218.570 63.126,212.813 64.689 C 211.369 65.081,207.943 66.208,207.188 66.540 C 206.844 66.691,206.000 67.025,205.313 67.284 C 204.625 67.542,203.472 68.025,202.751 68.356 C 202.030 68.687,201.401 68.958,201.353 68.958 C 201.087 68.958,193.420 72.688,190.729 74.126 C 184.440 77.486,176.430 82.390,168.335 87.836 C 167.247 88.568,166.257 89.167,166.134 89.167 C 166.012 89.167,165.636 89.457,165.299 89.811 C 164.963 90.166,164.221 90.693,163.651 90.984 C 163.082 91.275,161.300 92.484,159.693 93.672 C 158.086 94.860,155.177 97.007,153.229 98.443 C 151.281 99.878,149.547 101.168,149.375 101.308 C 149.203 101.449,148.547 101.933,147.917 102.385 C 147.286 102.837,146.485 103.447,146.136 103.739 C 145.787 104.032,145.236 104.458,144.911 104.688 C 144.175 105.207,142.053 106.798,139.910 108.438 C 137.103 110.585,134.904 112.275,134.688 112.452 C 134.573 112.545,133.589 113.319,132.500 114.172 C 130.237 115.945,128.418 117.387,127.813 117.890 C 127.583 118.080,127.021 118.515,126.563 118.856 C 126.104 119.198,125.682 119.527,125.625 119.589 C 125.568 119.651,125.054 120.073,124.482 120.528 C 120.606 123.613,110.724 131.856,108.008 134.271 C 107.106 135.073,105.474 136.522,104.382 137.491 C 103.290 138.460,101.740 139.878,100.938 140.642 C 100.135 141.406,99.234 142.254,98.933 142.526 C 92.039 148.774,82.704 158.784,78.657 164.272 C 78.319 164.730,77.987 165.151,77.919 165.208 C 77.806 165.303,76.446 167.231,73.255 171.817 C 71.749 173.981,71.046 174.300,70.409 173.111 C 69.265 170.974,79.876 154.796,90.211 142.917 C 90.859 142.172,91.587 141.328,91.828 141.042 C 92.741 139.958,93.180 139.454,93.923 138.645 C 94.343 138.186,95.389 137.014,96.247 136.040 C 97.105 135.067,98.377 133.661,99.074 132.917 C 99.772 132.172,101.220 130.625,102.294 129.479 C 103.367 128.333,108.195 123.458,113.023 118.646 C 125.044 106.661,129.548 102.333,136.771 95.825 C 137.573 95.102,139.026 93.790,140.000 92.910 C 145.527 87.914,150.005 84.079,154.966 80.091 C 163.394 73.315,163.533 73.206,166.537 71.002 C 168.701 69.414,175.766 64.583,175.924 64.583 C 175.981 64.583,176.758 64.127,177.649 63.568 C 180.485 61.794,186.702 58.523,188.897 57.650 C 189.379 57.459,190.223 57.103,190.772 56.859 C 192.170 56.240,192.417 56.142,194.063 55.555 C 197.699 54.257,199.319 53.812,202.083 53.354 C 202.828 53.230,203.906 53.042,204.479 52.936 C 205.740 52.703,211.079 52.803,212.813 53.093 M238.854 73.462 C 240.203 73.651,242.517 74.138,243.750 74.491 C 244.380 74.672,245.083 74.874,245.313 74.939 C 252.304 76.947,260.844 85.129,265.611 94.386 C 266.959 97.003,266.954 97.452,265.582 96.956 C 253.957 92.749,233.603 95.142,212.604 103.186 C 212.146 103.361,211.068 103.755,210.208 104.061 C 209.349 104.367,208.458 104.695,208.229 104.790 C 208.000 104.885,206.406 105.497,204.688 106.149 C 202.969 106.800,201.180 107.507,200.712 107.719 C 200.245 107.930,199.401 108.286,198.837 108.508 C 198.274 108.731,197.156 109.213,196.354 109.579 C 194.127 110.596,192.934 111.112,191.042 111.879 C 189.802 112.382,188.651 112.907,185.104 114.585 C 183.844 115.182,182.016 116.044,181.042 116.502 C 172.851 120.349,171.841 120.837,165.208 124.155 C 154.062 129.729,146.428 133.647,143.836 135.123 C 142.471 135.900,140.574 136.939,139.621 137.432 C 137.895 138.324,134.073 140.525,128.333 143.933 C 126.672 144.920,125.125 145.830,124.896 145.955 C 124.667 146.081,122.655 147.277,120.425 148.613 C 118.196 149.949,116.297 151.042,116.207 151.042 C 116.116 151.042,116.042 151.135,116.042 151.250 C 116.042 151.365,115.950 151.458,115.837 151.458 C 115.438 151.458,103.802 159.174,101.563 160.924 C 101.219 161.192,100.469 161.766,99.896 162.198 C 90.356 169.398,81.936 177.242,78.549 182.086 C 78.270 182.486,77.986 182.859,77.920 182.917 C 77.648 183.150,74.417 188.317,73.816 189.479 C 73.275 190.523,72.583 192.143,71.678 194.479 C 70.886 196.523,70.494 196.955,69.889 196.453 C 69.524 196.149,69.584 195.662,70.352 192.720 C 71.967 186.536,76.050 178.907,81.050 172.733 C 85.937 166.697,86.707 165.819,90.834 161.563 C 92.955 159.374,99.392 153.183,100.471 152.292 C 100.818 152.005,101.393 151.503,101.749 151.176 C 103.666 149.415,104.255 148.894,106.354 147.106 C 109.538 144.394,109.417 144.496,112.084 142.286 C 115.627 139.350,116.932 138.288,117.708 137.708 C 118.092 137.422,118.928 136.757,119.567 136.230 C 122.040 134.193,136.765 123.145,140.521 120.510 C 141.323 119.947,142.364 119.204,142.833 118.858 C 143.303 118.512,143.897 118.089,144.153 117.917 C 144.408 117.745,145.430 117.007,146.423 116.278 C 147.417 115.549,148.417 114.878,148.646 114.788 C 148.987 114.654,151.864 112.552,153.646 111.135 C 153.875 110.952,156.125 109.427,158.646 107.745 C 161.167 106.064,163.260 104.617,163.299 104.531 C 163.337 104.445,163.450 104.375,163.549 104.375 C 163.649 104.375,164.320 103.964,165.042 103.463 C 166.615 102.369,178.499 94.792,178.642 94.792 C 178.697 94.792,179.243 94.471,179.855 94.079 C 180.468 93.688,181.290 93.186,181.682 92.964 C 182.075 92.742,183.943 91.672,185.833 90.585 C 208.787 77.388,226.364 71.712,238.854 73.462 M287.909 99.793 C 288.085 99.880,288.464 100.050,288.750 100.170 C 291.149 101.177,291.767 101.549,294.694 103.750 C 302.917 109.935,310.594 121.497,317.241 137.708 C 318.442 140.637,320.034 144.653,320.214 145.208 C 320.307 145.495,320.818 146.948,321.349 148.438 C 322.873 152.708,325.126 159.614,325.834 162.188 C 325.929 162.531,326.346 163.938,326.760 165.313 C 327.175 166.688,327.739 168.656,328.014 169.688 C 328.289 170.719,328.749 172.359,329.035 173.333 C 329.322 174.307,329.759 175.854,330.005 176.771 C 330.252 177.688,330.531 178.719,330.626 179.063 C 331.072 180.689,331.516 182.323,331.900 183.750 C 332.131 184.609,332.560 186.203,332.855 187.292 C 333.149 188.380,333.475 189.646,333.579 190.104 C 333.684 190.563,333.851 191.266,333.950 191.667 C 334.050 192.068,334.326 193.193,334.563 194.167 C 334.800 195.141,335.085 196.266,335.197 196.667 C 335.421 197.469,336.765 203.068,336.972 204.063 C 337.043 204.406,337.183 205.016,337.282 205.417 C 337.482 206.228,338.482 210.683,338.755 211.979 C 338.852 212.438,339.170 213.938,339.463 215.313 C 339.755 216.688,340.089 218.328,340.205 218.958 C 340.320 219.589,340.498 220.479,340.599 220.938 C 341.081 223.121,341.463 225.016,341.669 226.250 C 342.028 228.399,342.276 229.816,342.490 230.938 C 342.763 232.366,343.326 235.654,343.578 237.292 C 344.306 242.032,344.495 243.342,344.899 246.458 C 345.226 248.982,345.332 249.978,345.884 255.729 C 346.561 262.784,346.016 277.398,344.882 282.604 C 344.271 285.410,344.197 285.734,343.994 286.458 C 340.963 297.288,334.511 304.805,325.052 308.528 C 324.451 308.765,323.476 309.151,322.886 309.386 C 321.581 309.906,321.156 309.688,321.739 308.798 C 325.756 302.664,328.843 291.591,330.028 279.063 C 330.201 277.236,330.613 268.009,330.604 266.146 C 330.561 256.212,330.104 244.817,329.477 238.021 C 329.298 236.073,329.060 233.448,328.950 232.188 C 328.550 227.618,327.951 221.709,327.819 221.042 C 327.763 220.755,327.620 219.583,327.501 218.438 C 327.383 217.292,327.198 215.698,327.089 214.896 C 326.981 214.094,326.701 211.891,326.467 210.000 C 325.900 205.424,325.644 203.481,325.410 201.979 C 325.303 201.292,325.073 199.651,324.899 198.333 C 324.505 195.339,324.198 193.175,323.940 191.563 C 323.830 190.875,323.507 188.813,323.223 186.979 C 322.624 183.116,322.338 181.351,322.075 179.896 C 321.695 177.785,321.246 175.266,320.944 173.542 C 320.773 172.568,320.593 171.583,320.543 171.354 C 320.493 171.125,320.349 170.422,320.223 169.792 C 319.514 166.245,319.096 164.189,318.953 163.542 C 318.864 163.141,318.698 162.391,318.584 161.875 C 318.469 161.359,318.181 160.000,317.943 158.854 C 317.704 157.708,317.417 156.443,317.303 156.042 C 317.190 155.641,316.855 154.281,316.560 153.021 C 315.711 149.400,314.323 144.141,313.562 141.667 C 313.333 140.922,312.917 139.563,312.638 138.646 C 312.359 137.729,311.924 136.417,311.671 135.729 C 311.418 135.042,311.088 134.096,310.938 133.628 C 306.704 120.412,297.967 107.006,290.625 102.461 C 289.307 101.645,287.667 100.611,286.979 100.163 L 285.729 99.347 286.659 99.491 C 287.170 99.570,287.732 99.706,287.909 99.793 M283.021 102.034 C 286.446 104.236,288.309 106.074,292.365 111.250 C 292.754 111.746,293.626 112.980,293.854 113.356 C 296.284 117.365,296.969 118.576,297.851 120.417 C 299.037 122.896,299.348 123.588,300.003 125.208 C 300.258 125.839,300.588 126.635,300.737 126.979 C 301.574 128.915,304.731 138.543,305.109 140.313 C 305.182 140.656,305.319 141.172,305.413 141.458 C 305.691 142.308,306.408 145.108,307.175 148.333 C 307.832 151.101,308.163 152.624,309.348 158.333 C 309.987 161.414,311.776 172.510,312.488 177.813 C 312.842 180.448,313.218 183.120,313.323 183.750 C 313.618 185.515,314.774 194.944,314.996 197.396 C 315.366 201.494,316.491 212.962,316.876 216.563 C 317.108 218.740,317.298 221.083,317.298 221.771 C 317.297 222.458,317.433 224.568,317.600 226.458 C 319.872 252.234,319.079 277.386,315.528 292.188 C 310.111 314.762,296.288 325.942,275.417 324.630 C 272.507 324.447,272.523 324.546,274.979 321.959 C 277.633 319.162,280.662 315.231,282.277 312.486 C 283.891 309.744,286.667 304.136,286.667 303.619 C 286.667 303.554,286.800 303.205,286.962 302.844 C 287.222 302.265,287.988 300.146,288.855 297.604 C 289.011 297.146,289.383 295.880,289.681 294.792 C 289.979 293.703,290.303 292.578,290.400 292.292 C 290.569 291.794,290.860 290.741,291.263 289.167 C 291.366 288.766,291.690 287.406,291.983 286.146 C 292.277 284.885,292.604 283.479,292.711 283.021 C 293.043 281.600,293.793 278.068,293.972 277.083 C 294.835 272.331,295.260 269.912,295.419 268.854 C 295.522 268.167,295.706 266.995,295.828 266.250 C 295.949 265.505,296.139 264.193,296.250 263.333 C 297.150 256.367,297.277 255.268,297.697 250.833 C 297.811 249.630,297.997 247.802,298.111 246.771 C 298.224 245.740,298.415 243.677,298.536 242.188 C 298.656 240.698,298.844 238.448,298.953 237.188 C 299.063 235.927,299.250 233.443,299.369 231.667 C 299.488 229.891,299.680 227.078,299.794 225.417 C 299.908 223.755,300.099 220.389,300.218 217.935 C 300.336 215.482,300.468 213.419,300.510 213.351 C 300.553 213.282,300.651 210.649,300.728 207.498 C 300.806 204.348,300.963 201.443,301.077 201.042 C 301.427 199.812,301.478 174.638,301.146 167.188 C 300.776 158.908,300.312 152.323,299.810 148.229 C 299.698 147.313,299.500 145.672,299.370 144.583 C 299.078 142.127,298.197 136.433,297.936 135.313 C 297.829 134.854,297.629 133.917,297.491 133.229 C 296.969 130.628,295.781 126.246,294.809 123.333 C 293.674 119.932,293.088 118.473,291.294 114.583 C 290.995 113.933,289.408 111.096,289.009 110.497 C 288.924 110.369,288.489 109.713,288.043 109.039 C 286.674 106.969,285.869 106.035,283.145 103.355 C 280.379 100.633,280.349 100.317,283.021 102.034 M199.999 168.019 C 200.422 168.703,200.452 169.040,200.499 173.570 C 200.564 179.798,199.675 179.124,207.859 179.147 L 214.261 179.166 214.787 179.692 L 215.313 180.218 215.313 184.895 C 215.313 191.160,216.179 190.503,207.812 190.586 L 201.259 190.652 200.838 191.187 C 200.379 191.770,200.209 211.247,200.604 217.876 C 200.879 222.479,201.017 222.562,208.693 222.708 C 215.715 222.842,215.081 222.348,215.169 227.752 C 215.256 233.091,215.201 233.224,212.739 233.578 C 207.936 234.268,206.628 234.372,202.672 234.373 C 198.415 234.375,197.740 234.305,194.479 233.518 C 189.441 232.303,186.227 228.922,185.376 223.943 C 184.968 221.558,184.986 171.427,185.394 170.458 C 185.785 169.531,186.795 169.053,189.187 168.662 C 191.646 168.260,193.421 167.959,195.417 167.606 C 198.406 167.077,199.476 167.173,199.999 168.019 M156.891 178.640 C 168.143 180.231,173.341 185.335,173.973 195.417 C 174.233 199.551,174.233 231.465,173.974 232.147 C 173.451 233.523,173.221 233.566,166.849 233.499 L 161.068 233.438 160.438 232.833 C 160.005 232.418,159.765 231.945,159.672 231.323 C 159.508 230.227,159.698 230.224,157.756 231.350 C 145.881 238.232,132.560 233.611,130.513 221.900 C 128.779 211.975,132.782 204.718,141.146 202.623 C 141.948 202.422,143.073 202.125,143.646 201.963 C 145.131 201.542,151.218 201.047,154.943 201.044 C 158.924 201.041,158.860 201.095,158.696 197.860 C 158.508 194.146,157.610 192.474,155.413 191.754 C 153.955 191.275,146.699 191.107,142.518 191.455 C 140.961 191.585,138.563 191.743,137.188 191.807 L 134.688 191.924 134.167 191.362 L 133.646 190.799 133.646 186.250 C 133.646 180.114,132.934 180.722,141.979 179.133 C 146.606 178.321,153.109 178.106,156.891 178.640 M233.377 179.407 C 234.216 179.836,234.750 180.954,235.300 183.438 C 235.605 184.813,235.939 186.313,236.043 186.771 C 236.732 189.812,236.914 190.624,237.090 191.458 C 237.198 191.974,237.427 193.005,237.598 193.750 C 237.769 194.495,238.154 196.276,238.455 197.708 C 238.755 199.141,239.075 200.641,239.167 201.042 C 239.258 201.443,239.432 202.240,239.552 202.813 C 239.888 204.409,240.865 208.973,241.046 209.792 C 241.868 213.510,242.334 215.686,242.496 216.563 C 243.023 219.418,243.753 220.514,244.850 220.093 C 245.447 219.864,245.638 219.212,247.286 211.771 C 247.388 211.313,247.568 210.516,247.687 210.000 C 247.805 209.484,248.053 208.359,248.236 207.500 C 248.870 204.534,250.056 199.210,250.625 196.771 C 250.948 195.390,252.511 188.179,253.019 185.729 C 254.474 178.711,253.816 179.167,262.490 179.167 L 269.186 179.167 269.697 179.678 C 270.411 180.392,270.251 181.282,268.020 188.958 C 267.637 190.276,267.171 191.964,266.985 192.708 C 266.798 193.453,266.464 194.672,266.243 195.417 C 266.022 196.161,264.998 199.818,263.968 203.542 C 262.937 207.266,261.945 210.828,261.762 211.458 C 260.984 214.138,260.635 215.391,260.310 216.667 C 260.120 217.411,259.684 218.958,259.342 220.104 C 259.000 221.250,258.482 222.984,258.192 223.958 C 257.902 224.932,257.540 226.012,257.387 226.357 C 257.235 226.703,257.011 227.246,256.890 227.564 C 255.236 231.915,250.771 234.352,244.423 234.368 C 236.846 234.386,232.495 231.263,230.650 224.479 C 230.439 223.705,229.911 221.835,228.973 218.542 C 228.761 217.797,228.003 215.031,227.288 212.396 C 226.573 209.760,225.869 207.229,225.723 206.771 C 225.577 206.313,225.208 205.000,224.903 203.854 C 224.598 202.708,224.125 200.974,223.852 200.000 C 220.567 188.295,218.867 182.126,218.623 181.024 C 218.536 180.633,218.646 180.318,219.025 179.878 L 219.547 179.271 225.763 179.166 C 232.070 179.060,232.742 179.082,233.377 179.407 M149.390 210.745 C 146.523 211.651,145.417 213.483,145.417 217.325 C 145.417 220.500,145.891 221.549,147.674 222.319 C 149.725 223.204,155.270 222.591,157.741 221.206 C 158.854 220.581,158.986 219.860,158.915 214.792 L 158.854 210.521 154.583 210.487 C 151.422 210.462,150.073 210.529,149.390 210.745 M67.739 218.142 C 69.828 226.303,74.278 234.276,80.927 241.771 C 87.001 248.617,97.813 258.790,104.176 263.646 C 104.777 264.104,105.560 264.725,105.915 265.025 C 106.514 265.530,119.366 275.185,120.743 276.164 C 125.951 279.868,135.220 286.117,147.083 293.925 C 148.745 295.018,150.511 296.237,151.009 296.632 C 151.995 297.416,152.975 298.019,165.833 305.757 C 185.548 317.620,195.935 323.220,206.250 327.544 C 207.339 328.000,208.724 328.599,209.329 328.874 C 209.934 329.150,210.508 329.375,210.605 329.375 C 210.702 329.375,211.285 329.598,211.901 329.870 C 212.517 330.142,213.443 330.513,213.958 330.693 C 214.474 330.873,215.552 331.268,216.354 331.569 C 217.961 332.173,219.306 332.619,221.667 333.333 C 222.526 333.593,223.604 333.923,224.063 334.067 C 225.035 334.372,227.895 335.055,229.688 335.411 C 230.375 335.547,231.313 335.738,231.771 335.835 C 237.266 336.996,246.319 336.996,250.677 335.833 C 251.107 335.719,251.857 335.520,252.344 335.391 C 254.208 334.899,255.326 334.554,255.674 334.364 C 256.118 334.122,256.667 334.107,256.667 334.336 C 256.667 334.430,256.268 334.725,255.781 334.992 C 254.472 335.710,252.040 336.929,251.563 337.107 C 242.380 340.524,230.647 340.584,215.833 337.288 C 215.432 337.198,214.635 337.027,214.063 336.907 C 213.490 336.788,212.130 336.445,211.042 336.146 C 209.953 335.847,208.688 335.518,208.229 335.415 C 204.804 334.647,190.558 330.139,187.813 328.953 C 187.583 328.854,186.740 328.539,185.938 328.253 C 180.953 326.473,167.331 321.054,163.851 319.467 C 163.276 319.205,162.338 318.806,161.767 318.580 C 157.322 316.824,138.903 308.406,131.146 304.585 C 128.625 303.343,124.266 301.199,121.458 299.819 C 118.651 298.440,115.323 296.762,114.063 296.091 C 110.569 294.230,108.460 293.078,108.229 292.907 C 108.028 292.757,107.419 292.418,105.000 291.108 C 104.370 290.767,103.458 290.237,102.973 289.931 C 102.488 289.625,102.056 289.375,102.014 289.375 C 101.971 289.375,100.680 288.615,99.145 287.685 C 97.610 286.756,96.042 285.816,95.661 285.596 C 92.801 283.950,87.502 280.360,83.569 277.405 C 82.495 276.598,81.366 275.750,81.060 275.521 C 74.677 270.744,67.660 263.605,64.269 258.438 C 58.451 249.572,56.578 238.341,59.578 230.313 C 59.664 230.083,59.846 229.521,59.984 229.063 C 60.121 228.604,60.380 227.854,60.558 227.396 C 60.737 226.938,60.953 226.375,61.038 226.146 C 61.821 224.046,65.493 217.252,66.418 216.193 C 66.955 215.577,67.159 215.878,67.739 218.142 M56.188 266.667 C 60.184 273.861,68.536 282.061,79.167 289.229 C 81.765 290.981,87.055 294.375,87.187 294.375 C 87.226 294.375,87.952 294.786,88.802 295.288 C 97.659 300.525,112.527 308.000,124.583 313.278 C 129.529 315.444,134.746 317.695,136.458 318.403 C 137.432 318.806,138.657 319.375,139.179 319.668 C 139.702 319.961,140.860 320.438,141.753 320.730 C 142.645 321.021,144.093 321.625,144.969 322.071 C 146.837 323.023,148.499 323.713,150.521 324.375 C 151.323 324.637,153.010 325.350,154.271 325.958 C 155.531 326.566,159.188 327.945,162.396 329.022 C 165.604 330.099,169.167 331.330,170.313 331.756 C 174.697 333.389,184.483 336.750,187.604 337.695 C 187.948 337.799,189.307 338.211,190.625 338.610 C 194.234 339.704,197.889 340.709,201.250 341.531 C 203.982 342.200,205.181 342.475,209.583 343.445 C 219.623 345.656,232.337 346.523,238.438 345.412 C 239.010 345.308,240.417 345.066,241.563 344.874 C 243.501 344.550,245.582 343.995,246.563 343.539 C 246.792 343.433,247.682 343.071,248.542 342.734 C 250.675 341.899,253.120 340.716,253.750 340.215 C 254.830 339.356,254.907 339.904,253.842 340.873 C 251.840 342.695,248.500 344.628,245.625 345.628 C 245.224 345.768,244.615 346.001,244.271 346.147 C 243.927 346.292,242.943 346.615,242.083 346.863 C 241.224 347.112,240.240 347.401,239.896 347.506 C 233.384 349.499,217.712 349.409,203.438 347.296 C 200.020 346.790,197.565 346.378,195.729 346.002 C 194.583 345.767,193.177 345.502,192.604 345.411 C 191.629 345.258,188.458 344.598,185.104 343.851 C 184.302 343.672,182.755 343.333,181.667 343.096 C 178.273 342.358,178.073 342.313,175.938 341.798 C 173.844 341.294,168.475 339.903,166.146 339.262 C 165.458 339.073,164.568 338.846,164.167 338.758 C 163.766 338.670,162.500 338.343,161.354 338.032 C 160.208 337.721,158.615 337.299,157.813 337.093 C 157.010 336.887,155.370 336.437,154.167 336.092 C 152.964 335.747,150.995 335.214,149.792 334.906 C 148.589 334.598,145.307 333.607,142.500 332.705 C 139.693 331.802,136.693 330.864,135.833 330.619 C 131.754 329.461,120.672 325.859,116.563 324.356 C 115.302 323.895,113.615 323.281,112.813 322.992 C 112.010 322.703,111.167 322.387,110.938 322.290 C 110.708 322.193,109.771 321.833,108.854 321.490 C 87.583 313.531,73.079 305.438,64.375 296.670 C 59.372 291.631,56.128 286.178,54.828 280.625 C 54.277 278.267,54.186 277.678,54.060 275.625 C 53.907 273.150,54.220 269.719,54.912 266.292 C 55.099 265.364,55.536 265.493,56.188 266.667 " stroke="none" fill="#8A2C81" fill-rule="evenodd"></path><path id="path1" d="M204.479 52.936 C 203.906 53.042,202.828 53.230,202.083 53.354 C 198.590 53.933,194.547 55.186,190.772 56.859 C 190.223 57.103,189.379 57.459,188.897 57.650 C 186.702 58.523,180.485 61.794,177.649 63.568 C 176.758 64.127,175.981 64.583,175.924 64.583 C 175.766 64.583,168.701 69.414,166.537 71.002 C 163.533 73.206,163.394 73.315,154.966 80.091 C 150.005 84.079,145.527 87.914,140.000 92.910 C 139.026 93.790,137.573 95.102,136.771 95.825 C 129.548 102.333,125.044 106.661,113.023 118.646 C 108.195 123.458,103.367 128.333,102.294 129.479 C 101.220 130.625,99.772 132.172,99.074 132.917 C 98.377 133.661,97.105 135.067,96.247 136.040 C 95.389 137.014,94.343 138.186,93.923 138.645 C 93.180 139.454,92.741 139.958,91.828 141.042 C 91.587 141.328,90.859 142.172,90.211 142.917 C 79.876 154.796,69.265 170.974,70.409 173.111 C 71.046 174.300,71.749 173.981,73.255 171.817 C 76.446 167.231,77.806 165.303,77.919 165.208 C 77.987 165.151,78.319 164.730,78.657 164.272 C 82.704 158.784,92.039 148.774,98.933 142.526 C 99.234 142.254,100.135 141.406,100.938 140.642 C 101.740 139.878,103.290 138.460,104.382 137.491 C 105.474 136.522,107.106 135.073,108.008 134.271 C 110.724 131.856,120.606 123.613,124.482 120.528 C 125.054 120.073,125.568 119.651,125.625 119.589 C 125.682 119.527,126.104 119.198,126.563 118.856 C 127.021 118.515,127.583 118.080,127.813 117.890 C 128.418 117.387,130.237 115.945,132.500 114.172 C 133.589 113.319,134.573 112.545,134.688 112.452 C 134.904 112.275,137.103 110.585,139.910 108.438 C 142.053 106.798,144.175 105.207,144.911 104.688 C 145.236 104.458,145.787 104.032,146.136 103.739 C 146.485 103.447,147.286 102.837,147.917 102.385 C 148.547 101.933,149.203 101.449,149.375 101.308 C 149.547 101.168,151.281 99.878,153.229 98.443 C 155.177 97.007,158.086 94.860,159.693 93.672 C 161.300 92.484,163.082 91.275,163.651 90.984 C 164.221 90.693,164.963 90.166,165.299 89.811 C 165.636 89.457,166.012 89.167,166.134 89.167 C 166.257 89.167,167.247 88.568,168.335 87.836 C 176.430 82.390,184.440 77.486,190.729 74.126 C 193.420 72.688,201.087 68.958,201.353 68.958 C 201.401 68.958,202.030 68.687,202.751 68.356 C 203.472 68.025,204.625 67.542,205.313 67.284 C 206.000 67.025,206.844 66.691,207.188 66.540 C 207.943 66.208,211.369 65.081,212.813 64.689 C 218.570 63.126,221.666 62.603,226.511 62.375 C 229.746 62.222,229.789 62.167,227.996 60.480 C 224.667 57.350,219.210 54.465,214.688 53.443 C 212.084 52.855,206.431 52.574,204.479 52.936 M230.313 73.437 C 217.979 74.639,204.592 79.800,185.833 90.585 C 183.943 91.672,182.075 92.742,181.682 92.964 C 181.290 93.186,180.468 93.688,179.855 94.079 C 179.243 94.471,178.697 94.792,178.642 94.792 C 178.499 94.792,166.615 102.369,165.042 103.463 C 164.320 103.964,163.649 104.375,163.549 104.375 C 163.450 104.375,163.337 104.445,163.299 104.531 C 163.260 104.617,161.167 106.064,158.646 107.745 C 156.125 109.427,153.875 110.952,153.646 111.135 C 151.864 112.552,148.987 114.654,148.646 114.788 C 148.417 114.878,147.417 115.549,146.423 116.278 C 145.430 117.007,144.408 117.745,144.153 117.917 C 143.897 118.089,143.303 118.512,142.833 118.858 C 142.364 119.204,141.323 119.947,140.521 120.510 C 136.765 123.145,122.040 134.193,119.567 136.230 C 118.928 136.757,118.092 137.422,117.708 137.708 C 116.932 138.288,115.627 139.350,112.084 142.286 C 109.417 144.496,109.538 144.394,106.354 147.106 C 104.255 148.894,103.666 149.415,101.749 151.176 C 101.393 151.503,100.818 152.005,100.471 152.292 C 99.392 153.183,92.955 159.374,90.834 161.563 C 86.707 165.819,85.937 166.697,81.050 172.733 C 76.050 178.907,71.967 186.536,70.352 192.720 C 69.584 195.662,69.524 196.149,69.889 196.453 C 70.494 196.955,70.886 196.523,71.678 194.479 C 72.583 192.143,73.275 190.523,73.816 189.479 C 74.417 188.317,77.648 183.150,77.920 182.917 C 77.986 182.859,78.270 182.486,78.549 182.086 C 81.936 177.242,90.356 169.398,99.896 162.198 C 100.469 161.766,101.219 161.192,101.563 160.924 C 103.802 159.174,115.438 151.458,115.837 151.458 C 115.950 151.458,116.042 151.365,116.042 151.250 C 116.042 151.135,116.116 151.042,116.207 151.042 C 116.297 151.042,118.196 149.949,120.425 148.613 C 122.655 147.277,124.667 146.081,124.896 145.955 C 125.125 145.830,126.672 144.920,128.333 143.933 C 134.073 140.525,137.895 138.324,139.621 137.432 C 140.574 136.939,142.471 135.900,143.836 135.123 C 146.428 133.647,154.062 129.729,165.208 124.155 C 171.841 120.837,172.851 120.349,181.042 116.502 C 182.016 116.044,183.844 115.182,185.104 114.585 C 188.651 112.907,189.802 112.382,191.042 111.879 C 192.934 111.112,194.127 110.596,196.354 109.579 C 197.156 109.213,198.274 108.731,198.837 108.508 C 199.401 108.286,200.245 107.930,200.712 107.719 C 201.180 107.507,202.969 106.800,204.688 106.149 C 206.406 105.497,208.000 104.885,208.229 104.790 C 208.458 104.695,209.349 104.367,210.208 104.061 C 211.068 103.755,212.146 103.361,212.604 103.186 C 233.603 95.142,253.957 92.749,265.582 96.956 C 266.954 97.452,266.959 97.003,265.611 94.386 C 260.844 85.129,252.304 76.947,245.313 74.939 C 245.083 74.874,244.380 74.672,243.750 74.491 C 239.619 73.307,235.203 72.960,230.313 73.437 M286.979 100.163 C 287.667 100.611,289.307 101.645,290.625 102.461 C 297.967 107.006,306.704 120.412,310.938 133.628 C 311.088 134.096,311.418 135.042,311.671 135.729 C 311.924 136.417,312.359 137.729,312.638 138.646 C 312.917 139.563,313.333 140.922,313.562 141.667 C 314.323 144.141,315.711 149.400,316.560 153.021 C 316.855 154.281,317.190 155.641,317.303 156.042 C 317.417 156.443,317.704 157.708,317.943 158.854 C 318.181 160.000,318.469 161.359,318.584 161.875 C 318.698 162.391,318.864 163.141,318.953 163.542 C 319.096 164.189,319.514 166.245,320.223 169.792 C 320.349 170.422,320.493 171.125,320.543 171.354 C 320.593 171.583,320.773 172.568,320.944 173.542 C 321.246 175.266,321.695 177.785,322.075 179.896 C 322.338 181.351,322.624 183.116,323.223 186.979 C 323.507 188.813,323.830 190.875,323.940 191.563 C 324.198 193.175,324.505 195.339,324.899 198.333 C 325.073 199.651,325.303 201.292,325.410 201.979 C 325.644 203.481,325.900 205.424,326.467 210.000 C 326.701 211.891,326.981 214.094,327.089 214.896 C 327.198 215.698,327.383 217.292,327.501 218.438 C 327.620 219.583,327.763 220.755,327.819 221.042 C 327.951 221.709,328.550 227.618,328.950 232.188 C 329.060 233.448,329.298 236.073,329.477 238.021 C 330.104 244.817,330.561 256.212,330.604 266.146 C 330.658 278.486,328.936 290.809,325.903 299.792 C 325.218 301.818,322.597 307.488,321.739 308.798 C 321.156 309.688,321.581 309.906,322.886 309.386 C 323.476 309.151,324.451 308.765,325.052 308.528 C 334.511 304.805,340.963 297.288,343.994 286.458 C 344.197 285.734,344.271 285.410,344.882 282.604 C 345.244 280.945,345.577 278.437,345.878 275.104 C 346.187 271.690,346.191 258.927,345.884 255.729 C 345.332 249.978,345.226 248.982,344.899 246.458 C 344.495 243.342,344.306 242.032,343.578 237.292 C 343.326 235.654,342.763 232.366,342.490 230.938 C 342.276 229.816,342.028 228.399,341.669 226.250 C 341.463 225.016,341.081 223.121,340.599 220.938 C 340.498 220.479,340.320 219.589,340.205 218.958 C 340.089 218.328,339.755 216.688,339.463 215.313 C 339.170 213.938,338.852 212.438,338.755 211.979 C 338.482 210.683,337.482 206.228,337.282 205.417 C 337.183 205.016,337.043 204.406,336.972 204.063 C 336.765 203.068,335.421 197.469,335.197 196.667 C 335.085 196.266,334.800 195.141,334.563 194.167 C 334.326 193.193,334.050 192.068,333.950 191.667 C 333.851 191.266,333.684 190.563,333.579 190.104 C 333.475 189.646,333.149 188.380,332.855 187.292 C 332.560 186.203,332.131 184.609,331.900 183.750 C 331.516 182.323,331.072 180.689,330.626 179.063 C 330.531 178.719,330.252 177.688,330.005 176.771 C 329.759 175.854,329.322 174.307,329.035 173.333 C 328.749 172.359,328.289 170.719,328.014 169.688 C 327.739 168.656,327.175 166.688,326.760 165.313 C 326.346 163.938,325.929 162.531,325.834 162.188 C 325.126 159.614,322.873 152.708,321.349 148.438 C 320.818 146.948,320.307 145.495,320.214 145.208 C 320.034 144.653,318.442 140.637,317.241 137.708 C 310.594 121.497,302.917 109.935,294.694 103.750 C 291.767 101.549,291.149 101.177,288.750 100.170 C 288.464 100.050,288.085 99.880,287.909 99.793 C 287.732 99.706,287.170 99.570,286.659 99.491 L 285.729 99.347 286.979 100.163 M283.145 103.355 C 285.869 106.035,286.674 106.969,288.043 109.039 C 288.489 109.713,288.924 110.369,289.009 110.497 C 289.408 111.096,290.995 113.933,291.294 114.583 C 293.088 118.473,293.674 119.932,294.809 123.333 C 295.781 126.246,296.969 130.628,297.491 133.229 C 297.629 133.917,297.829 134.854,297.936 135.313 C 298.197 136.433,299.078 142.127,299.370 144.583 C 299.500 145.672,299.698 147.313,299.810 148.229 C 300.312 152.323,300.776 158.908,301.146 167.188 C 301.478 174.638,301.427 199.812,301.077 201.042 C 300.963 201.443,300.806 204.348,300.728 207.498 C 300.651 210.649,300.553 213.282,300.510 213.351 C 300.468 213.419,300.336 215.482,300.218 217.935 C 300.099 220.389,299.908 223.755,299.794 225.417 C 299.680 227.078,299.488 229.891,299.369 231.667 C 299.250 233.443,299.063 235.927,298.953 237.188 C 298.844 238.448,298.656 240.698,298.536 242.188 C 298.415 243.677,298.224 245.740,298.111 246.771 C 297.997 247.802,297.811 249.630,297.697 250.833 C 297.277 255.268,297.150 256.367,296.250 263.333 C 296.139 264.193,295.949 265.505,295.828 266.250 C 295.706 266.995,295.522 268.167,295.419 268.854 C 295.260 269.912,294.835 272.331,293.972 277.083 C 293.793 278.068,293.043 281.600,292.711 283.021 C 292.604 283.479,292.277 284.885,291.983 286.146 C 291.690 287.406,291.366 288.766,291.263 289.167 C 290.860 290.741,290.569 291.794,290.400 292.292 C 290.303 292.578,289.979 293.703,289.681 294.792 C 289.383 295.880,289.011 297.146,288.855 297.604 C 287.988 300.146,287.222 302.265,286.962 302.844 C 286.800 303.205,286.667 303.554,286.667 303.619 C 286.667 304.136,283.891 309.744,282.277 312.486 C 280.662 315.231,277.633 319.162,274.979 321.959 C 272.523 324.546,272.507 324.447,275.417 324.630 C 303.325 326.384,317.683 306.671,318.772 265.104 C 319.074 253.591,318.592 237.716,317.600 226.458 C 317.433 224.568,317.297 222.458,317.298 221.771 C 317.298 221.083,317.108 218.740,316.876 216.563 C 316.491 212.962,315.366 201.494,314.996 197.396 C 314.774 194.944,313.618 185.515,313.323 183.750 C 313.218 183.120,312.842 180.448,312.488 177.813 C 311.776 172.510,309.987 161.414,309.348 158.333 C 308.163 152.624,307.832 151.101,307.175 148.333 C 306.408 145.108,305.691 142.308,305.413 141.458 C 305.319 141.172,305.182 140.656,305.109 140.313 C 304.731 138.543,301.574 128.915,300.737 126.979 C 300.588 126.635,300.258 125.839,300.003 125.208 C 299.348 123.588,299.037 122.896,297.851 120.417 C 296.969 118.576,296.284 117.365,293.854 113.356 C 293.626 112.980,292.754 111.746,292.365 111.250 C 288.309 106.074,286.446 104.236,283.021 102.034 C 280.349 100.317,280.379 100.633,283.145 103.355 M195.417 167.606 C 193.421 167.959,191.646 168.260,189.187 168.662 C 186.795 169.053,185.785 169.531,185.394 170.458 C 184.986 171.427,184.968 221.558,185.376 223.943 C 186.377 229.801,189.613 232.581,197.255 234.148 C 198.904 234.486,206.555 234.429,209.271 234.059 C 215.769 233.174,215.266 233.712,215.169 227.752 C 215.081 222.348,215.715 222.842,208.693 222.708 C 201.017 222.562,200.879 222.479,200.604 217.876 C 200.209 211.247,200.379 191.770,200.838 191.187 L 201.259 190.652 207.812 190.586 C 216.179 190.503,215.313 191.160,215.313 184.895 L 215.313 180.218 214.787 179.692 L 214.261 179.166 207.859 179.147 C 199.675 179.124,200.564 179.798,200.499 173.570 C 200.429 166.830,200.347 166.734,195.417 167.606 M145.313 178.653 C 143.167 178.922,142.359 179.053,138.438 179.774 C 133.432 180.694,133.646 180.405,133.646 186.250 L 133.646 190.799 134.167 191.362 L 134.688 191.924 137.188 191.807 C 138.563 191.743,140.961 191.585,142.518 191.455 C 146.699 191.107,153.955 191.275,155.413 191.754 C 157.610 192.474,158.508 194.146,158.696 197.860 C 158.860 201.095,158.924 201.041,154.943 201.044 C 151.218 201.047,145.131 201.542,143.646 201.963 C 143.073 202.125,141.948 202.422,141.146 202.623 C 132.782 204.718,128.779 211.975,130.513 221.900 C 132.560 233.611,145.881 238.232,157.756 231.350 C 159.698 230.224,159.508 230.227,159.672 231.323 C 159.765 231.945,160.005 232.418,160.438 232.833 L 161.068 233.438 166.849 233.499 C 173.221 233.566,173.451 233.523,173.974 232.147 C 174.233 231.465,174.233 199.551,173.973 195.417 C 173.341 185.335,168.143 180.231,156.891 178.640 C 154.279 178.271,148.308 178.278,145.313 178.653 M225.763 179.166 L 219.547 179.271 219.025 179.878 C 218.646 180.318,218.536 180.633,218.623 181.024 C 218.867 182.126,220.567 188.295,223.852 200.000 C 224.125 200.974,224.598 202.708,224.903 203.854 C 225.208 205.000,225.577 206.313,225.723 206.771 C 225.869 207.229,226.573 209.760,227.288 212.396 C 228.003 215.031,228.761 217.797,228.973 218.542 C 229.911 221.835,230.439 223.705,230.650 224.479 C 232.906 232.775,240.953 236.502,250.314 233.586 C 252.972 232.759,255.954 230.028,256.890 227.564 C 257.011 227.246,257.235 226.703,257.387 226.357 C 257.540 226.012,257.902 224.932,258.192 223.958 C 258.482 222.984,259.000 221.250,259.342 220.104 C 259.684 218.958,260.120 217.411,260.310 216.667 C 260.635 215.391,260.984 214.138,261.762 211.458 C 261.945 210.828,262.937 207.266,263.968 203.542 C 264.998 199.818,266.022 196.161,266.243 195.417 C 266.464 194.672,266.798 193.453,266.985 192.708 C 267.171 191.964,267.637 190.276,268.020 188.958 C 270.251 181.282,270.411 180.392,269.697 179.678 L 269.186 179.167 262.490 179.167 C 254.778 179.167,254.972 179.122,254.210 181.089 C 253.736 182.313,253.691 182.488,253.019 185.729 C 252.511 188.179,250.948 195.390,250.625 196.771 C 250.056 199.210,248.870 204.534,248.236 207.500 C 248.053 208.359,247.805 209.484,247.687 210.000 C 247.568 210.516,247.388 211.313,247.286 211.771 C 245.638 219.212,245.447 219.864,244.850 220.093 C 243.753 220.514,243.023 219.418,242.496 216.563 C 242.334 215.686,241.868 213.510,241.046 209.792 C 240.865 208.973,239.888 204.409,239.552 202.813 C 239.432 202.240,239.258 201.443,239.167 201.042 C 239.075 200.641,238.755 199.141,238.455 197.708 C 238.154 196.276,237.769 194.495,237.598 193.750 C 237.427 193.005,237.198 191.974,237.090 191.458 C 236.914 190.624,236.732 189.812,236.043 186.771 C 235.939 186.313,235.605 184.813,235.300 183.438 C 234.288 178.872,234.613 179.018,225.763 179.166 M158.915 214.792 C 158.986 219.860,158.854 220.581,157.741 221.206 C 154.427 223.063,147.950 223.249,146.414 221.530 C 144.967 219.910,145.008 214.715,146.484 212.719 C 147.889 210.818,149.241 210.445,154.583 210.487 L 158.854 210.521 158.915 214.792 M66.418 216.193 C 65.493 217.252,61.821 224.046,61.038 226.146 C 60.953 226.375,60.737 226.938,60.558 227.396 C 60.380 227.854,60.121 228.604,59.984 229.063 C 59.846 229.521,59.664 230.083,59.578 230.313 C 58.356 233.583,57.887 241.052,58.660 244.926 C 60.394 253.610,64.583 260.555,72.718 268.229 C 76.989 272.258,78.712 273.764,81.060 275.521 C 81.366 275.750,82.495 276.598,83.569 277.405 C 87.502 280.360,92.801 283.950,95.661 285.596 C 96.042 285.816,97.610 286.756,99.145 287.685 C 100.680 288.615,101.971 289.375,102.014 289.375 C 102.056 289.375,102.488 289.625,102.973 289.931 C 103.458 290.237,104.370 290.767,105.000 291.108 C 107.419 292.418,108.028 292.757,108.229 292.907 C 108.460 293.078,110.569 294.230,114.063 296.091 C 115.323 296.762,118.651 298.440,121.458 299.819 C 124.266 301.199,128.625 303.343,131.146 304.585 C 138.903 308.406,157.322 316.824,161.767 318.580 C 162.338 318.806,163.276 319.205,163.851 319.467 C 167.331 321.054,180.953 326.473,185.938 328.253 C 186.740 328.539,187.583 328.854,187.813 328.953 C 190.558 330.139,204.804 334.647,208.229 335.415 C 208.688 335.518,209.953 335.847,211.042 336.146 C 212.130 336.445,213.490 336.788,214.063 336.907 C 214.635 337.027,215.432 337.198,215.833 337.288 C 229.608 340.352,242.093 340.492,250.000 337.671 C 251.864 337.006,251.918 336.983,253.438 336.215 C 255.805 335.018,256.667 334.517,256.667 334.336 C 256.667 334.107,256.118 334.122,255.674 334.364 C 255.326 334.554,254.208 334.899,252.344 335.391 C 251.857 335.520,251.107 335.719,250.677 335.833 C 246.319 336.996,237.266 336.996,231.771 335.835 C 231.313 335.738,230.375 335.547,229.688 335.411 C 227.895 335.055,225.035 334.372,224.063 334.067 C 223.604 333.923,222.526 333.593,221.667 333.333 C 219.306 332.619,217.961 332.173,216.354 331.569 C 215.552 331.268,214.474 330.873,213.958 330.693 C 213.443 330.513,212.517 330.142,211.901 329.870 C 211.285 329.598,210.702 329.375,210.605 329.375 C 210.508 329.375,209.934 329.150,209.329 328.874 C 208.724 328.599,207.339 328.000,206.250 327.544 C 195.935 323.220,185.548 317.620,165.833 305.757 C 152.975 298.019,151.995 297.416,151.009 296.632 C 150.511 296.237,148.745 295.018,147.083 293.925 C 135.220 286.117,125.951 279.868,120.743 276.164 C 119.366 275.185,106.514 265.530,105.915 265.025 C 105.560 264.725,104.777 264.104,104.176 263.646 C 97.813 258.790,87.001 248.617,80.927 241.771 C 74.278 234.276,69.828 226.303,67.739 218.142 C 67.159 215.878,66.955 215.577,66.418 216.193 M54.912 266.292 C 53.960 271.010,53.761 275.854,54.402 278.750 C 54.881 280.916,55.074 281.642,55.568 283.125 C 60.080 296.682,75.565 308.375,103.750 319.509 C 105.641 320.255,107.938 321.147,108.854 321.490 C 109.771 321.833,110.708 322.193,110.938 322.290 C 111.167 322.387,112.010 322.703,112.813 322.992 C 113.615 323.281,115.302 323.895,116.563 324.356 C 120.672 325.859,131.754 329.461,135.833 330.619 C 136.693 330.864,139.693 331.802,142.500 332.705 C 145.307 333.607,148.589 334.598,149.792 334.906 C 150.995 335.214,152.964 335.747,154.167 336.092 C 155.370 336.437,157.010 336.887,157.813 337.093 C 158.615 337.299,160.208 337.721,161.354 338.032 C 162.500 338.343,163.766 338.670,164.167 338.758 C 164.568 338.846,165.458 339.073,166.146 339.262 C 168.475 339.903,173.844 341.294,175.938 341.798 C 178.073 342.313,178.273 342.358,181.667 343.096 C 182.755 343.333,184.302 343.672,185.104 343.851 C 188.458 344.598,191.629 345.258,192.604 345.411 C 193.177 345.502,194.583 345.767,195.729 346.002 C 204.477 347.793,215.729 348.943,224.583 348.949 C 230.707 348.954,237.150 348.347,239.896 347.506 C 240.240 347.401,241.224 347.112,242.083 346.863 C 242.943 346.615,243.927 346.292,244.271 346.147 C 244.615 346.001,245.224 345.768,245.625 345.628 C 248.500 344.628,251.840 342.695,253.842 340.873 C 254.907 339.904,254.830 339.356,253.750 340.215 C 253.120 340.716,250.675 341.899,248.542 342.734 C 247.682 343.071,246.792 343.433,246.563 343.539 C 245.582 343.995,243.501 344.550,241.563 344.874 C 240.417 345.066,239.010 345.308,238.438 345.412 C 232.337 346.523,219.623 345.656,209.583 343.445 C 205.181 342.475,203.982 342.200,201.250 341.531 C 197.889 340.709,194.234 339.704,190.625 338.610 C 189.307 338.211,187.948 337.799,187.604 337.695 C 184.483 336.750,174.697 333.389,170.313 331.756 C 169.167 331.330,165.604 330.099,162.396 329.022 C 159.188 327.945,155.531 326.566,154.271 325.958 C 153.010 325.350,151.323 324.637,150.521 324.375 C 148.499 323.713,146.837 323.023,144.969 322.071 C 144.093 321.625,142.645 321.021,141.753 320.730 C 140.860 320.438,139.702 319.961,139.179 319.668 C 138.657 319.375,137.432 318.806,136.458 318.403 C 134.746 317.695,129.529 315.444,124.583 313.278 C 112.527 308.000,97.659 300.525,88.802 295.288 C 87.952 294.786,87.226 294.375,87.187 294.375 C 87.055 294.375,81.765 290.981,79.167 289.229 C 68.536 282.061,60.184 273.861,56.188 266.667 C 55.536 265.493,55.099 265.364,54.912 266.292 " stroke="none" fill="#FFFFFF" fill-rule="evenodd"></path></g></svg>
