<svg id="svg" version="1.1" xmlns="http://www.w3.org/2000/svg" xmlns:xlink="http://www.w3.org/1999/xlink" width="400" height="400" viewBox="0, 0, 400,400"><g id="svgg"><path id="path0" d="M191.979 70.020 C 182.047 70.685,174.527 71.939,165.417 74.447 C 162.377 75.285,158.652 76.489,153.787 78.208 C 149.023 79.891,139.518 84.457,134.740 87.357 C 133.856 87.894,133.076 88.333,133.006 88.333 C 132.937 88.333,132.490 88.605,132.013 88.936 C 131.536 89.268,130.068 90.223,128.750 91.060 C 127.433 91.897,125.967 92.868,125.494 93.218 C 125.021 93.568,123.690 94.545,122.538 95.389 C 121.386 96.233,120.388 97.066,120.321 97.240 C 120.185 97.594,119.962 97.614,124.375 96.882 C 125.807 96.645,129.182 96.125,131.875 95.727 C 134.568 95.329,137.240 94.914,137.813 94.805 C 138.385 94.696,140.448 94.367,142.396 94.074 C 147.302 93.335,148.302 93.179,151.042 92.722 C 152.359 92.503,154.797 92.125,156.458 91.882 C 158.120 91.639,161.167 91.161,163.229 90.820 C 165.292 90.479,167.682 90.111,168.542 90.003 C 170.527 89.754,172.179 89.502,175.313 88.973 C 176.688 88.741,179.453 88.315,181.458 88.027 C 183.464 87.739,186.510 87.270,188.229 86.984 C 189.948 86.698,192.010 86.366,192.813 86.245 C 193.615 86.125,194.833 85.936,195.521 85.826 C 196.208 85.716,197.990 85.438,199.479 85.207 C 200.969 84.976,202.703 84.699,203.333 84.592 C 203.964 84.484,205.182 84.298,206.042 84.178 C 208.183 83.878,214.018 82.968,215.417 82.716 C 216.047 82.603,217.688 82.360,219.063 82.178 C 220.438 81.995,223.438 81.537,225.729 81.159 C 228.021 80.781,230.693 80.357,231.667 80.217 C 232.641 80.076,234.797 79.732,236.458 79.453 C 238.120 79.173,240.724 78.783,242.245 78.587 C 245.926 78.111,245.771 77.773,241.250 76.421 C 240.849 76.301,239.677 75.925,238.646 75.585 C 237.615 75.246,235.833 74.733,234.688 74.446 C 233.542 74.158,232.203 73.791,231.712 73.629 C 230.663 73.282,221.011 71.369,218.750 71.059 C 210.577 69.941,199.549 69.512,191.979 70.020 M186.979 91.690 C 184.827 92.055,175.452 93.517,173.750 93.752 C 172.776 93.887,170.339 94.265,168.333 94.592 C 166.328 94.920,163.609 95.335,162.292 95.515 C 160.974 95.695,157.552 96.209,154.688 96.658 C 151.823 97.106,147.792 97.722,145.729 98.026 C 143.667 98.330,141.229 98.709,140.313 98.869 C 139.396 99.029,137.568 99.299,136.250 99.469 C 134.932 99.639,132.776 99.972,131.458 100.208 C 130.141 100.444,127.141 100.915,124.792 101.254 C 119.184 102.066,118.254 102.209,115.445 102.698 L 113.077 103.110 111.903 104.207 C 105.443 110.247,99.844 116.516,95.208 122.899 C 94.349 124.082,93.341 125.462,92.969 125.964 C 91.864 127.456,92.013 127.593,94.285 127.173 C 95.194 127.006,98.119 126.543,100.786 126.145 C 103.452 125.747,106.686 125.243,107.973 125.026 C 109.260 124.809,111.156 124.516,112.188 124.374 C 113.219 124.232,115.656 123.850,117.604 123.525 C 119.552 123.200,122.271 122.784,123.646 122.602 C 125.021 122.419,128.349 121.910,131.042 121.469 C 133.734 121.029,136.641 120.568,137.500 120.445 C 138.359 120.321,141.078 119.896,143.542 119.499 C 146.005 119.103,148.490 118.717,149.063 118.641 C 149.635 118.566,152.120 118.183,154.583 117.791 C 157.047 117.398,159.625 116.991,160.313 116.887 C 161.000 116.782,164.000 116.315,166.979 115.849 C 169.958 115.382,173.427 114.855,174.688 114.678 C 175.948 114.501,177.823 114.215,178.854 114.042 C 181.834 113.544,182.724 113.405,188.019 112.616 C 190.768 112.206,193.158 111.827,193.331 111.774 C 193.657 111.672,194.923 111.479,198.854 110.930 C 200.115 110.754,203.068 110.292,205.417 109.904 C 207.766 109.516,210.203 109.139,210.833 109.067 C 211.464 108.995,213.995 108.612,216.458 108.215 C 218.922 107.818,221.500 107.403,222.188 107.293 C 222.875 107.182,224.188 106.989,225.104 106.863 C 226.021 106.738,228.367 106.365,230.317 106.035 C 232.267 105.705,234.892 105.296,236.150 105.127 C 237.408 104.957,239.609 104.623,241.042 104.385 C 245.588 103.627,246.084 103.550,249.167 103.119 C 250.828 102.887,253.266 102.510,254.583 102.280 C 255.901 102.051,258.339 101.677,260.000 101.448 C 261.661 101.220,264.990 100.710,267.396 100.315 C 272.079 99.546,278.298 98.577,279.727 98.394 C 281.407 98.179,281.287 98.061,273.999 92.771 L 272.686 91.817 271.204 91.955 C 270.389 92.031,268.402 92.314,266.788 92.584 C 263.960 93.058,262.514 93.280,259.167 93.757 C 257.259 94.029,254.468 94.462,251.146 95.001 C 249.771 95.224,247.240 95.599,245.521 95.835 C 243.802 96.070,240.990 96.501,239.271 96.791 C 237.552 97.081,235.396 97.404,234.479 97.509 C 233.563 97.613,232.250 97.788,231.563 97.897 C 226.050 98.774,222.201 99.356,221.146 99.473 C 220.458 99.549,218.818 99.800,217.500 100.032 C 214.796 100.506,213.820 100.658,210.417 101.138 C 209.099 101.324,206.521 101.707,204.688 101.990 C 198.703 102.912,196.013 101.077,190.548 92.344 C 189.935 91.364,189.436 91.273,186.979 91.690 M296.858 114.250 C 296.810 114.296,295.974 114.435,295.000 114.560 C 292.314 114.902,289.248 115.354,285.104 116.017 C 283.042 116.347,280.557 116.727,279.583 116.860 C 278.609 116.994,277.250 117.189,276.563 117.295 C 269.982 118.306,268.412 118.543,266.875 118.755 C 265.901 118.889,263.464 119.263,261.458 119.586 C 259.453 119.909,257.016 120.281,256.042 120.413 C 255.068 120.545,252.302 120.971,249.896 121.360 C 247.490 121.749,244.396 122.215,243.021 122.397 C 240.255 122.762,237.498 123.183,234.758 123.659 C 233.766 123.831,232.219 124.061,231.321 124.170 C 229.594 124.379,227.514 124.686,222.917 125.410 C 212.063 127.118,211.363 126.929,206.408 120.938 C 206.123 120.594,205.208 119.295,204.373 118.051 C 202.905 115.863,202.834 115.793,202.209 115.903 C 200.639 116.181,197.669 116.647,196.042 116.872 C 195.068 117.006,192.818 117.344,191.042 117.623 C 189.266 117.902,187.203 118.223,186.458 118.338 C 185.714 118.452,182.948 118.882,180.313 119.293 C 175.714 120.010,174.258 120.225,171.979 120.523 C 171.406 120.598,168.734 121.022,166.042 121.465 C 163.349 121.907,160.021 122.420,158.646 122.604 C 157.271 122.788,154.458 123.208,152.396 123.538 C 150.333 123.867,147.849 124.249,146.875 124.386 C 145.901 124.523,143.698 124.861,141.979 125.137 C 140.260 125.413,137.214 125.873,135.208 126.159 C 133.203 126.446,130.250 126.902,128.646 127.174 C 127.042 127.446,124.932 127.779,123.958 127.915 C 121.024 128.324,115.628 129.162,113.854 129.485 C 112.938 129.652,111.016 129.936,109.583 130.116 C 108.151 130.296,105.385 130.710,103.438 131.036 C 101.490 131.361,99.052 131.741,98.021 131.879 C 96.990 132.018,94.693 132.367,92.917 132.656 C 91.141 132.944,89.377 133.226,88.998 133.281 C 88.244 133.391,88.122 133.547,86.350 136.667 C 85.319 138.481,82.083 144.901,82.083 145.132 C 82.083 145.203,81.799 145.820,81.452 146.504 C 79.644 150.061,77.519 155.796,77.918 156.042 C 78.049 156.123,79.391 155.979,80.901 155.721 C 82.411 155.463,84.443 155.140,85.417 155.003 C 86.391 154.865,89.156 154.439,91.563 154.055 C 93.969 153.672,96.969 153.202,98.229 153.012 C 99.490 152.822,101.646 152.482,103.021 152.257 C 104.396 152.031,106.458 151.706,107.604 151.534 C 108.750 151.361,111.469 150.940,113.646 150.599 C 115.823 150.257,119.178 149.754,121.102 149.482 C 123.025 149.209,127.010 148.602,129.956 148.132 C 132.902 147.662,136.813 147.038,138.646 146.746 C 140.479 146.454,143.104 146.036,144.479 145.817 C 145.854 145.598,147.729 145.324,148.646 145.210 C 149.563 145.095,151.063 144.859,151.979 144.686 C 152.896 144.513,154.302 144.281,155.104 144.170 C 158.183 143.746,163.795 142.891,167.292 142.314 C 169.297 141.983,171.781 141.603,172.813 141.469 C 173.844 141.334,176.047 140.994,177.708 140.712 C 182.446 139.907,182.948 139.827,184.167 139.685 C 184.797 139.612,187.844 139.144,190.938 138.646 C 194.031 138.148,197.313 137.635,198.229 137.507 C 199.146 137.379,201.583 137.000,203.646 136.666 C 205.708 136.331,209.036 135.820,211.042 135.531 C 213.047 135.241,215.859 134.813,217.292 134.579 C 218.724 134.345,220.458 134.067,221.146 133.962 C 222.604 133.739,223.700 133.567,229.063 132.714 C 231.240 132.367,233.630 131.995,234.375 131.886 C 236.098 131.635,243.744 130.453,250.729 129.358 C 253.708 128.892,256.755 128.423,257.500 128.318 C 258.245 128.212,261.198 127.753,264.063 127.296 C 266.927 126.840,270.911 126.226,272.917 125.931 C 274.922 125.637,277.594 125.222,278.854 125.009 C 280.115 124.797,281.943 124.512,282.917 124.377 C 283.891 124.242,286.000 123.908,287.604 123.635 C 290.023 123.224,293.900 122.638,301.932 121.468 C 303.818 121.194,303.681 120.842,300.030 116.580 C 298.025 114.240,297.369 113.758,296.858 114.250 M312.396 137.630 C 311.352 137.759,308.747 138.146,306.875 138.452 C 303.054 139.075,299.839 139.555,298.646 139.680 C 297.958 139.751,296.927 139.900,296.354 140.009 C 294.880 140.290,289.187 141.180,287.083 141.458 C 286.109 141.587,283.297 142.010,280.833 142.397 C 278.370 142.785,275.323 143.248,274.063 143.426 C 270.162 143.978,268.747 144.192,265.729 144.687 C 264.125 144.951,261.594 145.321,260.104 145.511 C 258.615 145.701,256.974 145.942,256.458 146.047 C 255.113 146.319,250.514 147.043,249.167 147.194 C 247.603 147.370,242.948 148.085,241.042 148.444 C 240.182 148.605,237.698 148.976,235.521 149.268 C 233.344 149.559,230.658 149.952,229.552 150.140 C 225.231 150.875,222.142 148.732,217.410 141.719 C 216.217 139.951,216.228 139.954,212.813 140.610 C 211.667 140.830,209.557 141.168,208.125 141.361 C 206.693 141.554,203.271 142.073,200.521 142.514 C 197.771 142.954,194.443 143.458,193.125 143.633 C 190.604 143.968,187.950 144.376,185.000 144.880 C 184.026 145.046,182.385 145.292,181.354 145.426 C 180.323 145.561,177.604 145.982,175.313 146.362 C 173.021 146.742,170.583 147.114,169.896 147.189 C 169.208 147.264,166.115 147.733,163.021 148.232 C 159.927 148.730,156.927 149.196,156.354 149.268 C 155.781 149.339,153.250 149.723,150.729 150.121 C 148.208 150.518,145.443 150.941,144.583 151.060 C 141.998 151.418,140.434 151.658,137.907 152.084 C 136.585 152.308,133.860 152.723,131.854 153.006 C 129.847 153.290,127.132 153.704,125.821 153.926 C 124.510 154.148,122.688 154.437,121.771 154.568 C 118.738 155.002,117.201 155.232,116.042 155.427 C 114.209 155.735,108.326 156.633,107.188 156.779 C 106.615 156.853,104.740 157.131,103.021 157.399 C 101.302 157.666,99.568 157.933,99.167 157.993 C 98.766 158.052,97.594 158.238,96.563 158.406 C 95.531 158.574,93.891 158.823,92.917 158.960 C 91.943 159.097,89.458 159.483,87.396 159.818 C 85.333 160.153,83.036 160.516,82.292 160.624 C 74.984 161.686,75.813 161.340,75.120 163.614 C 74.427 165.887,72.780 172.502,72.519 174.063 C 72.403 174.750,72.206 175.875,72.081 176.563 C 69.272 191.931,69.351 209.560,72.294 224.375 C 72.397 224.891,72.541 225.734,72.615 226.250 C 73.065 229.377,77.299 244.005,78.358 246.091 C 78.459 246.290,78.542 246.541,78.542 246.649 C 78.542 246.756,78.870 247.555,79.271 248.423 C 79.672 249.291,80.000 250.099,80.000 250.218 C 80.000 250.551,83.300 257.490,84.849 260.417 C 86.409 263.362,86.119 263.195,88.854 262.728 C 89.656 262.591,91.063 262.387,91.979 262.275 C 92.896 262.162,96.294 261.651,99.530 261.139 C 102.767 260.627,105.689 260.208,106.025 260.208 C 106.360 260.208,107.087 260.118,107.640 260.008 C 110.114 259.514,112.582 259.117,118.021 258.337 C 121.229 257.877,124.698 257.354,125.729 257.175 C 127.904 256.798,129.676 256.535,131.890 256.263 C 132.758 256.156,134.633 255.879,136.057 255.649 C 137.481 255.418,139.677 255.085,140.938 254.910 C 143.508 254.551,145.591 254.235,147.292 253.945 C 149.212 253.617,154.925 252.752,158.229 252.288 C 159.948 252.047,162.010 251.719,162.813 251.560 C 163.615 251.401,165.396 251.119,166.771 250.934 C 168.146 250.749,170.115 250.485,171.146 250.346 C 175.595 249.749,178.288 251.367,182.454 257.140 C 184.623 260.146,184.113 259.947,187.965 259.295 C 189.714 258.999,192.224 258.612,193.542 258.434 C 194.859 258.256,197.344 257.876,199.063 257.589 C 204.033 256.759,204.458 256.691,208.958 256.017 C 211.307 255.665,214.682 255.153,216.458 254.879 C 218.234 254.606,220.391 254.285,221.250 254.166 C 222.109 254.047,223.609 253.808,224.583 253.634 C 226.685 253.260,228.527 252.970,230.521 252.702 C 232.171 252.481,235.736 251.908,239.583 251.247 C 241.016 251.001,242.891 250.719,243.750 250.620 C 244.609 250.521,245.875 250.348,246.563 250.235 C 247.683 250.052,252.174 249.347,258.021 248.438 C 259.167 248.260,261.557 247.883,263.333 247.601 C 265.109 247.319,267.266 246.987,268.125 246.863 C 268.984 246.739,271.083 246.405,272.789 246.122 C 274.496 245.838,278.386 245.237,281.435 244.785 C 284.484 244.333,287.776 243.817,288.750 243.639 C 289.724 243.460,291.224 243.226,292.083 243.119 C 292.943 243.011,294.302 242.822,295.104 242.697 C 295.906 242.572,297.078 242.390,297.708 242.293 C 298.339 242.195,299.698 241.968,300.729 241.787 C 301.760 241.606,303.635 241.318,304.896 241.148 C 307.264 240.827,309.645 240.457,312.708 239.933 C 313.682 239.766,315.229 239.522,316.146 239.391 C 322.102 238.537,323.612 238.293,324.099 238.110 C 324.558 237.937,325.214 236.136,325.838 233.333 C 325.979 232.703,326.167 231.953,326.257 231.667 C 330.992 216.596,331.333 187.766,326.976 170.983 C 326.791 170.271,326.328 168.469,325.947 166.979 C 325.178 163.975,324.078 160.295,323.236 157.914 C 322.932 157.056,322.449 155.664,322.162 154.820 C 321.875 153.976,321.404 152.758,321.115 152.112 C 320.826 151.466,320.353 150.281,320.064 149.479 C 319.775 148.677,319.322 147.599,319.056 147.083 C 318.356 145.720,316.042 140.862,316.042 140.753 C 316.042 140.702,315.636 139.973,315.141 139.132 C 314.181 137.504,314.041 137.428,312.396 137.630 M143.293 166.974 C 146.718 167.426,152.074 168.937,153.229 169.779 C 153.344 169.862,153.766 170.057,154.167 170.212 C 157.382 171.456,162.348 175.452,165.202 179.092 C 166.262 180.445,166.254 180.570,165.052 181.468 C 164.508 181.875,163.251 182.836,162.259 183.604 C 160.081 185.290,160.616 185.378,158.436 182.978 C 148.314 171.835,130.915 171.096,119.757 181.336 C 117.027 183.841,113.770 189.190,112.959 192.500 C 108.736 209.734,118.767 224.239,136.012 225.835 C 144.581 226.628,152.253 223.788,158.445 217.532 L 160.328 215.630 161.283 216.305 C 164.317 218.448,166.055 219.902,165.998 220.248 C 165.742 221.800,158.762 227.750,155.313 229.357 C 151.831 230.979,151.730 231.019,149.264 231.751 C 137.822 235.148,124.359 232.883,116.146 226.179 C 105.722 217.672,101.914 205.152,105.173 190.104 C 105.447 188.839,107.277 184.613,108.058 183.440 C 108.439 182.869,108.750 182.322,108.750 182.225 C 108.750 181.846,112.123 177.736,113.574 176.347 C 119.481 170.690,125.063 168.102,134.167 166.798 C 135.597 166.593,141.229 166.702,143.293 166.974 M275.417 167.269 C 280.507 168.361,283.987 169.697,287.500 171.906 C 290.547 173.822,296.458 179.484,296.458 180.487 C 296.458 180.633,290.666 185.001,290.479 184.995 C 290.388 184.992,290.034 184.614,289.694 184.154 C 284.883 177.652,276.312 173.875,267.188 174.237 C 263.991 174.364,263.129 174.524,259.583 175.653 C 249.977 178.712,243.264 187.202,242.307 197.502 C 239.977 222.583,269.883 235.735,288.379 217.763 C 290.389 215.809,290.650 215.620,290.994 215.869 C 292.865 217.227,296.458 220.071,296.458 220.194 C 296.458 220.553,292.331 224.685,290.664 225.993 C 281.982 232.812,270.047 234.984,258.021 231.935 C 250.991 230.152,245.769 226.658,240.797 220.409 C 238.718 217.796,236.185 212.678,235.439 209.583 C 233.027 199.578,234.163 189.962,238.601 182.813 C 244.092 173.967,253.367 168.036,263.521 166.877 C 266.305 166.560,273.164 166.786,275.417 167.269 M207.813 168.621 C 211.461 169.175,214.593 170.548,216.792 172.554 C 217.976 173.635,220.208 176.447,220.208 176.858 C 220.208 176.975,220.376 177.378,220.580 177.754 C 223.533 183.177,221.644 191.645,216.548 195.824 C 215.168 196.956,215.158 197.081,216.407 197.591 C 222.560 200.105,226.489 205.619,226.807 212.188 C 227.007 216.339,226.429 218.754,224.290 222.698 C 222.334 226.303,217.639 229.594,212.292 231.108 C 210.756 231.543,179.121 231.962,177.552 231.568 L 177.083 231.450 177.083 200.031 C 177.083 182.750,177.146 168.549,177.222 168.472 C 177.513 168.182,205.826 168.319,207.813 168.621 M184.722 175.972 C 184.433 176.261,184.564 193.683,184.857 193.926 C 185.722 194.644,207.536 194.184,208.696 193.424 C 216.562 188.270,215.620 177.903,207.123 176.125 C 205.652 175.817,185.018 175.677,184.722 175.972 M192.055 201.826 C 186.476 201.869,184.999 201.938,184.813 202.162 C 184.646 202.363,184.595 205.504,184.634 213.253 L 184.688 224.063 196.563 224.063 C 207.059 224.063,208.625 224.021,210.054 223.702 C 219.694 221.553,222.268 210.755,214.584 204.702 C 210.796 201.717,210.516 201.681,192.055 201.826 M321.458 243.971 C 321.286 244.065,318.990 244.437,316.354 244.797 C 313.719 245.157,309.969 245.716,308.021 246.040 C 306.073 246.364,303.682 246.741,302.708 246.877 C 301.734 247.014,298.969 247.439,296.563 247.822 C 294.156 248.205,291.391 248.621,290.417 248.746 C 288.324 249.016,285.342 249.474,283.021 249.882 C 282.104 250.043,280.557 250.285,279.583 250.419 C 278.609 250.553,275.234 251.072,272.083 251.572 C 268.932 252.072,265.524 252.583,264.509 252.708 C 263.495 252.832,261.854 253.078,260.863 253.254 C 259.873 253.431,258.547 253.655,257.917 253.752 C 254.996 254.202,253.492 254.425,251.563 254.692 C 250.417 254.851,247.651 255.263,245.417 255.607 C 243.182 255.951,240.698 256.334,239.896 256.457 C 239.094 256.580,237.875 256.769,237.188 256.877 C 236.500 256.985,235.000 257.220,233.854 257.398 C 232.708 257.577,231.302 257.811,230.729 257.918 C 230.156 258.025,228.516 258.262,227.083 258.445 C 225.651 258.628,222.557 259.094,220.208 259.480 C 217.859 259.866,215.141 260.288,214.167 260.418 C 213.193 260.548,210.755 260.927,208.750 261.259 C 206.745 261.592,204.073 262.002,202.813 262.171 C 201.552 262.340,199.396 262.666,198.021 262.896 C 196.646 263.126,193.505 263.599,191.042 263.947 C 188.578 264.296,185.484 264.767,184.167 264.994 C 182.849 265.221,180.458 265.595,178.854 265.825 C 174.933 266.388,173.782 266.564,170.000 267.177 C 168.224 267.465,164.849 267.984,162.500 268.329 C 160.151 268.675,157.714 269.049,157.083 269.161 C 156.027 269.348,155.251 269.464,151.458 270.003 C 150.714 270.108,148.042 270.521,145.521 270.920 C 143.000 271.319,139.250 271.897,137.188 272.205 C 135.125 272.513,132.922 272.849,132.292 272.953 C 130.352 273.271,128.499 273.550,127.083 273.736 C 126.339 273.834,123.339 274.293,120.417 274.756 C 117.495 275.219,114.635 275.660,114.063 275.735 C 112.761 275.905,106.919 276.828,105.521 277.084 C 104.948 277.189,103.589 277.383,102.500 277.514 C 101.411 277.646,99.735 277.884,98.775 278.044 C 97.814 278.203,96.947 278.333,96.848 278.333 C 96.574 278.333,96.631 279.099,96.927 279.412 C 97.070 279.564,97.749 280.391,98.436 281.250 C 100.196 283.452,102.519 286.114,102.858 286.318 C 103.022 286.416,104.193 286.307,105.583 286.064 C 106.924 285.829,109.427 285.445,111.146 285.209 C 112.865 284.973,116.286 284.458,118.750 284.063 C 121.214 283.669,124.635 283.152,126.354 282.914 C 128.073 282.677,131.214 282.211,133.333 281.880 C 135.453 281.549,137.938 281.173,138.854 281.045 C 141.257 280.710,149.376 279.467,154.583 278.638 C 159.483 277.857,161.376 277.578,163.750 277.287 C 164.609 277.181,166.766 276.857,168.542 276.567 C 170.318 276.277,173.411 275.804,175.417 275.515 C 177.422 275.227,180.188 274.801,181.563 274.570 C 187.696 273.539,188.895 273.795,192.185 276.834 C 193.756 278.286,194.767 279.539,196.729 282.467 C 197.279 283.287,197.794 283.956,197.875 283.953 C 197.955 283.950,198.406 283.859,198.877 283.751 C 199.347 283.642,200.519 283.458,201.481 283.343 C 202.442 283.227,204.073 282.998,205.104 282.834 C 206.135 282.670,208.854 282.246,211.146 281.893 C 215.656 281.198,216.475 281.068,221.042 280.325 C 222.703 280.054,224.859 279.723,225.833 279.589 C 226.807 279.456,229.901 278.977,232.708 278.526 C 235.516 278.074,238.422 277.616,239.167 277.507 C 240.731 277.277,246.890 276.327,251.354 275.627 C 252.042 275.519,253.870 275.241,255.417 275.008 C 256.964 274.775,258.698 274.497,259.271 274.391 C 259.844 274.284,261.109 274.087,262.083 273.953 C 263.057 273.819,266.104 273.346,268.854 272.901 C 271.604 272.456,274.932 271.944,276.250 271.763 C 277.568 271.582,280.052 271.199,281.771 270.911 C 285.047 270.363,286.441 270.147,288.854 269.810 C 289.656 269.699,291.859 269.361,293.750 269.061 C 295.641 268.760,298.688 268.288,300.521 268.010 C 303.815 267.512,307.914 266.854,310.712 266.376 C 311.759 266.196,312.215 266.017,312.378 265.722 C 312.503 265.498,312.770 265.063,312.973 264.755 C 313.544 263.888,315.310 260.553,316.539 258.021 C 319.224 252.488,319.583 251.732,319.583 251.608 C 319.583 251.536,320.017 250.465,320.547 249.228 C 321.343 247.373,322.500 244.409,322.500 244.227 C 322.500 244.029,321.707 243.835,321.458 243.971 M306.146 272.530 C 305.573 272.639,304.589 272.805,303.958 272.899 C 302.789 273.074,302.190 273.166,292.917 274.597 C 289.995 275.048,286.667 275.552,285.521 275.717 C 283.658 275.985,282.564 276.156,278.021 276.889 C 277.333 277.000,276.115 277.180,275.313 277.288 C 271.310 277.828,270.364 277.970,268.237 278.345 C 266.972 278.569,264.016 279.027,261.667 279.364 C 259.318 279.700,255.615 280.260,253.438 280.607 C 251.260 280.955,248.823 281.333,248.021 281.449 C 247.219 281.564,244.875 281.932,242.813 282.266 C 240.750 282.600,238.266 282.981,237.292 283.114 C 236.318 283.246,233.458 283.676,230.938 284.070 C 224.035 285.148,214.107 286.675,211.875 287.001 C 207.383 287.657,205.433 287.959,203.818 288.246 C 202.882 288.413,201.476 288.634,200.693 288.737 C 197.599 289.147,194.313 289.636,190.833 290.202 C 188.828 290.528,186.672 290.855,186.042 290.928 C 185.411 291.002,182.646 291.426,179.896 291.872 C 177.146 292.317,174.427 292.739,173.854 292.808 C 172.652 292.954,171.513 293.129,167.188 293.829 C 165.469 294.108,163.359 294.442,162.500 294.572 C 159.444 295.033,155.669 295.595,151.354 296.230 C 146.280 296.977,144.653 297.229,142.500 297.604 C 140.276 297.992,138.277 298.301,136.354 298.554 C 135.438 298.675,132.344 299.144,129.479 299.595 C 122.921 300.629,121.838 300.790,120.397 300.951 C 118.758 301.134,118.501 301.345,119.202 301.931 C 120.476 302.997,121.351 303.687,122.300 304.375 C 122.853 304.776,124.073 305.667,125.011 306.354 C 127.691 308.319,128.132 308.513,129.427 308.297 C 130.028 308.196,131.224 308.025,132.083 307.917 C 132.943 307.809,135.099 307.477,136.875 307.180 C 138.651 306.883,140.714 306.561,141.458 306.463 C 143.525 306.194,145.522 305.893,150.417 305.117 C 152.880 304.726,155.740 304.295,156.771 304.159 C 157.802 304.023,159.724 303.728,161.042 303.503 C 163.590 303.068,164.872 302.876,167.708 302.503 C 169.563 302.260,171.755 301.929,175.938 301.262 C 177.313 301.043,179.141 300.764,180.000 300.642 C 181.685 300.403,186.743 299.637,188.438 299.365 C 189.010 299.272,190.839 299.003,192.500 298.767 C 194.161 298.530,196.438 298.185,197.558 298.000 C 202.051 297.257,205.274 299.287,209.447 305.488 C 210.346 306.824,211.190 307.927,211.322 307.939 C 212.044 308.005,215.476 307.512,220.208 306.662 C 220.839 306.549,222.432 306.314,223.750 306.139 C 225.068 305.965,227.224 305.632,228.542 305.399 C 229.859 305.167,231.875 304.842,233.021 304.678 C 236.644 304.158,237.952 303.957,240.625 303.513 C 243.412 303.050,244.559 302.875,247.188 302.512 C 250.354 302.075,258.232 300.827,259.118 300.622 C 259.606 300.509,260.277 300.417,260.608 300.417 C 260.939 300.417,262.836 300.135,264.824 299.790 C 266.811 299.445,269.750 298.973,271.354 298.741 C 274.128 298.339,279.404 297.510,281.875 297.087 C 282.505 296.980,283.818 296.782,284.792 296.648 C 287.996 296.209,287.674 296.412,291.918 292.140 C 296.517 287.509,300.737 282.723,303.452 279.063 C 304.131 278.146,304.788 277.289,304.910 277.158 C 305.032 277.028,305.595 276.233,306.160 275.392 C 306.725 274.551,307.399 273.627,307.657 273.339 C 308.485 272.415,308.033 272.174,306.146 272.530 M278.101 303.010 C 278.017 303.094,272.245 303.982,267.813 304.592 C 266.896 304.719,265.443 304.954,264.583 305.116 C 263.724 305.278,261.380 305.646,259.375 305.933 C 255.215 306.530,253.468 306.800,251.250 307.190 C 250.391 307.341,248.938 307.572,248.021 307.703 C 247.104 307.834,245.792 308.029,245.104 308.136 C 244.417 308.243,242.853 308.473,241.629 308.646 C 240.405 308.820,238.671 309.094,237.775 309.257 C 236.879 309.419,235.302 309.663,234.271 309.800 C 233.240 309.936,230.146 310.406,227.396 310.845 C 224.646 311.284,221.880 311.703,221.250 311.778 C 220.017 311.923,215.650 312.583,213.698 312.919 C 209.960 313.562,208.170 313.840,204.896 314.285 C 203.521 314.472,201.646 314.758,200.729 314.921 C 199.813 315.083,197.422 315.450,195.417 315.736 C 193.411 316.022,190.974 316.393,190.000 316.561 C 188.397 316.836,184.178 317.467,180.938 317.915 C 180.250 318.010,178.234 318.329,176.458 318.624 C 174.682 318.918,171.307 319.447,168.958 319.799 C 166.609 320.151,164.172 320.524,163.542 320.629 C 160.559 321.123,159.332 321.306,157.500 321.529 C 154.977 321.837,154.908 322.143,157.188 322.919 C 161.111 324.254,163.537 325.024,165.000 325.398 C 165.859 325.618,167.453 326.036,168.542 326.326 C 180.523 329.520,198.218 330.936,211.042 329.725 C 218.395 329.031,219.028 328.936,228.125 327.167 C 229.448 326.910,232.441 326.148,235.938 325.179 C 245.738 322.462,257.130 317.556,266.173 312.157 C 272.174 308.574,279.167 303.756,279.167 303.204 C 279.167 302.941,278.324 302.787,278.101 303.010 " stroke="none" fill="#086bb1" fill-rule="evenodd"></path><path id="path1" d="M0.000 200.000 L 0.000 400.000 200.000 400.000 L 400.000 400.000 400.000 200.000 L 400.000 0.000 200.000 0.000 L 0.000 0.000 0.000 200.000 M207.708 70.002 C 216.190 70.573,227.753 72.321,231.712 73.629 C 232.203 73.791,233.542 74.158,234.688 74.446 C 235.833 74.733,237.615 75.246,238.646 75.585 C 239.677 75.925,240.849 76.301,241.250 76.421 C 245.771 77.773,245.926 78.111,242.245 78.587 C 240.724 78.783,238.120 79.173,236.458 79.453 C 234.797 79.732,232.641 80.076,231.667 80.217 C 230.693 80.357,228.021 80.781,225.729 81.159 C 223.438 81.537,220.438 81.995,219.063 82.178 C 217.688 82.360,216.047 82.603,215.417 82.716 C 214.018 82.968,208.183 83.878,206.042 84.178 C 205.182 84.298,203.964 84.484,203.333 84.592 C 202.703 84.699,200.969 84.976,199.479 85.207 C 197.990 85.438,196.208 85.716,195.521 85.826 C 194.833 85.936,193.615 86.125,192.813 86.245 C 192.010 86.366,189.948 86.698,188.229 86.984 C 186.510 87.270,183.464 87.739,181.458 88.027 C 179.453 88.315,176.688 88.741,175.313 88.973 C 172.179 89.502,170.527 89.754,168.542 90.003 C 167.682 90.111,165.292 90.479,163.229 90.820 C 161.167 91.161,158.120 91.639,156.458 91.882 C 154.797 92.125,152.359 92.503,151.042 92.722 C 148.302 93.179,147.302 93.335,142.396 94.074 C 140.448 94.367,138.385 94.696,137.813 94.805 C 137.240 94.914,134.568 95.329,131.875 95.727 C 129.182 96.125,125.807 96.645,124.375 96.882 C 119.962 97.614,120.185 97.594,120.321 97.240 C 120.388 97.066,121.386 96.233,122.538 95.389 C 123.690 94.545,125.021 93.568,125.494 93.218 C 125.967 92.868,127.433 91.897,128.750 91.060 C 130.068 90.223,131.536 89.268,132.013 88.936 C 132.490 88.605,132.937 88.333,133.006 88.333 C 133.076 88.333,133.856 87.894,134.740 87.357 C 137.096 85.927,138.905 84.957,142.292 83.305 C 149.808 79.640,151.088 79.110,158.646 76.531 C 167.470 73.520,177.206 71.385,186.042 70.523 C 193.437 69.801,201.761 69.601,207.708 70.002 M190.548 92.344 C 194.385 98.475,197.047 101.136,200.417 102.206 C 201.270 102.477,201.652 102.457,204.688 101.990 C 206.521 101.707,209.099 101.324,210.417 101.138 C 213.820 100.658,214.796 100.506,217.500 100.032 C 218.818 99.800,220.458 99.549,221.146 99.473 C 222.201 99.356,226.050 98.774,231.563 97.897 C 232.250 97.788,233.563 97.613,234.479 97.509 C 235.396 97.404,237.552 97.081,239.271 96.791 C 240.990 96.501,243.802 96.070,245.521 95.835 C 247.240 95.599,249.771 95.224,251.146 95.001 C 254.468 94.462,257.259 94.029,259.167 93.757 C 262.514 93.280,263.960 93.058,266.788 92.584 C 268.402 92.314,270.389 92.031,271.204 91.955 L 272.686 91.817 273.999 92.771 C 281.287 98.061,281.407 98.179,279.727 98.394 C 278.298 98.577,272.079 99.546,267.396 100.315 C 264.990 100.710,261.661 101.220,260.000 101.448 C 258.339 101.677,255.901 102.051,254.583 102.280 C 253.266 102.510,250.828 102.887,249.167 103.119 C 246.084 103.550,245.588 103.627,241.042 104.385 C 239.609 104.623,237.408 104.957,236.150 105.127 C 234.892 105.296,232.267 105.705,230.317 106.035 C 228.367 106.365,226.021 106.738,225.104 106.863 C 224.188 106.989,222.875 107.182,222.188 107.293 C 221.500 107.403,218.922 107.818,216.458 108.215 C 213.995 108.612,211.464 108.995,210.833 109.067 C 210.203 109.139,207.766 109.516,205.417 109.904 C 203.068 110.292,200.115 110.754,198.854 110.930 C 194.923 111.479,193.657 111.672,193.331 111.774 C 193.158 111.827,190.768 112.206,188.019 112.616 C 182.724 113.405,181.834 113.544,178.854 114.042 C 177.823 114.215,175.948 114.501,174.688 114.678 C 173.427 114.855,169.958 115.382,166.979 115.849 C 164.000 116.315,161.000 116.782,160.313 116.887 C 159.625 116.991,157.047 117.398,154.583 117.791 C 152.120 118.183,149.635 118.566,149.063 118.641 C 148.490 118.717,146.005 119.103,143.542 119.499 C 141.078 119.896,138.359 120.321,137.500 120.445 C 136.641 120.568,133.734 121.029,131.042 121.469 C 128.349 121.910,125.021 122.419,123.646 122.602 C 122.271 122.784,119.552 123.200,117.604 123.525 C 115.656 123.850,113.219 124.232,112.188 124.374 C 111.156 124.516,109.260 124.809,107.973 125.026 C 106.686 125.243,103.452 125.747,100.786 126.145 C 98.119 126.543,95.194 127.006,94.285 127.173 C 92.013 127.593,91.864 127.456,92.969 125.964 C 93.341 125.462,94.349 124.082,95.208 122.899 C 99.844 116.516,105.443 110.247,111.903 104.207 L 113.077 103.110 115.445 102.698 C 118.254 102.209,119.184 102.066,124.792 101.254 C 127.141 100.915,130.141 100.444,131.458 100.208 C 132.776 99.972,134.932 99.639,136.250 99.469 C 137.568 99.299,139.396 99.029,140.313 98.869 C 141.229 98.709,143.667 98.330,145.729 98.026 C 147.792 97.722,151.823 97.106,154.688 96.658 C 157.552 96.209,160.974 95.695,162.292 95.515 C 163.609 95.335,166.328 94.920,168.333 94.592 C 170.339 94.265,172.776 93.887,173.750 93.752 C 175.452 93.517,184.827 92.055,186.979 91.690 C 189.436 91.273,189.935 91.364,190.548 92.344 M298.503 114.844 C 303.325 120.113,303.880 121.185,301.932 121.468 C 293.900 122.638,290.023 123.224,287.604 123.635 C 286.000 123.908,283.891 124.242,282.917 124.377 C 281.943 124.512,280.115 124.797,278.854 125.009 C 277.594 125.222,274.922 125.637,272.917 125.931 C 270.911 126.226,266.927 126.840,264.063 127.296 C 261.198 127.753,258.245 128.212,257.500 128.318 C 256.755 128.423,253.708 128.892,250.729 129.358 C 243.744 130.453,236.098 131.635,234.375 131.886 C 233.630 131.995,231.240 132.367,229.063 132.714 C 223.700 133.567,222.604 133.739,221.146 133.962 C 220.458 134.067,218.724 134.345,217.292 134.579 C 215.859 134.813,213.047 135.241,211.042 135.531 C 209.036 135.820,205.708 136.331,203.646 136.666 C 201.583 137.000,199.146 137.379,198.229 137.507 C 197.313 137.635,194.031 138.148,190.938 138.646 C 187.844 139.144,184.797 139.612,184.167 139.685 C 182.948 139.827,182.446 139.907,177.708 140.712 C 176.047 140.994,173.844 141.334,172.813 141.469 C 171.781 141.603,169.297 141.983,167.292 142.314 C 163.795 142.891,158.183 143.746,155.104 144.170 C 154.302 144.281,152.896 144.513,151.979 144.686 C 151.063 144.859,149.563 145.095,148.646 145.210 C 147.729 145.324,145.854 145.598,144.479 145.817 C 143.104 146.036,140.479 146.454,138.646 146.746 C 136.813 147.038,132.902 147.662,129.956 148.132 C 127.010 148.602,123.025 149.209,121.102 149.482 C 119.178 149.754,115.823 150.257,113.646 150.599 C 111.469 150.940,108.750 151.361,107.604 151.534 C 106.458 151.706,104.396 152.031,103.021 152.257 C 101.646 152.482,99.490 152.822,98.229 153.012 C 96.969 153.202,93.969 153.672,91.563 154.055 C 89.156 154.439,86.391 154.865,85.417 155.003 C 84.443 155.140,82.411 155.463,80.901 155.721 C 79.391 155.979,78.049 156.123,77.918 156.042 C 77.519 155.796,79.644 150.061,81.452 146.504 C 81.799 145.820,82.083 145.203,82.083 145.132 C 82.083 144.901,85.319 138.481,86.350 136.667 C 88.122 133.547,88.244 133.391,88.998 133.281 C 89.377 133.226,91.141 132.944,92.917 132.656 C 94.693 132.367,96.990 132.018,98.021 131.879 C 99.052 131.741,101.490 131.361,103.438 131.036 C 105.385 130.710,108.151 130.296,109.583 130.116 C 111.016 129.936,112.938 129.652,113.854 129.485 C 115.628 129.162,121.024 128.324,123.958 127.915 C 124.932 127.779,127.042 127.446,128.646 127.174 C 130.250 126.902,133.203 126.446,135.208 126.159 C 137.214 125.873,140.260 125.413,141.979 125.137 C 143.698 124.861,145.901 124.523,146.875 124.386 C 147.849 124.249,150.333 123.867,152.396 123.538 C 154.458 123.208,157.271 122.788,158.646 122.604 C 160.021 122.420,163.349 121.907,166.042 121.465 C 168.734 121.022,171.406 120.598,171.979 120.523 C 174.258 120.225,175.714 120.010,180.313 119.293 C 182.948 118.882,185.714 118.452,186.458 118.338 C 187.203 118.223,189.266 117.902,191.042 117.623 C 192.818 117.344,195.068 117.006,196.042 116.872 C 197.669 116.647,200.639 116.181,202.209 115.903 C 202.834 115.793,202.905 115.863,204.373 118.051 C 205.208 119.295,206.123 120.594,206.408 120.938 C 211.363 126.929,212.063 127.118,222.917 125.410 C 227.514 124.686,229.594 124.379,231.321 124.170 C 232.219 124.061,233.766 123.831,234.758 123.659 C 237.498 123.183,240.255 122.762,243.021 122.397 C 244.396 122.215,247.490 121.749,249.896 121.360 C 252.302 120.971,255.068 120.545,256.042 120.413 C 257.016 120.281,259.453 119.909,261.458 119.586 C 263.464 119.263,265.901 118.889,266.875 118.755 C 268.412 118.543,269.982 118.306,276.563 117.295 C 277.250 117.189,278.609 116.994,279.583 116.860 C 280.557 116.727,283.042 116.347,285.104 116.017 C 289.248 115.354,292.314 114.902,295.000 114.560 C 295.974 114.435,296.810 114.296,296.858 114.250 C 297.153 113.966,297.969 114.261,298.503 114.844 M315.141 139.132 C 315.636 139.973,316.042 140.702,316.042 140.753 C 316.042 140.862,318.356 145.720,319.056 147.083 C 319.322 147.599,319.775 148.677,320.064 149.479 C 320.353 150.281,320.826 151.466,321.115 152.112 C 321.404 152.758,321.875 153.976,322.162 154.820 C 322.449 155.664,322.932 157.056,323.236 157.914 C 324.078 160.295,325.178 163.975,325.947 166.979 C 326.328 168.469,326.791 170.271,326.976 170.983 C 331.333 187.766,330.992 216.596,326.257 231.667 C 326.167 231.953,325.979 232.703,325.838 233.333 C 325.214 236.136,324.558 237.937,324.099 238.110 C 323.612 238.293,322.102 238.537,316.146 239.391 C 315.229 239.522,313.682 239.766,312.708 239.933 C 309.645 240.457,307.264 240.827,304.896 241.148 C 303.635 241.318,301.760 241.606,300.729 241.787 C 299.698 241.968,298.339 242.195,297.708 242.293 C 297.078 242.390,295.906 242.572,295.104 242.697 C 294.302 242.822,292.943 243.011,292.083 243.119 C 291.224 243.226,289.724 243.460,288.750 243.639 C 287.776 243.817,284.484 244.333,281.435 244.785 C 278.386 245.237,274.496 245.838,272.789 246.122 C 271.083 246.405,268.984 246.739,268.125 246.863 C 267.266 246.987,265.109 247.319,263.333 247.601 C 261.557 247.883,259.167 248.260,258.021 248.438 C 252.174 249.347,247.683 250.052,246.563 250.235 C 245.875 250.348,244.609 250.521,243.750 250.620 C 242.891 250.719,241.016 251.001,239.583 251.247 C 235.736 251.908,232.171 252.481,230.521 252.702 C 228.527 252.970,226.685 253.260,224.583 253.634 C 223.609 253.808,222.109 254.047,221.250 254.166 C 220.391 254.285,218.234 254.606,216.458 254.879 C 214.682 255.153,211.307 255.665,208.958 256.017 C 204.458 256.691,204.033 256.759,199.063 257.589 C 197.344 257.876,194.859 258.256,193.542 258.434 C 192.224 258.612,189.714 258.999,187.965 259.295 C 184.113 259.947,184.623 260.146,182.454 257.140 C 178.288 251.367,175.595 249.749,171.146 250.346 C 170.115 250.485,168.146 250.749,166.771 250.934 C 165.396 251.119,163.615 251.401,162.813 251.560 C 162.010 251.719,159.948 252.047,158.229 252.288 C 154.925 252.752,149.212 253.617,147.292 253.945 C 145.591 254.235,143.508 254.551,140.938 254.910 C 139.677 255.085,137.481 255.418,136.057 255.649 C 134.633 255.879,132.758 256.156,131.890 256.263 C 129.676 256.535,127.904 256.798,125.729 257.175 C 124.698 257.354,121.229 257.877,118.021 258.337 C 112.582 259.117,110.114 259.514,107.640 260.008 C 107.087 260.118,106.360 260.208,106.025 260.208 C 105.689 260.208,102.767 260.627,99.530 261.139 C 96.294 261.651,92.896 262.162,91.979 262.275 C 91.063 262.387,89.656 262.591,88.854 262.728 C 86.119 263.195,86.409 263.362,84.849 260.417 C 83.300 257.490,80.000 250.551,80.000 250.218 C 80.000 250.099,79.672 249.291,79.271 248.423 C 78.870 247.555,78.542 246.756,78.542 246.649 C 78.542 246.541,78.459 246.290,78.358 246.091 C 77.299 244.005,73.065 229.377,72.615 226.250 C 72.541 225.734,72.397 224.891,72.294 224.375 C 69.351 209.560,69.272 191.931,72.081 176.563 C 72.206 175.875,72.403 174.750,72.519 174.063 C 73.068 170.780,75.450 162.063,75.892 161.716 C 76.031 161.607,77.224 161.360,78.542 161.169 C 79.859 160.977,81.547 160.732,82.292 160.624 C 83.036 160.516,85.333 160.153,87.396 159.818 C 89.458 159.483,91.943 159.097,92.917 158.960 C 93.891 158.823,95.531 158.574,96.563 158.406 C 97.594 158.238,98.766 158.052,99.167 157.993 C 99.568 157.933,101.302 157.666,103.021 157.399 C 104.740 157.131,106.615 156.853,107.188 156.779 C 108.326 156.633,114.209 155.735,116.042 155.427 C 117.201 155.232,118.738 155.002,121.771 154.568 C 122.688 154.437,124.510 154.148,125.821 153.926 C 127.132 153.704,129.847 153.290,131.854 153.006 C 133.860 152.723,136.585 152.308,137.907 152.084 C 140.434 151.658,141.998 151.418,144.583 151.060 C 145.443 150.941,148.208 150.518,150.729 150.121 C 153.250 149.723,155.781 149.339,156.354 149.268 C 156.927 149.196,159.927 148.730,163.021 148.232 C 166.115 147.733,169.208 147.264,169.896 147.189 C 170.583 147.114,173.021 146.742,175.313 146.362 C 177.604 145.982,180.323 145.561,181.354 145.426 C 182.385 145.292,184.026 145.046,185.000 144.880 C 187.950 144.376,190.604 143.968,193.125 143.633 C 194.443 143.458,197.771 142.954,200.521 142.514 C 203.271 142.073,206.693 141.554,208.125 141.361 C 209.557 141.168,211.667 140.830,212.813 140.610 C 216.228 139.954,216.217 139.951,217.410 141.719 C 222.142 148.732,225.231 150.875,229.552 150.140 C 230.658 149.952,233.344 149.559,235.521 149.268 C 237.698 148.976,240.182 148.605,241.042 148.444 C 242.948 148.085,247.603 147.370,249.167 147.194 C 250.514 147.043,255.113 146.319,256.458 146.047 C 256.974 145.942,258.615 145.701,260.104 145.511 C 261.594 145.321,264.125 144.951,265.729 144.687 C 268.747 144.192,270.162 143.978,274.063 143.426 C 275.323 143.248,278.370 142.785,280.833 142.397 C 283.297 142.010,286.109 141.587,287.083 141.458 C 289.187 141.180,294.880 140.290,296.354 140.009 C 296.927 139.900,297.958 139.751,298.646 139.680 C 299.839 139.555,303.054 139.075,306.875 138.452 C 307.849 138.293,309.349 138.060,310.208 137.935 C 314.271 137.343,314.055 137.290,315.141 139.132 M134.167 166.798 C 125.063 168.102,119.481 170.690,113.574 176.347 C 112.123 177.736,108.750 181.846,108.750 182.225 C 108.750 182.322,108.439 182.869,108.058 183.440 C 107.277 184.613,105.447 188.839,105.173 190.104 C 103.736 196.740,103.579 201.278,104.596 206.771 C 108.248 226.497,128.608 237.883,149.264 231.751 C 151.730 231.019,151.831 230.979,155.313 229.357 C 158.762 227.750,165.742 221.800,165.998 220.248 C 166.055 219.902,164.317 218.448,161.283 216.305 L 160.328 215.630 158.445 217.532 C 153.363 222.667,147.968 225.234,141.012 225.829 C 123.814 227.298,110.780 214.699,112.100 197.879 C 112.391 194.166,112.838 192.339,114.185 189.359 C 116.762 183.657,120.276 180.003,126.009 177.064 C 132.267 173.856,139.447 173.296,146.770 175.445 C 151.310 176.777,154.922 179.110,158.436 182.978 C 160.616 185.378,160.081 185.290,162.259 183.604 C 163.251 182.836,164.508 181.875,165.052 181.468 C 166.254 180.570,166.262 180.445,165.202 179.092 C 162.348 175.452,157.382 171.456,154.167 170.212 C 153.766 170.057,153.344 169.862,153.229 169.779 C 150.537 167.819,139.303 166.062,134.167 166.798 M263.521 166.877 C 253.367 168.036,244.092 173.967,238.601 182.813 C 234.163 189.962,233.027 199.578,235.439 209.583 C 237.243 217.069,243.769 225.409,250.729 229.124 C 263.089 235.722,279.961 234.399,290.664 225.993 C 292.331 224.685,296.458 220.553,296.458 220.194 C 296.458 220.071,292.865 217.227,290.994 215.869 C 290.650 215.620,290.389 215.809,288.379 217.763 C 280.286 225.627,269.718 228.002,259.002 224.365 C 236.361 216.681,236.765 182.919,259.583 175.653 C 263.129 174.524,263.991 174.364,267.188 174.237 C 276.312 173.875,284.883 177.652,289.694 184.154 C 290.034 184.614,290.388 184.992,290.479 184.995 C 290.666 185.001,296.458 180.633,296.458 180.487 C 296.458 180.264,294.095 177.462,292.899 176.265 C 288.170 171.537,283.067 168.911,275.417 167.269 C 273.164 166.786,266.305 166.560,263.521 166.877 M177.222 168.472 C 177.146 168.549,177.083 182.750,177.083 200.031 L 177.083 231.450 177.552 231.568 C 179.121 231.962,210.756 231.543,212.292 231.108 C 217.639 229.594,222.334 226.303,224.290 222.698 C 226.429 218.754,227.007 216.339,226.807 212.188 C 226.489 205.619,222.560 200.105,216.407 197.591 C 215.158 197.081,215.168 196.956,216.548 195.824 C 221.644 191.645,223.533 183.177,220.580 177.754 C 220.376 177.378,220.208 176.975,220.208 176.858 C 220.208 176.447,217.976 173.635,216.792 172.554 C 214.593 170.548,211.461 169.175,207.813 168.621 C 205.826 168.319,177.513 168.182,177.222 168.472 M207.123 176.125 C 215.620 177.903,216.562 188.270,208.696 193.424 C 207.536 194.184,185.722 194.644,184.857 193.926 C 184.564 193.683,184.433 176.261,184.722 175.972 C 185.018 175.677,205.652 175.817,207.123 176.125 M208.184 201.971 C 210.708 202.163,212.135 202.772,214.584 204.702 C 222.268 210.755,219.694 221.553,210.054 223.702 C 208.625 224.021,207.059 224.063,196.563 224.063 L 184.688 224.063 184.634 213.253 C 184.595 205.504,184.646 202.363,184.813 202.162 C 185.137 201.772,203.593 201.621,208.184 201.971 M322.500 244.227 C 322.500 244.409,321.343 247.373,320.547 249.228 C 320.017 250.465,319.583 251.536,319.583 251.608 C 319.583 251.732,319.224 252.488,316.539 258.021 C 315.310 260.553,313.544 263.888,312.973 264.755 C 312.770 265.063,312.503 265.498,312.378 265.722 C 312.215 266.017,311.759 266.196,310.712 266.376 C 307.914 266.854,303.815 267.512,300.521 268.010 C 298.688 268.288,295.641 268.760,293.750 269.061 C 291.859 269.361,289.656 269.699,288.854 269.810 C 286.441 270.147,285.047 270.363,281.771 270.911 C 280.052 271.199,277.568 271.582,276.250 271.763 C 274.932 271.944,271.604 272.456,268.854 272.901 C 266.104 273.346,263.057 273.819,262.083 273.953 C 261.109 274.087,259.844 274.284,259.271 274.391 C 258.698 274.497,256.964 274.775,255.417 275.008 C 253.870 275.241,252.042 275.519,251.354 275.627 C 246.890 276.327,240.731 277.277,239.167 277.507 C 238.422 277.616,235.516 278.074,232.708 278.526 C 229.901 278.977,226.807 279.456,225.833 279.589 C 224.859 279.723,222.703 280.054,221.042 280.325 C 216.475 281.068,215.656 281.198,211.146 281.893 C 208.854 282.246,206.135 282.670,205.104 282.834 C 204.073 282.998,202.442 283.227,201.481 283.343 C 200.519 283.458,199.347 283.642,198.877 283.751 C 198.406 283.859,197.955 283.950,197.875 283.953 C 197.794 283.956,197.279 283.287,196.729 282.467 C 191.337 274.421,189.169 273.292,181.563 274.570 C 180.188 274.801,177.422 275.227,175.417 275.515 C 173.411 275.804,170.318 276.277,168.542 276.567 C 166.766 276.857,164.609 277.181,163.750 277.287 C 161.376 277.578,159.483 277.857,154.583 278.638 C 149.376 279.467,141.257 280.710,138.854 281.045 C 137.938 281.173,135.453 281.549,133.333 281.880 C 131.214 282.211,128.073 282.677,126.354 282.914 C 124.635 283.152,121.214 283.669,118.750 284.063 C 116.286 284.458,112.865 284.973,111.146 285.209 C 109.427 285.445,106.924 285.829,105.583 286.064 C 104.193 286.307,103.022 286.416,102.858 286.318 C 102.519 286.114,100.196 283.452,98.436 281.250 C 97.749 280.391,97.070 279.564,96.927 279.412 C 96.631 279.099,96.574 278.333,96.848 278.333 C 96.947 278.333,97.814 278.203,98.775 278.044 C 99.735 277.884,101.411 277.646,102.500 277.514 C 103.589 277.383,104.948 277.189,105.521 277.084 C 106.919 276.828,112.761 275.905,114.063 275.735 C 114.635 275.660,117.495 275.219,120.417 274.756 C 123.339 274.293,126.339 273.834,127.083 273.736 C 128.499 273.550,130.352 273.271,132.292 272.953 C 132.922 272.849,135.125 272.513,137.188 272.205 C 139.250 271.897,143.000 271.319,145.521 270.920 C 148.042 270.521,150.714 270.108,151.458 270.003 C 155.251 269.464,156.027 269.348,157.083 269.161 C 157.714 269.049,160.151 268.675,162.500 268.329 C 164.849 267.984,168.224 267.465,170.000 267.177 C 173.782 266.564,174.933 266.388,178.854 265.825 C 180.458 265.595,182.849 265.221,184.167 264.994 C 185.484 264.767,188.578 264.296,191.042 263.947 C 193.505 263.599,196.646 263.126,198.021 262.896 C 199.396 262.666,201.552 262.340,202.813 262.171 C 204.073 262.002,206.745 261.592,208.750 261.259 C 210.755 260.927,213.193 260.548,214.167 260.418 C 215.141 260.288,217.859 259.866,220.208 259.480 C 222.557 259.094,225.651 258.628,227.083 258.445 C 228.516 258.262,230.156 258.025,230.729 257.918 C 231.302 257.811,232.708 257.577,233.854 257.398 C 235.000 257.220,236.500 256.985,237.188 256.877 C 237.875 256.769,239.094 256.580,239.896 256.457 C 240.698 256.334,243.182 255.951,245.417 255.607 C 247.651 255.263,250.417 254.851,251.563 254.692 C 253.492 254.425,254.996 254.202,257.917 253.752 C 258.547 253.655,259.873 253.431,260.863 253.254 C 261.854 253.078,263.495 252.832,264.509 252.708 C 265.524 252.583,268.932 252.072,272.083 251.572 C 275.234 251.072,278.609 250.553,279.583 250.419 C 280.557 250.285,282.104 250.043,283.021 249.882 C 285.342 249.474,288.324 249.016,290.417 248.746 C 291.391 248.621,294.156 248.205,296.563 247.822 C 298.969 247.439,301.734 247.014,302.708 246.877 C 303.682 246.741,306.073 246.364,308.021 246.040 C 309.969 245.716,313.719 245.157,316.354 244.797 C 318.990 244.437,321.286 244.065,321.458 243.971 C 321.707 243.835,322.500 244.029,322.500 244.227 M308.057 272.606 C 308.095 272.721,307.915 273.051,307.657 273.339 C 307.399 273.627,306.725 274.551,306.160 275.392 C 305.595 276.233,305.032 277.028,304.910 277.158 C 304.788 277.289,304.131 278.146,303.452 279.063 C 300.737 282.723,296.517 287.509,291.918 292.140 C 287.674 296.412,287.996 296.209,284.792 296.648 C 283.818 296.782,282.505 296.980,281.875 297.087 C 279.404 297.510,274.128 298.339,271.354 298.741 C 269.750 298.973,266.811 299.445,264.824 299.790 C 262.836 300.135,260.939 300.417,260.608 300.417 C 260.277 300.417,259.606 300.509,259.118 300.622 C 258.232 300.827,250.354 302.075,247.188 302.512 C 244.559 302.875,243.412 303.050,240.625 303.513 C 237.952 303.957,236.644 304.158,233.021 304.678 C 231.875 304.842,229.859 305.167,228.542 305.399 C 227.224 305.632,225.068 305.965,223.750 306.139 C 222.432 306.314,220.839 306.549,220.208 306.662 C 215.476 307.512,212.044 308.005,211.322 307.939 C 211.190 307.927,210.346 306.824,209.447 305.488 C 205.274 299.287,202.051 297.257,197.558 298.000 C 196.438 298.185,194.161 298.530,192.500 298.767 C 190.839 299.003,189.010 299.272,188.438 299.365 C 186.743 299.637,181.685 300.403,180.000 300.642 C 179.141 300.764,177.313 301.043,175.938 301.262 C 171.755 301.929,169.563 302.260,167.708 302.503 C 164.872 302.876,163.590 303.068,161.042 303.503 C 159.724 303.728,157.802 304.023,156.771 304.159 C 155.740 304.295,152.880 304.726,150.417 305.117 C 145.522 305.893,143.525 306.194,141.458 306.463 C 140.714 306.561,138.651 306.883,136.875 307.180 C 135.099 307.477,132.943 307.809,132.083 307.917 C 131.224 308.025,130.028 308.196,129.427 308.297 C 128.132 308.513,127.691 308.319,125.011 306.354 C 124.073 305.667,122.853 304.776,122.300 304.375 C 121.351 303.687,120.476 302.997,119.202 301.931 C 118.501 301.345,118.758 301.134,120.397 300.951 C 121.838 300.790,122.921 300.629,129.479 299.595 C 132.344 299.144,135.438 298.675,136.354 298.554 C 138.277 298.301,140.276 297.992,142.500 297.604 C 144.653 297.229,146.280 296.977,151.354 296.230 C 155.669 295.595,159.444 295.033,162.500 294.572 C 163.359 294.442,165.469 294.108,167.188 293.829 C 171.513 293.129,172.652 292.954,173.854 292.808 C 174.427 292.739,177.146 292.317,179.896 291.872 C 182.646 291.426,185.411 291.002,186.042 290.928 C 186.672 290.855,188.828 290.528,190.833 290.202 C 194.313 289.636,197.599 289.147,200.693 288.737 C 201.476 288.634,202.882 288.413,203.818 288.246 C 205.433 287.959,207.383 287.657,211.875 287.001 C 214.107 286.675,224.035 285.148,230.938 284.070 C 233.458 283.676,236.318 283.246,237.292 283.114 C 238.266 282.981,240.750 282.600,242.813 282.266 C 244.875 281.932,247.219 281.564,248.021 281.449 C 248.823 281.333,251.260 280.955,253.438 280.607 C 255.615 280.260,259.318 279.700,261.667 279.364 C 264.016 279.027,266.972 278.569,268.237 278.345 C 270.364 277.970,271.310 277.828,275.313 277.288 C 276.115 277.180,277.333 277.000,278.021 276.889 C 282.564 276.156,283.658 275.985,285.521 275.717 C 286.667 275.552,289.995 275.048,292.917 274.597 C 302.190 273.166,302.789 273.074,303.958 272.899 C 304.589 272.805,305.573 272.639,306.146 272.530 C 307.383 272.296,307.963 272.319,308.057 272.606 M279.167 303.204 C 279.167 303.756,272.174 308.574,266.173 312.157 C 257.130 317.556,245.738 322.462,235.938 325.179 C 232.441 326.148,229.448 326.910,228.125 327.167 C 221.014 328.550,219.356 328.837,216.667 329.153 C 203.189 330.736,188.659 330.355,176.886 328.109 C 171.941 327.166,170.689 326.898,168.542 326.326 C 167.453 326.036,165.859 325.618,165.000 325.398 C 163.537 325.024,161.111 324.254,157.188 322.919 C 154.908 322.143,154.977 321.837,157.500 321.529 C 159.332 321.306,160.559 321.123,163.542 320.629 C 164.172 320.524,166.609 320.151,168.958 319.799 C 171.307 319.447,174.682 318.918,176.458 318.624 C 178.234 318.329,180.250 318.010,180.938 317.915 C 184.178 317.467,188.397 316.836,190.000 316.561 C 190.974 316.393,193.411 316.022,195.417 315.736 C 197.422 315.450,199.813 315.083,200.729 314.921 C 201.646 314.758,203.521 314.472,204.896 314.285 C 208.170 313.840,209.960 313.562,213.698 312.919 C 215.650 312.583,220.017 311.923,221.250 311.778 C 221.880 311.703,224.646 311.284,227.396 310.845 C 230.146 310.406,233.240 309.936,234.271 309.800 C 235.302 309.663,236.879 309.419,237.775 309.257 C 238.671 309.094,240.405 308.820,241.629 308.646 C 242.853 308.473,244.417 308.243,245.104 308.136 C 245.792 308.029,247.104 307.834,248.021 307.703 C 248.938 307.572,250.391 307.341,251.250 307.190 C 253.468 306.800,255.215 306.530,259.375 305.933 C 261.380 305.646,263.724 305.278,264.583 305.116 C 265.443 304.954,266.896 304.719,267.813 304.592 C 272.245 303.982,278.017 303.094,278.101 303.010 C 278.324 302.787,279.167 302.941,279.167 303.204 " stroke="none" fill="#fbfbfb" fill-rule="evenodd"></path></g></svg>