<svg id="svg" version="1.1" xmlns="http://www.w3.org/2000/svg" xmlns:xlink="http://www.w3.org/1999/xlink" width="400" height="400" viewBox="0, 0, 400,400"><g id="svgg"><path id="path0" d="M221.042 229.081 C 211.241 229.709,207.033 231.696,202.855 237.668 C 196.123 247.292,200.805 261.464,212.049 265.497 C 216.547 267.111,237.772 267.516,244.570 266.119 C 256.822 263.601,262.972 249.119,256.406 238.246 C 255.185 236.224,251.113 232.083,250.345 232.083 C 250.282 232.083,249.826 231.823,249.333 231.504 C 247.740 230.473,245.685 229.875,242.292 229.453 C 240.026 229.171,224.009 228.891,221.042 229.081 M154.688 229.588 C 150.821 230.226,147.579 232.797,145.533 236.848 C 144.481 238.931,144.383 239.980,144.379 249.202 C 144.374 259.317,144.608 258.333,142.207 258.333 C 140.995 258.333,140.200 258.425,140.042 258.583 C 139.563 259.062,139.702 266.396,140.195 266.659 C 140.814 266.991,197.543 266.957,197.875 266.625 C 198.052 266.448,198.125 265.232,198.125 262.481 C 198.125 257.976,198.332 258.333,195.724 258.333 C 194.560 258.333,193.927 258.247,193.814 258.073 C 193.722 257.930,193.598 253.547,193.541 248.333 C 193.437 238.994,193.428 238.837,192.951 237.708 C 191.305 233.819,188.632 231.237,184.897 229.929 C 183.557 229.459,157.266 229.163,154.688 229.588 M242.290 237.835 C 253.489 240.113,253.667 255.222,242.529 258.080 C 240.407 258.624,218.822 258.616,216.368 258.070 C 205.632 255.680,205.383 240.359,216.042 237.907 C 218.881 237.253,239.158 237.198,242.290 237.835 M182.604 238.098 C 183.743 238.618,184.709 239.665,185.095 240.796 C 185.486 241.944,185.581 257.221,185.201 257.930 C 184.991 258.323,184.591 258.333,168.984 258.333 L 152.984 258.333 152.794 257.865 C 152.685 257.595,152.648 253.847,152.708 249.028 L 152.813 240.660 153.441 239.766 C 153.833 239.209,154.489 238.653,155.184 238.290 L 156.298 237.708 169.034 237.713 C 180.920 237.717,181.826 237.743,182.604 238.098 M142.338 272.880 C 141.946 273.134,141.946 309.784,142.338 310.033 C 142.645 310.228,149.384 310.272,149.879 310.082 C 150.166 309.971,150.208 309.328,150.208 305.018 C 150.208 301.392,150.278 299.987,150.469 299.731 C 150.708 299.411,152.203 299.378,168.958 299.325 C 188.778 299.262,187.529 299.332,190.000 298.150 C 201.091 292.843,199.913 277.170,188.125 273.203 C 186.887 272.787,142.960 272.477,142.338 272.880 M211.473 273.245 C 207.095 274.434,203.753 277.876,202.356 282.638 C 201.853 284.349,201.665 309.566,202.151 309.970 C 202.364 310.147,203.548 310.202,206.277 310.161 L 210.104 310.104 210.160 305.116 C 210.208 300.842,210.265 300.075,210.557 299.752 C 211.054 299.203,247.673 299.161,248.221 299.709 C 248.509 299.997,248.552 300.706,248.534 304.914 C 248.523 307.594,248.572 309.881,248.644 309.997 C 248.818 310.279,256.388 310.283,256.561 310.002 C 256.767 309.670,256.677 283.511,256.468 282.708 C 255.343 278.387,252.502 275.167,248.412 273.578 L 246.979 273.021 229.792 272.980 C 215.209 272.944,212.433 272.985,211.473 273.245 M186.307 281.533 C 190.545 283.407,190.177 289.412,185.743 290.735 C 183.928 291.277,150.717 291.186,150.424 290.639 C 150.193 290.208,150.114 281.947,150.335 281.371 C 150.449 281.074,152.184 281.042,167.829 281.042 L 185.196 281.042 186.307 281.533 M245.434 281.411 C 247.554 282.137,248.407 283.835,248.505 287.518 C 248.611 291.517,251.193 291.042,229.375 291.042 C 207.661 291.042,210.208 291.487,210.208 287.691 C 210.208 283.850,211.081 282.232,213.595 281.416 C 214.998 280.961,244.106 280.956,245.434 281.411 M147.500 313.110 C 146.279 313.393,145.355 313.881,144.326 314.787 C 143.413 315.590,143.187 315.894,142.459 317.292 C 142.147 317.890,141.846 349.599,142.145 350.265 C 142.297 350.602,142.648 350.629,146.208 350.577 L 150.104 350.521 150.158 337.680 C 150.200 327.546,150.268 324.793,150.478 324.618 C 150.682 324.449,151.900 325.613,155.629 329.542 C 166.002 340.470,166.182 340.622,169.014 340.791 C 171.878 340.962,173.243 340.129,177.375 335.686 C 178.739 334.220,181.329 331.474,183.132 329.583 C 184.935 327.693,186.719 325.794,187.097 325.365 C 187.770 324.601,188.537 324.325,188.546 324.844 C 188.549 324.987,188.547 330.693,188.542 337.523 C 188.537 344.354,188.591 350.096,188.664 350.284 C 188.903 350.908,196.618 350.787,196.775 350.156 C 196.840 349.898,196.865 342.609,196.831 333.958 L 196.771 318.229 196.276 317.203 C 194.217 312.931,189.296 311.751,185.504 314.619 C 184.949 315.039,178.730 321.697,172.305 328.750 C 171.209 329.953,170.172 331.054,170.000 331.196 C 169.298 331.776,169.787 332.248,160.219 321.765 C 152.206 312.986,151.147 312.266,147.500 313.110 M212.813 313.058 C 208.241 313.696,204.272 317.158,202.561 322.001 L 201.980 323.646 201.915 336.891 C 201.859 348.221,201.893 350.173,202.150 350.386 C 202.365 350.564,203.541 350.618,206.277 350.578 L 210.104 350.521 210.208 345.270 C 210.272 342.055,210.396 339.936,210.529 339.804 C 210.837 339.496,247.907 339.490,248.214 339.797 C 248.355 339.938,248.476 341.954,248.542 345.270 L 248.646 350.521 252.485 350.578 C 254.596 350.609,256.407 350.551,256.510 350.449 C 256.757 350.202,256.718 323.656,256.470 322.708 C 255.341 318.409,252.150 314.981,247.901 313.504 C 246.641 313.066,215.585 312.671,212.813 313.058 M245.104 321.480 C 247.535 322.144,248.413 323.711,248.510 327.559 C 248.561 329.604,248.509 330.518,248.328 330.736 C 247.985 331.148,210.870 331.203,210.458 330.792 C 209.950 330.283,210.136 325.268,210.709 324.037 C 211.239 322.900,212.271 321.931,213.383 321.528 C 214.311 321.192,243.885 321.147,245.104 321.480 " stroke="none" fill="#030303" fill-rule="evenodd"></path><path id="path1" d="M196.875 52.640 C 185.412 53.026,170.681 56.965,166.849 60.669 C 164.392 63.044,163.260 65.687,163.253 69.063 C 163.248 71.208,163.774 75.088,164.171 75.838 C 164.321 76.121,167.372 78.333,167.612 78.333 C 167.947 78.333,173.094 82.317,175.521 84.455 C 179.893 88.306,185.642 94.553,187.708 97.697 C 187.880 97.959,188.310 98.560,188.663 99.034 C 191.139 102.357,196.528 112.213,197.507 115.208 C 197.601 115.495,197.877 116.245,198.122 116.875 C 198.366 117.505,198.684 118.630,198.827 119.375 C 199.201 121.324,199.727 121.285,200.228 119.271 C 200.625 117.672,201.745 114.681,202.587 112.970 C 202.883 112.369,203.125 111.830,203.125 111.772 C 203.125 111.714,203.531 110.847,204.026 109.844 C 210.327 97.101,219.677 86.358,231.354 78.447 C 235.096 75.912,234.921 76.127,235.428 73.434 C 237.091 64.597,234.218 60.135,224.792 56.915 C 215.458 53.727,206.286 52.323,196.875 52.640 M148.060 75.635 C 146.479 75.879,144.565 76.735,143.073 77.866 C 140.898 79.515,135.852 86.132,133.461 90.471 C 133.193 90.957,132.664 91.917,132.284 92.604 C 126.046 103.906,122.602 118.115,122.976 131.014 C 123.160 137.350,123.886 139.676,126.509 142.330 C 128.751 144.598,130.414 145.313,135.174 146.052 L 137.953 146.484 138.612 145.945 C 146.792 139.257,156.292 133.944,165.625 130.836 C 173.211 128.310,185.441 126.295,190.260 126.777 C 192.056 126.956,192.138 126.592,190.521 125.626 C 187.473 123.806,180.602 117.378,176.825 112.813 C 176.256 112.125,175.595 111.330,175.355 111.046 C 172.770 107.980,167.646 99.757,165.877 95.833 C 165.644 95.318,165.110 94.146,164.689 93.229 C 163.317 90.237,160.902 83.401,160.421 81.146 C 159.965 79.007,160.076 79.116,156.431 77.263 C 153.318 75.679,150.864 75.202,148.060 75.635 M247.034 75.632 C 245.506 75.869,243.699 76.596,241.281 77.944 C 239.098 79.162,239.102 79.156,238.543 81.499 C 238.157 83.118,236.094 89.287,235.317 91.146 C 234.297 93.586,233.944 94.338,232.362 97.439 C 231.415 99.296,230.249 101.453,229.771 102.231 C 229.293 103.009,228.706 103.974,228.466 104.375 C 227.410 106.144,222.413 112.868,221.653 113.542 C 221.589 113.599,220.774 114.501,219.843 115.545 C 218.396 117.168,213.998 121.396,212.255 122.841 C 210.916 123.950,209.004 125.384,208.392 125.737 C 207.195 126.428,207.349 127.260,208.594 126.826 C 209.795 126.407,219.084 127.307,224.063 128.325 C 230.607 129.663,237.526 132.035,243.491 134.985 C 244.667 135.566,245.667 136.042,245.714 136.042 C 245.761 136.042,246.512 136.464,247.385 136.979 C 248.257 137.495,249.018 137.917,249.077 137.917 C 249.136 137.917,249.438 138.093,249.748 138.309 C 250.058 138.525,251.297 139.335,252.500 140.109 C 254.927 141.671,256.983 143.166,259.460 145.169 C 260.975 146.394,261.168 146.492,261.856 146.375 C 262.268 146.304,263.542 146.110,264.688 145.943 C 270.709 145.063,274.447 141.845,275.720 136.444 C 276.159 134.579,276.167 124.629,275.731 121.137 C 275.067 115.821,273.181 107.060,272.504 106.146 C 272.419 106.031,272.285 105.656,272.207 105.313 C 271.782 103.451,269.493 97.765,268.056 95.000 C 266.077 91.195,265.298 89.856,263.148 86.564 C 261.238 83.641,258.429 80.070,256.881 78.596 C 254.367 76.204,250.616 75.075,247.034 75.632 M166.250 83.984 C 166.250 84.228,166.480 84.954,166.761 85.599 C 167.043 86.243,167.711 87.894,168.246 89.266 C 169.222 91.770,171.727 97.123,172.196 97.708 C 172.334 97.880,172.751 98.583,173.122 99.271 C 176.928 106.311,185.046 115.578,192.239 121.094 C 195.026 123.232,195.197 122.856,193.498 118.333 C 189.032 106.448,180.713 94.810,170.957 86.799 C 169.822 85.867,168.481 84.753,167.976 84.323 C 166.933 83.435,166.250 83.301,166.250 83.984 M230.385 84.932 C 220.998 92.436,213.108 101.982,208.805 111.042 C 208.451 111.786,207.740 113.286,207.224 114.375 C 206.708 115.464,206.082 116.964,205.832 117.708 C 205.583 118.453,205.307 119.156,205.220 119.271 C 204.874 119.726,204.319 121.636,204.441 121.954 C 205.275 124.128,217.617 111.988,223.266 103.438 C 224.250 101.948,225.230 100.475,225.444 100.165 C 225.658 99.854,225.833 99.548,225.833 99.483 C 225.833 99.419,226.054 99.017,226.323 98.590 C 228.044 95.858,232.917 84.939,232.917 83.815 C 232.917 83.221,232.045 83.606,230.385 84.932 M184.063 131.788 C 179.483 132.279,173.769 133.325,170.938 134.190 C 167.568 135.219,164.215 136.333,163.438 136.681 C 162.979 136.887,161.667 137.445,160.521 137.922 C 158.231 138.875,153.465 141.320,151.667 142.463 C 144.252 147.176,144.261 147.148,150.417 146.752 C 163.943 145.882,175.001 142.508,186.051 135.880 C 193.146 131.624,192.773 130.855,184.063 131.788 M207.815 131.662 C 207.179 132.692,216.671 138.463,223.333 141.096 C 228.252 143.040,228.836 143.229,234.063 144.568 C 239.143 145.869,242.299 146.338,248.750 146.749 C 254.277 147.100,254.396 146.995,250.974 144.765 C 249.808 144.006,248.385 143.078,247.813 142.703 C 245.900 141.453,238.577 137.708,238.044 137.708 C 237.990 137.708,237.353 137.436,236.629 137.103 C 235.905 136.771,234.000 136.066,232.396 135.538 C 230.792 135.010,229.057 134.439,228.542 134.269 C 223.616 132.649,208.389 130.734,207.815 131.662 M193.949 136.199 C 193.657 136.399,193.142 136.815,192.803 137.123 C 192.036 137.822,189.067 139.698,186.458 141.132 C 185.370 141.731,184.142 142.414,183.730 142.651 C 183.318 142.888,182.287 143.384,181.439 143.754 C 180.590 144.123,179.521 144.608,179.063 144.831 C 170.352 149.063,158.396 151.503,146.085 151.561 L 139.357 151.592 137.883 153.036 C 131.798 158.999,130.993 164.219,135.167 170.665 C 145.516 186.650,161.375 198.281,179.479 203.165 C 187.264 205.265,191.965 203.066,195.655 195.598 C 197.099 192.676,197.039 193.271,196.123 190.960 C 191.537 179.396,189.438 163.061,191.114 151.979 C 191.287 150.833,191.581 148.911,191.766 147.708 C 192.224 144.742,193.648 138.993,194.278 137.568 C 195.043 135.837,194.963 135.504,193.949 136.199 M204.375 136.224 C 204.375 136.439,204.600 137.124,204.875 137.746 C 206.332 141.041,208.041 150.634,208.325 157.118 C 208.858 169.275,206.340 184.442,202.525 192.048 C 202.072 192.951,202.025 192.782,203.579 195.912 C 207.496 203.809,212.476 205.543,222.188 202.393 C 235.654 198.026,246.381 191.260,255.762 181.216 C 257.912 178.914,262.426 173.224,262.917 172.197 C 262.974 172.077,263.560 171.155,264.219 170.148 C 268.053 164.291,267.154 158.966,261.383 153.342 L 259.574 151.580 252.964 151.557 C 242.279 151.520,234.337 150.173,225.000 146.815 C 222.448 145.897,221.687 145.587,219.375 144.524 C 218.745 144.234,217.687 143.757,217.025 143.465 C 214.303 142.264,207.231 138.038,205.736 136.719 C 204.624 135.737,204.375 135.647,204.375 136.224 M198.801 138.698 C 196.564 147.110,195.948 150.464,195.594 156.146 C 195.363 159.852,195.496 167.267,195.842 169.925 C 195.952 170.768,196.134 172.185,196.248 173.073 C 196.485 174.929,196.511 175.049,197.992 181.042 C 198.986 185.060,199.146 185.528,199.550 185.587 C 199.797 185.624,200.000 185.591,200.000 185.513 C 200.000 185.436,200.415 183.718,200.922 181.697 C 202.793 174.235,203.198 171.758,203.576 165.472 C 203.951 159.234,203.378 151.443,202.163 146.255 C 200.456 138.969,200.120 137.917,199.496 137.917 C 199.109 137.917,198.966 138.077,198.801 138.698 M217.917 228.886 C 212.529 229.506,210.138 230.390,206.633 233.057 C 204.937 234.347,201.250 238.765,201.250 239.506 C 201.250 239.571,201.123 239.920,200.967 240.281 C 200.326 241.767,200.197 242.163,199.887 243.601 C 199.119 247.170,199.366 251.468,200.519 254.583 C 202.692 260.456,208.524 265.442,214.577 266.601 C 221.009 267.832,241.967 267.510,246.354 266.112 C 258.405 262.273,263.460 246.926,255.959 236.948 C 255.147 235.867,254.450 235.134,252.193 232.984 C 250.476 231.349,246.988 229.838,243.333 229.145 C 242.038 228.900,219.769 228.672,217.917 228.886 M154.345 229.283 C 149.957 230.158,146.152 233.681,144.456 238.438 C 144.126 239.364,144.078 240.481,144.020 248.542 C 143.945 259.012,144.163 258.125,141.669 258.125 C 140.713 258.125,139.984 258.224,139.833 258.375 C 139.526 258.682,139.484 266.396,139.787 266.875 C 139.961 267.150,143.431 267.188,168.958 267.188 C 194.486 267.188,197.955 267.150,198.129 266.875 C 198.344 266.535,198.414 258.993,198.207 258.455 C 198.106 258.192,197.737 258.124,196.384 258.122 C 193.879 258.117,194.098 258.924,194.141 249.864 C 194.192 238.885,193.833 237.065,190.947 233.697 C 188.733 231.113,186.584 229.866,183.161 229.181 C 181.441 228.836,156.136 228.926,154.345 229.283 M242.292 229.453 C 245.685 229.875,247.740 230.473,249.333 231.504 C 249.826 231.823,250.282 232.083,250.345 232.083 C 251.113 232.083,255.185 236.224,256.406 238.246 C 262.972 249.119,256.822 263.601,244.570 266.119 C 240.276 267.001,219.909 267.192,215.487 266.391 C 203.364 264.196,196.630 252.064,201.190 240.634 C 202.264 237.943,205.355 234.257,208.114 232.377 C 211.206 230.270,214.133 229.523,221.042 229.081 C 224.009 228.891,240.026 229.171,242.292 229.453 M184.897 229.929 C 188.632 231.237,191.305 233.819,192.951 237.708 C 193.428 238.837,193.437 238.994,193.541 248.333 C 193.598 253.547,193.722 257.930,193.814 258.073 C 193.927 258.247,194.560 258.333,195.724 258.333 C 198.332 258.333,198.125 257.976,198.125 262.481 C 198.125 265.232,198.052 266.448,197.875 266.625 C 197.543 266.957,140.814 266.991,140.195 266.659 C 139.702 266.396,139.563 259.062,140.042 258.583 C 140.200 258.425,140.995 258.333,142.207 258.333 C 144.608 258.333,144.374 259.317,144.379 249.202 C 144.383 239.980,144.481 238.931,145.533 236.848 C 147.579 232.797,150.821 230.226,154.688 229.588 C 157.266 229.163,183.557 229.459,184.897 229.929 M220.938 237.489 C 215.329 237.719,213.677 238.267,211.147 240.735 C 205.278 246.462,208.228 256.258,216.368 258.070 C 218.822 258.616,240.407 258.624,242.529 258.080 C 253.667 255.222,253.489 240.113,242.290 237.835 C 240.429 237.457,227.009 237.239,220.938 237.489 M155.184 238.290 C 154.489 238.653,153.833 239.209,153.441 239.766 L 152.813 240.660 152.708 249.028 C 152.648 253.847,152.685 257.595,152.794 257.865 L 152.984 258.333 168.984 258.333 C 184.591 258.333,184.991 258.323,185.201 257.930 C 185.339 257.673,185.417 254.677,185.417 249.634 C 185.417 240.888,185.363 240.458,184.105 239.165 C 182.643 237.662,183.226 237.718,169.034 237.713 L 156.298 237.708 155.184 238.290 M242.083 238.176 C 253.734 240.378,253.028 256.070,241.197 257.869 C 237.800 258.385,221.256 258.386,217.695 257.871 C 205.484 256.102,205.234 239.616,217.396 238.160 C 218.542 238.023,219.714 237.874,220.000 237.829 C 221.474 237.596,240.604 237.897,242.083 238.176 M183.063 238.788 C 183.527 239.095,184.129 239.705,184.401 240.142 L 184.896 240.938 184.951 249.167 C 184.985 254.276,184.929 257.514,184.802 257.708 C 184.592 258.030,155.480 258.323,153.802 258.020 L 153.125 257.898 153.125 249.347 L 153.125 240.796 153.698 239.996 C 154.300 239.156,155.169 238.529,156.042 238.303 C 156.328 238.229,162.335 238.182,169.390 238.199 L 182.218 238.229 183.063 238.788 M142.031 272.517 C 141.432 272.866,141.470 310.088,142.070 310.409 C 142.771 310.785,149.894 310.691,150.217 310.302 C 150.422 310.055,150.474 308.873,150.437 305.315 C 150.404 302.217,150.465 300.508,150.618 300.222 C 150.848 299.792,150.877 299.792,168.184 299.791 C 187.769 299.791,187.277 299.826,190.521 298.227 C 196.503 295.278,200.013 286.621,197.303 281.499 C 197.200 281.305,196.790 280.478,196.392 279.663 C 195.616 278.069,195.211 277.528,193.750 276.136 C 191.769 274.247,190.120 273.347,187.486 272.716 C 185.479 272.235,142.836 272.048,142.031 272.517 M211.563 272.812 C 206.487 274.110,202.576 278.512,201.752 283.854 C 201.290 286.850,201.340 309.732,201.809 310.251 C 202.231 310.717,209.921 310.829,210.375 310.375 C 210.555 310.195,210.625 308.755,210.625 305.208 C 210.625 301.662,210.695 300.222,210.875 300.042 C 211.276 299.641,247.568 299.684,247.901 300.085 C 248.073 300.292,248.135 301.787,248.113 305.194 C 248.091 308.725,248.151 310.093,248.338 310.318 C 248.702 310.757,256.493 310.773,256.856 310.335 C 257.367 309.719,257.189 283.637,256.663 282.061 C 255.052 277.237,251.583 273.864,247.139 272.802 C 245.450 272.398,213.145 272.408,211.563 272.812 M188.125 273.203 C 199.913 277.170,201.091 292.843,190.000 298.150 C 187.529 299.332,188.778 299.262,168.958 299.325 C 152.203 299.378,150.708 299.411,150.469 299.731 C 150.278 299.987,150.208 301.392,150.208 305.018 C 150.208 309.328,150.166 309.971,149.879 310.082 C 149.384 310.272,142.645 310.228,142.338 310.033 C 141.946 309.784,141.946 273.134,142.338 272.880 C 142.960 272.477,186.887 272.787,188.125 273.203 M248.412 273.578 C 252.502 275.167,255.343 278.387,256.468 282.708 C 256.677 283.511,256.767 309.670,256.561 310.002 C 256.388 310.283,248.818 310.279,248.644 309.997 C 248.572 309.881,248.523 307.594,248.534 304.914 C 248.552 300.706,248.509 299.997,248.221 299.709 C 247.673 299.161,211.054 299.203,210.557 299.752 C 210.265 300.075,210.208 300.842,210.160 305.116 L 210.104 310.104 206.277 310.161 C 203.548 310.202,202.364 310.147,202.151 309.970 C 201.665 309.566,201.853 284.349,202.356 282.638 C 203.753 277.876,207.095 274.434,211.473 273.245 C 212.433 272.985,215.209 272.944,229.792 272.980 L 246.979 273.021 248.412 273.578 M150.335 281.371 C 150.114 281.947,150.193 290.208,150.424 290.639 C 150.717 291.186,183.928 291.277,185.743 290.735 C 190.177 289.412,190.545 283.407,186.307 281.533 L 185.196 281.042 167.829 281.042 C 152.184 281.042,150.449 281.074,150.335 281.371 M213.595 281.416 C 211.081 282.232,210.208 283.850,210.208 287.691 C 210.208 291.487,207.661 291.042,229.375 291.042 C 251.193 291.042,248.611 291.517,248.505 287.518 C 248.407 283.835,247.554 282.137,245.434 281.411 C 244.106 280.956,214.998 280.961,213.595 281.416 M186.022 281.813 C 189.633 283.111,189.995 288.241,186.603 290.054 L 185.729 290.521 168.336 290.580 C 152.070 290.635,150.925 290.615,150.679 290.280 C 150.360 289.843,150.304 282.266,150.616 281.684 C 150.902 281.148,184.514 281.270,186.022 281.813 M245.679 281.952 C 246.653 282.436,247.587 283.591,247.892 284.688 C 248.210 285.836,248.198 290.052,247.875 290.375 C 247.577 290.673,211.333 290.737,210.865 290.441 C 210.331 290.103,210.616 284.661,211.218 283.693 C 211.875 282.636,212.887 281.900,213.987 281.679 C 216.003 281.274,244.815 281.522,245.679 281.952 M147.708 312.688 C 145.487 313.019,143.422 314.668,142.251 317.047 L 141.771 318.021 141.715 334.256 C 141.670 347.189,141.713 350.526,141.923 350.659 C 142.341 350.924,150.158 350.875,150.324 350.606 C 150.402 350.481,150.452 344.739,150.437 337.846 C 150.409 324.589,150.427 324.345,151.343 325.454 C 151.658 325.835,153.623 327.927,155.711 330.104 C 157.798 332.281,160.426 335.063,161.549 336.286 C 167.199 342.435,170.654 342.938,175.287 338.285 C 177.491 336.072,183.803 329.418,186.062 326.927 C 187.024 325.867,187.881 325.000,187.968 325.000 C 188.054 325.000,188.125 330.764,188.125 337.809 L 188.125 350.617 188.594 350.732 C 188.852 350.796,190.844 350.821,193.021 350.788 L 196.979 350.729 196.979 334.271 L 196.979 317.813 196.198 316.425 C 194.813 313.964,192.596 312.654,189.818 312.654 C 186.968 312.654,185.743 313.520,180.625 319.159 C 178.603 321.386,177.098 323.026,171.672 328.916 C 170.515 330.171,169.563 331.033,169.373 330.998 C 169.095 330.946,168.030 329.835,163.976 325.366 C 163.585 324.934,163.022 324.314,162.726 323.988 C 152.306 312.502,151.751 312.084,147.708 312.688 M212.917 312.643 C 207.370 313.283,202.420 318.462,201.675 324.406 C 201.292 327.465,201.387 350.108,201.786 350.506 C 202.122 350.842,209.491 351.016,210.295 350.707 C 210.584 350.596,210.625 349.932,210.625 345.407 C 210.625 342.404,210.707 340.182,210.821 340.112 C 211.077 339.954,247.673 339.954,247.929 340.112 C 248.043 340.182,248.125 342.353,248.125 345.283 C 248.125 348.933,248.194 350.403,248.375 350.583 C 248.670 350.879,256.387 350.938,256.844 350.649 C 257.136 350.463,257.253 324.500,256.968 323.177 C 255.996 318.680,252.579 314.826,248.103 313.179 L 246.563 312.611 230.104 312.585 C 221.052 312.570,213.318 312.596,212.917 312.643 M151.971 313.669 C 153.429 314.359,153.724 314.649,160.219 321.765 C 169.787 332.248,169.298 331.776,170.000 331.196 C 170.172 331.054,171.209 329.953,172.305 328.750 C 178.730 321.697,184.949 315.039,185.504 314.619 C 189.296 311.751,194.217 312.931,196.276 317.203 L 196.771 318.229 196.831 333.958 C 196.865 342.609,196.840 349.898,196.775 350.156 C 196.618 350.787,188.903 350.908,188.664 350.284 C 188.591 350.096,188.537 344.354,188.542 337.523 C 188.547 330.693,188.549 324.987,188.546 324.844 C 188.537 324.325,187.770 324.601,187.097 325.365 C 186.719 325.794,184.935 327.693,183.132 329.583 C 181.329 331.474,178.739 334.220,177.375 335.686 C 173.243 340.129,171.878 340.962,169.014 340.791 C 166.182 340.622,166.002 340.470,155.629 329.542 C 151.900 325.613,150.682 324.449,150.478 324.618 C 150.268 324.793,150.200 327.546,150.158 337.680 L 150.104 350.521 146.208 350.577 C 142.648 350.629,142.297 350.602,142.145 350.265 C 141.846 349.599,142.147 317.890,142.459 317.292 C 143.187 315.894,143.413 315.590,144.326 314.787 C 146.505 312.869,149.390 312.447,151.971 313.669 M247.901 313.504 C 252.150 314.981,255.341 318.409,256.470 322.708 C 256.718 323.656,256.757 350.202,256.510 350.449 C 256.407 350.551,254.596 350.609,252.485 350.578 L 248.646 350.521 248.542 345.270 C 248.476 341.954,248.355 339.938,248.214 339.797 C 247.907 339.490,210.837 339.496,210.529 339.804 C 210.396 339.936,210.272 342.055,210.208 345.270 L 210.104 350.521 206.277 350.578 C 203.541 350.618,202.365 350.564,202.150 350.386 C 201.893 350.173,201.859 348.221,201.915 336.891 L 201.980 323.646 202.561 322.001 C 204.272 317.158,208.241 313.696,212.813 313.058 C 215.585 312.671,246.641 313.066,247.901 313.504 M213.383 321.528 C 212.271 321.931,211.239 322.900,210.709 324.037 C 210.136 325.268,209.950 330.283,210.458 330.792 C 210.870 331.203,247.985 331.148,248.328 330.736 C 248.509 330.518,248.561 329.604,248.510 327.559 C 248.413 323.711,247.535 322.144,245.104 321.480 C 243.885 321.147,214.311 321.192,213.383 321.528 M245.623 322.103 C 247.534 322.925,248.112 324.304,248.120 328.066 C 248.124 330.092,248.077 330.424,247.760 330.566 C 247.560 330.656,239.146 330.682,229.063 330.625 L 210.729 330.521 210.667 328.125 C 210.569 324.352,211.069 323.084,213.021 322.162 L 214.063 321.671 229.336 321.669 C 244.375 321.667,244.626 321.673,245.623 322.103 " stroke="none" fill="#E06846" fill-rule="evenodd"></path><path id="path2" d="M0.000 200.000 L 0.000 400.000 200.000 400.000 L 400.000 400.000 400.000 200.000 L 400.000 0.000 200.000 0.000 L 0.000 0.000 0.000 200.000 M206.458 52.939 C 217.517 53.933,229.421 57.639,232.607 61.081 C 235.669 64.388,236.470 67.898,235.428 73.434 C 234.921 76.127,235.096 75.912,231.354 78.447 C 219.677 86.358,210.327 97.101,204.026 109.844 C 203.531 110.847,203.125 111.714,203.125 111.772 C 203.125 111.830,202.883 112.369,202.587 112.970 C 201.745 114.681,200.625 117.672,200.228 119.271 C 199.727 121.285,199.201 121.324,198.827 119.375 C 198.684 118.630,198.366 117.505,198.122 116.875 C 197.877 116.245,197.601 115.495,197.507 115.208 C 196.528 112.213,191.139 102.357,188.663 99.034 C 188.310 98.560,187.880 97.959,187.708 97.697 C 185.642 94.553,179.893 88.306,175.521 84.455 C 173.094 82.317,167.947 78.333,167.612 78.333 C 167.372 78.333,164.321 76.121,164.171 75.838 C 163.282 74.159,162.975 67.542,163.695 65.576 C 165.318 61.146,167.731 59.178,174.375 56.865 C 184.645 53.289,195.529 51.957,206.458 52.939 M153.411 75.949 C 154.329 76.215,157.405 77.685,159.110 78.673 C 159.840 79.096,160.080 79.547,160.421 81.146 C 160.902 83.401,163.317 90.237,164.689 93.229 C 165.110 94.146,165.644 95.318,165.877 95.833 C 167.646 99.757,172.770 107.980,175.355 111.046 C 175.595 111.330,176.256 112.125,176.825 112.813 C 180.602 117.378,187.473 123.806,190.521 125.626 C 192.138 126.592,192.056 126.956,190.260 126.777 C 185.441 126.295,173.211 128.310,165.625 130.836 C 156.292 133.944,146.792 139.257,138.612 145.945 L 137.953 146.484 135.174 146.052 C 130.414 145.313,128.751 144.598,126.509 142.330 C 123.886 139.676,123.160 137.350,122.976 131.014 C 122.602 118.115,126.046 103.906,132.284 92.604 C 132.664 91.917,133.193 90.957,133.461 90.471 C 135.852 86.132,140.898 79.515,143.073 77.866 C 146.013 75.638,149.864 74.923,153.411 75.949 M252.292 75.965 C 255.723 76.928,258.842 79.974,263.148 86.564 C 265.298 89.856,266.077 91.195,268.056 95.000 C 269.493 97.765,271.782 103.451,272.207 105.313 C 272.285 105.656,272.419 106.031,272.504 106.146 C 273.181 107.060,275.067 115.821,275.731 121.137 C 276.167 124.629,276.159 134.579,275.720 136.444 C 274.447 141.845,270.709 145.063,264.688 145.943 C 263.542 146.110,262.268 146.304,261.856 146.375 C 261.168 146.492,260.975 146.394,259.460 145.169 C 256.983 143.166,254.927 141.671,252.500 140.109 C 251.297 139.335,250.058 138.525,249.748 138.309 C 249.438 138.093,249.136 137.917,249.077 137.917 C 249.018 137.917,248.257 137.495,247.385 136.979 C 246.512 136.464,245.761 136.042,245.714 136.042 C 245.667 136.042,244.667 135.566,243.491 134.985 C 237.526 132.035,230.607 129.663,224.063 128.325 C 219.084 127.307,209.795 126.407,208.594 126.826 C 207.349 127.260,207.195 126.428,208.392 125.737 C 209.004 125.384,210.916 123.950,212.255 122.841 C 213.998 121.396,218.396 117.168,219.843 115.545 C 220.774 114.501,221.589 113.599,221.653 113.542 C 222.413 112.868,227.410 106.144,228.466 104.375 C 228.706 103.974,229.293 103.009,229.771 102.231 C 230.249 101.453,231.415 99.296,232.362 97.439 C 233.944 94.338,234.297 93.586,235.317 91.146 C 236.094 89.287,238.157 83.118,238.543 81.499 C 239.102 79.156,239.098 79.162,241.281 77.944 C 245.688 75.487,248.674 74.950,252.292 75.965 M167.976 84.323 C 168.481 84.753,169.822 85.867,170.957 86.799 C 180.713 94.810,189.032 106.448,193.498 118.333 C 195.197 122.856,195.026 123.232,192.239 121.094 C 185.046 115.578,176.928 106.311,173.122 99.271 C 172.751 98.583,172.334 97.880,172.196 97.708 C 171.727 97.123,169.222 91.770,168.246 89.266 C 167.711 87.894,167.043 86.243,166.761 85.599 C 165.811 83.421,166.306 82.901,167.976 84.323 M232.917 83.815 C 232.917 84.939,228.044 95.858,226.323 98.590 C 226.054 99.017,225.833 99.419,225.833 99.483 C 225.833 99.548,225.658 99.854,225.444 100.165 C 225.230 100.475,224.250 101.948,223.266 103.438 C 217.617 111.988,205.275 124.128,204.441 121.954 C 204.319 121.636,204.874 119.726,205.220 119.271 C 205.307 119.156,205.583 118.453,205.832 117.708 C 206.082 116.964,206.708 115.464,207.224 114.375 C 207.740 113.286,208.451 111.786,208.805 111.042 C 212.524 103.212,219.490 94.310,227.083 87.686 C 231.143 84.144,232.917 82.967,232.917 83.815 M191.210 132.016 C 191.331 132.865,185.280 136.645,179.063 139.605 C 170.163 143.842,161.306 146.052,150.417 146.752 C 144.261 147.148,144.252 147.176,151.667 142.463 C 153.465 141.320,158.231 138.875,160.521 137.922 C 161.667 137.445,162.979 136.887,163.438 136.681 C 164.215 136.333,167.568 135.219,170.938 134.190 C 177.516 132.180,191.028 130.732,191.210 132.016 M214.606 131.771 C 219.388 132.237,225.924 133.408,228.542 134.269 C 229.057 134.439,230.792 135.010,232.396 135.538 C 234.000 136.066,235.905 136.771,236.629 137.103 C 237.353 137.436,237.990 137.708,238.044 137.708 C 238.577 137.708,245.900 141.453,247.813 142.703 C 248.385 143.078,249.808 144.006,250.974 144.765 C 254.396 146.995,254.277 147.100,248.750 146.749 C 242.299 146.338,239.143 145.869,234.063 144.568 C 228.836 143.229,228.252 143.040,223.333 141.096 C 219.491 139.577,212.958 136.055,209.498 133.636 C 206.352 131.437,207.369 131.066,214.606 131.771 M194.792 136.120 C 194.792 136.278,194.561 136.929,194.278 137.568 C 193.648 138.993,192.224 144.742,191.766 147.708 C 191.581 148.911,191.287 150.833,191.114 151.979 C 189.438 163.061,191.537 179.396,196.123 190.960 C 197.039 193.271,197.099 192.676,195.655 195.598 C 192.659 201.660,189.588 203.865,184.167 203.847 C 180.394 203.834,173.192 201.556,166.354 198.213 C 153.196 191.780,143.015 182.787,135.167 170.665 C 130.993 164.219,131.798 158.999,137.883 153.036 L 139.357 151.592 146.085 151.561 C 158.396 151.503,170.352 149.063,179.063 144.831 C 179.521 144.608,180.590 144.123,181.439 143.754 C 182.287 143.384,183.318 142.888,183.730 142.651 C 184.142 142.414,185.370 141.731,186.458 141.132 C 189.067 139.698,192.036 137.822,192.803 137.123 C 194.081 135.959,194.792 135.601,194.792 136.120 M205.736 136.719 C 207.231 138.038,214.303 142.264,217.025 143.465 C 217.687 143.757,218.745 144.234,219.375 144.524 C 221.687 145.587,222.448 145.897,225.000 146.815 C 234.337 150.173,242.279 151.520,252.964 151.557 L 259.574 151.580 261.383 153.342 C 267.154 158.966,268.053 164.291,264.219 170.148 C 263.560 171.155,262.974 172.077,262.917 172.197 C 262.426 173.224,257.912 178.914,255.762 181.216 C 246.381 191.260,235.654 198.026,222.188 202.393 C 212.476 205.543,207.496 203.809,203.579 195.912 C 202.025 192.782,202.072 192.951,202.525 192.048 C 206.340 184.442,208.858 169.275,208.325 157.118 C 208.041 150.634,206.332 141.041,204.875 137.746 C 203.962 135.680,204.216 135.377,205.736 136.719 M200.382 139.219 C 200.750 140.420,201.371 142.873,202.163 146.255 C 203.378 151.443,203.951 159.234,203.576 165.472 C 203.198 171.758,202.793 174.235,200.922 181.697 C 200.415 183.718,200.000 185.436,200.000 185.513 C 200.000 185.591,199.797 185.624,199.550 185.587 C 199.146 185.528,198.986 185.060,197.992 181.042 C 196.511 175.049,196.485 174.929,196.248 173.073 C 196.134 172.185,195.952 170.768,195.842 169.925 C 195.496 167.267,195.363 159.852,195.594 156.146 C 195.948 150.464,196.564 147.110,198.801 138.698 C 199.159 137.353,199.884 137.592,200.382 139.219 M243.333 229.145 C 246.988 229.838,250.476 231.349,252.193 232.984 C 254.450 235.134,255.147 235.867,255.959 236.948 C 261.648 244.516,260.344 255.874,253.066 262.132 C 247.701 266.746,245.282 267.273,229.479 267.270 C 215.369 267.267,212.607 266.845,208.278 264.030 C 201.327 259.509,198.135 251.737,199.887 243.601 C 200.197 242.163,200.326 241.767,200.967 240.281 C 201.123 239.920,201.250 239.571,201.250 239.506 C 201.250 238.765,204.937 234.347,206.633 233.057 C 210.138 230.390,212.529 229.506,217.917 228.886 C 219.769 228.672,242.038 228.900,243.333 229.145 M183.161 229.181 C 186.584 229.866,188.733 231.113,190.947 233.697 C 193.833 237.065,194.192 238.885,194.141 249.864 C 194.098 258.924,193.879 258.117,196.384 258.122 C 197.737 258.124,198.106 258.192,198.207 258.455 C 198.414 258.993,198.344 266.535,198.129 266.875 C 197.955 267.150,194.486 267.188,168.958 267.188 C 143.431 267.188,139.961 267.150,139.787 266.875 C 139.484 266.396,139.526 258.682,139.833 258.375 C 139.984 258.224,140.713 258.125,141.669 258.125 C 144.163 258.125,143.945 259.012,144.020 248.542 C 144.078 240.481,144.126 239.364,144.456 238.438 C 146.152 233.681,149.957 230.158,154.345 229.283 C 156.136 228.926,181.441 228.836,183.161 229.181 M220.000 237.829 C 219.714 237.874,218.542 238.023,217.396 238.160 C 207.416 239.355,205.026 252.286,213.945 256.837 C 217.934 258.872,240.735 258.896,244.843 256.870 C 253.525 252.587,251.665 239.987,242.083 238.176 C 240.604 237.897,221.474 237.596,220.000 237.829 M156.042 238.303 C 155.169 238.529,154.300 239.156,153.698 239.996 L 153.125 240.796 153.125 249.347 L 153.125 257.898 153.802 258.020 C 155.480 258.323,184.592 258.030,184.802 257.708 C 184.929 257.514,184.985 254.276,184.951 249.167 L 184.896 240.938 184.401 240.142 C 184.129 239.705,183.527 239.095,183.063 238.788 L 182.218 238.229 169.390 238.199 C 162.335 238.182,156.328 238.229,156.042 238.303 M187.486 272.716 C 190.120 273.347,191.769 274.247,193.750 276.136 C 195.211 277.528,195.616 278.069,196.392 279.663 C 196.790 280.478,197.200 281.305,197.303 281.499 C 200.013 286.621,196.503 295.278,190.521 298.227 C 187.277 299.826,187.769 299.791,168.184 299.791 C 150.877 299.792,150.848 299.792,150.618 300.222 C 150.465 300.508,150.404 302.217,150.437 305.315 C 150.474 308.873,150.422 310.055,150.217 310.302 C 149.894 310.691,142.771 310.785,142.070 310.409 C 141.470 310.088,141.432 272.866,142.031 272.517 C 142.836 272.048,185.479 272.235,187.486 272.716 M247.139 272.802 C 251.583 273.864,255.052 277.237,256.663 282.061 C 257.189 283.637,257.367 309.719,256.856 310.335 C 256.493 310.773,248.702 310.757,248.338 310.318 C 248.151 310.093,248.091 308.725,248.113 305.194 C 248.135 301.787,248.073 300.292,247.901 300.085 C 247.568 299.684,211.276 299.641,210.875 300.042 C 210.695 300.222,210.625 301.662,210.625 305.208 C 210.625 308.755,210.555 310.195,210.375 310.375 C 209.921 310.829,202.231 310.717,201.809 310.251 C 201.340 309.732,201.290 286.850,201.752 283.854 C 202.576 278.512,206.487 274.110,211.563 272.812 C 213.145 272.408,245.450 272.398,247.139 272.802 M150.616 281.684 C 150.304 282.266,150.360 289.843,150.679 290.280 C 150.925 290.615,152.070 290.635,168.336 290.580 L 185.729 290.521 186.603 290.054 C 189.995 288.241,189.633 283.111,186.022 281.813 C 184.514 281.270,150.902 281.148,150.616 281.684 M213.987 281.679 C 212.887 281.900,211.875 282.636,211.218 283.693 C 210.616 284.661,210.331 290.103,210.865 290.441 C 211.333 290.737,247.577 290.673,247.875 290.375 C 248.198 290.052,248.210 285.836,247.892 284.688 C 247.587 283.591,246.653 282.436,245.679 281.952 C 244.815 281.522,216.003 281.274,213.987 281.679 M152.083 313.296 C 153.546 313.991,154.805 315.256,162.726 323.988 C 163.022 324.314,163.585 324.934,163.976 325.366 C 168.030 329.835,169.095 330.946,169.373 330.998 C 169.563 331.033,170.515 330.171,171.672 328.916 C 177.098 323.026,178.603 321.386,180.625 319.159 C 185.743 313.520,186.968 312.654,189.818 312.654 C 192.596 312.654,194.813 313.964,196.198 316.425 L 196.979 317.813 196.979 334.271 L 196.979 350.729 193.021 350.788 C 190.844 350.821,188.852 350.796,188.594 350.732 L 188.125 350.617 188.125 337.809 C 188.125 330.764,188.054 325.000,187.968 325.000 C 187.881 325.000,187.024 325.867,186.062 326.927 C 183.803 329.418,177.491 336.072,175.287 338.285 C 170.654 342.938,167.199 342.435,161.549 336.286 C 160.426 335.063,157.798 332.281,155.711 330.104 C 153.623 327.927,151.658 325.835,151.343 325.454 C 150.427 324.345,150.409 324.589,150.437 337.846 C 150.452 344.739,150.402 350.481,150.324 350.606 C 150.158 350.875,142.341 350.924,141.923 350.659 C 141.713 350.526,141.670 347.189,141.715 334.256 L 141.771 318.021 142.251 317.047 C 144.187 313.116,148.359 311.525,152.083 313.296 M248.103 313.179 C 252.579 314.826,255.996 318.680,256.968 323.177 C 257.253 324.500,257.136 350.463,256.844 350.649 C 256.387 350.938,248.670 350.879,248.375 350.583 C 248.194 350.403,248.125 348.933,248.125 345.283 C 248.125 342.353,248.043 340.182,247.929 340.112 C 247.673 339.954,211.077 339.954,210.821 340.112 C 210.707 340.182,210.625 342.404,210.625 345.407 C 210.625 349.932,210.584 350.596,210.295 350.707 C 209.491 351.016,202.122 350.842,201.786 350.506 C 201.387 350.108,201.292 327.465,201.675 324.406 C 202.346 319.058,205.976 314.709,211.146 313.059 C 212.734 312.552,212.561 312.557,230.104 312.585 L 246.563 312.611 248.103 313.179 M213.021 322.162 C 211.069 323.084,210.569 324.352,210.667 328.125 L 210.729 330.521 229.063 330.625 C 239.146 330.682,247.560 330.656,247.760 330.566 C 248.609 330.185,248.182 324.769,247.191 323.339 C 245.988 321.603,246.669 321.666,229.336 321.669 L 214.063 321.671 213.021 322.162 " stroke="none" fill="#FFFFFF" fill-rule="evenodd"></path></g></svg>