<svg id="svg" version="1.1" xmlns="http://www.w3.org/2000/svg" xmlns:xlink="http://www.w3.org/1999/xlink" width="400" height="400" viewBox="0, 0, 400,400"><g id="svgg"><path id="path0" d="M90.200 121.401 C 65.611 126.048,53.923 154.934,67.991 176.289 C 82.060 197.645,113.625 196.201,125.728 173.648 L 127.256 170.800 122.674 170.800 C 118.117 170.800,118.088 170.806,117.372 171.900 C 105.294 190.366,75.156 184.565,70.609 162.900 L 70.336 161.600 100.117 161.600 L 129.898 161.600 130.100 159.500 C 132.286 136.764,111.902 117.300,90.200 121.401 M245.222 121.249 C 233.874 122.564,225.422 127.925,221.243 136.460 C 218.164 142.749,218.252 141.888,218.096 167.314 L 217.957 190.028 222.079 189.914 L 226.200 189.800 226.409 167.800 C 226.613 146.371,226.642 145.731,227.513 143.140 C 230.431 134.463,237.159 130.210,249.318 129.355 L 253.200 129.082 253.200 124.941 L 253.200 120.800 250.700 120.852 C 249.325 120.880,246.860 121.059,245.222 121.249 M289.400 121.237 C 263.519 123.689,250.037 154.946,265.303 177.102 C 277.476 194.768,302.512 196.668,317.494 181.063 C 340.094 157.522,321.622 118.185,289.400 121.237 M145.766 122.367 C 145.283 122.851,145.661 166.780,146.172 169.600 C 151.635 199.708,195.753 198.514,200.401 168.132 C 200.664 166.414,200.778 157.382,200.709 143.800 L 200.600 122.200 197.605 122.081 C 195.957 122.015,194.202 122.063,193.705 122.188 L 192.800 122.415 192.800 144.124 C 192.800 162.362,192.702 166.213,192.185 168.216 C 187.122 187.828,161.758 189.670,154.684 170.939 C 153.819 168.650,153.796 168.108,153.600 145.467 L 153.400 122.335 149.666 122.267 C 147.613 122.230,145.858 122.275,145.766 122.367 M102.156 129.989 C 112.163 132.548,120.042 141.194,121.789 151.534 L 122.070 153.200 96.000 153.200 L 69.930 153.200 70.202 151.500 C 72.604 136.507,87.757 126.306,102.156 129.989 M299.200 131.458 C 317.532 136.571,323.256 161.022,309.402 175.040 C 294.509 190.108,270.282 179.655,269.302 157.739 C 268.510 140.027,283.302 127.025,299.200 131.458 M87.424 207.238 C 75.236 208.886,65.963 217.036,62.122 229.477 L 61.035 233.000 60.891 253.300 L 60.747 273.600 68.374 273.600 L 76.000 273.600 76.005 255.100 C 76.010 232.748,76.185 231.726,80.867 226.603 C 89.416 217.248,105.117 222.266,107.206 235.020 C 107.420 236.329,107.596 245.545,107.598 255.500 L 107.600 273.600 115.000 273.600 L 122.400 273.600 122.500 261.500 C 122.734 233.233,122.506 230.320,119.569 224.044 C 114.009 212.158,101.069 205.393,87.424 207.238 M152.800 207.242 C 130.042 210.685,117.653 236.472,128.620 257.575 C 139.117 277.777,165.635 281.453,181.274 264.875 C 183.538 262.475,187.200 257.162,187.200 256.277 C 187.200 256.125,183.670 256.000,179.355 256.000 L 171.510 256.000 169.152 257.772 C 159.454 265.063,145.488 261.669,139.991 250.687 C 139.119 248.943,138.504 247.355,138.626 247.158 C 138.752 246.953,149.786 246.800,164.400 246.800 C 182.615 246.800,190.031 246.673,190.226 246.358 C 190.863 245.327,190.475 236.586,189.635 233.049 C 185.603 216.081,169.403 204.731,152.800 207.242 M298.000 208.622 C 286.492 211.091,280.751 218.873,282.377 229.798 C 283.738 238.945,287.554 242.332,300.400 245.794 C 310.926 248.631,312.800 249.886,312.800 254.099 C 312.800 260.385,307.296 262.308,294.218 260.594 C 290.244 260.073,288.245 259.705,282.900 258.508 L 282.000 258.307 282.000 264.542 L 282.000 270.778 284.108 271.391 C 295.760 274.778,310.707 274.526,318.696 270.807 C 326.170 267.329,329.863 258.369,327.811 248.688 C 326.145 240.823,321.955 237.526,309.095 233.960 C 298.700 231.078,297.264 230.036,297.683 225.676 C 298.216 220.135,305.300 219.187,323.300 222.249 L 324.800 222.505 324.800 216.300 L 324.800 210.095 322.960 209.632 C 316.476 207.999,303.372 207.469,298.000 208.622 M188.959 211.100 C 190.392 225.437,197.094 251.583,203.673 268.500 L 205.656 273.600 215.985 273.600 L 226.313 273.600 227.961 269.100 C 230.903 261.069,235.200 246.007,235.200 243.726 C 235.200 241.148,236.071 243.115,237.405 248.706 C 239.086 255.748,240.817 261.445,243.481 268.700 L 245.280 273.600 255.587 273.600 L 265.894 273.600 267.146 270.282 C 273.054 254.628,279.485 229.582,282.599 210.100 L 282.870 208.400 274.718 208.400 L 266.566 208.400 265.654 214.300 C 263.117 230.695,256.180 260.000,254.835 260.000 C 253.524 260.000,246.639 232.634,243.816 216.200 L 242.510 208.600 235.740 208.491 L 228.969 208.382 228.055 214.291 C 225.577 230.308,218.234 260.000,216.751 260.000 C 215.117 260.000,205.216 216.193,205.201 208.900 C 205.200 208.516,203.282 208.400,196.945 208.400 L 188.690 208.400 188.959 211.100 M163.000 221.418 C 168.810 223.015,177.450 231.887,176.248 235.020 C 175.994 235.680,139.042 235.916,138.637 235.260 C 138.207 234.563,141.248 229.101,143.239 226.996 C 148.603 221.325,155.540 219.366,163.000 221.418 M345.568 247.313 C 331.440 253.278,335.419 273.601,350.715 273.600 C 364.813 273.598,369.226 253.960,356.524 247.745 C 353.306 246.171,348.704 245.989,345.568 247.313 " stroke="none" fill="#f9fafb" fill-rule="evenodd"></path><path id="path1" d="M0.000 200.000 L 0.000 400.000 200.000 400.000 L 400.000 400.000 400.000 200.000 L 400.000 0.000 200.000 0.000 L 0.000 0.000 0.000 200.000 M101.818 121.414 C 119.090 124.426,131.823 141.573,130.100 159.500 L 129.898 161.600 100.117 161.600 L 70.336 161.600 70.609 162.900 C 75.156 184.565,105.294 190.366,117.372 171.900 C 118.088 170.806,118.117 170.800,122.674 170.800 L 127.256 170.800 125.728 173.648 C 113.625 196.201,82.060 197.645,67.991 176.289 C 50.975 150.461,72.078 116.228,101.818 121.414 M253.200 124.941 L 253.200 129.082 249.318 129.355 C 237.159 130.210,230.431 134.463,227.513 143.140 C 226.642 145.731,226.613 146.371,226.409 167.800 L 226.200 189.800 222.079 189.914 L 217.957 190.028 218.096 167.314 C 218.252 141.888,218.164 142.749,221.243 136.460 C 226.070 126.600,236.358 121.150,250.700 120.852 L 253.200 120.800 253.200 124.941 M300.312 121.839 C 326.732 127.682,336.481 161.286,317.494 181.063 C 295.767 203.694,259.055 188.201,259.055 156.400 C 259.055 133.471,278.659 117.049,300.312 121.839 M153.600 145.467 C 153.796 168.108,153.819 168.650,154.684 170.939 C 161.758 189.670,187.122 187.828,192.185 168.216 C 192.702 166.213,192.800 162.362,192.800 144.124 L 192.800 122.415 193.705 122.188 C 194.202 122.063,195.957 122.015,197.605 122.081 L 200.600 122.200 200.709 143.800 C 200.778 157.382,200.664 166.414,200.401 168.132 C 195.753 198.514,151.635 199.708,146.172 169.600 C 145.661 166.780,145.283 122.851,145.766 122.367 C 145.858 122.275,147.613 122.230,149.666 122.267 L 153.400 122.335 153.600 145.467 M89.686 130.007 C 79.842 132.587,71.813 141.443,70.202 151.500 L 69.930 153.200 96.000 153.200 L 122.070 153.200 121.789 151.534 C 119.220 136.331,104.142 126.220,89.686 130.007 M289.800 130.789 C 269.779 134.039,262.067 160.383,276.800 175.194 C 292.016 190.492,317.044 178.788,316.987 156.400 C 316.948 140.630,304.047 128.477,289.800 130.789 M100.184 208.047 C 108.804 210.219,115.804 215.994,119.569 224.044 C 122.506 230.320,122.734 233.233,122.500 261.500 L 122.400 273.600 115.000 273.600 L 107.600 273.600 107.598 255.500 C 107.596 245.545,107.420 236.329,107.206 235.020 C 105.117 222.266,89.416 217.248,80.867 226.603 C 76.185 231.726,76.010 232.748,76.005 255.100 L 76.000 273.600 68.374 273.600 L 60.747 273.600 60.891 253.300 L 61.035 233.000 62.122 229.477 C 67.355 212.526,83.000 203.718,100.184 208.047 M165.200 207.858 C 177.005 210.718,186.704 220.717,189.635 233.049 C 190.475 236.586,190.863 245.327,190.226 246.358 C 190.031 246.673,182.615 246.800,164.400 246.800 C 149.786 246.800,138.752 246.953,138.626 247.158 C 138.504 247.355,139.119 248.943,139.991 250.687 C 145.488 261.669,159.454 265.063,169.152 257.772 L 171.510 256.000 179.355 256.000 C 183.670 256.000,187.200 256.125,187.200 256.277 C 187.200 257.162,183.538 262.475,181.274 264.875 C 165.635 281.453,139.117 277.777,128.620 257.575 C 115.038 231.437,137.349 201.113,165.200 207.858 M317.260 208.587 C 319.384 208.907,321.949 209.377,322.960 209.632 L 324.800 210.095 324.800 216.300 L 324.800 222.505 323.300 222.249 C 305.300 219.187,298.216 220.135,297.683 225.676 C 297.264 230.036,298.700 231.078,309.095 233.960 C 321.955 237.526,326.145 240.823,327.811 248.688 C 329.863 258.369,326.170 267.329,318.696 270.807 C 310.707 274.526,295.760 274.778,284.108 271.391 L 282.000 270.778 282.000 264.542 L 282.000 258.307 282.900 258.508 C 288.245 259.705,290.244 260.073,294.218 260.594 C 307.296 262.308,312.800 260.385,312.800 254.099 C 312.800 249.886,310.926 248.631,300.400 245.794 C 287.554 242.332,283.738 238.945,282.377 229.798 C 279.962 213.564,293.931 205.070,317.260 208.587 M205.201 208.900 C 205.216 216.193,215.117 260.000,216.751 260.000 C 218.234 260.000,225.577 230.308,228.055 214.291 L 228.969 208.382 235.740 208.491 L 242.510 208.600 243.816 216.200 C 246.639 232.634,253.524 260.000,254.835 260.000 C 256.180 260.000,263.117 230.695,265.654 214.300 L 266.566 208.400 274.718 208.400 L 282.870 208.400 282.599 210.100 C 279.485 229.582,273.054 254.628,267.146 270.282 L 265.894 273.600 255.587 273.600 L 245.280 273.600 243.481 268.700 C 240.817 261.445,239.086 255.748,237.405 248.706 C 236.071 243.115,235.200 241.148,235.200 243.726 C 235.200 246.007,230.903 261.069,227.961 269.100 L 226.313 273.600 215.985 273.600 L 205.656 273.600 203.673 268.500 C 197.094 251.583,190.392 225.437,188.959 211.100 L 188.690 208.400 196.945 208.400 C 203.282 208.400,205.200 208.516,205.201 208.900 M154.800 220.827 C 150.146 221.522,146.654 223.385,143.239 226.996 C 141.248 229.101,138.207 234.563,138.637 235.260 C 139.042 235.916,175.994 235.680,176.248 235.020 C 176.615 234.062,174.039 229.369,171.850 227.011 C 167.413 222.232,160.989 219.902,154.800 220.827 M356.524 247.745 C 369.226 253.960,364.813 273.598,350.715 273.600 C 335.419 273.601,331.440 253.278,345.568 247.313 C 348.704 245.989,353.306 246.171,356.524 247.745 " stroke="none" fill="#04458a" fill-rule="evenodd"></path></g></svg>