<svg id="svg" version="1.1" xmlns="http://www.w3.org/2000/svg" xmlns:xlink="http://www.w3.org/1999/xlink" width="400" height="400" viewBox="0, 0, 400,400"><g id="svgg"><path id="path0" d="M193.438 109.591 C 192.865 109.683,190.755 109.958,188.750 110.201 C 186.745 110.445,184.073 110.780,182.813 110.945 C 179.893 111.328,175.433 111.856,173.021 112.106 C 171.990 112.212,170.677 112.389,170.104 112.498 C 169.531 112.607,168.453 112.750,167.708 112.816 C 166.421 112.930,161.623 113.488,158.021 113.942 C 155.076 114.314,154.548 114.483,153.808 115.290 L 153.125 116.036 153.125 125.508 C 153.125 135.666,153.115 135.564,154.231 136.458 C 155.017 137.087,158.058 137.128,160.900 136.549 C 161.796 136.366,162.659 136.267,162.818 136.328 C 163.061 136.421,163.118 138.989,163.168 152.230 C 163.236 169.685,163.164 168.781,164.560 169.775 C 165.236 170.257,167.379 170.349,169.583 169.992 C 170.214 169.891,172.064 169.669,173.695 169.501 C 175.327 169.332,176.747 169.142,176.851 169.077 C 176.956 169.013,178.246 168.860,179.718 168.737 C 181.191 168.615,182.988 168.380,183.711 168.215 C 184.434 168.051,185.242 167.917,185.506 167.917 C 186.125 167.917,186.999 167.224,187.434 166.388 C 187.745 165.791,187.773 164.229,187.729 149.673 C 187.689 136.588,187.731 133.576,187.954 133.399 C 188.106 133.279,188.885 133.120,189.688 133.045 C 198.531 132.223,198.001 132.961,198.088 121.354 C 198.168 110.660,198.112 110.366,195.854 109.612 C 195.074 109.351,194.946 109.350,193.438 109.591 M143.646 115.740 C 141.172 116.107,136.926 116.627,135.104 116.785 C 134.302 116.855,133.294 117.001,132.864 117.110 C 132.435 117.219,131.075 117.394,129.844 117.500 C 125.283 117.892,118.500 118.954,117.188 119.482 C 116.844 119.620,115.906 119.950,115.104 120.215 C 113.552 120.729,112.087 121.395,110.729 122.203 C 110.271 122.476,109.742 122.772,109.555 122.860 C 108.730 123.249,105.951 125.746,104.803 127.131 C 99.944 132.991,98.737 143.060,102.112 149.583 C 102.966 151.234,105.079 153.421,106.719 154.351 C 108.260 155.225,108.386 154.804,104.896 160.479 C 104.667 160.852,104.151 161.702,103.750 162.368 C 102.651 164.194,102.419 164.570,101.484 166.042 C 101.011 166.786,100.535 167.602,100.426 167.853 C 100.317 168.105,99.895 168.784,99.489 169.362 C 99.082 169.940,98.750 170.468,98.750 170.535 C 98.750 170.603,98.432 171.143,98.043 171.736 C 96.302 174.386,96.000 175.867,96.925 177.218 C 97.979 178.756,98.484 178.775,106.771 177.590 C 107.917 177.427,109.886 177.204,111.148 177.096 C 112.410 176.988,113.863 176.805,114.377 176.689 C 114.892 176.573,116.438 176.381,117.813 176.261 C 122.039 175.894,122.083 175.862,124.190 171.671 C 125.799 168.470,126.042 168.433,126.042 171.391 C 126.042 174.422,127.582 175.279,131.771 174.581 C 132.458 174.466,134.371 174.229,136.022 174.054 C 137.672 173.878,139.089 173.694,139.170 173.644 C 139.251 173.594,140.385 173.453,141.690 173.331 C 146.237 172.905,148.734 172.403,149.347 171.789 L 149.896 171.241 150.000 145.480 C 150.057 131.312,150.055 119.068,149.996 118.270 C 149.792 115.538,148.493 115.020,143.646 115.740 M88.575 122.514 C 88.307 122.621,87.416 122.761,86.596 122.824 C 84.574 122.979,78.679 123.692,76.250 124.076 C 75.161 124.248,73.161 124.479,71.804 124.589 C 70.447 124.700,69.257 124.840,69.158 124.901 C 69.059 124.962,67.731 125.145,66.208 125.307 C 62.517 125.699,60.071 125.991,56.563 126.457 C 51.113 127.180,48.442 127.508,46.354 127.710 C 42.875 128.047,42.009 128.338,41.345 129.390 L 40.833 130.200 40.833 156.663 C 40.833 182.608,40.841 183.142,41.244 183.893 C 41.803 184.936,43.175 185.480,44.558 185.207 C 45.088 185.103,46.552 184.922,47.813 184.805 C 50.121 184.592,51.643 184.413,56.042 183.839 C 57.359 183.667,59.328 183.450,60.417 183.357 C 63.137 183.126,64.358 182.584,64.963 181.339 L 65.417 180.406 65.417 164.150 L 65.417 147.895 66.145 147.591 C 67.199 147.151,69.905 146.953,70.307 147.287 C 70.587 147.520,70.625 149.451,70.625 163.470 C 70.625 181.017,70.579 180.384,71.928 181.218 C 72.902 181.820,74.560 181.733,81.370 180.718 C 82.525 180.546,84.418 180.323,85.577 180.222 C 86.736 180.122,87.761 179.992,87.855 179.934 C 87.948 179.876,89.135 179.720,90.492 179.586 C 93.155 179.324,93.923 179.026,94.608 177.987 C 95.146 177.170,95.227 124.794,94.692 123.758 C 93.984 122.390,90.601 121.701,88.575 122.514 M351.771 150.407 C 349.384 150.759,347.599 150.987,343.438 151.470 C 342.406 151.589,340.672 151.819,339.583 151.981 C 338.495 152.143,336.760 152.336,335.729 152.411 C 331.777 152.697,330.770 153.895,331.237 157.755 C 331.455 159.562,331.744 162.703,332.096 167.083 C 332.211 168.516,332.442 170.719,332.610 171.979 C 332.777 173.240,333.007 175.677,333.121 177.396 C 333.236 179.115,333.380 180.755,333.441 181.042 C 333.503 181.328,333.647 182.922,333.761 184.583 C 333.951 187.336,334.115 188.990,334.499 192.004 C 334.790 194.286,336.384 195.020,339.896 194.486 C 341.042 194.312,342.465 194.169,343.059 194.168 C 343.653 194.167,344.388 194.072,344.691 193.957 C 344.994 193.842,346.383 193.654,347.777 193.540 C 355.031 192.946,356.246 192.222,356.252 188.485 C 356.253 187.772,356.395 185.875,356.568 184.271 C 356.740 182.667,356.974 180.182,357.088 178.750 C 357.202 177.318,357.385 175.490,357.496 174.688 C 357.606 173.885,357.751 172.245,357.819 171.042 C 357.886 169.839,358.071 167.917,358.229 166.771 C 358.387 165.625,358.573 163.516,358.641 162.083 C 358.710 160.651,358.903 158.502,359.071 157.307 C 360.065 150.209,359.127 149.322,351.771 150.407 M306.875 155.963 C 305.901 156.116,303.464 156.437,301.458 156.677 C 299.453 156.917,296.828 157.243,295.625 157.402 C 294.422 157.560,292.641 157.750,291.667 157.823 C 289.154 158.014,287.603 158.811,287.229 160.104 C 287.162 160.333,286.865 161.177,286.567 161.979 C 286.270 162.781,285.742 164.328,285.393 165.417 C 285.045 166.505,284.634 167.724,284.480 168.125 C 284.181 168.906,283.541 170.685,283.132 171.875 C 282.994 172.276,282.754 173.063,282.597 173.625 C 282.441 174.186,282.214 174.744,282.094 174.864 C 281.974 174.985,281.875 175.258,281.875 175.472 C 281.875 175.685,281.702 176.300,281.490 176.836 C 280.985 178.117,280.653 179.062,280.306 180.208 C 279.824 181.801,279.346 183.210,279.141 183.646 C 278.919 184.116,275.903 192.890,275.632 193.854 C 275.236 195.260,273.899 199.100,273.626 199.615 C 273.465 199.920,273.333 200.341,273.332 200.553 C 273.331 200.764,273.187 201.213,273.012 201.549 C 272.837 201.885,272.608 202.494,272.504 202.903 C 272.188 204.148,271.661 205.697,271.343 206.319 C 271.177 206.643,271.041 207.065,271.040 207.256 C 271.040 207.448,270.887 207.885,270.701 208.229 C 270.514 208.573,270.288 209.182,270.197 209.583 C 270.016 210.387,269.473 212.018,269.033 213.080 C 268.460 214.465,268.937 216.399,270.044 217.174 C 270.650 217.598,272.953 217.602,275.729 217.183 C 278.140 216.819,281.827 216.363,285.833 215.933 C 287.380 215.767,288.880 215.575,289.167 215.506 C 289.453 215.437,290.434 215.304,291.346 215.212 C 293.756 214.967,294.451 214.062,295.206 210.184 C 295.594 208.192,295.761 208.126,302.014 207.459 C 304.626 207.181,304.871 207.255,305.114 208.400 C 305.440 209.933,306.156 211.768,306.624 212.272 C 307.246 212.942,311.024 213.029,314.375 212.450 C 316.286 212.120,320.167 211.631,324.063 211.230 C 326.550 210.973,329.798 210.428,330.236 210.193 C 331.562 209.484,331.765 207.316,330.752 204.688 C 329.953 202.614,329.388 201.052,329.135 200.208 C 329.014 199.807,328.841 199.385,328.750 199.271 C 328.659 199.156,328.489 198.734,328.371 198.333 C 328.254 197.932,327.907 196.948,327.601 196.146 C 327.294 195.344,326.956 194.388,326.848 194.021 C 326.741 193.654,326.516 193.092,326.349 192.771 C 326.181 192.450,326.044 191.995,326.043 191.760 C 326.042 191.526,325.950 191.242,325.838 191.130 C 325.726 191.018,325.458 190.413,325.244 189.786 C 325.029 189.159,324.551 187.757,324.182 186.670 C 323.813 185.583,323.434 184.598,323.340 184.482 C 323.245 184.366,323.072 183.943,322.953 183.542 C 322.835 183.141,322.491 182.156,322.190 181.354 C 321.888 180.552,321.568 179.612,321.478 179.266 C 321.388 178.919,321.217 178.451,321.098 178.224 C 320.910 177.868,320.282 176.173,319.364 173.542 C 319.225 173.141,318.947 172.391,318.747 171.875 C 318.547 171.359,318.200 170.422,317.976 169.792 C 317.751 169.161,317.459 168.341,317.326 167.969 C 317.192 167.596,316.975 166.987,316.843 166.615 C 316.710 166.242,316.486 165.656,316.344 165.313 C 316.202 164.969,315.892 164.147,315.655 163.486 C 315.418 162.826,315.033 161.793,314.800 161.191 C 314.566 160.589,314.375 159.980,314.375 159.839 C 314.375 159.698,314.188 159.232,313.958 158.804 C 313.729 158.377,313.542 157.861,313.542 157.659 C 313.542 155.936,311.064 155.306,306.875 155.963 M262.604 161.474 C 261.917 161.566,260.417 161.740,259.271 161.862 C 254.595 162.357,253.143 162.532,251.354 162.816 C 250.323 162.980,248.682 163.169,247.708 163.238 C 245.594 163.386,244.432 163.763,243.685 164.542 L 243.132 165.119 243.077 181.719 C 243.028 196.148,242.980 198.359,242.708 198.627 C 242.361 198.970,238.504 199.693,238.017 199.507 C 237.748 199.403,237.708 197.361,237.708 183.574 C 237.708 166.208,237.736 166.708,236.733 165.705 C 235.740 164.712,233.930 164.754,225.827 165.959 C 224.621 166.138,222.793 166.363,221.765 166.459 C 215.425 167.051,214.154 167.398,213.617 168.682 C 213.254 169.551,213.190 221.817,213.550 222.852 C 214.039 224.254,215.809 224.650,219.063 224.085 C 219.979 223.926,221.620 223.729,222.708 223.648 C 223.797 223.567,225.326 223.370,226.107 223.209 C 226.888 223.048,227.920 222.917,228.399 222.917 C 228.879 222.917,230.677 222.726,232.396 222.493 C 234.115 222.259,236.505 221.934,237.708 221.770 C 243.447 220.989,243.182 220.892,243.119 223.739 C 242.946 231.642,242.975 231.663,252.396 230.294 C 253.542 230.128,255.417 229.909,256.563 229.809 C 260.758 229.441,261.733 228.753,262.489 225.628 C 262.586 225.225,262.918 224.240,263.225 223.438 C 263.533 222.635,263.861 221.698,263.953 221.354 C 264.045 221.010,264.272 220.381,264.456 219.955 C 264.641 219.529,264.792 219.013,264.793 218.809 C 264.794 218.605,264.925 218.186,265.086 217.879 C 265.246 217.571,265.444 217.009,265.526 216.629 C 265.607 216.249,265.775 215.750,265.899 215.521 C 266.227 214.913,267.080 212.448,267.089 212.083 C 267.094 211.911,267.279 211.396,267.500 210.938 C 267.721 210.479,267.906 209.943,267.910 209.745 C 267.913 209.548,268.092 208.985,268.307 208.495 C 268.727 207.538,268.894 207.059,269.711 204.479 C 270.001 203.563,270.377 202.528,270.545 202.179 C 271.198 200.831,271.464 198.843,271.138 197.746 C 270.828 196.703,270.259 196.302,268.229 195.697 L 267.604 195.511 267.493 179.578 C 267.383 163.836,267.343 162.972,266.694 162.222 C 265.929 161.340,264.953 161.162,262.604 161.474 M204.271 168.582 C 203.240 168.682,201.552 168.899,200.521 169.064 C 199.490 169.228,197.896 169.417,196.979 169.485 C 196.063 169.552,194.796 169.695,194.164 169.803 C 193.532 169.912,192.056 170.092,190.884 170.203 C 187.209 170.554,187.012 170.741,183.749 176.979 C 183.150 178.125,182.498 179.297,182.300 179.583 C 182.103 179.870,181.803 180.385,181.635 180.729 C 181.115 181.791,178.711 186.116,178.333 186.671 C 178.136 186.959,177.907 187.410,177.824 187.672 C 177.348 189.172,177.184 187.797,177.083 181.441 C 176.930 171.778,176.908 171.757,168.546 172.921 C 162.211 173.803,160.877 173.973,158.854 174.155 C 155.687 174.440,154.597 174.737,153.806 175.528 L 153.125 176.208 153.125 203.039 L 153.125 229.870 153.594 230.565 C 154.188 231.447,155.874 232.021,156.929 231.701 C 157.300 231.588,158.354 231.440,159.271 231.372 C 160.858 231.255,162.975 231.004,168.333 230.298 C 169.651 230.124,171.620 229.903,172.708 229.807 C 176.202 229.498,176.443 229.293,178.973 224.479 C 179.334 223.792,180.088 222.453,180.648 221.504 C 181.208 220.555,181.667 219.724,181.667 219.658 C 181.667 219.591,182.229 218.558,182.917 217.362 C 183.604 216.166,184.167 215.144,184.167 215.089 C 184.167 214.651,186.138 211.693,186.281 211.917 C 186.375 212.066,186.453 215.169,186.455 218.812 C 186.460 228.892,185.802 228.512,199.688 226.443 C 200.490 226.324,202.083 226.139,203.229 226.033 C 208.276 225.566,209.283 225.248,209.948 223.915 L 210.417 222.975 210.415 196.956 L 210.413 170.938 209.923 169.885 C 209.198 168.329,208.507 168.169,204.271 168.582 M145.313 175.819 C 144.740 175.905,143.240 176.090,141.979 176.230 C 140.719 176.370,139.031 176.579,138.229 176.695 C 137.427 176.810,135.552 177.030,134.063 177.183 C 125.115 178.104,125.663 177.438,125.641 187.425 C 125.622 195.843,125.782 195.295,123.252 195.640 C 122.348 195.763,121.393 195.810,121.131 195.744 L 120.655 195.625 120.588 188.698 C 120.497 179.322,120.559 179.451,116.173 179.526 C 114.668 179.551,112.969 179.673,112.396 179.796 C 111.823 179.918,110.417 180.108,109.271 180.216 C 108.125 180.325,106.438 180.551,105.521 180.718 C 104.604 180.885,103.057 181.080,102.083 181.152 C 99.849 181.317,97.335 181.788,96.940 182.116 C 95.772 183.086,95.833 181.524,95.833 210.090 L 95.833 236.239 96.291 237.180 C 97.125 238.897,99.232 239.088,105.521 238.019 C 106.438 237.864,107.938 237.681,108.854 237.613 C 109.771 237.545,111.505 237.357,112.708 237.196 C 113.911 237.035,115.612 236.816,116.488 236.709 C 120.487 236.220,120.493 236.206,120.625 226.155 L 120.729 218.248 122.083 217.971 C 122.828 217.819,123.906 217.721,124.479 217.754 L 125.521 217.813 125.625 225.530 C 125.718 232.446,125.767 233.307,126.097 233.809 C 126.870 234.988,128.856 235.510,130.626 234.998 C 131.027 234.882,132.432 234.695,133.750 234.583 C 135.068 234.471,136.943 234.243,137.917 234.077 C 138.891 233.911,140.625 233.673,141.771 233.548 C 148.066 232.864,148.962 232.640,149.657 231.580 C 149.971 231.100,150.000 228.795,150.000 204.171 L 150.000 177.286 149.305 176.527 C 148.534 175.686,147.462 175.496,145.313 175.819 M352.604 195.767 C 352.146 195.807,350.880 195.973,349.792 196.137 C 348.703 196.300,347.156 196.488,346.354 196.554 C 345.552 196.621,343.958 196.810,342.813 196.975 C 341.667 197.139,339.651 197.412,338.333 197.580 C 334.955 198.012,334.394 198.232,333.754 199.375 L 333.229 200.313 333.229 208.646 C 333.229 220.832,333.015 220.553,341.480 219.399 C 345.676 218.827,349.307 218.383,351.916 218.123 C 355.039 217.811,356.023 217.482,356.667 216.530 L 357.188 215.760 357.188 206.645 C 357.188 196.414,357.248 196.825,355.610 195.990 C 354.926 195.641,354.459 195.607,352.604 195.767 M353.333 221.664 C 351.901 221.871,349.042 222.242,346.979 222.487 C 344.917 222.732,342.245 223.067,341.042 223.232 C 339.839 223.396,337.784 223.631,336.475 223.754 C 335.167 223.876,334.028 224.020,333.943 224.072 C 333.858 224.124,332.819 224.261,331.634 224.375 C 330.449 224.489,328.495 224.721,327.292 224.890 C 324.031 225.349,321.822 225.613,319.271 225.849 C 318.010 225.966,316.561 226.155,316.050 226.271 C 315.538 226.386,313.731 226.619,312.033 226.789 C 310.335 226.959,308.708 227.189,308.418 227.299 C 308.127 227.410,307.357 227.502,306.705 227.504 C 306.054 227.506,304.255 227.692,302.708 227.917 C 301.161 228.142,299.474 228.330,298.958 228.335 C 298.443 228.339,297.646 228.430,297.188 228.535 C 296.729 228.640,294.963 228.872,293.263 229.050 C 291.563 229.228,290.092 229.422,289.995 229.482 C 289.898 229.542,288.805 229.682,287.565 229.793 C 286.326 229.904,284.328 230.130,283.125 230.295 C 278.319 230.956,275.555 231.287,274.013 231.385 C 273.124 231.442,271.833 231.617,271.146 231.773 C 270.458 231.929,269.146 232.113,268.229 232.181 C 267.313 232.249,265.531 232.441,264.271 232.607 C 263.010 232.773,260.385 233.103,258.438 233.340 C 256.490 233.576,253.911 233.909,252.708 234.080 C 251.505 234.250,249.554 234.478,248.371 234.587 C 247.189 234.696,246.146 234.832,246.052 234.889 C 245.959 234.947,244.770 235.088,243.410 235.204 C 242.050 235.319,240.000 235.551,238.854 235.719 C 237.708 235.888,235.177 236.219,233.229 236.456 C 231.281 236.693,228.656 237.026,227.396 237.197 C 226.135 237.368,224.214 237.595,223.125 237.702 C 222.036 237.808,220.865 237.945,220.521 238.005 C 220.177 238.066,218.958 238.206,217.813 238.317 C 216.667 238.428,214.745 238.659,213.542 238.831 C 211.099 239.179,206.749 239.724,205.000 239.901 C 204.370 239.965,202.823 240.153,201.563 240.319 C 200.302 240.485,198.427 240.712,197.396 240.823 C 196.365 240.934,194.724 241.126,193.750 241.251 C 192.776 241.375,190.573 241.657,188.854 241.877 C 183.109 242.612,180.739 242.897,179.375 243.018 C 178.630 243.083,177.036 243.274,175.833 243.442 C 170.446 244.194,168.522 244.437,166.771 244.587 C 165.740 244.676,163.771 244.903,162.396 245.092 C 159.977 245.424,157.011 245.797,153.333 246.231 C 152.359 246.345,150.859 246.536,150.000 246.654 C 146.048 247.195,141.487 247.716,140.728 247.712 C 140.269 247.710,139.566 247.803,139.165 247.919 C 138.765 248.035,137.313 248.225,135.938 248.341 C 134.563 248.457,132.734 248.683,131.875 248.843 C 131.016 249.003,129.609 249.190,128.750 249.257 C 127.891 249.325,126.250 249.515,125.104 249.679 C 122.937 249.990,121.199 250.202,116.458 250.731 C 114.911 250.904,113.514 251.095,113.352 251.154 C 113.190 251.214,111.653 251.403,109.935 251.576 C 108.218 251.748,106.744 251.931,106.660 251.983 C 106.576 252.035,105.395 252.174,104.035 252.293 C 98.387 252.785,97.146 253.204,96.271 254.919 C 95.607 256.218,95.579 299.267,96.241 300.353 C 96.966 301.542,97.488 301.740,99.538 301.600 C 101.827 301.443,107.289 300.862,107.707 300.730 C 107.879 300.676,108.958 300.536,110.104 300.419 C 111.250 300.302,113.125 300.069,114.271 299.902 C 115.417 299.735,117.198 299.501,118.229 299.383 C 120.876 299.080,123.268 298.793,126.042 298.445 C 127.359 298.280,129.124 298.087,129.964 298.017 C 130.803 297.946,132.115 297.756,132.880 297.594 C 133.645 297.432,134.727 297.297,135.285 297.295 C 135.843 297.293,137.578 297.112,139.140 296.893 C 140.701 296.673,143.573 296.303,145.521 296.069 C 147.469 295.836,149.859 295.539,150.833 295.410 C 151.807 295.280,152.979 295.133,153.438 295.083 C 154.555 294.959,160.756 294.197,162.708 293.944 C 163.568 293.833,165.208 293.646,166.354 293.528 C 167.500 293.411,169.375 293.177,170.521 293.008 C 171.667 292.839,173.515 292.616,174.629 292.512 C 175.742 292.409,176.733 292.275,176.830 292.215 C 176.928 292.155,178.216 292.002,179.694 291.874 C 181.172 291.747,182.807 291.556,183.326 291.449 C 183.846 291.343,185.115 291.170,186.146 291.065 C 187.844 290.893,190.135 290.608,194.896 289.979 C 195.813 289.858,197.688 289.636,199.063 289.484 C 203.545 288.991,205.691 288.730,207.984 288.400 C 209.224 288.221,211.006 288.006,211.942 287.922 C 213.637 287.769,216.939 287.346,220.966 286.764 C 222.127 286.596,223.428 286.458,223.856 286.458 C 224.284 286.458,225.614 286.313,226.812 286.135 C 228.011 285.957,229.757 285.733,230.693 285.637 C 231.630 285.542,233.568 285.309,235.000 285.120 C 240.216 284.433,240.981 284.338,243.438 284.068 C 247.909 283.576,250.060 283.301,252.604 282.896 C 253.979 282.678,255.468 282.499,255.913 282.499 C 256.357 282.500,257.623 282.360,258.725 282.188 C 259.827 282.016,261.620 281.790,262.708 281.684 C 263.797 281.578,265.438 281.393,266.354 281.272 C 268.710 280.961,274.073 280.294,278.229 279.794 C 280.177 279.559,282.474 279.271,283.333 279.154 C 284.193 279.036,285.833 278.852,286.979 278.745 C 288.125 278.638,289.672 278.448,290.417 278.322 C 291.738 278.099,294.439 277.761,298.646 277.293 C 299.792 277.165,301.667 276.925,302.813 276.759 C 303.958 276.592,305.991 276.363,307.329 276.250 C 308.667 276.136,309.980 275.962,310.246 275.863 C 310.512 275.764,311.665 275.616,312.810 275.534 C 313.954 275.451,315.360 275.299,315.935 275.195 C 317.016 275.000,321.136 274.499,324.583 274.144 C 325.672 274.032,327.359 273.808,328.333 273.647 C 329.307 273.486,330.760 273.299,331.563 273.231 C 332.365 273.163,334.005 272.973,335.208 272.809 C 338.448 272.367,342.322 271.899,344.766 271.654 C 345.956 271.535,347.363 271.355,347.893 271.254 C 348.423 271.154,349.700 271.010,350.731 270.935 C 351.761 270.859,352.885 270.715,353.229 270.615 C 353.573 270.514,354.628 270.337,355.574 270.221 C 357.457 269.992,358.262 269.563,358.972 268.416 C 359.364 267.781,359.375 267.159,359.369 245.392 L 359.364 223.021 358.793 222.333 C 357.851 221.198,357.149 221.112,353.333 221.664 M341.129 233.876 C 341.423 233.989,341.458 235.053,341.458 243.732 C 341.458 251.350,341.517 253.542,341.727 253.830 C 341.988 254.187,346.956 254.026,347.997 253.626 C 348.940 253.264,349.167 253.834,349.167 256.564 L 349.167 259.156 348.568 259.465 C 348.239 259.635,346.903 259.874,345.600 259.994 C 344.296 260.115,342.198 260.351,340.938 260.518 C 339.677 260.685,337.990 260.909,337.188 261.016 C 335.947 261.180,335.690 261.159,335.469 260.877 C 335.170 260.496,335.084 235.310,335.380 234.844 C 335.471 234.700,336.243 234.490,337.096 234.376 C 338.532 234.184,340.683 233.831,340.764 233.775 C 340.783 233.761,340.948 233.807,341.129 233.876 M324.680 236.194 C 324.971 236.622,325.208 237.088,325.208 237.230 C 325.208 237.372,325.386 237.890,325.603 238.380 C 326.095 239.491,326.627 240.798,327.619 243.333 C 328.045 244.422,328.567 245.706,328.780 246.186 C 328.993 246.667,329.167 247.160,329.167 247.281 C 329.167 247.402,329.354 247.851,329.583 248.279 C 329.813 248.706,330.000 249.175,330.000 249.321 C 330.000 249.466,330.188 249.935,330.417 250.362 C 330.646 250.790,330.836 251.282,330.840 251.455 C 330.844 251.629,330.984 251.953,331.152 252.175 C 331.321 252.398,331.458 252.712,331.458 252.873 C 331.458 253.166,331.574 253.452,332.584 255.664 C 332.881 256.316,333.125 256.925,333.126 257.018 C 333.128 257.322,334.084 259.545,334.352 259.868 C 334.496 260.041,334.583 260.447,334.546 260.769 C 334.472 261.413,334.895 261.306,330.313 261.842 C 328.243 262.085,327.896 261.950,327.460 260.730 C 326.864 259.065,326.881 259.071,323.817 259.348 C 319.134 259.772,318.579 260.044,318.255 262.074 C 318.066 263.256,316.428 263.840,312.903 263.984 C 311.129 264.056,310.927 263.773,311.641 262.210 C 312.119 261.165,313.089 258.487,313.666 256.624 C 313.833 256.084,314.060 255.586,314.172 255.517 C 314.284 255.449,314.375 255.205,314.375 254.977 C 314.375 254.749,314.530 254.263,314.721 253.896 C 314.911 253.529,315.139 252.948,315.228 252.604 C 315.378 252.030,315.994 250.311,316.797 248.229 C 317.117 247.399,318.412 243.867,319.051 242.083 C 319.235 241.568,319.465 240.958,319.561 240.729 C 320.124 239.387,320.625 237.975,320.625 237.729 C 320.625 236.729,321.754 235.826,323.333 235.561 C 323.620 235.513,323.921 235.461,324.003 235.445 C 324.085 235.429,324.389 235.767,324.680 236.194 M310.574 250.914 C 310.633 265.145,310.680 264.583,309.426 264.583 C 308.607 264.583,308.801 264.763,302.396 258.037 C 297.677 253.081,297.701 253.105,297.482 253.240 C 297.374 253.307,297.292 255.911,297.292 259.260 C 297.292 266.469,297.525 265.927,294.271 266.265 C 293.010 266.396,291.911 266.544,291.827 266.594 C 291.744 266.645,291.485 266.584,291.253 266.460 C 290.834 266.236,290.831 266.108,290.884 253.172 L 290.938 240.110 291.514 239.834 C 292.520 239.351,292.057 238.973,298.380 245.436 C 300.016 247.109,301.790 248.960,302.323 249.551 C 304.159 251.586,304.167 251.567,304.167 244.700 C 304.167 240.188,304.229 238.734,304.427 238.606 C 304.877 238.315,308.390 237.737,309.479 237.776 L 310.521 237.813 310.574 250.914 M282.604 241.894 C 290.637 245.666,291.187 259.981,283.533 266.074 C 281.048 268.052,279.270 268.646,275.833 268.646 L 273.021 268.645 271.458 267.860 C 266.973 265.607,264.326 258.318,265.946 252.680 C 267.670 246.678,269.933 243.855,274.535 241.965 C 276.682 241.083,280.800 241.047,282.604 241.894 M265.422 243.659 C 265.657 244.279,265.692 247.912,265.466 248.248 C 265.381 248.374,264.991 248.539,264.597 248.616 C 263.068 248.913,263.125 248.602,263.125 256.659 C 263.125 264.844,263.106 264.740,264.530 264.512 C 265.594 264.342,265.626 264.419,265.622 267.152 C 265.618 269.839,265.650 269.797,263.411 270.028 C 262.394 270.133,260.700 270.366,259.647 270.546 C 258.593 270.726,256.906 270.888,255.897 270.905 L 254.063 270.938 254.063 268.338 L 254.063 265.739 255.098 265.565 C 256.769 265.285,256.667 265.805,256.667 257.574 L 256.667 250.198 256.148 250.001 C 255.862 249.892,255.503 249.851,255.350 249.910 C 254.288 250.318,253.958 249.705,253.958 247.322 C 253.958 244.519,253.772 244.685,257.525 244.153 C 259.173 243.920,261.318 243.604,262.292 243.452 C 264.995 243.029,265.187 243.042,265.422 243.659 M252.458 245.042 C 252.840 245.423,252.800 250.087,252.412 250.475 C 252.231 250.656,251.479 250.817,250.485 250.887 C 249.588 250.951,248.596 251.103,248.281 251.226 L 247.708 251.448 247.708 261.349 C 247.708 273.321,248.089 272.338,243.438 272.379 L 241.563 272.396 241.508 262.623 C 241.468 255.381,241.389 252.772,241.203 252.548 C 241.004 252.308,240.463 252.261,238.549 252.321 L 236.146 252.396 236.087 249.821 C 236.011 246.470,235.909 246.543,241.354 246.046 C 243.420 245.858,245.243 245.632,248.854 245.115 C 251.346 244.758,252.158 244.742,252.458 245.042 M230.244 247.428 C 230.454 247.618,230.625 247.865,230.625 247.978 C 230.625 248.091,230.823 248.616,231.064 249.144 C 231.859 250.882,232.049 251.345,232.291 252.133 C 232.423 252.561,232.617 252.965,232.724 253.030 C 232.830 253.096,232.917 253.310,232.917 253.505 C 232.917 253.700,233.104 254.210,233.333 254.638 C 233.563 255.065,233.753 255.533,233.757 255.676 C 233.761 255.820,233.945 256.313,234.167 256.771 C 234.388 257.229,234.572 257.702,234.576 257.821 C 234.580 257.940,234.771 258.405,235.000 258.854 C 235.229 259.304,235.417 259.820,235.417 260.002 C 235.417 260.184,235.501 260.422,235.604 260.531 C 235.707 260.640,236.025 261.339,236.312 262.083 C 237.566 265.340,237.911 266.190,238.215 266.775 C 238.393 267.116,238.540 267.542,238.540 267.721 C 238.541 267.899,238.679 268.227,238.848 268.450 C 239.016 268.672,239.156 268.976,239.160 269.126 C 239.164 269.276,239.362 269.827,239.601 270.351 C 240.725 272.819,240.572 272.976,236.680 273.335 L 234.089 273.574 233.712 273.089 C 233.504 272.822,233.224 272.247,233.089 271.811 C 232.734 270.664,232.541 270.624,228.978 270.962 C 225.304 271.311,224.697 271.535,224.375 272.658 C 223.698 275.026,222.945 275.373,218.267 275.476 C 216.564 275.513,216.186 275.582,216.017 275.885 C 215.448 276.901,214.923 276.495,209.043 270.491 C 205.566 266.941,203.306 264.784,203.157 264.876 C 202.984 264.983,202.917 266.694,202.917 270.950 C 202.917 277.943,203.044 277.566,200.603 277.789 C 199.756 277.867,198.537 277.984,197.895 278.051 C 196.351 278.211,196.464 279.268,196.461 264.635 C 196.457 247.976,195.857 248.616,203.854 256.743 C 206.844 259.781,209.388 262.202,209.531 262.148 C 209.731 262.072,209.792 260.699,209.792 256.258 C 209.792 251.655,209.849 250.420,210.073 250.235 C 210.519 249.864,214.589 249.241,215.879 249.346 C 216.213 249.373,216.242 250.232,216.296 261.962 C 216.328 268.885,216.411 274.606,216.481 274.675 C 216.739 274.933,217.299 274.519,217.411 273.987 C 217.475 273.685,217.705 273.016,217.921 272.500 C 218.138 271.984,218.548 270.906,218.833 270.104 C 219.118 269.302,219.600 267.990,219.903 267.188 C 220.206 266.385,220.538 265.448,220.641 265.104 C 220.743 264.760,220.911 264.292,221.014 264.063 C 221.116 263.833,221.455 262.943,221.767 262.083 C 222.079 261.224,222.465 260.213,222.625 259.837 C 222.786 259.460,222.917 259.053,222.917 258.931 C 222.917 258.809,223.053 258.413,223.220 258.052 C 223.518 257.407,223.920 256.335,224.481 254.688 C 224.637 254.229,224.967 253.339,225.214 252.708 C 225.461 252.078,225.789 251.188,225.943 250.729 C 227.038 247.478,227.125 247.392,229.567 247.117 C 229.730 247.098,230.034 247.238,230.244 247.428 M275.597 248.231 C 270.134 251.076,271.073 262.292,276.775 262.292 C 280.723 262.292,283.789 256.443,282.181 251.979 C 282.016 251.521,281.879 251.005,281.877 250.833 C 281.848 248.547,278.028 246.964,275.597 248.231 M322.431 247.847 C 322.354 247.924,322.292 248.242,322.292 248.554 C 322.292 248.867,322.108 249.719,321.883 250.447 C 321.658 251.175,321.409 252.325,321.329 253.002 L 321.185 254.233 322.727 254.089 C 324.851 253.892,324.946 253.757,324.307 251.852 C 324.024 251.005,323.731 249.893,323.657 249.380 C 323.488 248.213,322.855 247.422,322.431 247.847 M190.018 253.550 C 191.501 254.304,193.305 256.086,193.340 256.832 C 193.344 256.913,193.529 257.354,193.750 257.813 C 194.839 260.066,194.176 264.944,192.469 267.246 C 191.027 269.189,190.956 268.615,193.199 273.151 C 195.816 278.446,195.817 278.414,193.094 278.639 C 192.252 278.709,191.036 278.866,190.393 278.989 C 189.023 279.250,188.428 279.036,188.107 278.164 C 186.129 272.806,185.038 271.144,183.696 271.447 C 182.471 271.723,182.500 271.622,182.500 275.547 C 182.500 279.711,182.437 279.930,181.197 280.085 C 180.711 280.146,179.490 280.302,178.485 280.432 C 175.774 280.784,176.042 282.212,176.042 267.385 C 176.042 253.271,175.974 253.960,177.359 253.957 C 177.723 253.956,178.911 253.804,180.000 253.620 C 184.835 252.800,188.495 252.775,190.018 253.550 M173.288 257.262 C 173.364 260.588,173.600 260.419,168.135 260.943 C 165.917 261.156,165.633 261.416,165.628 263.241 C 165.623 265.162,165.818 265.321,167.832 265.037 C 172.856 264.328,172.708 264.251,172.708 267.551 C 172.708 270.510,172.545 270.635,168.288 270.954 C 165.843 271.137,165.746 271.227,165.657 273.379 C 165.558 275.790,165.556 275.788,168.820 275.419 C 170.214 275.261,171.917 275.126,172.604 275.118 L 173.854 275.104 173.912 277.944 C 173.961 280.338,173.920 280.804,173.651 280.907 C 173.049 281.138,169.686 281.641,167.813 281.780 C 166.781 281.857,165.469 282.006,164.896 282.113 C 162.721 282.516,159.737 282.714,159.446 282.473 C 159.062 282.153,159.028 256.568,159.412 256.331 C 159.775 256.107,163.896 255.441,165.104 255.411 C 165.677 255.397,167.224 255.214,168.542 255.004 C 169.859 254.795,171.453 254.637,172.083 254.655 L 173.229 254.688 173.288 257.262 M157.817 256.927 C 157.881 257.185,157.906 258.474,157.873 259.792 L 157.813 262.188 156.667 262.341 C 156.036 262.425,155.069 262.549,154.516 262.616 C 152.595 262.850,152.708 262.179,152.708 273.301 C 152.708 284.905,153.062 283.727,149.484 284.036 C 146.123 284.326,146.472 285.480,146.408 273.882 L 146.354 264.063 143.899 264.063 C 140.933 264.063,141.049 264.178,141.045 261.230 C 141.041 258.380,141.033 258.388,144.313 257.985 C 145.665 257.819,147.755 257.551,148.958 257.390 C 150.161 257.228,151.901 257.038,152.825 256.967 C 153.748 256.896,154.826 256.763,155.221 256.670 C 156.715 256.318,157.689 256.414,157.817 256.927 M139.874 258.871 C 140.091 259.438,140.018 284.509,139.797 285.091 C 139.637 285.510,139.451 285.625,138.930 285.625 C 138.187 285.625,138.716 286.123,131.539 278.666 C 128.839 275.860,127.055 274.160,126.907 274.251 C 126.735 274.358,126.667 276.064,126.667 280.285 C 126.667 284.934,126.607 286.252,126.382 286.560 C 126.032 287.039,120.934 287.634,120.471 287.251 C 119.965 286.831,120.101 261.114,120.611 260.841 C 121.748 260.232,121.899 260.347,127.610 266.181 C 131.044 269.689,133.140 271.682,133.296 271.586 C 133.475 271.475,133.543 269.872,133.545 265.665 C 133.549 258.906,133.354 259.445,135.936 259.058 C 137.064 258.888,138.033 258.703,138.090 258.646 C 138.353 258.383,139.754 258.560,139.874 258.871 M228.613 258.782 C 228.492 258.936,228.190 259.906,227.942 260.938 C 227.694 261.969,227.340 263.345,227.155 263.995 C 226.708 265.564,226.855 265.926,227.868 265.758 C 228.296 265.687,228.933 265.629,229.283 265.627 C 230.354 265.623,230.737 265.200,230.433 264.355 C 229.937 262.971,229.166 260.195,229.152 259.736 C 229.126 258.915,228.868 258.458,228.613 258.782 M183.854 259.039 C 182.232 259.400,182.292 259.262,182.292 262.623 C 182.292 266.167,182.179 266.023,184.673 265.668 C 187.140 265.318,187.917 264.449,187.917 262.043 C 187.917 259.206,186.803 258.383,183.854 259.039 M117.667 261.708 C 117.823 261.865,117.917 262.646,117.917 263.802 C 117.917 266.100,117.627 266.766,116.553 266.940 C 115.147 267.168,115.208 266.817,115.208 274.696 C 115.208 282.990,115.125 282.499,116.533 282.503 C 118.152 282.508,118.147 282.499,118.080 285.320 L 118.021 287.795 117.292 287.931 C 116.891 288.006,115.250 288.223,113.646 288.415 C 112.042 288.606,109.903 288.881,108.893 289.027 C 106.301 289.400,106.250 289.353,106.250 286.583 C 106.250 284.165,106.382 283.910,107.758 283.663 C 108.951 283.450,108.958 283.399,108.958 275.656 C 108.958 267.570,109.009 267.917,107.832 267.917 C 106.568 267.917,106.458 267.713,106.458 265.361 C 106.458 262.622,106.496 262.567,108.487 262.401 C 109.377 262.327,110.620 262.165,111.250 262.041 C 112.407 261.815,115.021 261.543,116.573 261.488 C 117.037 261.472,117.529 261.571,117.667 261.708 " stroke="none" fill="#ec2f27" fill-rule="evenodd"></path><path id="path1" d="M0.000 200.000 L 0.000 400.000 200.000 400.000 L 400.000 400.000 400.000 200.000 L 400.000 0.000 200.000 0.000 L 0.000 0.000 0.000 200.000 M195.854 109.612 C 198.112 110.366,198.168 110.660,198.088 121.354 C 198.001 132.961,198.531 132.223,189.688 133.045 C 188.885 133.120,188.106 133.279,187.954 133.399 C 187.731 133.576,187.689 136.588,187.729 149.673 C 187.773 164.229,187.745 165.791,187.434 166.388 C 186.999 167.224,186.125 167.917,185.506 167.917 C 185.242 167.917,184.434 168.051,183.711 168.215 C 182.988 168.380,181.191 168.615,179.718 168.737 C 178.246 168.860,176.956 169.013,176.851 169.077 C 176.747 169.142,175.327 169.332,173.695 169.501 C 172.064 169.669,170.214 169.891,169.583 169.992 C 167.379 170.349,165.236 170.257,164.560 169.775 C 163.164 168.781,163.236 169.685,163.168 152.230 C 163.118 138.989,163.061 136.421,162.818 136.328 C 162.659 136.267,161.796 136.366,160.900 136.549 C 158.058 137.128,155.017 137.087,154.231 136.458 C 153.115 135.564,153.125 135.666,153.125 125.508 L 153.125 116.036 153.808 115.290 C 154.548 114.483,155.076 114.314,158.021 113.942 C 161.623 113.488,166.421 112.930,167.708 112.816 C 168.453 112.750,169.531 112.607,170.104 112.498 C 170.677 112.389,171.990 112.212,173.021 112.106 C 175.433 111.856,179.893 111.328,182.813 110.945 C 184.073 110.780,186.745 110.445,188.750 110.201 C 190.755 109.958,192.865 109.683,193.438 109.591 C 194.946 109.350,195.074 109.351,195.854 109.612 M149.076 116.118 C 150.171 117.066,150.121 115.476,150.000 145.480 L 149.896 171.241 149.347 171.789 C 148.734 172.403,146.237 172.905,141.690 173.331 C 140.385 173.453,139.251 173.594,139.170 173.644 C 139.089 173.694,137.672 173.878,136.022 174.054 C 134.371 174.229,132.458 174.466,131.771 174.581 C 127.582 175.279,126.042 174.422,126.042 171.391 C 126.042 168.433,125.799 168.470,124.190 171.671 C 122.083 175.862,122.039 175.894,117.813 176.261 C 116.438 176.381,114.892 176.573,114.377 176.689 C 113.863 176.805,112.410 176.988,111.148 177.096 C 109.886 177.204,107.917 177.427,106.771 177.590 C 98.484 178.775,97.979 178.756,96.925 177.218 C 96.000 175.867,96.302 174.386,98.043 171.736 C 98.432 171.143,98.750 170.603,98.750 170.535 C 98.750 170.468,99.082 169.940,99.489 169.362 C 99.895 168.784,100.317 168.105,100.426 167.853 C 100.535 167.602,101.011 166.786,101.484 166.042 C 102.419 164.570,102.651 164.194,103.750 162.368 C 104.151 161.702,104.667 160.852,104.896 160.479 C 108.386 154.804,108.260 155.225,106.719 154.351 C 98.897 149.914,97.881 135.479,104.803 127.131 C 105.951 125.746,108.730 123.249,109.555 122.860 C 109.742 122.772,110.271 122.476,110.729 122.203 C 112.087 121.395,113.552 120.729,115.104 120.215 C 115.906 119.950,116.844 119.620,117.188 119.482 C 118.500 118.954,125.283 117.892,129.844 117.500 C 131.075 117.394,132.435 117.219,132.864 117.110 C 133.294 117.001,134.302 116.855,135.104 116.785 C 136.926 116.627,141.172 116.107,143.646 115.740 C 147.076 115.231,148.134 115.305,149.076 116.118 M93.830 122.727 C 95.073 123.704,95.000 121.950,94.999 150.875 C 94.997 176.428,94.983 177.417,94.608 177.987 C 93.923 179.026,93.155 179.324,90.492 179.586 C 89.135 179.720,87.948 179.876,87.855 179.934 C 87.761 179.992,86.736 180.122,85.577 180.222 C 84.418 180.323,82.525 180.546,81.370 180.718 C 74.560 181.733,72.902 181.820,71.928 181.218 C 70.579 180.384,70.625 181.017,70.625 163.470 C 70.625 149.451,70.587 147.520,70.307 147.287 C 69.905 146.953,67.199 147.151,66.145 147.591 L 65.417 147.895 65.417 164.150 L 65.417 180.406 64.963 181.339 C 64.358 182.584,63.137 183.126,60.417 183.357 C 59.328 183.450,57.359 183.667,56.042 183.839 C 51.643 184.413,50.121 184.592,47.813 184.805 C 46.552 184.922,45.088 185.103,44.558 185.207 C 43.175 185.480,41.803 184.936,41.244 183.893 C 40.841 183.142,40.833 182.608,40.833 156.663 L 40.833 130.200 41.345 129.390 C 42.009 128.338,42.875 128.047,46.354 127.710 C 48.442 127.508,51.113 127.180,56.563 126.457 C 60.071 125.991,62.517 125.699,66.208 125.307 C 67.731 125.145,69.059 124.962,69.158 124.901 C 69.257 124.840,70.447 124.700,71.804 124.589 C 73.161 124.479,75.161 124.248,76.250 124.076 C 78.679 123.692,84.574 122.979,86.596 122.824 C 87.416 122.761,88.307 122.621,88.575 122.514 C 89.602 122.102,93.223 122.249,93.830 122.727 M357.784 150.198 C 359.331 150.786,359.699 152.821,359.071 157.307 C 358.903 158.502,358.710 160.651,358.641 162.083 C 358.573 163.516,358.387 165.625,358.229 166.771 C 358.071 167.917,357.886 169.839,357.819 171.042 C 357.751 172.245,357.606 173.885,357.496 174.688 C 357.385 175.490,357.202 177.318,357.088 178.750 C 356.974 180.182,356.740 182.667,356.568 184.271 C 356.395 185.875,356.253 187.772,356.252 188.485 C 356.246 192.222,355.031 192.946,347.777 193.540 C 346.383 193.654,344.994 193.842,344.691 193.957 C 344.388 194.072,343.653 194.167,343.059 194.168 C 342.465 194.169,341.042 194.312,339.896 194.486 C 336.384 195.020,334.790 194.286,334.499 192.004 C 334.115 188.990,333.951 187.336,333.761 184.583 C 333.647 182.922,333.503 181.328,333.441 181.042 C 333.380 180.755,333.236 179.115,333.121 177.396 C 333.007 175.677,332.777 173.240,332.610 171.979 C 332.442 170.719,332.211 168.516,332.096 167.083 C 331.744 162.703,331.455 159.562,331.237 157.755 C 330.770 153.895,331.777 152.697,335.729 152.411 C 336.760 152.336,338.495 152.143,339.583 151.981 C 340.672 151.819,342.406 151.589,343.438 151.470 C 347.599 150.987,349.384 150.759,351.771 150.407 C 354.600 149.990,357.016 149.906,357.784 150.198 M312.683 156.458 C 313.155 156.916,313.542 157.457,313.542 157.659 C 313.542 157.861,313.729 158.377,313.958 158.804 C 314.188 159.232,314.375 159.698,314.375 159.839 C 314.375 159.980,314.566 160.589,314.800 161.191 C 315.033 161.793,315.418 162.826,315.655 163.486 C 315.892 164.147,316.202 164.969,316.344 165.313 C 316.486 165.656,316.710 166.242,316.843 166.615 C 316.975 166.987,317.192 167.596,317.326 167.969 C 317.459 168.341,317.751 169.161,317.976 169.792 C 318.200 170.422,318.547 171.359,318.747 171.875 C 318.947 172.391,319.225 173.141,319.364 173.542 C 320.282 176.173,320.910 177.868,321.098 178.224 C 321.217 178.451,321.388 178.919,321.478 179.266 C 321.568 179.612,321.888 180.552,322.190 181.354 C 322.491 182.156,322.835 183.141,322.953 183.542 C 323.072 183.943,323.245 184.366,323.340 184.482 C 323.434 184.598,323.813 185.583,324.182 186.670 C 324.551 187.757,325.029 189.159,325.244 189.786 C 325.458 190.413,325.726 191.018,325.838 191.130 C 325.950 191.242,326.042 191.526,326.043 191.760 C 326.044 191.995,326.181 192.450,326.349 192.771 C 326.516 193.092,326.741 193.654,326.848 194.021 C 326.956 194.388,327.294 195.344,327.601 196.146 C 327.907 196.948,328.254 197.932,328.371 198.333 C 328.489 198.734,328.659 199.156,328.750 199.271 C 328.841 199.385,329.014 199.807,329.135 200.208 C 329.388 201.052,329.953 202.614,330.752 204.688 C 331.765 207.316,331.562 209.484,330.236 210.193 C 329.798 210.428,326.550 210.973,324.063 211.230 C 320.167 211.631,316.286 212.120,314.375 212.450 C 311.024 213.029,307.246 212.942,306.624 212.272 C 306.156 211.768,305.440 209.933,305.114 208.400 C 304.871 207.255,304.626 207.181,302.014 207.459 C 295.761 208.126,295.594 208.192,295.206 210.184 C 294.451 214.062,293.756 214.967,291.346 215.212 C 290.434 215.304,289.453 215.437,289.167 215.506 C 288.880 215.575,287.380 215.767,285.833 215.933 C 281.827 216.363,278.140 216.819,275.729 217.183 C 272.953 217.602,270.650 217.598,270.044 217.174 C 268.937 216.399,268.460 214.465,269.033 213.080 C 269.473 212.018,270.016 210.387,270.197 209.583 C 270.288 209.182,270.514 208.573,270.701 208.229 C 270.887 207.885,271.040 207.448,271.040 207.256 C 271.041 207.065,271.177 206.643,271.343 206.319 C 271.661 205.697,272.188 204.148,272.504 202.903 C 272.608 202.494,272.837 201.885,273.012 201.549 C 273.187 201.213,273.331 200.764,273.332 200.553 C 273.333 200.341,273.465 199.920,273.626 199.615 C 273.899 199.100,275.236 195.260,275.632 193.854 C 275.903 192.890,278.919 184.116,279.141 183.646 C 279.346 183.210,279.824 181.801,280.306 180.208 C 280.653 179.062,280.985 178.117,281.490 176.836 C 281.702 176.300,281.875 175.685,281.875 175.472 C 281.875 175.258,281.974 174.985,282.094 174.864 C 282.214 174.744,282.441 174.186,282.597 173.625 C 282.754 173.063,282.994 172.276,283.132 171.875 C 283.541 170.685,284.181 168.906,284.480 168.125 C 284.634 167.724,285.045 166.505,285.393 165.417 C 285.742 164.328,286.270 162.781,286.567 161.979 C 286.865 161.177,287.162 160.333,287.229 160.104 C 287.603 158.811,289.154 158.014,291.667 157.823 C 292.641 157.750,294.422 157.560,295.625 157.402 C 296.828 157.243,299.453 156.917,301.458 156.677 C 303.464 156.437,305.901 156.116,306.875 155.963 C 310.485 155.396,311.696 155.500,312.683 156.458 M265.656 161.545 C 267.438 162.290,267.367 161.599,267.493 179.578 L 267.604 195.511 268.229 195.697 C 270.259 196.302,270.828 196.703,271.138 197.746 C 271.464 198.843,271.198 200.831,270.545 202.179 C 270.377 202.528,270.001 203.563,269.711 204.479 C 268.894 207.059,268.727 207.538,268.307 208.495 C 268.092 208.985,267.913 209.548,267.910 209.745 C 267.906 209.943,267.721 210.479,267.500 210.938 C 267.279 211.396,267.094 211.911,267.089 212.083 C 267.080 212.448,266.227 214.913,265.899 215.521 C 265.775 215.750,265.607 216.249,265.526 216.629 C 265.444 217.009,265.246 217.571,265.086 217.879 C 264.925 218.186,264.794 218.605,264.793 218.809 C 264.792 219.013,264.641 219.529,264.456 219.955 C 264.272 220.381,264.045 221.010,263.953 221.354 C 263.861 221.698,263.533 222.635,263.225 223.438 C 262.918 224.240,262.586 225.225,262.489 225.628 C 261.733 228.753,260.758 229.441,256.563 229.809 C 255.417 229.909,253.542 230.128,252.396 230.294 C 242.975 231.663,242.946 231.642,243.119 223.739 C 243.182 220.892,243.447 220.989,237.708 221.770 C 236.505 221.934,234.115 222.259,232.396 222.493 C 230.677 222.726,228.879 222.917,228.399 222.917 C 227.920 222.917,226.888 223.048,226.107 223.209 C 225.326 223.370,223.797 223.567,222.708 223.648 C 221.620 223.729,219.979 223.926,219.063 224.085 C 215.809 224.650,214.039 224.254,213.550 222.852 C 213.190 221.817,213.254 169.551,213.617 168.682 C 214.154 167.398,215.425 167.051,221.765 166.459 C 222.793 166.363,224.621 166.138,225.827 165.959 C 233.930 164.754,235.740 164.712,236.733 165.705 C 237.736 166.708,237.708 166.208,237.708 183.574 C 237.708 197.361,237.748 199.403,238.017 199.507 C 238.504 199.693,242.361 198.970,242.708 198.627 C 242.980 198.359,243.028 196.148,243.077 181.719 L 243.132 165.119 243.685 164.542 C 244.432 163.763,245.594 163.386,247.708 163.238 C 248.682 163.169,250.323 162.980,251.354 162.816 C 253.143 162.532,254.595 162.357,259.271 161.862 C 260.417 161.740,261.917 161.566,262.604 161.474 C 264.526 161.218,264.894 161.227,265.656 161.545 M208.598 168.583 C 209.308 168.796,209.506 168.991,209.923 169.885 L 210.413 170.938 210.415 196.956 L 210.417 222.975 209.948 223.915 C 209.283 225.248,208.276 225.566,203.229 226.033 C 202.083 226.139,200.490 226.324,199.688 226.443 C 190.464 227.817,188.517 227.908,187.532 227.009 C 186.479 226.046,186.459 225.894,186.455 218.812 C 186.453 215.169,186.375 212.066,186.281 211.917 C 186.138 211.693,184.167 214.651,184.167 215.089 C 184.167 215.144,183.604 216.166,182.917 217.362 C 182.229 218.558,181.667 219.591,181.667 219.658 C 181.667 219.724,181.208 220.555,180.648 221.504 C 180.088 222.453,179.334 223.792,178.973 224.479 C 176.443 229.293,176.202 229.498,172.708 229.807 C 171.620 229.903,169.651 230.124,168.333 230.298 C 162.975 231.004,160.858 231.255,159.271 231.372 C 158.354 231.440,157.300 231.588,156.929 231.701 C 155.874 232.021,154.188 231.447,153.594 230.565 L 153.125 229.870 153.125 203.039 L 153.125 176.208 153.806 175.528 C 154.597 174.737,155.687 174.440,158.854 174.155 C 160.877 173.973,162.211 173.803,168.546 172.921 C 176.908 171.757,176.930 171.778,177.083 181.441 C 177.184 187.797,177.348 189.172,177.824 187.672 C 177.907 187.410,178.136 186.959,178.333 186.671 C 178.711 186.116,181.115 181.791,181.635 180.729 C 181.803 180.385,182.103 179.870,182.300 179.583 C 182.498 179.297,183.150 178.125,183.749 176.979 C 187.012 170.741,187.209 170.554,190.884 170.203 C 192.056 170.092,193.532 169.912,194.164 169.803 C 194.796 169.695,196.063 169.552,196.979 169.485 C 197.896 169.417,199.490 169.228,200.521 169.064 C 202.438 168.758,205.507 168.425,206.955 168.366 C 207.400 168.348,208.140 168.446,208.598 168.583 M149.305 176.527 L 150.000 177.286 150.000 204.171 C 150.000 228.795,149.971 231.100,149.657 231.580 C 148.962 232.640,148.066 232.864,141.771 233.548 C 140.625 233.673,138.891 233.911,137.917 234.077 C 136.943 234.243,135.068 234.471,133.750 234.583 C 132.432 234.695,131.027 234.882,130.626 234.998 C 128.856 235.510,126.870 234.988,126.097 233.809 C 125.767 233.307,125.718 232.446,125.625 225.530 L 125.521 217.813 124.479 217.754 C 123.906 217.721,122.828 217.819,122.083 217.971 L 120.729 218.248 120.625 226.155 C 120.493 236.206,120.487 236.220,116.488 236.709 C 115.612 236.816,113.911 237.035,112.708 237.196 C 111.505 237.357,109.771 237.545,108.854 237.613 C 107.938 237.681,106.438 237.864,105.521 238.019 C 99.232 239.088,97.125 238.897,96.291 237.180 L 95.833 236.239 95.833 210.090 C 95.833 181.524,95.772 183.086,96.940 182.116 C 97.335 181.788,99.849 181.317,102.083 181.152 C 103.057 181.080,104.604 180.885,105.521 180.718 C 106.438 180.551,108.125 180.325,109.271 180.216 C 110.417 180.108,111.823 179.918,112.396 179.796 C 112.969 179.673,114.668 179.551,116.173 179.526 C 120.559 179.451,120.497 179.322,120.588 188.698 L 120.655 195.625 121.131 195.744 C 121.393 195.810,122.348 195.763,123.252 195.640 C 125.782 195.295,125.622 195.843,125.641 187.425 C 125.663 177.438,125.115 178.104,134.063 177.183 C 135.552 177.030,137.427 176.810,138.229 176.695 C 139.031 176.579,140.719 176.370,141.979 176.230 C 143.240 176.090,144.740 175.905,145.313 175.819 C 147.462 175.496,148.534 175.686,149.305 176.527 M355.610 195.990 C 357.248 196.825,357.188 196.414,357.188 206.645 L 357.188 215.760 356.667 216.530 C 356.023 217.482,355.039 217.811,351.916 218.123 C 349.307 218.383,345.676 218.827,341.480 219.399 C 333.015 220.553,333.229 220.832,333.229 208.646 L 333.229 200.313 333.754 199.375 C 334.394 198.232,334.955 198.012,338.333 197.580 C 339.651 197.412,341.667 197.139,342.813 196.975 C 343.958 196.810,345.552 196.621,346.354 196.554 C 347.156 196.488,348.703 196.300,349.792 196.137 C 353.586 195.567,354.724 195.538,355.610 195.990 M357.392 221.452 C 357.928 221.577,358.424 221.888,358.793 222.333 L 359.364 223.021 359.369 245.392 C 359.375 267.159,359.364 267.781,358.972 268.416 C 358.262 269.563,357.457 269.992,355.574 270.221 C 354.628 270.337,353.573 270.514,353.229 270.615 C 352.885 270.715,351.761 270.859,350.731 270.935 C 349.700 271.010,348.423 271.154,347.893 271.254 C 347.363 271.355,345.956 271.535,344.766 271.654 C 342.322 271.899,338.448 272.367,335.208 272.809 C 334.005 272.973,332.365 273.163,331.563 273.231 C 330.760 273.299,329.307 273.486,328.333 273.647 C 327.359 273.808,325.672 274.032,324.583 274.144 C 321.136 274.499,317.016 275.000,315.935 275.195 C 315.360 275.299,313.954 275.451,312.810 275.534 C 311.665 275.616,310.512 275.764,310.246 275.863 C 309.980 275.962,308.667 276.136,307.329 276.250 C 305.991 276.363,303.958 276.592,302.813 276.759 C 301.667 276.925,299.792 277.165,298.646 277.293 C 294.439 277.761,291.738 278.099,290.417 278.322 C 289.672 278.448,288.125 278.638,286.979 278.745 C 285.833 278.852,284.193 279.036,283.333 279.154 C 282.474 279.271,280.177 279.559,278.229 279.794 C 274.073 280.294,268.710 280.961,266.354 281.272 C 265.438 281.393,263.797 281.578,262.708 281.684 C 261.620 281.790,259.827 282.016,258.725 282.188 C 257.623 282.360,256.357 282.500,255.913 282.499 C 255.468 282.499,253.979 282.678,252.604 282.896 C 250.060 283.301,247.909 283.576,243.438 284.068 C 240.981 284.338,240.216 284.433,235.000 285.120 C 233.568 285.309,231.630 285.542,230.693 285.637 C 229.757 285.733,228.011 285.957,226.812 286.135 C 225.614 286.313,224.284 286.458,223.856 286.458 C 223.428 286.458,222.127 286.596,220.966 286.764 C 216.939 287.346,213.637 287.769,211.942 287.922 C 211.006 288.006,209.224 288.221,207.984 288.400 C 205.691 288.730,203.545 288.991,199.063 289.484 C 197.688 289.636,195.813 289.858,194.896 289.979 C 190.135 290.608,187.844 290.893,186.146 291.065 C 185.115 291.170,183.846 291.343,183.326 291.449 C 182.807 291.556,181.172 291.747,179.694 291.874 C 178.216 292.002,176.928 292.155,176.830 292.215 C 176.733 292.275,175.742 292.409,174.629 292.512 C 173.515 292.616,171.667 292.839,170.521 293.008 C 169.375 293.177,167.500 293.411,166.354 293.528 C 165.208 293.646,163.568 293.833,162.708 293.944 C 160.756 294.197,154.555 294.959,153.438 295.083 C 152.979 295.133,151.807 295.280,150.833 295.410 C 149.859 295.539,147.469 295.836,145.521 296.069 C 143.573 296.303,140.701 296.673,139.140 296.893 C 137.578 297.112,135.843 297.293,135.285 297.295 C 134.727 297.297,133.645 297.432,132.880 297.594 C 132.115 297.756,130.803 297.946,129.964 298.017 C 129.124 298.087,127.359 298.280,126.042 298.445 C 123.268 298.793,120.876 299.080,118.229 299.383 C 117.198 299.501,115.417 299.735,114.271 299.902 C 113.125 300.069,111.250 300.302,110.104 300.419 C 108.958 300.536,107.879 300.676,107.707 300.730 C 107.289 300.862,101.827 301.443,99.538 301.600 C 97.488 301.740,96.966 301.542,96.241 300.353 C 95.579 299.267,95.607 256.218,96.271 254.919 C 97.146 253.204,98.387 252.785,104.035 252.293 C 105.395 252.174,106.576 252.035,106.660 251.983 C 106.744 251.931,108.218 251.748,109.935 251.576 C 111.653 251.403,113.190 251.214,113.352 251.154 C 113.514 251.095,114.911 250.904,116.458 250.731 C 121.199 250.202,122.937 249.990,125.104 249.679 C 126.250 249.515,127.891 249.325,128.750 249.257 C 129.609 249.190,131.016 249.003,131.875 248.843 C 132.734 248.683,134.563 248.457,135.938 248.341 C 137.313 248.225,138.765 248.035,139.165 247.919 C 139.566 247.803,140.269 247.710,140.728 247.712 C 141.487 247.716,146.048 247.195,150.000 246.654 C 150.859 246.536,152.359 246.345,153.333 246.231 C 157.011 245.797,159.977 245.424,162.396 245.092 C 163.771 244.903,165.740 244.676,166.771 244.587 C 168.522 244.437,170.446 244.194,175.833 243.442 C 177.036 243.274,178.630 243.083,179.375 243.018 C 180.739 242.897,183.109 242.612,188.854 241.877 C 190.573 241.657,192.776 241.375,193.750 241.251 C 194.724 241.126,196.365 240.934,197.396 240.823 C 198.427 240.712,200.302 240.485,201.563 240.319 C 202.823 240.153,204.370 239.965,205.000 239.901 C 206.749 239.724,211.099 239.179,213.542 238.831 C 214.745 238.659,216.667 238.428,217.813 238.317 C 218.958 238.206,220.177 238.066,220.521 238.005 C 220.865 237.945,222.036 237.808,223.125 237.702 C 224.214 237.595,226.135 237.368,227.396 237.197 C 228.656 237.026,231.281 236.693,233.229 236.456 C 235.177 236.219,237.708 235.888,238.854 235.719 C 240.000 235.551,242.050 235.319,243.410 235.204 C 244.770 235.088,245.959 234.947,246.052 234.889 C 246.146 234.832,247.189 234.696,248.371 234.587 C 249.554 234.478,251.505 234.250,252.708 234.080 C 253.911 233.909,256.490 233.576,258.438 233.340 C 260.385 233.103,263.010 232.773,264.271 232.607 C 265.531 232.441,267.313 232.249,268.229 232.181 C 269.146 232.113,270.458 231.929,271.146 231.773 C 271.833 231.617,273.124 231.442,274.013 231.385 C 275.555 231.287,278.319 230.956,283.125 230.295 C 284.328 230.130,286.326 229.904,287.565 229.793 C 288.805 229.682,289.898 229.542,289.995 229.482 C 290.092 229.422,291.563 229.228,293.263 229.050 C 294.963 228.872,296.729 228.640,297.188 228.535 C 297.646 228.430,298.443 228.339,298.958 228.335 C 299.474 228.330,301.161 228.142,302.708 227.917 C 304.255 227.692,306.054 227.506,306.705 227.504 C 307.357 227.502,308.127 227.410,308.418 227.299 C 308.708 227.189,310.335 226.959,312.033 226.789 C 313.731 226.619,315.538 226.386,316.050 226.271 C 316.561 226.155,318.010 225.966,319.271 225.849 C 321.822 225.613,324.031 225.349,327.292 224.890 C 328.495 224.721,330.449 224.489,331.634 224.375 C 332.819 224.261,333.858 224.124,333.943 224.072 C 334.028 224.020,335.167 223.876,336.475 223.754 C 337.784 223.631,339.839 223.396,341.042 223.232 C 342.245 223.067,344.917 222.732,346.979 222.487 C 349.042 222.242,351.901 221.871,353.333 221.664 C 356.484 221.208,356.365 221.214,357.392 221.452 M339.688 233.984 C 339.115 234.085,337.948 234.262,337.096 234.376 C 336.243 234.490,335.471 234.700,335.380 234.844 C 335.084 235.310,335.170 260.496,335.469 260.877 C 335.690 261.159,335.947 261.180,337.188 261.016 C 337.990 260.909,339.677 260.685,340.938 260.518 C 342.198 260.351,344.296 260.115,345.600 259.994 C 346.903 259.874,348.239 259.635,348.568 259.465 L 349.167 259.156 349.167 256.564 C 349.167 253.834,348.940 253.264,347.997 253.626 C 346.956 254.026,341.988 254.187,341.727 253.830 C 341.517 253.542,341.458 251.350,341.458 243.732 C 341.458 233.964,341.413 233.321,340.764 233.775 C 340.745 233.788,340.260 233.882,339.688 233.984 M323.333 235.561 C 321.754 235.826,320.625 236.729,320.625 237.729 C 320.625 237.975,320.124 239.387,319.561 240.729 C 319.465 240.958,319.235 241.568,319.051 242.083 C 318.412 243.867,317.117 247.399,316.797 248.229 C 315.994 250.311,315.378 252.030,315.228 252.604 C 315.139 252.948,314.911 253.529,314.721 253.896 C 314.530 254.263,314.375 254.749,314.375 254.977 C 314.375 255.205,314.284 255.449,314.172 255.517 C 314.060 255.586,313.833 256.084,313.666 256.624 C 313.089 258.487,312.119 261.165,311.641 262.210 C 310.927 263.773,311.129 264.056,312.903 263.984 C 316.428 263.840,318.066 263.256,318.255 262.074 C 318.579 260.044,319.134 259.772,323.817 259.348 C 326.881 259.071,326.864 259.065,327.460 260.730 C 327.896 261.950,328.243 262.085,330.313 261.842 C 334.895 261.306,334.472 261.413,334.546 260.769 C 334.583 260.447,334.496 260.041,334.352 259.868 C 334.084 259.545,333.128 257.322,333.126 257.018 C 333.125 256.925,332.881 256.316,332.584 255.664 C 331.574 253.452,331.458 253.166,331.458 252.873 C 331.458 252.712,331.321 252.398,331.152 252.175 C 330.984 251.953,330.844 251.629,330.840 251.455 C 330.836 251.282,330.646 250.790,330.417 250.362 C 330.188 249.935,330.000 249.466,330.000 249.321 C 330.000 249.175,329.813 248.706,329.583 248.279 C 329.354 247.851,329.167 247.402,329.167 247.281 C 329.167 247.160,328.993 246.667,328.780 246.186 C 328.567 245.706,328.045 244.422,327.619 243.333 C 326.627 240.798,326.095 239.491,325.603 238.380 C 325.386 237.890,325.208 237.372,325.208 237.230 C 325.208 236.900,324.200 235.407,324.003 235.445 C 323.921 235.461,323.620 235.513,323.333 235.561 M306.563 238.088 C 305.531 238.280,304.570 238.513,304.427 238.606 C 304.229 238.734,304.167 240.188,304.167 244.700 C 304.167 251.567,304.159 251.586,302.323 249.551 C 301.790 248.960,300.016 247.109,298.380 245.436 C 292.057 238.973,292.520 239.351,291.514 239.834 L 290.938 240.110 290.884 253.172 C 290.831 266.108,290.834 266.236,291.253 266.460 C 291.485 266.584,291.744 266.645,291.827 266.594 C 291.911 266.544,293.010 266.396,294.271 266.265 C 297.525 265.927,297.292 266.469,297.292 259.260 C 297.292 255.911,297.374 253.307,297.482 253.240 C 297.701 253.105,297.677 253.081,302.396 258.037 C 308.801 264.763,308.607 264.583,309.426 264.583 C 310.680 264.583,310.633 265.145,310.574 250.914 L 310.521 237.813 309.479 237.776 C 308.906 237.755,307.594 237.896,306.563 238.088 M276.202 241.435 C 271.144 242.505,267.823 246.147,265.946 252.680 C 264.326 258.318,266.973 265.607,271.458 267.860 L 273.021 268.645 275.833 268.646 C 278.770 268.646,279.098 268.572,281.667 267.331 C 289.772 263.417,291.558 248.590,284.583 243.119 C 282.546 241.521,279.085 240.825,276.202 241.435 M262.292 243.452 C 261.318 243.604,259.173 243.920,257.525 244.153 C 253.772 244.685,253.958 244.519,253.958 247.322 C 253.958 249.705,254.288 250.318,255.350 249.910 C 255.503 249.851,255.862 249.892,256.148 250.001 L 256.667 250.198 256.667 257.574 C 256.667 265.805,256.769 265.285,255.098 265.565 L 254.063 265.739 254.063 268.338 L 254.063 270.938 255.897 270.905 C 256.906 270.888,258.593 270.726,259.647 270.546 C 260.700 270.366,262.394 270.133,263.411 270.028 C 265.650 269.797,265.618 269.839,265.622 267.152 C 265.626 264.419,265.594 264.342,264.530 264.512 C 263.106 264.740,263.125 264.844,263.125 256.659 C 263.125 248.602,263.068 248.913,264.597 248.616 C 265.567 248.427,265.618 248.302,265.622 246.107 C 265.627 242.911,265.647 242.927,262.292 243.452 M248.854 245.115 C 245.243 245.632,243.420 245.858,241.354 246.046 C 235.909 246.543,236.011 246.470,236.087 249.821 L 236.146 252.396 238.549 252.321 C 240.463 252.261,241.004 252.308,241.203 252.548 C 241.389 252.772,241.468 255.381,241.508 262.623 L 241.563 272.396 243.438 272.379 C 248.089 272.338,247.708 273.321,247.708 261.349 L 247.708 251.448 248.281 251.226 C 248.596 251.103,249.588 250.951,250.485 250.887 C 252.694 250.730,252.708 250.710,252.708 247.735 C 252.708 244.477,252.813 244.548,248.854 245.115 M228.554 247.237 C 227.255 247.395,226.912 247.855,225.943 250.729 C 225.789 251.188,225.461 252.078,225.214 252.708 C 224.967 253.339,224.637 254.229,224.481 254.688 C 223.920 256.335,223.518 257.407,223.220 258.052 C 223.053 258.413,222.917 258.809,222.917 258.931 C 222.917 259.053,222.786 259.460,222.625 259.837 C 222.465 260.213,222.079 261.224,221.767 262.083 C 221.455 262.943,221.116 263.833,221.014 264.063 C 220.911 264.292,220.743 264.760,220.641 265.104 C 220.538 265.448,220.206 266.385,219.903 267.188 C 219.600 267.990,219.118 269.302,218.833 270.104 C 218.548 270.906,218.138 271.984,217.921 272.500 C 217.705 273.016,217.475 273.685,217.411 273.987 C 217.299 274.519,216.739 274.933,216.481 274.675 C 216.411 274.606,216.328 268.885,216.296 261.962 C 216.242 250.232,216.213 249.373,215.879 249.346 C 214.589 249.241,210.519 249.864,210.073 250.235 C 209.849 250.420,209.792 251.655,209.792 256.258 C 209.792 260.699,209.731 262.072,209.531 262.148 C 209.388 262.202,206.844 259.781,203.854 256.743 C 195.857 248.616,196.457 247.976,196.461 264.635 C 196.464 279.268,196.351 278.211,197.895 278.051 C 198.537 277.984,199.756 277.867,200.603 277.789 C 203.044 277.566,202.917 277.943,202.917 270.950 C 202.917 266.694,202.984 264.983,203.157 264.876 C 203.306 264.784,205.566 266.941,209.043 270.491 C 214.923 276.495,215.448 276.901,216.017 275.885 C 216.186 275.582,216.564 275.513,218.267 275.476 C 222.945 275.373,223.698 275.026,224.375 272.658 C 224.697 271.535,225.304 271.311,228.978 270.962 C 232.541 270.624,232.734 270.664,233.089 271.811 C 233.224 272.247,233.504 272.822,233.712 273.089 L 234.089 273.574 236.680 273.335 C 240.572 272.976,240.725 272.819,239.601 270.351 C 239.362 269.827,239.164 269.276,239.160 269.126 C 239.156 268.976,239.016 268.672,238.848 268.450 C 238.679 268.227,238.541 267.899,238.540 267.721 C 238.540 267.542,238.393 267.116,238.215 266.775 C 237.911 266.190,237.566 265.340,236.312 262.083 C 236.025 261.339,235.707 260.640,235.604 260.531 C 235.501 260.422,235.417 260.184,235.417 260.002 C 235.417 259.820,235.229 259.304,235.000 258.854 C 234.771 258.405,234.580 257.940,234.576 257.821 C 234.572 257.702,234.388 257.229,234.167 256.771 C 233.945 256.313,233.761 255.820,233.757 255.676 C 233.753 255.533,233.563 255.065,233.333 254.638 C 233.104 254.210,232.917 253.700,232.917 253.505 C 232.917 253.310,232.830 253.096,232.724 253.030 C 232.617 252.965,232.423 252.561,232.291 252.133 C 232.049 251.345,231.859 250.882,231.064 249.144 C 230.823 248.616,230.625 248.091,230.625 247.978 C 230.625 247.667,229.903 247.079,229.567 247.117 C 229.404 247.135,228.948 247.189,228.554 247.237 M279.867 248.216 C 280.684 248.718,281.870 250.262,281.877 250.833 C 281.879 251.005,282.016 251.521,282.181 251.979 C 283.325 255.153,281.570 260.543,278.959 261.875 C 273.204 264.811,269.420 255.364,274.011 249.523 C 275.384 247.776,278.147 247.159,279.867 248.216 M323.187 248.078 C 323.371 248.282,323.583 248.868,323.657 249.380 C 323.731 249.893,324.024 251.005,324.307 251.852 C 324.946 253.757,324.851 253.892,322.727 254.089 L 321.185 254.233 321.329 253.002 C 321.409 252.325,321.658 251.175,321.883 250.447 C 322.108 249.719,322.292 248.867,322.292 248.554 C 322.292 247.649,322.634 247.467,323.187 248.078 M183.542 253.121 C 182.682 253.211,181.089 253.435,180.000 253.620 C 178.911 253.804,177.723 253.956,177.359 253.957 C 175.974 253.960,176.042 253.271,176.042 267.385 C 176.042 282.212,175.774 280.784,178.485 280.432 C 179.490 280.302,180.711 280.146,181.197 280.085 C 182.437 279.930,182.500 279.711,182.500 275.547 C 182.500 271.622,182.471 271.723,183.696 271.447 C 185.038 271.144,186.129 272.806,188.107 278.164 C 188.428 279.036,189.023 279.250,190.393 278.989 C 191.036 278.866,192.252 278.709,193.094 278.639 C 195.817 278.414,195.816 278.446,193.199 273.151 C 190.956 268.615,191.027 269.189,192.469 267.246 C 194.176 264.944,194.839 260.066,193.750 257.813 C 193.529 257.354,193.344 256.913,193.340 256.832 C 193.325 256.511,192.223 255.073,191.599 254.561 C 189.819 253.098,187.587 252.699,183.542 253.121 M168.542 255.004 C 167.224 255.214,165.677 255.397,165.104 255.411 C 163.896 255.441,159.775 256.107,159.412 256.331 C 159.028 256.568,159.062 282.153,159.446 282.473 C 159.737 282.714,162.721 282.516,164.896 282.113 C 165.469 282.006,166.781 281.857,167.813 281.780 C 169.686 281.641,173.049 281.138,173.651 280.907 C 173.920 280.804,173.961 280.338,173.912 277.944 L 173.854 275.104 172.604 275.118 C 171.917 275.126,170.214 275.261,168.820 275.419 C 165.556 275.788,165.558 275.790,165.657 273.379 C 165.746 271.227,165.843 271.137,168.288 270.954 C 172.545 270.635,172.708 270.510,172.708 267.551 C 172.708 264.251,172.856 264.328,167.832 265.037 C 165.818 265.321,165.623 265.162,165.628 263.241 C 165.633 261.416,165.917 261.156,168.135 260.943 C 173.600 260.419,173.364 260.588,173.288 257.262 L 173.229 254.688 172.083 254.655 C 171.453 254.637,169.859 254.795,168.542 255.004 M155.221 256.670 C 154.826 256.763,153.748 256.896,152.825 256.967 C 151.901 257.038,150.161 257.228,148.958 257.390 C 147.755 257.551,145.665 257.819,144.313 257.985 C 141.033 258.388,141.041 258.380,141.045 261.230 C 141.049 264.178,140.933 264.063,143.899 264.063 L 146.354 264.063 146.408 273.882 C 146.472 285.480,146.123 284.326,149.484 284.036 C 153.062 283.727,152.708 284.905,152.708 273.301 C 152.708 262.179,152.595 262.850,154.516 262.616 C 155.069 262.549,156.036 262.425,156.667 262.341 L 157.813 262.188 157.873 259.792 C 157.963 256.231,157.816 256.059,155.221 256.670 M138.090 258.646 C 138.033 258.703,137.064 258.888,135.936 259.058 C 133.354 259.445,133.549 258.906,133.545 265.665 C 133.543 269.872,133.475 271.475,133.296 271.586 C 133.140 271.682,131.044 269.689,127.610 266.181 C 121.899 260.347,121.748 260.232,120.611 260.841 C 120.101 261.114,119.965 286.831,120.471 287.251 C 120.934 287.634,126.032 287.039,126.382 286.560 C 126.607 286.252,126.667 284.934,126.667 280.285 C 126.667 276.064,126.735 274.358,126.907 274.251 C 127.055 274.160,128.839 275.860,131.539 278.666 C 138.716 286.123,138.187 285.625,138.930 285.625 C 139.451 285.625,139.637 285.510,139.797 285.091 C 140.018 284.509,140.091 259.438,139.874 258.871 C 139.754 258.560,138.353 258.383,138.090 258.646 M229.152 259.736 C 229.166 260.195,229.937 262.971,230.433 264.355 C 230.737 265.200,230.354 265.623,229.283 265.627 C 228.933 265.629,228.296 265.687,227.868 265.758 C 226.855 265.926,226.708 265.564,227.155 263.995 C 227.340 263.345,227.694 261.969,227.942 260.938 C 228.546 258.421,229.094 257.878,229.152 259.736 M186.668 259.167 C 187.757 259.723,187.917 260.091,187.917 262.043 C 187.917 264.449,187.140 265.318,184.673 265.668 C 182.179 266.023,182.292 266.167,182.292 262.623 C 182.292 259.262,182.232 259.400,183.854 259.039 C 185.408 258.694,185.772 258.710,186.668 259.167 M114.063 261.668 C 113.146 261.750,111.880 261.918,111.250 262.041 C 110.620 262.165,109.377 262.327,108.487 262.401 C 106.496 262.567,106.458 262.622,106.458 265.361 C 106.458 267.713,106.568 267.917,107.832 267.917 C 109.009 267.917,108.958 267.570,108.958 275.656 C 108.958 283.399,108.951 283.450,107.758 283.663 C 106.382 283.910,106.250 284.165,106.250 286.583 C 106.250 289.353,106.301 289.400,108.893 289.027 C 109.903 288.881,112.042 288.606,113.646 288.415 C 115.250 288.223,116.891 288.006,117.292 287.931 L 118.021 287.795 118.080 285.320 C 118.147 282.499,118.152 282.508,116.533 282.503 C 115.125 282.499,115.208 282.990,115.208 274.696 C 115.208 266.817,115.147 267.168,116.553 266.940 C 117.627 266.766,117.917 266.100,117.917 263.802 C 117.917 261.260,118.013 261.313,114.063 261.668 " stroke="none" fill="#fcfbfb" fill-rule="evenodd"></path></g></svg>