<svg id="svg" version="1.1" xmlns="http://www.w3.org/2000/svg" xmlns:xlink="http://www.w3.org/1999/xlink" width="400" height="400" viewBox="0, 0, 400,400"><g id="svgg"><path id="path0" d="M65.833 121.891 C 65.833 122.016,66.161 122.677,66.563 123.362 C 66.964 124.046,67.292 124.646,67.292 124.695 C 67.292 124.744,67.667 125.397,68.125 126.146 C 68.583 126.895,68.958 127.544,68.958 127.589 C 68.958 127.634,69.320 128.312,69.761 129.096 C 70.203 129.880,70.874 131.083,71.254 131.771 C 72.761 134.503,73.001 134.924,73.471 135.673 C 73.739 136.100,73.958 136.487,73.958 136.533 C 73.958 136.610,75.129 138.754,76.250 140.729 C 76.905 141.884,78.472 144.686,79.162 145.938 C 80.080 147.603,80.833 148.939,81.911 150.811 C 82.464 151.773,82.917 152.598,82.917 152.644 C 82.917 152.760,85.780 157.840,86.384 158.798 C 86.654 159.225,86.875 159.630,86.875 159.699 C 86.875 159.767,87.237 160.449,87.680 161.214 C 88.123 161.978,88.794 163.167,89.173 163.854 C 89.551 164.542,90.027 165.385,90.231 165.729 C 90.436 166.073,90.733 166.589,90.892 166.875 C 91.050 167.161,91.852 168.605,92.674 170.084 C 93.495 171.562,94.167 172.845,94.167 172.933 C 94.167 173.022,94.414 173.289,94.716 173.527 L 95.265 173.958 126.493 173.958 C 152.691 173.958,157.739 173.913,157.831 173.674 C 157.922 173.436,157.208 171.885,156.667 171.146 C 156.504 170.924,155.818 169.698,154.627 167.500 C 154.223 166.755,153.707 165.818,153.481 165.417 C 152.041 162.867,151.128 161.239,150.697 160.452 C 150.425 159.956,149.905 159.019,149.542 158.369 C 149.178 157.719,148.752 156.953,148.595 156.667 C 148.438 156.380,148.094 155.771,147.830 155.313 C 147.140 154.111,145.606 151.363,144.748 149.792 C 144.067 148.545,143.541 147.603,142.408 145.596 C 142.172 145.179,141.518 144.007,140.954 142.992 C 140.389 141.977,139.744 140.818,139.519 140.417 C 139.294 140.016,138.852 139.219,138.536 138.646 C 137.850 137.401,136.284 134.599,135.625 133.438 C 135.365 132.979,134.895 132.135,134.580 131.563 C 134.265 130.990,133.636 129.865,133.180 129.063 C 132.725 128.260,132.062 127.078,131.707 126.435 C 131.352 125.792,130.610 124.479,130.059 123.518 L 129.058 121.771 97.446 121.718 C 74.827 121.680,65.833 121.730,65.833 121.891 M153.958 121.824 C 153.958 121.911,154.628 123.200,155.447 124.689 C 156.266 126.178,157.142 127.772,157.394 128.232 C 157.646 128.692,158.277 129.817,158.797 130.732 C 160.443 133.635,160.652 134.007,162.190 136.771 C 163.018 138.260,163.938 139.910,164.233 140.437 C 164.528 140.964,164.992 141.808,165.263 142.312 C 165.534 142.817,166.183 143.979,166.706 144.896 C 168.139 147.407,168.470 147.996,170.106 150.938 C 171.745 153.885,172.084 154.489,173.483 156.954 C 173.995 157.857,174.772 159.276,175.210 160.107 C 175.647 160.937,176.248 162.001,176.544 162.471 C 176.841 162.941,177.083 163.376,177.083 163.438 C 177.083 163.499,177.305 163.901,177.576 164.331 C 178.062 165.100,178.842 166.498,180.040 168.750 C 180.376 169.380,180.925 170.365,181.261 170.938 C 181.596 171.510,182.072 172.370,182.318 172.848 C 182.564 173.325,182.963 173.769,183.206 173.834 C 183.801 173.994,245.295 173.992,245.712 173.832 C 246.188 173.649,246.145 173.501,245.072 171.610 C 244.539 170.670,243.883 169.502,243.614 169.013 C 243.345 168.525,242.905 167.725,242.636 167.237 C 242.367 166.748,241.709 165.575,241.172 164.630 C 240.636 163.684,239.951 162.467,239.651 161.924 C 239.351 161.382,238.744 160.296,238.302 159.513 C 237.861 158.729,237.500 158.047,237.500 157.998 C 237.500 157.949,237.280 157.559,237.012 157.131 C 236.571 156.428,236.033 155.480,234.682 153.021 C 233.265 150.442,232.762 149.542,231.846 147.950 C 231.289 146.982,230.833 146.165,230.833 146.135 C 230.833 146.104,230.472 145.438,230.031 144.654 C 229.589 143.870,228.917 142.667,228.538 141.979 C 228.159 141.292,227.677 140.448,227.468 140.104 C 227.258 139.760,227.025 139.352,226.950 139.197 C 226.875 139.042,226.205 137.823,225.461 136.489 C 224.717 135.154,223.901 133.686,223.648 133.226 C 223.396 132.767,222.750 131.617,222.214 130.671 C 220.841 128.252,220.224 127.152,219.491 125.820 C 219.141 125.183,218.483 123.987,218.029 123.164 L 217.204 121.667 185.581 121.667 C 168.189 121.667,153.958 121.738,153.958 121.824 M242.083 121.845 C 242.083 121.943,242.534 122.810,243.086 123.772 C 243.637 124.734,244.515 126.318,245.037 127.292 C 245.559 128.266,246.185 129.391,246.429 129.792 C 246.672 130.193,246.936 130.661,247.016 130.833 C 247.095 131.005,247.893 132.427,248.788 133.992 C 249.684 135.557,250.417 136.895,250.417 136.965 C 250.417 137.035,250.636 137.441,250.904 137.869 C 251.429 138.705,252.125 139.934,253.290 142.083 C 254.100 143.577,254.398 144.113,255.787 146.560 C 256.306 147.475,256.951 148.623,257.220 149.112 C 257.488 149.600,257.928 150.400,258.197 150.888 C 258.466 151.377,259.137 152.571,259.688 153.542 C 260.238 154.513,260.895 155.683,261.148 156.143 C 261.400 156.603,262.288 158.198,263.122 159.688 C 264.661 162.436,265.482 163.910,266.445 165.655 C 267.009 166.676,268.160 168.709,268.963 170.104 C 269.228 170.563,269.764 171.547,270.156 172.292 C 270.548 173.036,271.025 173.710,271.216 173.787 C 271.406 173.865,285.543 173.936,302.631 173.944 C 337.235 173.960,334.655 174.075,333.738 172.556 C 333.240 171.729,333.127 171.527,331.040 167.708 C 330.319 166.391,329.510 164.986,329.240 164.587 C 328.971 164.188,328.750 163.803,328.750 163.732 C 328.750 163.660,328.281 162.787,327.708 161.791 C 327.135 160.795,326.257 159.212,325.756 158.272 C 325.255 157.332,324.653 156.234,324.418 155.833 C 324.183 155.432,323.340 153.932,322.545 152.500 C 319.987 147.893,318.195 144.706,317.740 143.958 C 317.497 143.557,317.032 142.714,316.708 142.083 C 316.384 141.453,315.677 140.163,315.137 139.216 C 314.597 138.269,313.908 137.050,313.606 136.508 C 313.304 135.965,312.872 135.193,312.647 134.792 C 312.421 134.391,311.793 133.266,311.250 132.292 C 310.707 131.318,310.050 130.146,309.790 129.688 C 309.066 128.413,306.237 123.329,305.761 122.448 L 305.339 121.667 273.711 121.667 C 256.297 121.667,242.083 121.747,242.083 121.845 M94.561 181.823 C 94.399 182.023,94.112 182.469,93.924 182.813 C 93.736 183.156,93.339 183.883,93.041 184.427 C 91.918 186.481,91.496 187.239,90.578 188.857 C 90.059 189.772,89.354 191.036,89.012 191.667 C 88.366 192.855,88.088 193.353,86.505 196.143 C 85.986 197.058,85.354 198.183,85.102 198.643 C 84.849 199.103,84.033 200.571,83.289 201.905 C 82.545 203.239,81.875 204.458,81.800 204.614 C 81.725 204.769,81.491 205.177,81.282 205.521 C 81.072 205.865,80.558 206.792,80.139 207.582 C 79.720 208.371,79.292 209.121,79.188 209.248 C 79.084 209.375,78.628 210.182,78.174 211.042 C 77.143 212.996,76.241 214.624,76.040 214.896 C 75.956 215.010,75.325 216.135,74.639 217.396 C 73.326 219.808,73.248 219.947,71.090 223.750 C 70.342 225.068,69.475 226.615,69.162 227.188 C 68.849 227.760,67.973 229.354,67.214 230.729 C 66.455 232.104,65.834 233.299,65.834 233.385 C 65.833 233.471,80.076 233.542,97.484 233.542 L 129.134 233.542 129.747 232.344 C 130.324 231.215,132.478 227.347,132.909 226.667 C 133.017 226.495,133.595 225.464,134.191 224.375 C 135.433 222.108,135.851 221.359,136.147 220.868 C 136.393 220.461,138.362 216.927,139.286 215.235 C 140.319 213.345,141.106 211.930,142.607 209.271 C 143.383 207.896,144.225 206.396,144.480 205.938 C 144.734 205.479,145.625 203.885,146.460 202.396 C 147.294 200.906,148.199 199.282,148.471 198.786 C 149.453 196.990,150.285 195.508,150.653 194.896 C 150.860 194.552,151.168 193.990,151.338 193.646 C 151.508 193.302,151.943 192.505,152.305 191.875 C 152.666 191.245,153.246 190.214,153.592 189.583 C 153.938 188.953,154.291 188.344,154.376 188.229 C 154.461 188.115,154.884 187.365,155.316 186.563 C 156.678 184.032,156.998 183.457,157.463 182.708 C 157.711 182.307,157.915 181.862,157.916 181.719 C 157.917 181.244,94.946 181.348,94.561 181.823 M182.754 181.719 C 182.636 181.862,182.312 182.401,182.034 182.917 C 181.756 183.432,181.312 184.229,181.048 184.688 C 180.785 185.146,180.289 186.036,179.947 186.667 C 179.605 187.297,178.551 189.172,177.604 190.833 C 176.658 192.495,175.585 194.407,175.220 195.082 C 173.830 197.653,173.494 198.260,172.896 199.271 C 172.557 199.844,172.187 200.500,172.074 200.729 C 171.961 200.958,171.622 201.568,171.321 202.083 C 171.021 202.599,170.476 203.583,170.110 204.271 C 169.529 205.364,167.324 209.297,165.906 211.771 C 165.643 212.229,165.098 213.214,164.695 213.958 C 163.955 215.327,163.097 216.863,161.904 218.958 C 161.545 219.589,160.966 220.620,160.617 221.250 C 160.268 221.880,159.720 222.865,159.399 223.438 C 159.078 224.010,158.530 224.995,158.180 225.625 C 157.831 226.255,157.098 227.568,156.551 228.542 C 156.003 229.516,155.416 230.594,155.245 230.938 C 155.074 231.281,154.774 231.797,154.578 232.083 C 154.382 232.370,154.156 232.815,154.076 233.073 L 153.930 233.542 185.596 233.542 L 217.261 233.542 217.550 232.969 C 217.985 232.108,219.200 229.925,219.377 229.688 C 219.463 229.573,219.982 228.635,220.531 227.604 C 221.080 226.573,221.695 225.448,221.899 225.104 C 222.103 224.760,222.789 223.542,223.424 222.396 C 224.059 221.250,224.719 220.078,224.889 219.792 C 225.060 219.505,225.872 218.052,226.695 216.563 C 227.518 215.073,228.376 213.526,228.603 213.125 C 229.208 212.053,230.192 210.263,230.893 208.958 C 231.231 208.328,231.578 207.719,231.663 207.604 C 231.822 207.392,232.481 206.219,233.594 204.167 C 234.897 201.763,235.477 200.722,235.625 200.521 C 235.765 200.331,236.134 199.673,237.572 197.048 C 237.843 196.552,238.488 195.396,239.005 194.479 C 240.464 191.890,240.723 191.429,241.348 190.313 C 241.668 189.740,242.350 188.521,242.863 187.604 C 243.376 186.688,244.054 185.469,244.370 184.896 C 244.685 184.323,245.144 183.500,245.388 183.067 C 245.633 182.633,245.833 182.094,245.833 181.869 C 245.833 181.353,183.176 181.204,182.754 181.719 M270.887 181.719 C 270.773 181.862,270.421 182.448,270.104 183.021 C 269.787 183.594,269.108 184.813,268.594 185.729 C 268.080 186.646,267.453 187.771,267.199 188.229 C 266.946 188.688,265.832 190.685,264.724 192.669 C 263.615 194.652,262.708 196.325,262.708 196.386 C 262.708 196.448,262.534 196.747,262.321 197.051 C 262.108 197.355,261.485 198.448,260.936 199.479 C 260.387 200.510,259.871 201.448,259.789 201.563 C 259.706 201.677,259.380 202.240,259.063 202.813 C 257.897 204.923,256.317 207.750,255.105 209.896 C 254.782 210.469,253.843 212.156,253.019 213.646 C 252.196 215.135,251.307 216.729,251.045 217.188 C 250.783 217.646,250.241 218.630,249.841 219.375 C 249.441 220.120,249.045 220.823,248.960 220.938 C 248.875 221.052,248.496 221.708,248.119 222.396 C 247.741 223.083,247.247 223.974,247.021 224.375 C 245.553 226.983,243.602 230.485,243.075 231.458 C 242.734 232.089,242.372 232.693,242.269 232.802 C 241.565 233.552,241.142 233.542,273.705 233.542 L 305.327 233.542 305.664 232.969 C 305.849 232.654,306.228 231.974,306.505 231.458 C 306.782 230.943,307.667 229.349,308.471 227.917 C 309.274 226.484,310.214 224.797,310.558 224.167 C 310.902 223.536,311.797 221.943,312.546 220.625 C 313.296 219.307,314.141 217.807,314.426 217.292 C 316.742 213.088,318.354 210.181,318.759 209.479 C 319.187 208.735,321.590 204.441,322.489 202.813 C 322.992 201.901,324.548 199.163,324.976 198.438 C 325.179 198.094,325.773 197.016,326.296 196.042 C 326.819 195.068,327.880 193.146,328.653 191.771 C 331.283 187.094,331.667 186.401,331.667 186.321 C 331.667 186.277,331.887 185.892,332.156 185.465 C 333.165 183.862,334.171 181.842,334.054 181.654 C 333.855 181.331,271.143 181.395,270.887 181.719 M131.979 250.392 C 130.193 250.736,126.667 253.413,126.667 254.426 C 126.667 254.535,126.538 254.920,126.381 255.281 C 125.653 256.955,125.521 257.857,125.521 261.146 C 125.521 266.042,126.551 268.728,129.207 270.759 C 131.409 272.443,136.338 272.545,139.037 270.964 C 144.839 267.563,144.855 255.557,139.063 251.290 C 137.991 250.501,134.026 249.998,131.979 250.392 M168.403 250.407 C 165.311 250.607,165.612 249.401,165.675 261.329 L 165.729 271.563 167.708 271.563 L 169.688 271.563 169.744 268.105 L 169.801 264.647 172.195 264.518 C 177.689 264.224,180.891 261.113,180.339 256.606 C 179.728 251.609,176.415 249.889,168.403 250.407 M258.854 250.408 C 257.594 250.478,256.445 250.607,256.302 250.696 C 256.099 250.822,256.042 253.164,256.042 261.262 L 256.042 271.667 258.016 271.667 L 259.990 271.667 260.047 268.177 L 260.104 264.688 262.396 264.553 C 268.088 264.221,270.786 261.710,270.593 256.928 C 270.381 251.708,267.212 249.948,258.854 250.408 M318.138 250.359 C 316.827 250.398,315.632 250.533,315.481 250.658 C 315.091 250.982,315.078 271.301,315.469 271.621 C 316.594 272.542,324.356 272.000,326.655 270.839 C 333.183 267.544,333.761 255.714,327.587 251.753 C 325.669 250.522,323.462 250.197,318.138 250.359 M276.594 250.885 C 276.434 251.143,276.136 251.870,275.932 252.500 C 275.728 253.130,275.209 254.630,274.779 255.833 C 274.349 257.036,273.697 258.865,273.331 259.896 C 272.965 260.927,272.588 261.958,272.495 262.188 C 272.401 262.417,272.168 263.073,271.977 263.646 C 271.786 264.219,271.544 264.850,271.440 265.049 C 271.335 265.248,271.250 265.515,271.250 265.643 C 271.250 265.770,271.125 266.170,270.972 266.531 C 270.620 267.361,270.204 268.522,270.066 269.063 C 270.007 269.292,269.838 269.760,269.690 270.104 C 268.982 271.752,268.900 271.667,271.184 271.666 L 273.229 271.665 273.563 270.780 C 273.746 270.294,274.065 269.380,274.271 268.750 C 274.846 266.990,274.663 267.066,278.202 267.130 L 281.344 267.188 281.927 268.750 C 282.247 269.609,282.646 270.617,282.814 270.990 L 283.118 271.667 285.205 271.667 C 286.353 271.667,287.292 271.595,287.292 271.507 C 287.292 271.420,287.097 270.834,286.859 270.205 C 286.622 269.577,286.349 268.828,286.254 268.542 C 286.159 268.255,285.786 267.224,285.425 266.250 C 285.064 265.276,284.543 263.823,284.268 263.021 C 283.729 261.449,282.640 258.404,281.248 254.583 C 280.769 253.266,280.281 251.859,280.165 251.458 C 279.890 250.509,279.727 250.424,278.182 250.420 C 277.060 250.417,276.845 250.480,276.594 250.885 M67.394 251.094 C 67.332 251.352,67.306 256.063,67.338 261.563 L 67.396 271.563 69.427 271.622 C 70.544 271.655,71.477 271.655,71.500 271.622 C 71.522 271.589,71.593 269.594,71.656 267.188 C 71.799 261.758,71.905 261.627,73.871 264.475 C 78.390 271.022,78.371 270.994,78.713 271.367 C 78.922 271.595,79.566 271.667,81.391 271.667 C 84.182 271.667,84.110 271.826,82.397 269.437 C 81.757 268.544,80.279 266.464,79.113 264.816 C 77.945 263.166,76.687 261.622,76.312 261.379 C 75.474 260.836,75.438 260.316,76.211 259.916 C 76.533 259.750,77.172 259.067,77.631 258.400 C 78.090 257.733,79.107 256.250,79.891 255.104 C 80.675 253.958,81.570 252.693,81.880 252.292 C 83.102 250.712,83.031 250.625,80.532 250.625 L 78.328 250.625 76.297 253.698 C 75.181 255.388,73.873 257.404,73.391 258.177 C 71.847 260.656,71.667 260.384,71.664 255.573 C 71.660 250.217,71.842 250.625,69.459 250.625 C 67.608 250.625,67.502 250.649,67.394 251.094 M86.389 250.764 C 86.313 250.840,86.250 255.575,86.250 261.285 L 86.250 271.667 87.797 271.667 L 89.343 271.667 91.198 268.906 C 92.218 267.388,94.037 264.688,95.239 262.907 C 96.442 261.125,97.606 259.276,97.827 258.797 C 98.494 257.353,98.534 257.661,98.591 264.740 L 98.646 271.563 100.573 271.622 L 102.500 271.682 102.500 261.154 L 102.500 250.625 101.067 250.625 L 99.634 250.625 98.814 251.719 C 96.353 255.003,91.969 261.499,91.184 263.025 C 90.245 264.850,90.208 264.640,90.208 257.396 L 90.208 250.625 88.368 250.625 C 87.356 250.625,86.465 250.688,86.389 250.764 M106.605 250.756 C 106.524 250.837,106.458 255.575,106.458 261.285 L 106.458 271.667 108.438 271.667 L 110.417 271.667 110.417 267.408 C 110.417 264.230,110.483 263.107,110.677 262.982 C 111.018 262.762,116.015 262.626,117.203 262.804 L 118.125 262.942 118.128 267.044 C 118.132 271.998,117.988 271.700,120.330 271.623 L 122.188 271.563 122.188 261.146 L 122.188 250.729 120.260 250.669 C 119.201 250.636,118.317 250.636,118.297 250.669 C 118.277 250.702,118.206 252.604,118.141 254.896 L 118.021 259.063 114.271 259.063 L 110.521 259.063 110.417 254.896 L 110.313 250.729 108.532 250.670 C 107.552 250.637,106.685 250.676,106.605 250.756 M146.389 250.764 C 146.313 250.840,146.250 255.578,146.250 261.292 L 146.250 271.682 148.281 271.622 L 150.313 271.563 150.365 263.125 C 150.413 255.488,150.452 254.663,150.770 254.427 C 151.199 254.109,156.574 254.062,157.382 254.370 L 157.917 254.573 157.917 263.120 L 157.917 271.667 159.896 271.667 L 161.875 271.667 161.875 261.146 L 161.875 250.625 154.201 250.625 C 149.981 250.625,146.465 250.688,146.389 250.764 M183.056 250.764 C 182.979 250.840,182.917 255.576,182.917 261.288 L 182.917 271.673 189.219 271.618 L 195.521 271.563 195.582 270.160 C 195.684 267.846,195.854 267.935,191.193 267.869 L 187.188 267.813 187.128 265.551 C 187.049 262.533,186.808 262.708,191.045 262.708 C 195.000 262.708,194.792 262.807,194.792 260.935 C 194.792 259.196,194.725 259.167,190.737 259.167 C 186.775 259.167,187.083 259.386,187.083 256.571 C 187.083 254.061,186.855 254.188,191.474 254.119 L 195.313 254.063 195.373 252.344 L 195.434 250.625 189.314 250.625 C 185.948 250.625,183.132 250.688,183.056 250.764 M198.845 250.885 C 198.791 251.029,198.770 255.740,198.800 261.354 L 198.854 271.563 200.671 271.623 C 202.447 271.681,202.491 271.671,202.616 271.173 C 202.770 270.558,202.576 259.891,202.385 258.490 C 202.234 257.386,202.584 257.085,202.812 258.123 C 202.887 258.465,203.035 258.799,203.141 258.864 C 203.247 258.929,203.333 259.113,203.333 259.273 C 203.333 259.432,204.419 261.386,205.745 263.615 C 208.710 268.597,209.024 268.776,210.453 266.303 C 210.834 265.644,211.240 264.948,211.354 264.757 C 211.469 264.566,211.709 264.144,211.888 263.819 C 212.437 262.825,213.473 260.987,214.040 260.000 C 214.336 259.484,214.579 258.913,214.581 258.730 C 214.582 258.547,214.747 258.208,214.948 257.976 C 215.296 257.575,215.310 257.874,215.248 264.611 L 215.183 271.667 217.177 271.667 L 219.171 271.667 219.117 261.198 L 219.063 250.729 217.396 250.676 C 215.429 250.613,215.474 250.589,214.601 252.188 C 213.543 254.128,212.821 255.419,212.098 256.667 C 211.213 258.194,209.583 261.551,209.583 261.847 C 209.583 262.455,208.904 261.992,208.536 261.133 C 208.133 260.193,206.908 258.042,204.549 254.131 C 203.880 253.023,203.333 252.053,203.333 251.976 C 203.333 250.863,199.236 249.867,198.845 250.885 M223.043 250.955 C 222.772 251.662,222.903 271.188,223.181 271.418 C 223.710 271.858,228.618 272.176,230.662 271.904 C 235.404 271.272,237.500 269.048,237.500 264.646 C 237.500 259.986,234.791 257.773,229.271 257.925 C 228.354 257.950,227.487 257.959,227.344 257.944 C 227.147 257.923,227.083 257.100,227.083 254.600 C 227.083 250.340,227.233 250.625,225.000 250.625 C 223.523 250.625,223.145 250.689,223.043 250.955 M240.305 250.882 C 240.249 251.027,240.228 255.740,240.258 261.354 L 240.313 271.563 246.510 271.618 L 252.708 271.673 252.708 269.921 C 252.708 267.765,253.048 267.917,248.206 267.917 L 244.362 267.917 244.421 265.365 L 244.479 262.813 248.177 262.756 L 251.875 262.699 251.875 261.167 C 251.875 259.141,251.967 259.188,247.902 259.120 L 244.479 259.063 244.479 256.667 L 244.479 254.271 248.542 254.167 L 252.604 254.063 252.604 252.396 L 252.604 250.729 246.505 250.674 C 241.738 250.631,240.384 250.676,240.305 250.882 M295.764 250.764 C 295.688 250.840,295.625 255.575,295.625 261.285 L 295.625 271.667 297.604 271.667 C 298.693 271.667,299.602 271.643,299.625 271.615 C 299.647 271.586,299.718 269.594,299.781 267.188 L 299.896 262.813 303.150 262.755 C 304.970 262.723,306.646 262.790,306.952 262.906 L 307.500 263.115 307.500 267.391 L 307.500 271.667 309.479 271.667 L 311.458 271.667 311.458 261.138 L 311.458 250.609 309.531 250.669 L 307.604 250.729 307.500 254.896 L 307.396 259.063 303.646 259.063 L 299.896 259.063 299.776 254.896 C 299.710 252.604,299.640 250.706,299.620 250.677 C 299.535 250.555,295.890 250.638,295.764 250.764 M135.673 254.095 C 138.861 255.331,140.103 261.746,138.014 266.185 C 136.860 268.636,133.234 269.187,131.378 267.193 C 129.090 264.734,129.288 256.524,131.679 254.749 C 132.959 253.798,134.329 253.574,135.673 254.095 M174.172 254.274 C 176.099 255.270,176.497 258.578,174.865 260.032 C 174.065 260.745,171.111 261.295,170.121 260.915 C 169.509 260.680,169.641 254.020,170.260 253.885 C 171.076 253.706,173.550 253.952,174.172 254.274 M264.410 254.252 C 266.313 255.055,266.902 258.131,265.460 259.741 C 264.459 260.859,261.231 261.467,260.381 260.697 C 259.673 260.056,259.859 254.100,260.594 253.876 C 261.219 253.687,263.633 253.925,264.410 254.252 M323.803 254.256 C 328.667 255.992,328.805 265.838,323.993 267.939 C 322.792 268.463,319.695 268.508,319.501 268.004 C 319.432 267.823,319.375 264.736,319.375 261.146 C 319.375 257.555,319.432 254.469,319.501 254.288 C 319.664 253.864,322.641 253.841,323.803 254.256 M278.753 258.333 C 278.890 258.964,279.273 260.272,279.605 261.242 C 280.502 263.864,280.565 263.750,278.223 263.750 C 275.835 263.750,275.822 263.733,276.569 261.643 C 276.872 260.797,277.305 259.307,277.532 258.333 C 278.191 255.513,278.140 255.513,278.753 258.333 M231.444 261.972 C 233.796 263.188,233.770 266.849,231.402 267.924 C 230.379 268.388,227.742 268.492,227.333 268.083 C 226.973 267.723,226.983 261.950,227.344 261.805 C 227.953 261.559,230.876 261.678,231.444 261.972 " stroke="none" fill="#060606" fill-rule="evenodd"></path><path id="path1" d="M0.000 200.000 L 0.000 400.000 200.000 400.000 L 400.000 400.000 400.000 200.000 L 400.000 0.000 200.000 0.000 L 0.000 0.000 0.000 200.000 M130.059 123.518 C 130.610 124.479,131.352 125.792,131.707 126.435 C 132.062 127.078,132.725 128.260,133.180 129.063 C 133.636 129.865,134.265 130.990,134.580 131.563 C 134.895 132.135,135.365 132.979,135.625 133.438 C 136.284 134.599,137.850 137.401,138.536 138.646 C 138.852 139.219,139.294 140.016,139.519 140.417 C 139.744 140.818,140.389 141.977,140.954 142.992 C 141.518 144.007,142.172 145.179,142.408 145.596 C 143.541 147.603,144.067 148.545,144.748 149.792 C 145.606 151.363,147.140 154.111,147.830 155.313 C 148.094 155.771,148.438 156.380,148.595 156.667 C 148.752 156.953,149.178 157.719,149.542 158.369 C 149.905 159.019,150.425 159.956,150.697 160.452 C 151.128 161.239,152.041 162.867,153.481 165.417 C 153.707 165.818,154.223 166.755,154.627 167.500 C 155.818 169.698,156.504 170.924,156.667 171.146 C 157.208 171.885,157.922 173.436,157.831 173.674 C 157.739 173.913,152.691 173.958,126.493 173.958 L 95.265 173.958 94.716 173.527 C 94.414 173.289,94.167 173.022,94.167 172.933 C 94.167 172.845,93.495 171.562,92.674 170.084 C 91.852 168.605,91.050 167.161,90.892 166.875 C 90.733 166.589,90.436 166.073,90.231 165.729 C 90.027 165.385,89.551 164.542,89.173 163.854 C 88.794 163.167,88.123 161.978,87.680 161.214 C 87.237 160.449,86.875 159.767,86.875 159.699 C 86.875 159.630,86.654 159.225,86.384 158.798 C 85.780 157.840,82.917 152.760,82.917 152.644 C 82.917 152.598,82.464 151.773,81.911 150.811 C 80.833 148.939,80.080 147.603,79.162 145.938 C 78.472 144.686,76.905 141.884,76.250 140.729 C 75.129 138.754,73.958 136.610,73.958 136.533 C 73.958 136.487,73.739 136.100,73.471 135.673 C 73.001 134.924,72.761 134.503,71.254 131.771 C 70.874 131.083,70.203 129.880,69.761 129.096 C 69.320 128.312,68.958 127.634,68.958 127.589 C 68.958 127.544,68.583 126.895,68.125 126.146 C 67.667 125.397,67.292 124.744,67.292 124.695 C 67.292 124.646,66.964 124.046,66.563 123.362 C 66.161 122.677,65.833 122.016,65.833 121.891 C 65.833 121.730,74.827 121.680,97.446 121.718 L 129.058 121.771 130.059 123.518 M218.029 123.164 C 218.483 123.987,219.141 125.183,219.491 125.820 C 220.224 127.152,220.841 128.252,222.214 130.671 C 222.750 131.617,223.396 132.767,223.648 133.226 C 223.901 133.686,224.717 135.154,225.461 136.489 C 226.205 137.823,226.875 139.042,226.950 139.197 C 227.025 139.352,227.258 139.760,227.468 140.104 C 227.677 140.448,228.159 141.292,228.538 141.979 C 228.917 142.667,229.589 143.870,230.031 144.654 C 230.472 145.438,230.833 146.104,230.833 146.135 C 230.833 146.165,231.289 146.982,231.846 147.950 C 232.762 149.542,233.265 150.442,234.682 153.021 C 236.033 155.480,236.571 156.428,237.012 157.131 C 237.280 157.559,237.500 157.949,237.500 157.998 C 237.500 158.047,237.861 158.729,238.302 159.513 C 238.744 160.296,239.351 161.382,239.651 161.924 C 239.951 162.467,240.636 163.684,241.172 164.630 C 241.709 165.575,242.367 166.748,242.636 167.237 C 242.905 167.725,243.345 168.525,243.614 169.013 C 243.883 169.502,244.539 170.670,245.072 171.610 C 246.145 173.501,246.188 173.649,245.712 173.832 C 245.295 173.992,183.801 173.994,183.206 173.834 C 182.963 173.769,182.564 173.325,182.318 172.848 C 182.072 172.370,181.596 171.510,181.261 170.938 C 180.925 170.365,180.376 169.380,180.040 168.750 C 178.842 166.498,178.062 165.100,177.576 164.331 C 177.305 163.901,177.083 163.499,177.083 163.438 C 177.083 163.376,176.841 162.941,176.544 162.471 C 176.248 162.001,175.647 160.937,175.210 160.107 C 174.772 159.276,173.995 157.857,173.483 156.954 C 172.084 154.489,171.745 153.885,170.106 150.938 C 168.470 147.996,168.139 147.407,166.706 144.896 C 166.183 143.979,165.534 142.817,165.263 142.312 C 164.992 141.808,164.528 140.964,164.233 140.437 C 163.938 139.910,163.018 138.260,162.190 136.771 C 160.652 134.007,160.443 133.635,158.797 130.732 C 158.277 129.817,157.646 128.692,157.394 128.232 C 157.142 127.772,156.266 126.178,155.447 124.689 C 154.628 123.200,153.958 121.911,153.958 121.824 C 153.958 121.738,168.189 121.667,185.581 121.667 L 217.204 121.667 218.029 123.164 M305.761 122.448 C 306.237 123.329,309.066 128.413,309.790 129.688 C 310.050 130.146,310.707 131.318,311.250 132.292 C 311.793 133.266,312.421 134.391,312.647 134.792 C 312.872 135.193,313.304 135.965,313.606 136.508 C 313.908 137.050,314.597 138.269,315.137 139.216 C 315.677 140.163,316.384 141.453,316.708 142.083 C 317.032 142.714,317.497 143.557,317.740 143.958 C 318.195 144.706,319.987 147.893,322.545 152.500 C 323.340 153.932,324.183 155.432,324.418 155.833 C 324.653 156.234,325.255 157.332,325.756 158.272 C 326.257 159.212,327.135 160.795,327.708 161.791 C 328.281 162.787,328.750 163.660,328.750 163.732 C 328.750 163.803,328.971 164.188,329.240 164.587 C 329.510 164.986,330.319 166.391,331.040 167.708 C 333.127 171.527,333.240 171.729,333.738 172.556 C 334.655 174.075,337.235 173.960,302.631 173.944 C 285.543 173.936,271.406 173.865,271.216 173.787 C 271.025 173.710,270.548 173.036,270.156 172.292 C 269.764 171.547,269.228 170.563,268.963 170.104 C 268.160 168.709,267.009 166.676,266.445 165.655 C 265.482 163.910,264.661 162.436,263.122 159.688 C 262.288 158.198,261.400 156.603,261.148 156.143 C 260.895 155.683,260.238 154.513,259.688 153.542 C 259.137 152.571,258.466 151.377,258.197 150.888 C 257.928 150.400,257.488 149.600,257.220 149.112 C 256.951 148.623,256.306 147.475,255.787 146.560 C 254.398 144.113,254.100 143.577,253.290 142.083 C 252.125 139.934,251.429 138.705,250.904 137.869 C 250.636 137.441,250.417 137.035,250.417 136.965 C 250.417 136.895,249.684 135.557,248.788 133.992 C 247.893 132.427,247.095 131.005,247.016 130.833 C 246.936 130.661,246.672 130.193,246.429 129.792 C 246.185 129.391,245.559 128.266,245.037 127.292 C 244.515 126.318,243.637 124.734,243.086 123.772 C 242.534 122.810,242.083 121.943,242.083 121.845 C 242.083 121.747,256.297 121.667,273.711 121.667 L 305.339 121.667 305.761 122.448 M157.916 181.719 C 157.915 181.862,157.711 182.307,157.463 182.708 C 156.998 183.457,156.678 184.032,155.316 186.563 C 154.884 187.365,154.461 188.115,154.376 188.229 C 154.291 188.344,153.938 188.953,153.592 189.583 C 153.246 190.214,152.666 191.245,152.305 191.875 C 151.943 192.505,151.508 193.302,151.338 193.646 C 151.168 193.990,150.860 194.552,150.653 194.896 C 150.285 195.508,149.453 196.990,148.471 198.786 C 148.199 199.282,147.294 200.906,146.460 202.396 C 145.625 203.885,144.734 205.479,144.480 205.938 C 144.225 206.396,143.383 207.896,142.607 209.271 C 141.106 211.930,140.319 213.345,139.286 215.235 C 138.362 216.927,136.393 220.461,136.147 220.868 C 135.851 221.359,135.433 222.108,134.191 224.375 C 133.595 225.464,133.017 226.495,132.909 226.667 C 132.478 227.347,130.324 231.215,129.747 232.344 L 129.134 233.542 97.484 233.542 C 80.076 233.542,65.833 233.471,65.834 233.385 C 65.834 233.299,66.455 232.104,67.214 230.729 C 67.973 229.354,68.849 227.760,69.162 227.188 C 69.475 226.615,70.342 225.068,71.090 223.750 C 73.248 219.947,73.326 219.808,74.639 217.396 C 75.325 216.135,75.956 215.010,76.040 214.896 C 76.241 214.624,77.143 212.996,78.174 211.042 C 78.628 210.182,79.084 209.375,79.188 209.248 C 79.292 209.121,79.720 208.371,80.139 207.582 C 80.558 206.792,81.072 205.865,81.282 205.521 C 81.491 205.177,81.725 204.769,81.800 204.614 C 81.875 204.458,82.545 203.239,83.289 201.905 C 84.033 200.571,84.849 199.103,85.102 198.643 C 85.354 198.183,85.986 197.058,86.505 196.143 C 88.088 193.353,88.366 192.855,89.012 191.667 C 89.354 191.036,90.059 189.772,90.578 188.857 C 91.496 187.239,91.918 186.481,93.041 184.427 C 93.339 183.883,93.736 183.156,93.924 182.813 C 94.744 181.315,91.303 181.458,126.386 181.458 C 151.472 181.458,157.917 181.512,157.916 181.719 M245.833 181.869 C 245.833 182.094,245.633 182.633,245.388 183.067 C 245.144 183.500,244.685 184.323,244.370 184.896 C 244.054 185.469,243.376 186.688,242.863 187.604 C 242.350 188.521,241.668 189.740,241.348 190.313 C 240.723 191.429,240.464 191.890,239.005 194.479 C 238.488 195.396,237.843 196.552,237.572 197.048 C 236.134 199.673,235.765 200.331,235.625 200.521 C 235.477 200.722,234.897 201.763,233.594 204.167 C 232.481 206.219,231.822 207.392,231.663 207.604 C 231.578 207.719,231.231 208.328,230.893 208.958 C 230.192 210.263,229.208 212.053,228.603 213.125 C 228.376 213.526,227.518 215.073,226.695 216.563 C 225.872 218.052,225.060 219.505,224.889 219.792 C 224.719 220.078,224.059 221.250,223.424 222.396 C 222.789 223.542,222.103 224.760,221.899 225.104 C 221.695 225.448,221.080 226.573,220.531 227.604 C 219.982 228.635,219.463 229.573,219.377 229.688 C 219.200 229.925,217.985 232.108,217.550 232.969 L 217.261 233.542 185.596 233.542 L 153.930 233.542 154.076 233.073 C 154.156 232.815,154.382 232.370,154.578 232.083 C 154.774 231.797,155.074 231.281,155.245 230.938 C 155.416 230.594,156.003 229.516,156.551 228.542 C 157.098 227.568,157.831 226.255,158.180 225.625 C 158.530 224.995,159.078 224.010,159.399 223.438 C 159.720 222.865,160.268 221.880,160.617 221.250 C 160.966 220.620,161.545 219.589,161.904 218.958 C 163.097 216.863,163.955 215.327,164.695 213.958 C 165.098 213.214,165.643 212.229,165.906 211.771 C 167.324 209.297,169.529 205.364,170.110 204.271 C 170.476 203.583,171.021 202.599,171.321 202.083 C 171.622 201.568,171.961 200.958,172.074 200.729 C 172.187 200.500,172.557 199.844,172.896 199.271 C 173.494 198.260,173.830 197.653,175.220 195.082 C 175.585 194.407,176.658 192.495,177.604 190.833 C 178.551 189.172,179.605 187.297,179.947 186.667 C 180.289 186.036,180.785 185.146,181.048 184.688 C 181.312 184.229,181.756 183.432,182.034 182.917 C 182.312 182.401,182.636 181.862,182.754 181.719 C 183.176 181.204,245.833 181.353,245.833 181.869 M334.054 181.654 C 334.171 181.842,333.165 183.862,332.156 185.465 C 331.887 185.892,331.667 186.277,331.667 186.321 C 331.667 186.401,331.283 187.094,328.653 191.771 C 327.880 193.146,326.819 195.068,326.296 196.042 C 325.773 197.016,325.179 198.094,324.976 198.438 C 324.548 199.163,322.992 201.901,322.489 202.813 C 321.590 204.441,319.187 208.735,318.759 209.479 C 318.354 210.181,316.742 213.088,314.426 217.292 C 314.141 217.807,313.296 219.307,312.546 220.625 C 311.797 221.943,310.902 223.536,310.558 224.167 C 310.214 224.797,309.274 226.484,308.471 227.917 C 307.667 229.349,306.782 230.943,306.505 231.458 C 306.228 231.974,305.849 232.654,305.664 232.969 L 305.327 233.542 273.705 233.542 C 241.142 233.542,241.565 233.552,242.269 232.802 C 242.372 232.693,242.734 232.089,243.075 231.458 C 243.602 230.485,245.553 226.983,247.021 224.375 C 247.247 223.974,247.741 223.083,248.119 222.396 C 248.496 221.708,248.875 221.052,248.960 220.938 C 249.045 220.823,249.441 220.120,249.841 219.375 C 250.241 218.630,250.783 217.646,251.045 217.188 C 251.307 216.729,252.196 215.135,253.019 213.646 C 253.843 212.156,254.782 210.469,255.105 209.896 C 256.317 207.750,257.897 204.923,259.063 202.813 C 259.380 202.240,259.706 201.677,259.789 201.563 C 259.871 201.448,260.387 200.510,260.936 199.479 C 261.485 198.448,262.108 197.355,262.321 197.051 C 262.534 196.747,262.708 196.448,262.708 196.386 C 262.708 196.325,263.615 194.652,264.724 192.669 C 265.832 190.685,266.946 188.688,267.199 188.229 C 267.453 187.771,268.080 186.646,268.594 185.729 C 269.108 184.813,269.787 183.594,270.104 183.021 C 270.421 182.448,270.773 181.862,270.887 181.719 C 271.143 181.395,333.855 181.331,334.054 181.654 M137.917 250.767 C 138.950 251.175,138.946 251.172,140.038 252.085 C 144.909 256.158,144.287 267.887,139.037 270.964 C 133.772 274.049,127.606 271.465,125.801 265.417 C 125.617 264.802,125.521 263.332,125.521 261.146 C 125.521 257.857,125.653 256.955,126.381 255.281 C 126.538 254.920,126.667 254.535,126.667 254.426 C 126.667 253.966,129.220 251.479,130.152 251.031 C 132.025 250.130,135.962 249.996,137.917 250.767 M175.373 250.755 C 179.252 251.822,181.131 255.151,180.099 259.129 C 179.183 262.663,176.825 264.270,172.195 264.518 L 169.801 264.647 169.744 268.105 L 169.688 271.563 167.708 271.563 L 165.729 271.563 165.675 261.329 C 165.627 252.174,165.656 251.067,165.953 250.820 C 166.685 250.213,173.236 250.168,175.373 250.755 M265.938 250.776 C 269.050 251.738,270.458 253.599,270.593 256.928 C 270.786 261.710,268.088 264.221,262.396 264.553 L 260.104 264.688 260.047 268.177 L 259.990 271.667 258.016 271.667 L 256.042 271.667 256.042 261.262 C 256.042 253.164,256.099 250.822,256.302 250.696 C 257.114 250.191,264.238 250.251,265.938 250.776 M325.400 250.761 C 333.389 252.972,334.265 266.997,326.655 270.839 C 324.356 272.000,316.594 272.542,315.469 271.621 C 315.078 271.301,315.091 250.982,315.481 250.658 C 316.085 250.157,323.494 250.234,325.400 250.761 M279.716 250.576 C 279.847 250.660,280.049 251.057,280.165 251.458 C 280.281 251.859,280.769 253.266,281.248 254.583 C 282.640 258.404,283.729 261.449,284.268 263.021 C 284.543 263.823,285.064 265.276,285.425 266.250 C 285.786 267.224,286.159 268.255,286.254 268.542 C 286.349 268.828,286.622 269.577,286.859 270.205 C 287.097 270.834,287.292 271.420,287.292 271.507 C 287.292 271.595,286.353 271.667,285.205 271.667 L 283.118 271.667 282.814 270.990 C 282.646 270.617,282.247 269.609,281.927 268.750 L 281.344 267.188 278.202 267.130 C 274.663 267.066,274.846 266.990,274.271 268.750 C 274.065 269.380,273.746 270.294,273.563 270.780 L 273.229 271.665 271.184 271.666 C 268.900 271.667,268.982 271.752,269.690 270.104 C 269.838 269.760,270.007 269.292,270.066 269.063 C 270.204 268.522,270.620 267.361,270.972 266.531 C 271.125 266.170,271.250 265.770,271.250 265.643 C 271.250 265.515,271.335 265.248,271.440 265.049 C 271.544 264.850,271.786 264.219,271.977 263.646 C 272.168 263.073,272.401 262.417,272.495 262.188 C 272.588 261.958,272.965 260.927,273.331 259.896 C 273.697 258.865,274.349 257.036,274.779 255.833 C 275.209 254.630,275.728 253.130,275.932 252.500 C 276.569 250.534,276.696 250.416,278.182 250.420 C 278.895 250.422,279.586 250.492,279.716 250.576 M71.535 251.094 C 71.604 251.352,71.662 253.367,71.664 255.573 C 71.667 260.384,71.847 260.656,73.391 258.177 C 73.873 257.404,75.181 255.388,76.297 253.698 L 78.328 250.625 80.532 250.625 C 83.031 250.625,83.102 250.712,81.880 252.292 C 81.570 252.693,80.675 253.958,79.891 255.104 C 79.107 256.250,78.090 257.733,77.631 258.400 C 77.172 259.067,76.533 259.750,76.211 259.916 C 75.438 260.316,75.474 260.836,76.312 261.379 C 76.687 261.622,77.945 263.166,79.113 264.816 C 80.279 266.464,81.757 268.544,82.397 269.437 C 84.110 271.826,84.182 271.667,81.391 271.667 C 79.566 271.667,78.922 271.595,78.713 271.367 C 78.371 270.994,78.390 271.022,73.871 264.475 C 71.905 261.627,71.799 261.758,71.656 267.188 C 71.593 269.594,71.522 271.589,71.500 271.622 C 71.477 271.655,70.544 271.655,69.427 271.622 L 67.396 271.563 67.338 261.563 C 67.268 249.372,67.025 250.625,69.459 250.625 C 71.306 250.625,71.416 250.650,71.535 251.094 M90.208 257.396 C 90.208 264.640,90.245 264.850,91.184 263.025 C 91.969 261.499,96.353 255.003,98.814 251.719 L 99.634 250.625 101.067 250.625 L 102.500 250.625 102.500 261.154 L 102.500 271.682 100.573 271.622 L 98.646 271.563 98.591 264.740 C 98.534 257.661,98.494 257.353,97.827 258.797 C 97.606 259.276,96.442 261.125,95.239 262.907 C 94.037 264.688,92.218 267.388,91.198 268.906 L 89.343 271.667 87.797 271.667 L 86.250 271.667 86.250 261.285 C 86.250 255.575,86.313 250.840,86.389 250.764 C 86.465 250.688,87.356 250.625,88.368 250.625 L 90.208 250.625 90.208 257.396 M110.417 254.896 L 110.521 259.063 114.271 259.063 L 118.021 259.063 118.141 254.896 C 118.206 252.604,118.277 250.702,118.297 250.669 C 118.317 250.636,119.201 250.636,120.260 250.669 L 122.188 250.729 122.188 261.146 L 122.188 271.563 120.330 271.623 C 117.988 271.700,118.132 271.998,118.128 267.044 L 118.125 262.942 117.203 262.804 C 116.015 262.626,111.018 262.762,110.677 262.982 C 110.483 263.107,110.417 264.230,110.417 267.408 L 110.417 271.667 108.438 271.667 L 106.458 271.667 106.458 261.285 C 106.458 255.575,106.524 250.837,106.605 250.756 C 106.685 250.676,107.552 250.637,108.532 250.670 L 110.313 250.729 110.417 254.896 M161.875 261.146 L 161.875 271.667 159.896 271.667 L 157.917 271.667 157.917 263.120 L 157.917 254.573 157.382 254.370 C 156.574 254.062,151.199 254.109,150.770 254.427 C 150.452 254.663,150.413 255.488,150.365 263.125 L 150.313 271.563 148.281 271.622 L 146.250 271.682 146.250 261.292 C 146.250 255.578,146.313 250.840,146.389 250.764 C 146.465 250.688,149.981 250.625,154.201 250.625 L 161.875 250.625 161.875 261.146 M195.373 252.344 L 195.313 254.063 191.474 254.119 C 186.855 254.188,187.083 254.061,187.083 256.571 C 187.083 259.386,186.775 259.167,190.737 259.167 C 194.725 259.167,194.792 259.196,194.792 260.935 C 194.792 262.807,195.000 262.708,191.045 262.708 C 186.808 262.708,187.049 262.533,187.128 265.551 L 187.188 267.813 191.193 267.869 C 195.854 267.935,195.684 267.846,195.582 270.160 L 195.521 271.563 189.219 271.618 L 182.917 271.673 182.917 261.288 C 182.917 255.576,182.979 250.840,183.056 250.764 C 183.132 250.688,185.948 250.625,189.314 250.625 L 195.434 250.625 195.373 252.344 M202.902 251.230 C 203.139 251.563,203.333 251.898,203.333 251.976 C 203.333 252.053,203.880 253.023,204.549 254.131 C 206.908 258.042,208.133 260.193,208.536 261.133 C 208.904 261.992,209.583 262.455,209.583 261.847 C 209.583 261.551,211.213 258.194,212.098 256.667 C 212.821 255.419,213.543 254.128,214.601 252.188 C 215.474 250.589,215.429 250.613,217.396 250.676 L 219.063 250.729 219.117 261.198 L 219.171 271.667 217.177 271.667 L 215.183 271.667 215.248 264.611 C 215.310 257.874,215.296 257.575,214.948 257.976 C 214.747 258.208,214.582 258.547,214.581 258.730 C 214.579 258.913,214.336 259.484,214.040 260.000 C 213.473 260.987,212.437 262.825,211.888 263.819 C 211.709 264.144,211.469 264.566,211.354 264.757 C 211.240 264.948,210.834 265.644,210.453 266.303 C 209.024 268.776,208.710 268.597,205.745 263.615 C 204.419 261.386,203.333 259.432,203.333 259.273 C 203.333 259.113,203.247 258.929,203.141 258.864 C 203.035 258.799,202.887 258.465,202.812 258.123 C 202.584 257.085,202.234 257.386,202.385 258.490 C 202.576 259.891,202.770 270.558,202.616 271.173 C 202.491 271.671,202.447 271.681,200.671 271.623 L 198.854 271.563 198.800 261.354 C 198.770 255.740,198.791 251.029,198.845 250.885 C 199.081 250.271,202.421 250.555,202.902 251.230 M226.957 250.955 C 227.026 251.136,227.083 252.776,227.083 254.600 C 227.083 257.100,227.147 257.923,227.344 257.944 C 227.487 257.959,228.354 257.950,229.271 257.925 C 234.791 257.773,237.500 259.986,237.500 264.646 C 237.500 269.048,235.404 271.272,230.662 271.904 C 228.618 272.176,223.710 271.858,223.181 271.418 C 222.903 271.188,222.772 251.662,223.043 250.955 C 223.145 250.689,223.523 250.625,225.000 250.625 C 226.477 250.625,226.855 250.689,226.957 250.955 M252.604 252.396 L 252.604 254.063 248.542 254.167 L 244.479 254.271 244.479 256.667 L 244.479 259.063 247.902 259.120 C 251.967 259.188,251.875 259.141,251.875 261.167 L 251.875 262.699 248.177 262.756 L 244.479 262.813 244.421 265.365 L 244.362 267.917 248.206 267.917 C 253.048 267.917,252.708 267.765,252.708 269.921 L 252.708 271.673 246.510 271.618 L 240.313 271.563 240.258 261.354 C 240.228 255.740,240.249 251.027,240.305 250.882 C 240.384 250.676,241.738 250.631,246.505 250.674 L 252.604 250.729 252.604 252.396 M299.620 250.677 C 299.640 250.706,299.710 252.604,299.776 254.896 L 299.896 259.063 303.646 259.063 L 307.396 259.063 307.500 254.896 L 307.604 250.729 309.531 250.669 L 311.458 250.609 311.458 261.138 L 311.458 271.667 309.479 271.667 L 307.500 271.667 307.500 267.391 L 307.500 263.115 306.952 262.906 C 306.646 262.790,304.970 262.723,303.150 262.755 L 299.896 262.813 299.781 267.188 C 299.718 269.594,299.647 271.586,299.625 271.615 C 299.602 271.643,298.693 271.667,297.604 271.667 L 295.625 271.667 295.625 261.285 C 295.625 255.575,295.688 250.840,295.764 250.764 C 295.890 250.638,299.535 250.555,299.620 250.677 M133.033 254.061 C 130.562 254.941,129.896 256.420,129.896 261.027 C 129.896 266.467,131.056 268.333,134.434 268.333 C 137.377 268.333,138.951 265.951,138.956 261.488 C 138.963 255.885,136.518 252.819,133.033 254.061 M170.260 253.885 C 169.641 254.020,169.509 260.680,170.121 260.915 C 171.732 261.533,174.825 260.512,175.542 259.125 C 177.117 256.081,174.063 253.051,170.260 253.885 M260.594 253.876 C 259.859 254.100,259.673 260.056,260.381 260.697 C 261.231 261.467,264.459 260.859,265.460 259.741 C 267.986 256.920,264.481 252.696,260.594 253.876 M319.501 254.288 C 319.432 254.469,319.375 257.555,319.375 261.146 C 319.375 264.736,319.432 267.823,319.501 268.004 C 319.695 268.508,322.792 268.463,323.993 267.939 C 328.805 265.838,328.667 255.992,323.803 254.256 C 322.641 253.841,319.664 253.864,319.501 254.288 M278.065 256.250 C 277.999 256.422,277.760 257.359,277.532 258.333 C 277.305 259.307,276.872 260.797,276.569 261.643 C 275.822 263.733,275.835 263.750,278.223 263.750 C 280.565 263.750,280.502 263.864,279.605 261.242 C 279.273 260.272,278.890 258.964,278.753 258.333 C 278.298 256.244,278.191 255.918,278.065 256.250 M227.344 261.805 C 226.983 261.950,226.973 267.723,227.333 268.083 C 227.742 268.492,230.379 268.388,231.402 267.924 C 233.770 266.849,233.796 263.188,231.444 261.972 C 230.876 261.678,227.953 261.559,227.344 261.805 " stroke="none" fill="#fbfbfb" fill-rule="evenodd"></path></g></svg>