<svg id="svg" version="1.1" xmlns="http://www.w3.org/2000/svg" xmlns:xlink="http://www.w3.org/1999/xlink" width="400" height="400" viewBox="0, 0, 400,400"><g id="svgg"><path id="path0" d="M207.188 49.382 C 206.958 49.485,204.380 50.472,201.458 51.575 C 196.376 53.495,189.358 56.157,177.604 60.624 C 165.621 65.179,150.023 71.093,144.743 73.085 L 141.048 74.479 141.045 131.718 L 141.042 188.957 105.643 189.010 L 70.245 189.063 79.428 198.854 C 84.478 204.240,94.193 214.599,101.015 221.875 C 107.838 229.151,113.893 235.604,114.470 236.215 C 115.048 236.826,119.321 241.373,123.966 246.319 L 132.410 255.313 136.726 255.369 L 141.042 255.425 141.042 303.025 C 141.042 337.078,141.106 350.625,141.267 350.625 C 141.449 350.625,155.927 345.313,177.604 337.294 C 179.094 336.742,181.203 335.963,182.292 335.561 C 183.380 335.159,185.161 334.501,186.250 334.099 C 190.965 332.356,194.207 331.160,203.594 327.703 L 207.708 326.188 207.708 290.803 L 207.708 255.418 254.179 255.365 L 300.650 255.313 304.085 247.708 C 305.974 243.526,307.647 239.823,307.803 239.479 C 307.959 239.135,310.115 234.354,312.596 228.854 C 315.076 223.354,317.232 218.573,317.387 218.229 C 317.542 217.885,319.871 212.729,322.562 206.771 C 325.253 200.813,328.169 194.349,329.042 192.407 L 330.628 188.877 330.029 188.240 C 329.700 187.890,319.414 176.214,307.172 162.292 C 294.930 148.370,284.169 136.135,283.258 135.104 C 279.519 130.867,274.705 125.399,249.151 96.354 C 234.432 79.625,221.031 64.395,219.372 62.510 C 213.040 55.316,211.503 53.570,209.598 51.402 C 208.517 50.173,207.627 49.173,207.619 49.181 C 207.611 49.189,207.417 49.279,207.188 49.382 M218.453 162.292 C 224.050 168.651,231.390 176.995,234.764 180.833 C 238.138 184.672,241.136 188.070,241.426 188.385 L 241.953 188.958 224.831 188.958 L 207.708 188.958 207.708 169.539 C 207.708 153.127,207.752 150.166,207.993 150.424 C 208.149 150.592,212.856 155.932,218.453 162.292 " stroke="none" fill="#F0563C" fill-rule="evenodd"></path><path id="path1" d="M0.000 200.000 L 0.000 400.000 200.000 400.000 L 400.000 400.000 400.000 200.000 L 400.000 0.000 200.000 0.000 L 0.000 0.000 0.000 200.000 M209.598 51.402 C 211.503 53.570,213.040 55.316,219.372 62.510 C 221.031 64.395,234.432 79.625,249.151 96.354 C 274.705 125.399,279.519 130.867,283.258 135.104 C 284.169 136.135,294.930 148.370,307.172 162.292 C 319.414 176.214,329.700 187.890,330.029 188.240 L 330.628 188.877 329.042 192.407 C 328.169 194.349,325.253 200.813,322.562 206.771 C 319.871 212.729,317.542 217.885,317.387 218.229 C 317.232 218.573,315.076 223.354,312.596 228.854 C 310.115 234.354,307.959 239.135,307.803 239.479 C 307.647 239.823,305.974 243.526,304.085 247.708 L 300.650 255.313 254.179 255.365 L 207.708 255.418 207.708 290.803 L 207.708 326.188 203.594 327.703 C 194.207 331.160,190.965 332.356,186.250 334.099 C 185.161 334.501,183.380 335.159,182.292 335.561 C 181.203 335.963,179.094 336.742,177.604 337.294 C 155.927 345.313,141.449 350.625,141.267 350.625 C 141.106 350.625,141.042 337.078,141.042 303.025 L 141.042 255.425 136.726 255.369 L 132.410 255.313 123.966 246.319 C 119.321 241.373,115.048 236.826,114.470 236.215 C 113.893 235.604,107.838 229.151,101.015 221.875 C 94.193 214.599,84.478 204.240,79.428 198.854 L 70.245 189.063 105.643 189.010 L 141.042 188.957 141.045 131.718 L 141.048 74.479 144.743 73.085 C 150.023 71.093,165.621 65.179,177.604 60.624 C 189.358 56.157,196.376 53.495,201.458 51.575 C 205.947 49.880,207.534 49.263,207.619 49.181 C 207.627 49.173,208.517 50.173,209.598 51.402 M207.708 169.539 L 207.708 188.958 224.831 188.958 L 241.953 188.958 241.426 188.385 C 241.136 188.070,238.138 184.672,234.764 180.833 C 224.540 169.201,208.295 150.749,207.993 150.424 C 207.752 150.166,207.708 153.127,207.708 169.539 " stroke="none" fill="#FFFFFF" fill-rule="evenodd"></path></g></svg>
