<svg id="svg" version="1.1" xmlns="http://www.w3.org/2000/svg" xmlns:xlink="http://www.w3.org/1999/xlink" width="400" height="400" viewBox="0, 0, 400,400"><g id="svgg"><path id="path0" d="M200.600 59.161 C 175.520 71.684,142.400 88.208,127.000 95.882 C 111.600 103.556,98.505 110.162,97.900 110.563 L 96.800 111.292 96.800 152.859 C 96.800 186.332,96.900 194.463,97.314 194.622 C 97.596 194.731,110.241 188.626,125.414 181.057 C 140.586 173.488,174.376 156.636,200.502 143.609 L 248.004 119.922 247.902 78.261 C 247.801 36.940,247.793 36.599,247.000 36.496 C 246.560 36.439,225.680 46.638,200.600 59.161 M245.200 135.000 C 244.926 135.330,244.526 135.600,244.311 135.600 C 243.791 135.600,174.913 169.941,173.500 170.904 L 172.400 171.654 172.406 263.527 C 172.409 314.057,172.556 355.626,172.731 355.902 C 172.984 356.300,180.789 356.383,210.425 356.302 L 247.800 356.200 247.901 245.300 L 248.001 134.400 246.850 134.400 C 246.216 134.400,245.474 134.670,245.200 135.000 " stroke="none" fill="#fbfafa" fill-rule="evenodd"></path><path id="path1" d="M0.000 200.000 L 0.000 400.000 200.000 400.000 L 400.000 400.000 400.000 200.000 L 400.000 0.000 200.000 0.000 L 0.000 0.000 0.000 200.000 M247.902 78.261 L 248.004 119.922 200.502 143.609 C 174.376 156.636,140.586 173.488,125.414 181.057 C 110.241 188.626,97.596 194.731,97.314 194.622 C 96.900 194.463,96.800 186.332,96.800 152.859 L 96.800 111.292 97.900 110.563 C 98.505 110.162,111.600 103.556,127.000 95.882 C 142.400 88.208,175.520 71.684,200.600 59.161 C 225.680 46.638,246.560 36.439,247.000 36.496 C 247.793 36.599,247.801 36.940,247.902 78.261 M247.901 245.300 L 247.800 356.200 210.425 356.302 C 180.789 356.383,172.984 356.300,172.731 355.902 C 172.556 355.626,172.409 314.057,172.406 263.527 L 172.400 171.654 173.500 170.904 C 174.913 169.941,243.791 135.600,244.311 135.600 C 244.526 135.600,244.926 135.330,245.200 135.000 C 245.474 134.670,246.216 134.400,246.850 134.400 L 248.001 134.400 247.901 245.300 " stroke="none" fill="#c30404" fill-rule="evenodd"></path></g></svg>